  0
SECTION
  2
HEADER
  9
$ACADVER
  1
AC1009
  9
$INSBASE
 10
0.0
 20
0.0
 30
0.0
  9
$EXTMIN
 10
0.0
 20
0.0
 30
0.0
  9
$EXTMAX
 10
0.0
 20
0.0
 30
0.0
  0
ENDSEC
  0
SECTION
  2
TABLES
  0
TABLE
  2
VPORT
 70
0
  0
ENDTAB
  0
TABLE
  2
LTYPE
 70
1
  0
LTYPE
  2
CONTINUOUS
 70
0
  3
Solid line
 72
65
 73
0
 40
0.0
  0
ENDTAB
  0
TABLE
  2
LAYER
 70
1
  0
LAYER
  2
0
 70
64
 62
7
  6
continuous
  0
ENDTAB
  0
TABLE
  2
STYLE
 70
1
  0
STYLE
  2
STANDARD
 70
0
 40
0
 41
1.0
 50
0.0
 71
0
 42
1
 3
ARIAL.TTF
 4

  0
ENDTAB
  0
TABLE
  2
VIEW
 70
0
  0
ENDTAB
  0
ENDSEC
  0
SECTION
  2
BLOCKS
  0
BLOCK
  8
0
  2
SKETCH
 70
0
 10
0.0
 20
0.0
 30
0.0
  3
SKETCH
  0
POLYLINE
  8
0
 62
7
 70
0
 66
1
 10
0.0
 20
0.0
 30
0.0
  0
VERTEX
  8
0
 10
-2.1
 20
0.0
 30
0.0
  0
VERTEX
  8
0
 10
-2.1
 20
0.7
 30
0.0
  0
VERTEX
  8
0
 10
-2.75
 20
0.7
 30
0.0
  0
VERTEX
  8
0
 10
-2.75
 20
1.25
 30
0.0
  0
VERTEX
  8
0
 10
-2.1
 20
1.25
 30
0.0
  0
VERTEX
  8
0
 10
-2.1
 20
2.4
 30
0.0
  0
VERTEX
  8
0
 10
0.0
 20
2.4
 30
0.0
  0
VERTEX
  8
0
 10
2.1
 20
2.4
 30
0.0
  0
VERTEX
  8
0
 10
2.1
 20
1.25
 30
0.0
  0
VERTEX
  8
0
 10
2.75
 20
1.25
 30
0.0
  0
VERTEX
  8
0
 10
2.75
 20
0.7
 30
0.0
  0
VERTEX
  8
0
 10
2.1
 20
0.7
 30
0.0
  0
VERTEX
  8
0
 10
2.1
 20
0.0
 30
0.0
  0
VERTEX
  8
0
 10
-2.1
 20
0.0
 30
0.0
  0
VERTEX
  8
0
 10
-2.2
 20
-0.3
 30
0.0
  0
VERTEX
  8
0
 10
-2.2
 20
-17.6
 30
0.0
  0
VERTEX
  8
0
 10
2.2
 20
-17.6
 30
0.0
  0
VERTEX
  8
0
 10
2.2
 20
-0.30000000000000077
 30
0.0
  0
VERTEX
  8
0
 10
2.1
 20
0.0
 30
0.0
  0
SEQEND
  8
0
  0
POLYLINE
  8
0
 62
7
 70
0
 66
1
 10
0.0
 20
0.0
 30
0.0
  0
VERTEX
  8
0
 10
2.2
 20
-12.950000000000001
 30
0.0
  0
VERTEX
  8
0
 10
-2.2
 20
-12.950000000000001
 30
0.0
  0
SEQEND
  8
0
  0
CIRCLE
  8
0
 62
7
 10
-1.4000000000000001
 20
-2.04
 30
0.0
 40
0.4
  0
POLYLINE
  8
0
 62
7
 70
0
 66
1
 10
0.0
 20
0.0
 30
0.0
  0
VERTEX
  8
0
 10
-2.2
 20
-13.953
 30
0.0
  0
VERTEX
  8
0
 10
0.9499999999999997
 20
-13.953
 30
0.0
  0
VERTEX
  8
0
 10
0.9499999999999997
 20
-16.953
 30
0.0
  0
VERTEX
  8
0
 10
-2.2
 20
-16.953
 30
0.0
  0
SEQEND
  8
0
  0
CIRCLE
  8
0
 62
7
 10
-0.5600000000000006
 20
-15.472999999999999
 30
0.0
 40
1.29
  0
ENDBLK
  0
ENDSEC
  0
SECTION
  2
ENTITIES
  0
INSERT
  2
SKETCH
  8
0
 62
7
 10
0.0
 20
0.0
 30
0.0
  0
ENDSEC
  0
EOF
