%TF.GenerationSoftware,KiCad,Pcbnew,8.0.4*%
%TF.CreationDate,2024-08-23T09:14:10-06:00*%
%TF.ProjectId,SparkFun_BMV080_panelized_v01b,53706172-6b46-4756-9e5f-424d56303830,v01*%
%TF.SameCoordinates,Original*%
%TF.FileFunction,Soldermask,Top*%
%TF.FilePolarity,Negative*%
%FSLAX46Y46*%
G04 Gerber Fmt 4.6, Leading zero omitted, Abs format (unit mm)*
G04 Created by KiCad (PCBNEW 8.0.4) date 2024-08-23 09:14:10*
%MOMM*%
%LPD*%
G01*
G04 APERTURE LIST*
G04 Aperture macros list*
%AMRoundRect*
0 Rectangle with rounded corners*
0 $1 Rounding radius*
0 $2 $3 $4 $5 $6 $7 $8 $9 X,Y pos of 4 corners*
0 Add a 4 corners polygon primitive as box body*
4,1,4,$2,$3,$4,$5,$6,$7,$8,$9,$2,$3,0*
0 Add four circle primitives for the rounded corners*
1,1,$1+$1,$2,$3*
1,1,$1+$1,$4,$5*
1,1,$1+$1,$6,$7*
1,1,$1+$1,$8,$9*
0 Add four rect primitives between the rounded corners*
20,1,$1+$1,$2,$3,$4,$5,0*
20,1,$1+$1,$4,$5,$6,$7,0*
20,1,$1+$1,$6,$7,$8,$9,0*
20,1,$1+$1,$8,$9,$2,$3,0*%
G04 Aperture macros list end*
%ADD10C,0.100000*%
%ADD11RoundRect,0.160000X0.210000X-0.160000X0.210000X0.160000X-0.210000X0.160000X-0.210000X-0.160000X0*%
%ADD12C,1.000000*%
%ADD13C,3.402000*%
%ADD14RoundRect,0.052500X0.357500X-0.122500X0.357500X0.122500X-0.357500X0.122500X-0.357500X-0.122500X0*%
%ADD15RoundRect,0.052500X0.257500X-0.122500X0.257500X0.122500X-0.257500X0.122500X-0.257500X-0.122500X0*%
%ADD16RoundRect,0.060000X0.415000X-0.140000X0.415000X0.140000X-0.415000X0.140000X-0.415000X-0.140000X0*%
%ADD17C,3.000000*%
%ADD18RoundRect,0.165000X-0.195000X0.165000X-0.195000X-0.165000X0.195000X-0.165000X0.195000X0.165000X0*%
%ADD19C,1.803200*%
%ADD20RoundRect,0.165000X0.195000X-0.165000X0.195000X0.165000X-0.195000X0.165000X-0.195000X-0.165000X0*%
%ADD21C,2.082800*%
G04 APERTURE END LIST*
D10*
X51258958Y17886799D02*
X55758222Y17886799D01*
X55758222Y13636420D01*
X51258958Y13636420D01*
X51258958Y17886799D01*
G36*
X51258958Y17886799D02*
G01*
X55758222Y17886799D01*
X55758222Y13636420D01*
X51258958Y13636420D01*
X51258958Y17886799D01*
G37*
X25358958Y17886799D02*
X29858222Y17886799D01*
X29858222Y13636420D01*
X25358958Y13636420D01*
X25358958Y17886799D01*
G36*
X25358958Y17886799D02*
G01*
X29858222Y17886799D01*
X29858222Y13636420D01*
X25358958Y13636420D01*
X25358958Y17886799D01*
G37*
X51258958Y31086799D02*
X55758222Y31086799D01*
X55758222Y26836420D01*
X51258958Y26836420D01*
X51258958Y31086799D01*
G36*
X51258958Y31086799D02*
G01*
X55758222Y31086799D01*
X55758222Y26836420D01*
X51258958Y26836420D01*
X51258958Y31086799D01*
G37*
X25358958Y31086799D02*
X29858222Y31086799D01*
X29858222Y26836420D01*
X25358958Y26836420D01*
X25358958Y31086799D01*
G36*
X25358958Y31086799D02*
G01*
X29858222Y31086799D01*
X29858222Y26836420D01*
X25358958Y26836420D01*
X25358958Y31086799D01*
G37*
D11*
%TO.C,R3*%
X45450000Y23100000D03*
X45450000Y24120000D03*
%TD*%
%TO.C,R4*%
X24630000Y23100000D03*
X24630000Y24120000D03*
%TD*%
D12*
%TO.C,FID2*%
X31430000Y20860000D03*
%TD*%
D13*
%TO.C,ST2*%
X55610000Y9390000D03*
%TD*%
%TO.C,ST1*%
X9390000Y9390000D03*
%TD*%
D11*
%TO.C,R5*%
X48020000Y23100000D03*
X48020000Y24120000D03*
%TD*%
D14*
%TO.C,U1*%
X11725000Y30740000D03*
D15*
X9295000Y30440000D03*
D14*
X11725000Y30140000D03*
D15*
X9295000Y29840000D03*
D14*
X11725000Y29540000D03*
D15*
X9295000Y29240000D03*
D14*
X11725000Y28940000D03*
D15*
X9295000Y28640000D03*
D14*
X11725000Y28340000D03*
D15*
X9295000Y28040000D03*
D14*
X11725000Y27740000D03*
D15*
X9295000Y27440000D03*
D14*
X11725000Y27140000D03*
D16*
X11660000Y26430000D03*
X11660000Y31450000D03*
%TD*%
D17*
%TO.C,*%
X56175000Y36450000D03*
%TD*%
D11*
%TO.C,R4*%
X50530000Y23100000D03*
X50530000Y24120000D03*
%TD*%
%TO.C,R2*%
X40370000Y23100000D03*
X40370000Y24120000D03*
%TD*%
D18*
%TO.C,C2*%
X34050000Y14660000D03*
X34050000Y13700000D03*
%TD*%
D12*
%TO.C,FID2*%
X57330000Y20860000D03*
%TD*%
D11*
%TO.C,R2*%
X14470000Y23100000D03*
X14470000Y24120000D03*
%TD*%
D18*
%TO.C,C2*%
X34050000Y27860000D03*
X34050000Y26900000D03*
%TD*%
D11*
%TO.C,R1*%
X17010000Y9900000D03*
X17010000Y10920000D03*
%TD*%
%TO.C,R2*%
X14470000Y9900000D03*
X14470000Y10920000D03*
%TD*%
D19*
%TO.C,J4*%
X30980000Y13200000D03*
%TD*%
D20*
%TO.C,C1*%
X8150000Y28820000D03*
X8150000Y29780000D03*
%TD*%
D11*
%TO.C,R4*%
X24630000Y9900000D03*
X24630000Y10920000D03*
%TD*%
D19*
%TO.C,J4*%
X30980000Y26400000D03*
%TD*%
D14*
%TO.C,U1*%
X37625000Y17540000D03*
D15*
X35195000Y17240000D03*
D14*
X37625000Y16940000D03*
D15*
X35195000Y16640000D03*
D14*
X37625000Y16340000D03*
D15*
X35195000Y16040000D03*
D14*
X37625000Y15740000D03*
D15*
X35195000Y15440000D03*
D14*
X37625000Y15140000D03*
D15*
X35195000Y14840000D03*
D14*
X37625000Y14540000D03*
D15*
X35195000Y14240000D03*
D14*
X37625000Y13940000D03*
D16*
X37560000Y13230000D03*
X37560000Y18250000D03*
%TD*%
D13*
%TO.C,ST1*%
X9390000Y22590000D03*
%TD*%
D14*
%TO.C,U1*%
X37625000Y30740000D03*
D15*
X35195000Y30440000D03*
D14*
X37625000Y30140000D03*
D15*
X35195000Y29840000D03*
D14*
X37625000Y29540000D03*
D15*
X35195000Y29240000D03*
D14*
X37625000Y28940000D03*
D15*
X35195000Y28640000D03*
D14*
X37625000Y28340000D03*
D15*
X35195000Y28040000D03*
D14*
X37625000Y27740000D03*
D15*
X35195000Y27440000D03*
D14*
X37625000Y27140000D03*
D16*
X37560000Y26430000D03*
X37560000Y31450000D03*
%TD*%
D11*
%TO.C,R1*%
X42910000Y23100000D03*
X42910000Y24120000D03*
%TD*%
D12*
%TO.C,FID4*%
X7650000Y31950000D03*
%TD*%
D11*
%TO.C,R1*%
X17010000Y23100000D03*
X17010000Y24120000D03*
%TD*%
%TO.C,R2*%
X40370000Y9900000D03*
X40370000Y10920000D03*
%TD*%
%TO.C,R1*%
X42910000Y9900000D03*
X42910000Y10920000D03*
%TD*%
D12*
%TO.C,FID2*%
X57330000Y7660000D03*
%TD*%
D20*
%TO.C,C1*%
X8150000Y15620000D03*
X8150000Y16580000D03*
%TD*%
D11*
%TO.C,R5*%
X22120000Y9900000D03*
X22120000Y10920000D03*
%TD*%
D12*
%TO.C,FID2*%
X31430000Y7660000D03*
%TD*%
D17*
%TO.C,*%
X8825000Y3150000D03*
%TD*%
D11*
%TO.C,R5*%
X48020000Y9900000D03*
X48020000Y10920000D03*
%TD*%
D12*
%TO.C,FID4*%
X33550000Y18750000D03*
%TD*%
D11*
%TO.C,R3*%
X45450000Y9900000D03*
X45450000Y10920000D03*
%TD*%
D17*
%TO.C,*%
X8825000Y36450000D03*
%TD*%
D11*
%TO.C,R3*%
X19550000Y23100000D03*
X19550000Y24120000D03*
%TD*%
D14*
%TO.C,U1*%
X11725000Y17540000D03*
D15*
X9295000Y17240000D03*
D14*
X11725000Y16940000D03*
D15*
X9295000Y16640000D03*
D14*
X11725000Y16340000D03*
D15*
X9295000Y16040000D03*
D14*
X11725000Y15740000D03*
D15*
X9295000Y15440000D03*
D14*
X11725000Y15140000D03*
D15*
X9295000Y14840000D03*
D14*
X11725000Y14540000D03*
D15*
X9295000Y14240000D03*
D14*
X11725000Y13940000D03*
D16*
X11660000Y13230000D03*
X11660000Y18250000D03*
%TD*%
D12*
%TO.C,FID4*%
X7650000Y18750000D03*
%TD*%
D11*
%TO.C,R3*%
X19550000Y9900000D03*
X19550000Y10920000D03*
%TD*%
%TO.C,R4*%
X50530000Y9900000D03*
X50530000Y10920000D03*
%TD*%
D13*
%TO.C,ST2*%
X55610000Y22590000D03*
%TD*%
D20*
%TO.C,C1*%
X34050000Y15620000D03*
X34050000Y16580000D03*
%TD*%
D12*
%TO.C,FID4*%
X33550000Y31950000D03*
%TD*%
D13*
%TO.C,ST1*%
X35290000Y9390000D03*
%TD*%
D20*
%TO.C,C1*%
X34050000Y28820000D03*
X34050000Y29780000D03*
%TD*%
D11*
%TO.C,R5*%
X22120000Y23100000D03*
X22120000Y24120000D03*
%TD*%
D19*
%TO.C,J4*%
X56880000Y13200000D03*
%TD*%
D13*
%TO.C,ST2*%
X29710000Y22590000D03*
%TD*%
D19*
%TO.C,J4*%
X56880000Y26400000D03*
%TD*%
D13*
%TO.C,ST2*%
X29710000Y9390000D03*
%TD*%
D18*
%TO.C,C2*%
X8150000Y14660000D03*
X8150000Y13700000D03*
%TD*%
D13*
%TO.C,ST1*%
X35290000Y22590000D03*
%TD*%
D18*
%TO.C,C2*%
X8150000Y27860000D03*
X8150000Y26900000D03*
%TD*%
D21*
%TO.C,J3*%
X39100000Y8120000D03*
X41640000Y8120000D03*
X44180000Y8120000D03*
X46720000Y8120000D03*
X49260000Y8120000D03*
X51800000Y8120000D03*
%TD*%
%TO.C,J3*%
X39100000Y21320000D03*
X41640000Y21320000D03*
X44180000Y21320000D03*
X46720000Y21320000D03*
X49260000Y21320000D03*
X51800000Y21320000D03*
%TD*%
%TO.C,J3*%
X13200000Y21320000D03*
X15740000Y21320000D03*
X18280000Y21320000D03*
X20820000Y21320000D03*
X23360000Y21320000D03*
X25900000Y21320000D03*
%TD*%
%TO.C,J3*%
X13200000Y8120000D03*
X15740000Y8120000D03*
X18280000Y8120000D03*
X20820000Y8120000D03*
X23360000Y8120000D03*
X25900000Y8120000D03*
%TD*%
M02*
