%TF.GenerationSoftware,KiCad,Pcbnew,8.0.4*%
%TF.CreationDate,2024-08-23T09:14:10-06:00*%
%TF.ProjectId,SparkFun_BMV080_panelized_v01b,53706172-6b46-4756-9e5f-424d56303830,v01*%
%TF.SameCoordinates,Original*%
%TF.FileFunction,Copper,L1,Top*%
%TF.FilePolarity,Positive*%
%FSLAX46Y46*%
G04 Gerber Fmt 4.6, Leading zero omitted, Abs format (unit mm)*
G04 Created by KiCad (PCBNEW 8.0.4) date 2024-08-23 09:14:10*
%MOMM*%
%LPD*%
G01*
G04 APERTURE LIST*
G04 Aperture macros list*
%AMRoundRect*
0 Rectangle with rounded corners*
0 $1 Rounding radius*
0 $2 $3 $4 $5 $6 $7 $8 $9 X,Y pos of 4 corners*
0 Add a 4 corners polygon primitive as box body*
4,1,4,$2,$3,$4,$5,$6,$7,$8,$9,$2,$3,0*
0 Add four circle primitives for the rounded corners*
1,1,$1+$1,$2,$3*
1,1,$1+$1,$4,$5*
1,1,$1+$1,$6,$7*
1,1,$1+$1,$8,$9*
0 Add four rect primitives between the rounded corners*
20,1,$1+$1,$2,$3,$4,$5,0*
20,1,$1+$1,$4,$5,$6,$7,0*
20,1,$1+$1,$6,$7,$8,$9,0*
20,1,$1+$1,$8,$9,$2,$3,0*%
G04 Aperture macros list end*
%TA.AperFunction,SMDPad,CuDef*%
%ADD10RoundRect,0.135000X0.185000X-0.135000X0.185000X0.135000X-0.185000X0.135000X-0.185000X-0.135000X0*%
%TD*%
%TA.AperFunction,SMDPad,CuDef*%
%ADD11C,0.500000*%
%TD*%
%TA.AperFunction,SMDPad,CuDef*%
%ADD12RoundRect,0.037500X0.322500X-0.087500X0.322500X0.087500X-0.322500X0.087500X-0.322500X-0.087500X0*%
%TD*%
%TA.AperFunction,SMDPad,CuDef*%
%ADD13RoundRect,0.037500X0.222500X-0.087500X0.222500X0.087500X-0.222500X0.087500X-0.222500X-0.087500X0*%
%TD*%
%TA.AperFunction,SMDPad,CuDef*%
%ADD14RoundRect,0.045000X0.380000X-0.105000X0.380000X0.105000X-0.380000X0.105000X-0.380000X-0.105000X0*%
%TD*%
%TA.AperFunction,SMDPad,CuDef*%
%ADD15C,1.000000*%
%TD*%
%TA.AperFunction,SMDPad,CuDef*%
%ADD16RoundRect,0.140000X-0.170000X0.140000X-0.170000X-0.140000X0.170000X-0.140000X0.170000X0.140000X0*%
%TD*%
%TA.AperFunction,ComponentPad*%
%ADD17C,1.600000*%
%TD*%
%TA.AperFunction,SMDPad,CuDef*%
%ADD18RoundRect,0.140000X0.170000X-0.140000X0.170000X0.140000X-0.170000X0.140000X-0.170000X-0.140000X0*%
%TD*%
%TA.AperFunction,SMDPad,CuDef*%
%ADD19C,1.500000*%
%TD*%
%TA.AperFunction,ComponentPad*%
%ADD20C,1.879600*%
%TD*%
%TA.AperFunction,ViaPad*%
%ADD21C,0.600000*%
%TD*%
%TA.AperFunction,Conductor*%
%ADD22C,0.203200*%
%TD*%
%TA.AperFunction,Conductor*%
%ADD23C,0.200000*%
%TD*%
G04 APERTURE END LIST*
D10*
%TO.P,R3,1*%
%TO.N,SCL*%
X45450000Y23100000D03*
%TO.P,R3,2*%
%TO.N,Net-(JP4-B)*%
X45450000Y24120000D03*
%TD*%
%TO.P,R4,1*%
%TO.N,3.3V*%
X24630000Y23100000D03*
%TO.P,R4,2*%
%TO.N,Net-(JP3-A)*%
X24630000Y24120000D03*
%TD*%
D11*
%TO.P,FID2,*%
%TO.N,*%
X31430000Y20860000D03*
%TD*%
D10*
%TO.P,R5,1*%
%TO.N,SDA*%
X48020000Y23100000D03*
%TO.P,R5,2*%
%TO.N,Net-(JP4-A)*%
X48020000Y24120000D03*
%TD*%
D12*
%TO.P,U1,1,VDDL*%
%TO.N,3.3V*%
X11725000Y30740000D03*
D13*
%TO.P,U1,2,VSSA*%
%TO.N,GND*%
X9295000Y30440000D03*
D12*
%TO.P,U1,3,VDDA*%
%TO.N,3.3V*%
X11725000Y30140000D03*
D13*
%TO.P,U1,4,~{CSB}/AB1*%
%TO.N,AB1*%
X9295000Y29840000D03*
D12*
%TO.P,U1,5,PICO/SDA*%
%TO.N,SDA*%
X11725000Y29540000D03*
D13*
%TO.P,U1,6,SCK/SCL*%
%TO.N,SCL*%
X9295000Y29240000D03*
D12*
%TO.P,U1,7,PS*%
%TO.N,Net-(JP1-C)*%
X11725000Y28940000D03*
D13*
%TO.P,U1,8,VDDIO*%
%TO.N,3.3V*%
X9295000Y28640000D03*
D12*
%TO.P,U1,9,VSSD*%
%TO.N,GND*%
X11725000Y28340000D03*
D13*
%TO.P,U1,10,VDDD*%
%TO.N,3.3V*%
X9295000Y28040000D03*
D12*
%TO.P,U1,11,POCI/AB0*%
%TO.N,AB0*%
X11725000Y27740000D03*
D13*
%TO.P,U1,12,IRQ*%
%TO.N,IRQ*%
X9295000Y27440000D03*
D12*
%TO.P,U1,13,NC*%
%TO.N,unconnected-(U1-NC-Pad13)*%
X11725000Y27140000D03*
D14*
%TO.P,U1,M1*%
%TO.N,N/C*%
X11660000Y26430000D03*
X11660000Y31450000D03*
%TD*%
D15*
%TO.P,,*%
%TO.N,*%
X56175000Y36450000D03*
%TD*%
D10*
%TO.P,R4,1*%
%TO.N,3.3V*%
X50530000Y23100000D03*
%TO.P,R4,2*%
%TO.N,Net-(JP3-A)*%
X50530000Y24120000D03*
%TD*%
%TO.P,R2,1*%
%TO.N,3.3V*%
X40370000Y23100000D03*
%TO.P,R2,2*%
%TO.N,Net-(JP2-A)*%
X40370000Y24120000D03*
%TD*%
D16*
%TO.P,C2,1*%
%TO.N,3.3V*%
X34050000Y14660000D03*
%TO.P,C2,2*%
%TO.N,GND*%
X34050000Y13700000D03*
%TD*%
D11*
%TO.P,FID2,*%
%TO.N,*%
X57330000Y20860000D03*
%TD*%
D10*
%TO.P,R2,1*%
%TO.N,3.3V*%
X14470000Y23100000D03*
%TO.P,R2,2*%
%TO.N,Net-(JP2-A)*%
X14470000Y24120000D03*
%TD*%
D16*
%TO.P,C2,1*%
%TO.N,3.3V*%
X34050000Y27860000D03*
%TO.P,C2,2*%
%TO.N,GND*%
X34050000Y26900000D03*
%TD*%
D10*
%TO.P,R1,1*%
%TO.N,3.3V*%
X17010000Y9900000D03*
%TO.P,R1,2*%
%TO.N,Net-(JP1-A)*%
X17010000Y10920000D03*
%TD*%
%TO.P,R2,1*%
%TO.N,3.3V*%
X14470000Y9900000D03*
%TO.P,R2,2*%
%TO.N,Net-(JP2-A)*%
X14470000Y10920000D03*
%TD*%
D17*
%TO.P,J4,1,Pin_1*%
%TO.N,AB1*%
X30980000Y13200000D03*
%TD*%
D18*
%TO.P,C1,1*%
%TO.N,3.3V*%
X8150000Y28820000D03*
%TO.P,C1,2*%
%TO.N,GND*%
X8150000Y29780000D03*
%TD*%
D10*
%TO.P,R4,1*%
%TO.N,3.3V*%
X24630000Y9900000D03*
%TO.P,R4,2*%
%TO.N,Net-(JP3-A)*%
X24630000Y10920000D03*
%TD*%
D17*
%TO.P,J4,1,Pin_1*%
%TO.N,AB1*%
X30980000Y26400000D03*
%TD*%
D12*
%TO.P,U1,1,VDDL*%
%TO.N,3.3V*%
X37625000Y17540000D03*
D13*
%TO.P,U1,2,VSSA*%
%TO.N,GND*%
X35195000Y17240000D03*
D12*
%TO.P,U1,3,VDDA*%
%TO.N,3.3V*%
X37625000Y16940000D03*
D13*
%TO.P,U1,4,~{CSB}/AB1*%
%TO.N,AB1*%
X35195000Y16640000D03*
D12*
%TO.P,U1,5,PICO/SDA*%
%TO.N,SDA*%
X37625000Y16340000D03*
D13*
%TO.P,U1,6,SCK/SCL*%
%TO.N,SCL*%
X35195000Y16040000D03*
D12*
%TO.P,U1,7,PS*%
%TO.N,Net-(JP1-C)*%
X37625000Y15740000D03*
D13*
%TO.P,U1,8,VDDIO*%
%TO.N,3.3V*%
X35195000Y15440000D03*
D12*
%TO.P,U1,9,VSSD*%
%TO.N,GND*%
X37625000Y15140000D03*
D13*
%TO.P,U1,10,VDDD*%
%TO.N,3.3V*%
X35195000Y14840000D03*
D12*
%TO.P,U1,11,POCI/AB0*%
%TO.N,AB0*%
X37625000Y14540000D03*
D13*
%TO.P,U1,12,IRQ*%
%TO.N,IRQ*%
X35195000Y14240000D03*
D12*
%TO.P,U1,13,NC*%
%TO.N,unconnected-(U1-NC-Pad13)*%
X37625000Y13940000D03*
D14*
%TO.P,U1,M1*%
%TO.N,N/C*%
X37560000Y13230000D03*
X37560000Y18250000D03*
%TD*%
D12*
%TO.P,U1,1,VDDL*%
%TO.N,3.3V*%
X37625000Y30740000D03*
D13*
%TO.P,U1,2,VSSA*%
%TO.N,GND*%
X35195000Y30440000D03*
D12*
%TO.P,U1,3,VDDA*%
%TO.N,3.3V*%
X37625000Y30140000D03*
D13*
%TO.P,U1,4,~{CSB}/AB1*%
%TO.N,AB1*%
X35195000Y29840000D03*
D12*
%TO.P,U1,5,PICO/SDA*%
%TO.N,SDA*%
X37625000Y29540000D03*
D13*
%TO.P,U1,6,SCK/SCL*%
%TO.N,SCL*%
X35195000Y29240000D03*
D12*
%TO.P,U1,7,PS*%
%TO.N,Net-(JP1-C)*%
X37625000Y28940000D03*
D13*
%TO.P,U1,8,VDDIO*%
%TO.N,3.3V*%
X35195000Y28640000D03*
D12*
%TO.P,U1,9,VSSD*%
%TO.N,GND*%
X37625000Y28340000D03*
D13*
%TO.P,U1,10,VDDD*%
%TO.N,3.3V*%
X35195000Y28040000D03*
D12*
%TO.P,U1,11,POCI/AB0*%
%TO.N,AB0*%
X37625000Y27740000D03*
D13*
%TO.P,U1,12,IRQ*%
%TO.N,IRQ*%
X35195000Y27440000D03*
D12*
%TO.P,U1,13,NC*%
%TO.N,unconnected-(U1-NC-Pad13)*%
X37625000Y27140000D03*
D14*
%TO.P,U1,M1*%
%TO.N,N/C*%
X37560000Y26430000D03*
X37560000Y31450000D03*
%TD*%
D10*
%TO.P,R1,1*%
%TO.N,3.3V*%
X42910000Y23100000D03*
%TO.P,R1,2*%
%TO.N,Net-(JP1-A)*%
X42910000Y24120000D03*
%TD*%
D11*
%TO.P,FID4,*%
%TO.N,*%
X7650000Y31950000D03*
%TD*%
D10*
%TO.P,R1,1*%
%TO.N,3.3V*%
X17010000Y23100000D03*
%TO.P,R1,2*%
%TO.N,Net-(JP1-A)*%
X17010000Y24120000D03*
%TD*%
%TO.P,R2,1*%
%TO.N,3.3V*%
X40370000Y9900000D03*
%TO.P,R2,2*%
%TO.N,Net-(JP2-A)*%
X40370000Y10920000D03*
%TD*%
%TO.P,R1,1*%
%TO.N,3.3V*%
X42910000Y9900000D03*
%TO.P,R1,2*%
%TO.N,Net-(JP1-A)*%
X42910000Y10920000D03*
%TD*%
D11*
%TO.P,FID2,*%
%TO.N,*%
X57330000Y7660000D03*
%TD*%
D18*
%TO.P,C1,1*%
%TO.N,3.3V*%
X8150000Y15620000D03*
%TO.P,C1,2*%
%TO.N,GND*%
X8150000Y16580000D03*
%TD*%
D10*
%TO.P,R5,1*%
%TO.N,SDA*%
X22120000Y9900000D03*
%TO.P,R5,2*%
%TO.N,Net-(JP4-A)*%
X22120000Y10920000D03*
%TD*%
D11*
%TO.P,FID2,*%
%TO.N,*%
X31430000Y7660000D03*
%TD*%
D19*
%TO.P,,*%
%TO.N,*%
X8825000Y3150000D03*
%TD*%
D10*
%TO.P,R5,1*%
%TO.N,SDA*%
X48020000Y9900000D03*
%TO.P,R5,2*%
%TO.N,Net-(JP4-A)*%
X48020000Y10920000D03*
%TD*%
D11*
%TO.P,FID4,*%
%TO.N,*%
X33550000Y18750000D03*
%TD*%
D10*
%TO.P,R3,1*%
%TO.N,SCL*%
X45450000Y9900000D03*
%TO.P,R3,2*%
%TO.N,Net-(JP4-B)*%
X45450000Y10920000D03*
%TD*%
D15*
%TO.P,,*%
%TO.N,*%
X8825000Y36450000D03*
%TD*%
D10*
%TO.P,R3,1*%
%TO.N,SCL*%
X19550000Y23100000D03*
%TO.P,R3,2*%
%TO.N,Net-(JP4-B)*%
X19550000Y24120000D03*
%TD*%
D12*
%TO.P,U1,1,VDDL*%
%TO.N,3.3V*%
X11725000Y17540000D03*
D13*
%TO.P,U1,2,VSSA*%
%TO.N,GND*%
X9295000Y17240000D03*
D12*
%TO.P,U1,3,VDDA*%
%TO.N,3.3V*%
X11725000Y16940000D03*
D13*
%TO.P,U1,4,~{CSB}/AB1*%
%TO.N,AB1*%
X9295000Y16640000D03*
D12*
%TO.P,U1,5,PICO/SDA*%
%TO.N,SDA*%
X11725000Y16340000D03*
D13*
%TO.P,U1,6,SCK/SCL*%
%TO.N,SCL*%
X9295000Y16040000D03*
D12*
%TO.P,U1,7,PS*%
%TO.N,Net-(JP1-C)*%
X11725000Y15740000D03*
D13*
%TO.P,U1,8,VDDIO*%
%TO.N,3.3V*%
X9295000Y15440000D03*
D12*
%TO.P,U1,9,VSSD*%
%TO.N,GND*%
X11725000Y15140000D03*
D13*
%TO.P,U1,10,VDDD*%
%TO.N,3.3V*%
X9295000Y14840000D03*
D12*
%TO.P,U1,11,POCI/AB0*%
%TO.N,AB0*%
X11725000Y14540000D03*
D13*
%TO.P,U1,12,IRQ*%
%TO.N,IRQ*%
X9295000Y14240000D03*
D12*
%TO.P,U1,13,NC*%
%TO.N,unconnected-(U1-NC-Pad13)*%
X11725000Y13940000D03*
D14*
%TO.P,U1,M1*%
%TO.N,N/C*%
X11660000Y13230000D03*
X11660000Y18250000D03*
%TD*%
D11*
%TO.P,FID4,*%
%TO.N,*%
X7650000Y18750000D03*
%TD*%
D10*
%TO.P,R3,1*%
%TO.N,SCL*%
X19550000Y9900000D03*
%TO.P,R3,2*%
%TO.N,Net-(JP4-B)*%
X19550000Y10920000D03*
%TD*%
%TO.P,R4,1*%
%TO.N,3.3V*%
X50530000Y9900000D03*
%TO.P,R4,2*%
%TO.N,Net-(JP3-A)*%
X50530000Y10920000D03*
%TD*%
D18*
%TO.P,C1,1*%
%TO.N,3.3V*%
X34050000Y15620000D03*
%TO.P,C1,2*%
%TO.N,GND*%
X34050000Y16580000D03*
%TD*%
D11*
%TO.P,FID4,*%
%TO.N,*%
X33550000Y31950000D03*
%TD*%
D18*
%TO.P,C1,1*%
%TO.N,3.3V*%
X34050000Y28820000D03*
%TO.P,C1,2*%
%TO.N,GND*%
X34050000Y29780000D03*
%TD*%
D10*
%TO.P,R5,1*%
%TO.N,SDA*%
X22120000Y23100000D03*
%TO.P,R5,2*%
%TO.N,Net-(JP4-A)*%
X22120000Y24120000D03*
%TD*%
D17*
%TO.P,J4,1,Pin_1*%
%TO.N,AB1*%
X56880000Y13200000D03*
%TD*%
%TO.P,J4,1,Pin_1*%
%TO.N,AB1*%
X56880000Y26400000D03*
%TD*%
D16*
%TO.P,C2,1*%
%TO.N,3.3V*%
X8150000Y14660000D03*
%TO.P,C2,2*%
%TO.N,GND*%
X8150000Y13700000D03*
%TD*%
%TO.P,C2,1*%
%TO.N,3.3V*%
X8150000Y27860000D03*
%TO.P,C2,2*%
%TO.N,GND*%
X8150000Y26900000D03*
%TD*%
D20*
%TO.P,J3,1,Pin_1*%
%TO.N,IRQ*%
X39100000Y8120000D03*
%TO.P,J3,2,Pin_2*%
%TO.N,AB0*%
X41640000Y8120000D03*
%TO.P,J3,3,Pin_3*%
%TO.N,SCL*%
X44180000Y8120000D03*
%TO.P,J3,4,Pin_4*%
%TO.N,SDA*%
X46720000Y8120000D03*
%TO.P,J3,5,Pin_5*%
%TO.N,3.3V*%
X49260000Y8120000D03*
%TO.P,J3,6,Pin_6*%
%TO.N,GND*%
X51800000Y8120000D03*
%TD*%
%TO.P,J3,1,Pin_1*%
%TO.N,IRQ*%
X39100000Y21320000D03*
%TO.P,J3,2,Pin_2*%
%TO.N,AB0*%
X41640000Y21320000D03*
%TO.P,J3,3,Pin_3*%
%TO.N,SCL*%
X44180000Y21320000D03*
%TO.P,J3,4,Pin_4*%
%TO.N,SDA*%
X46720000Y21320000D03*
%TO.P,J3,5,Pin_5*%
%TO.N,3.3V*%
X49260000Y21320000D03*
%TO.P,J3,6,Pin_6*%
%TO.N,GND*%
X51800000Y21320000D03*
%TD*%
%TO.P,J3,1,Pin_1*%
%TO.N,IRQ*%
X13200000Y21320000D03*
%TO.P,J3,2,Pin_2*%
%TO.N,AB0*%
X15740000Y21320000D03*
%TO.P,J3,3,Pin_3*%
%TO.N,SCL*%
X18280000Y21320000D03*
%TO.P,J3,4,Pin_4*%
%TO.N,SDA*%
X20820000Y21320000D03*
%TO.P,J3,5,Pin_5*%
%TO.N,3.3V*%
X23360000Y21320000D03*
%TO.P,J3,6,Pin_6*%
%TO.N,GND*%
X25900000Y21320000D03*
%TD*%
%TO.P,J3,1,Pin_1*%
%TO.N,IRQ*%
X13200000Y8120000D03*
%TO.P,J3,2,Pin_2*%
%TO.N,AB0*%
X15740000Y8120000D03*
%TO.P,J3,3,Pin_3*%
%TO.N,SCL*%
X18280000Y8120000D03*
%TO.P,J3,4,Pin_4*%
%TO.N,SDA*%
X20820000Y8120000D03*
%TO.P,J3,5,Pin_5*%
%TO.N,3.3V*%
X23360000Y8120000D03*
%TO.P,J3,6,Pin_6*%
%TO.N,GND*%
X25900000Y8120000D03*
%TD*%
D21*
%TO.N,AB0*%
X15029680Y25361300D03*
X15029680Y12161300D03*
X40929680Y25361300D03*
X40929680Y12161300D03*
%TO.N,GND*%
X33400000Y17340000D03*
X24630000Y12946000D03*
X8790000Y11520000D03*
X10440000Y18200000D03*
X37470000Y8820000D03*
X23360000Y17010000D03*
X54340000Y17010000D03*
X18540000Y26110000D03*
X24630000Y15740000D03*
X38390000Y25690000D03*
X7500000Y17340000D03*
X46673200Y10350484D03*
X12490000Y25690000D03*
X27170000Y15740000D03*
X47990000Y14470000D03*
X11570000Y8820000D03*
X47990000Y27670000D03*
X23360000Y31734000D03*
X51800000Y18534000D03*
X49260000Y31734000D03*
X47990000Y26146000D03*
X39419596Y13181196D03*
X51800000Y27670000D03*
X43160000Y28950000D03*
X23360000Y15740000D03*
X39419596Y26381196D03*
X47990000Y31734000D03*
X22090000Y15740000D03*
X47990000Y30210000D03*
X53070000Y18534000D03*
X53070000Y14470000D03*
X43160000Y15750000D03*
X9840000Y12340000D03*
X50530000Y12946000D03*
X12783065Y14890690D03*
X49260000Y12946000D03*
X47990000Y15740000D03*
X20773200Y23550484D03*
X28440000Y28940000D03*
X51800000Y15740000D03*
X27170000Y18534000D03*
X44440000Y12910000D03*
X54340000Y31734000D03*
X47990000Y18534000D03*
X23360000Y12946000D03*
X35740000Y12340000D03*
X8790000Y24720000D03*
X50530000Y27670000D03*
X41670149Y15113429D03*
X21860000Y11880000D03*
X28440000Y30210000D03*
X35740000Y25540000D03*
X22090000Y30210000D03*
X28440000Y12946000D03*
X25900000Y15740000D03*
X22090000Y17010000D03*
X53070000Y26146000D03*
X28440000Y17010000D03*
X50530000Y30210000D03*
X12190000Y18890000D03*
X22090000Y27670000D03*
X51800000Y28940000D03*
X51800000Y12946000D03*
X28440000Y18534000D03*
X23360000Y18534000D03*
X34690000Y11520000D03*
X22090000Y14470000D03*
X24630000Y14470000D03*
X27170000Y17010000D03*
X17260000Y28950000D03*
X22090000Y28940000D03*
X25900000Y18534000D03*
X50530000Y26146000D03*
X38683065Y14890690D03*
X24630000Y31734000D03*
X44440000Y26110000D03*
X12490000Y12490000D03*
X51800000Y17010000D03*
X50530000Y18534000D03*
X9840000Y25540000D03*
X11570000Y22020000D03*
X28440000Y26146000D03*
X47760000Y11880000D03*
X49260000Y15740000D03*
X12190000Y32090000D03*
X27170000Y30210000D03*
X16310000Y18850000D03*
X12783065Y28090690D03*
X23360000Y14470000D03*
X51800000Y26146000D03*
X25900000Y26146000D03*
X24630000Y28940000D03*
X38390000Y12490000D03*
X20773200Y10350484D03*
X34690000Y24720000D03*
X38090000Y32090000D03*
X42210000Y32050000D03*
X24630000Y27670000D03*
X41670149Y28313429D03*
X25900000Y31734000D03*
X54340000Y14470000D03*
X25900000Y30210000D03*
X36340000Y18200000D03*
X27170000Y27670000D03*
X38683065Y28090690D03*
X49260000Y14470000D03*
X53070000Y12946000D03*
X49260000Y30210000D03*
X54340000Y30210000D03*
X24630000Y18534000D03*
X51800000Y31734000D03*
X47990000Y17010000D03*
X50530000Y17010000D03*
X27170000Y26146000D03*
X22090000Y26146000D03*
X23360000Y27670000D03*
X25900000Y28940000D03*
X27170000Y31734000D03*
X27170000Y28940000D03*
X49260000Y18534000D03*
X22090000Y31734000D03*
X10440000Y31400000D03*
X49260000Y26146000D03*
X54340000Y18534000D03*
X33400000Y30540000D03*
X28440000Y14470000D03*
X47990000Y28940000D03*
X51800000Y14470000D03*
X28440000Y15740000D03*
X24630000Y26146000D03*
X54340000Y15740000D03*
X13519596Y26381196D03*
X25900000Y27670000D03*
X53070000Y31734000D03*
X23360000Y28940000D03*
X50530000Y28940000D03*
X53070000Y30210000D03*
X47760000Y25080000D03*
X24630000Y30210000D03*
X28440000Y27670000D03*
X53070000Y28940000D03*
X22090000Y18534000D03*
X49260000Y17010000D03*
X46673200Y23550484D03*
X53070000Y17010000D03*
X49260000Y28940000D03*
X54340000Y26146000D03*
X15770149Y15113429D03*
X50530000Y15740000D03*
X50530000Y14470000D03*
X53070000Y27670000D03*
X42210000Y18850000D03*
X50530000Y31734000D03*
X18540000Y12910000D03*
X49260000Y27670000D03*
X16310000Y32050000D03*
X22090000Y12946000D03*
X51800000Y30210000D03*
X15770149Y28313429D03*
X27170000Y14470000D03*
X28440000Y31734000D03*
X27170000Y12946000D03*
X53070000Y15740000D03*
X54340000Y28940000D03*
X54340000Y12946000D03*
X25900000Y14470000D03*
X21860000Y25080000D03*
X36340000Y31400000D03*
X17260000Y15750000D03*
X47990000Y12946000D03*
X54340000Y27670000D03*
X38090000Y18890000D03*
X23360000Y26146000D03*
X23360000Y30210000D03*
X24630000Y17010000D03*
X25900000Y17010000D03*
X25900000Y12946000D03*
X7500000Y30540000D03*
X37470000Y22020000D03*
X13519596Y13181196D03*
%TO.N,Net-(JP1-C)*%
X15752000Y15913225D03*
X41652000Y29113225D03*
X15752000Y29113225D03*
X41652000Y15913225D03*
X43952462Y29069121D03*
X18052462Y15869121D03*
X18052462Y29069121D03*
X39368400Y28686000D03*
X13468400Y15486000D03*
X13468400Y28686000D03*
X39368400Y15486000D03*
X43952462Y15869121D03*
%TO.N,AB1*%
X22020000Y22210000D03*
X23832851Y10225699D03*
X47920000Y22210000D03*
X38330000Y11600000D03*
X12430000Y24800000D03*
X49732851Y10225699D03*
X47920000Y9010000D03*
X12430000Y11600000D03*
X38330000Y24800000D03*
X49732851Y23425699D03*
X23832851Y23425699D03*
X22020000Y9010000D03*
%TO.N,Net-(JP1-A)*%
X43990000Y15070000D03*
X43990000Y28270000D03*
X18090000Y28270000D03*
X18090000Y15070000D03*
%TO.N,Net-(JP2-A)*%
X40392592Y24768392D03*
X40392592Y11568392D03*
X14492592Y11568392D03*
X14492592Y24768392D03*
%TO.N,SDA*%
X39448398Y14030000D03*
X39448398Y27230000D03*
X13548398Y27230000D03*
X13548398Y14030000D03*
%TO.N,SCL*%
X9870000Y13140000D03*
X35770000Y26340000D03*
X9870000Y26340000D03*
X35770000Y13140000D03*
%TO.N,3.3V*%
X12409266Y30943029D03*
X41610000Y11540000D03*
X44010000Y13780000D03*
X18110000Y26980000D03*
X34050000Y28330000D03*
X17660000Y25150000D03*
X18110000Y13780000D03*
X38309266Y17743029D03*
X41610000Y24740000D03*
X15710000Y11540000D03*
X8150000Y15130000D03*
X34050000Y15130000D03*
X43560000Y11950000D03*
X44010000Y26980000D03*
X17660000Y11950000D03*
X15710000Y24740000D03*
X38309266Y30943029D03*
X8150000Y28330000D03*
X12409266Y17743029D03*
X43560000Y25150000D03*
%TO.N,Net-(JP3-A)*%
X24640000Y11360000D03*
X24640000Y24560000D03*
X50540000Y11360000D03*
X50540000Y24560000D03*
%TO.N,Net-(JP4-A)*%
X19916666Y16234998D03*
X19916666Y29434998D03*
X45816666Y16234998D03*
X45816666Y29434998D03*
%TO.N,Net-(JP4-B)*%
X45460000Y12260000D03*
X19560000Y25460000D03*
X45460000Y25460000D03*
X19560000Y12260000D03*
%TD*%
D22*
%TO.N,AB0*%
X15740000Y22450000D02*
X15740000Y21320000D01*
X11725000Y14540000D02*
X12015600Y14540000D01*
X14620980Y25770000D02*
X15029680Y25361300D01*
X16311600Y23021600D02*
X15740000Y22450000D01*
X38286600Y27369000D02*
X38286600Y26663400D01*
X12015600Y14540000D02*
X12386600Y14169000D01*
X16058700Y12161300D02*
X16311600Y11908400D01*
X11725000Y27740000D02*
X12015600Y27740000D01*
X40929680Y12161300D02*
X41958700Y12161300D01*
X12386600Y14169000D02*
X12386600Y13463400D01*
X39180000Y12570000D02*
X40520980Y12570000D01*
X16311600Y9821600D02*
X15740000Y9250000D01*
X40929680Y25361300D02*
X41958700Y25361300D01*
X12015600Y27740000D02*
X12386600Y27369000D01*
X14620980Y12570000D02*
X15029680Y12161300D01*
X12386600Y26663400D02*
X13280000Y25770000D01*
X16311600Y11908400D02*
X16311600Y9821600D01*
X41640000Y22450000D02*
X41640000Y21320000D01*
X12386600Y13463400D02*
X13280000Y12570000D01*
X37915600Y14540000D02*
X38286600Y14169000D01*
X40520980Y12570000D02*
X40929680Y12161300D01*
X12386600Y27369000D02*
X12386600Y26663400D01*
X39180000Y25770000D02*
X40520980Y25770000D01*
X42211600Y11908400D02*
X42211600Y9821600D01*
X13280000Y12570000D02*
X14620980Y12570000D01*
X15029680Y12161300D02*
X16058700Y12161300D01*
X41958700Y25361300D02*
X42211600Y25108400D01*
X15740000Y9250000D02*
X15740000Y8120000D01*
X37625000Y14540000D02*
X37915600Y14540000D01*
X16311600Y25108400D02*
X16311600Y23021600D01*
X38286600Y26663400D02*
X39180000Y25770000D01*
X38286600Y14169000D02*
X38286600Y13463400D01*
X37915600Y27740000D02*
X38286600Y27369000D01*
X15029680Y25361300D02*
X16058700Y25361300D01*
X41958700Y12161300D02*
X42211600Y11908400D01*
X42211600Y25108400D02*
X42211600Y23021600D01*
X37625000Y27740000D02*
X37915600Y27740000D01*
X13280000Y25770000D02*
X14620980Y25770000D01*
X40520980Y25770000D02*
X40929680Y25361300D01*
X42211600Y23021600D02*
X41640000Y22450000D01*
X16058700Y25361300D02*
X16311600Y25108400D01*
X38286600Y13463400D02*
X39180000Y12570000D01*
X42211600Y9821600D02*
X41640000Y9250000D01*
X41640000Y9250000D02*
X41640000Y8120000D01*
%TO.N,GND*%
X38433755Y15140000D02*
X37625000Y15140000D01*
X12783065Y14890690D02*
X12533755Y15140000D01*
X35195000Y30440000D02*
X33500000Y30440000D01*
X7600000Y30440000D02*
X7500000Y30540000D01*
X9295000Y30440000D02*
X7600000Y30440000D01*
X11725000Y15140000D02*
X10900000Y15140000D01*
X9295000Y17240000D02*
X7600000Y17240000D01*
X38433755Y28340000D02*
X37625000Y28340000D01*
X35195000Y17240000D02*
X33500000Y17240000D01*
X35195000Y17240000D02*
X35907955Y17240000D01*
X12533755Y15140000D02*
X11725000Y15140000D01*
X37625000Y15140000D02*
X36800000Y15140000D01*
X11725000Y28340000D02*
X10900000Y28340000D01*
X35195000Y30440000D02*
X35907955Y30440000D01*
X33500000Y17240000D02*
X33400000Y17340000D01*
X9295000Y17240000D02*
X10007955Y17240000D01*
X37625000Y28340000D02*
X36800000Y28340000D01*
X7600000Y17240000D02*
X7500000Y17340000D01*
X12783065Y28090690D02*
X12533755Y28340000D01*
X12533755Y28340000D02*
X11725000Y28340000D01*
X33500000Y30440000D02*
X33400000Y30540000D01*
X9295000Y30440000D02*
X10007955Y30440000D01*
X38683065Y14890690D02*
X38433755Y15140000D01*
X38683065Y28090690D02*
X38433755Y28340000D01*
%TO.N,Net-(JP1-C)*%
X43761600Y29069121D02*
X43952462Y29069121D01*
X17861600Y15999191D02*
X17861600Y15869121D01*
X42090375Y29551600D02*
X43409191Y29551600D01*
X43761600Y29199191D02*
X43761600Y29069121D01*
X16190375Y16351600D02*
X17509191Y16351600D01*
X17861600Y15869121D02*
X18052462Y15869121D01*
X17861600Y29199191D02*
X17861600Y29069121D01*
X13214400Y28940000D02*
X11725000Y28940000D01*
X42090375Y16351600D02*
X43409191Y16351600D01*
X17509191Y16351600D02*
X17861600Y15999191D01*
X43409191Y16351600D02*
X43761600Y15999191D01*
X16190375Y29551600D02*
X17509191Y29551600D01*
X13214400Y15740000D02*
X11725000Y15740000D01*
X41652000Y29113225D02*
X42090375Y29551600D01*
X17861600Y29069121D02*
X18052462Y29069121D01*
X39368400Y15486000D02*
X39114400Y15740000D01*
X39114400Y15740000D02*
X37625000Y15740000D01*
X39114400Y28940000D02*
X37625000Y28940000D01*
X43761600Y15869121D02*
X43952462Y15869121D01*
X39368400Y28686000D02*
X39114400Y28940000D01*
X43761600Y15999191D02*
X43761600Y15869121D01*
X15752000Y29113225D02*
X16190375Y29551600D01*
X13468400Y28686000D02*
X13214400Y28940000D01*
X43409191Y29551600D02*
X43761600Y29199191D01*
X13468400Y15486000D02*
X13214400Y15740000D01*
X15752000Y15913225D02*
X16190375Y16351600D01*
X17509191Y29551600D02*
X17861600Y29199191D01*
X41652000Y15913225D02*
X42090375Y16351600D01*
%TO.N,AB1*%
X9630210Y29840000D02*
X10259800Y29210410D01*
X48071188Y9010000D02*
X47920000Y9010000D01*
X23386887Y23425699D02*
X22171188Y22210000D01*
X9295000Y16640000D02*
X9630210Y16640000D01*
X11590000Y11600000D02*
X12430000Y11600000D01*
X48071188Y22210000D02*
X47920000Y22210000D01*
X10259800Y13600991D02*
X10471600Y13389191D01*
X36159800Y13600991D02*
X36371600Y13389191D01*
X36159800Y16010410D02*
X36159800Y13600991D01*
X22171188Y22210000D02*
X22020000Y22210000D01*
X10471600Y26589191D02*
X10471600Y25918400D01*
X35530210Y29840000D02*
X36159800Y29210410D01*
X36371600Y13389191D02*
X36371600Y12718400D01*
X35530210Y16640000D02*
X36159800Y16010410D01*
X49286887Y10225699D02*
X48071188Y9010000D01*
X35195000Y29840000D02*
X35530210Y29840000D01*
X10471600Y13389191D02*
X10471600Y12718400D01*
X49732851Y23425699D02*
X49286887Y23425699D01*
X49732851Y10225699D02*
X49286887Y10225699D01*
X37490000Y11600000D02*
X38330000Y11600000D01*
X9630210Y16640000D02*
X10259800Y16010410D01*
X37490000Y24800000D02*
X38330000Y24800000D01*
X9295000Y29840000D02*
X9630210Y29840000D01*
X11590000Y24800000D02*
X12430000Y24800000D01*
X23832851Y23425699D02*
X23386887Y23425699D01*
X36159800Y29210410D02*
X36159800Y26800991D01*
X10259800Y16010410D02*
X10259800Y13600991D01*
X10259800Y29210410D02*
X10259800Y26800991D01*
X36159800Y26800991D02*
X36371600Y26589191D01*
X36371600Y26589191D02*
X36371600Y25918400D01*
X10471600Y25918400D02*
X11590000Y24800000D01*
X36371600Y12718400D02*
X37490000Y11600000D01*
X36371600Y25918400D02*
X37490000Y24800000D01*
X10259800Y26800991D02*
X10471600Y26589191D01*
X49286887Y23425699D02*
X48071188Y22210000D01*
X23832851Y10225699D02*
X23386887Y10225699D01*
X22171188Y9010000D02*
X22020000Y9010000D01*
X35195000Y16640000D02*
X35530210Y16640000D01*
X23386887Y10225699D02*
X22171188Y9010000D01*
X10471600Y12718400D02*
X11590000Y11600000D01*
%TO.N,Net-(JP1-A)*%
X43970000Y15070000D02*
X42910000Y14010000D01*
X18090000Y28270000D02*
X18070000Y28270000D01*
X42910000Y14010000D02*
X42910000Y10920000D01*
X18070000Y28270000D02*
X17010000Y27210000D01*
X42910000Y27210000D02*
X42910000Y24120000D01*
X18070000Y15070000D02*
X17010000Y14010000D01*
X17010000Y27210000D02*
X17010000Y24120000D01*
X17010000Y14010000D02*
X17010000Y10920000D01*
X43990000Y28270000D02*
X43970000Y28270000D01*
X43990000Y15070000D02*
X43970000Y15070000D01*
X43970000Y28270000D02*
X42910000Y27210000D01*
X18090000Y15070000D02*
X18070000Y15070000D01*
D23*
%TO.N,Net-(JP2-A)*%
X14470000Y10920000D02*
X14470000Y11545800D01*
X40370000Y24120000D02*
X40370000Y24745800D01*
X40370000Y11545800D02*
X40392592Y11568392D01*
X14470000Y24745800D02*
X14492592Y24768392D01*
X40370000Y10920000D02*
X40370000Y11545800D01*
X40370000Y24745800D02*
X40392592Y24768392D01*
X14470000Y11545800D02*
X14492592Y11568392D01*
X14470000Y24120000D02*
X14470000Y24745800D01*
D22*
%TO.N,SDA*%
X14070000Y28994103D02*
X13524103Y29540000D01*
X39424103Y29540000D02*
X37625000Y29540000D01*
X22050000Y9900000D02*
X22120000Y9900000D01*
X39424103Y16340000D02*
X37625000Y16340000D01*
X22050000Y23100000D02*
X22120000Y23100000D01*
X20820000Y8670000D02*
X22050000Y9900000D01*
X39448398Y14030000D02*
X39970000Y14551602D01*
X13548398Y27230000D02*
X14070000Y27751602D01*
X47950000Y23100000D02*
X48020000Y23100000D01*
X14070000Y15794103D02*
X13524103Y16340000D01*
X46720000Y8670000D02*
X47950000Y9900000D01*
X14070000Y14551602D02*
X14070000Y15794103D01*
X14070000Y27751602D02*
X14070000Y28994103D01*
X39970000Y28994103D02*
X39424103Y29540000D01*
X13524103Y16340000D02*
X11725000Y16340000D01*
X13524103Y29540000D02*
X11725000Y29540000D01*
X46720000Y8120000D02*
X46720000Y8670000D01*
X46720000Y21320000D02*
X46720000Y21870000D01*
X20820000Y21320000D02*
X20820000Y21870000D01*
X20820000Y8120000D02*
X20820000Y8670000D01*
X13548398Y14030000D02*
X14070000Y14551602D01*
X39970000Y27751602D02*
X39970000Y28994103D01*
X39970000Y15794103D02*
X39424103Y16340000D01*
X20820000Y21870000D02*
X22050000Y23100000D01*
X39970000Y14551602D02*
X39970000Y15794103D01*
X47950000Y9900000D02*
X48020000Y9900000D01*
X46720000Y21870000D02*
X47950000Y23100000D01*
X39448398Y27230000D02*
X39970000Y27751602D01*
%TO.N,SCL*%
X9660000Y16040000D02*
X9820000Y15880000D01*
X9856600Y13153400D02*
X9870000Y13140000D01*
X9820000Y29080000D02*
X9856600Y29043400D01*
X35560000Y29240000D02*
X35720000Y29080000D01*
X9856600Y26353400D02*
X9870000Y26340000D01*
X35195000Y16040000D02*
X35560000Y16040000D01*
X44180000Y8120000D02*
X45450000Y9390000D01*
X35756600Y29043400D02*
X35756600Y26353400D01*
X35756600Y26353400D02*
X35770000Y26340000D01*
X9295000Y29240000D02*
X9660000Y29240000D01*
X35756600Y15843400D02*
X35756600Y13153400D01*
X45450000Y22590000D02*
X45450000Y23100000D01*
X18280000Y21320000D02*
X19550000Y22590000D01*
X35560000Y16040000D02*
X35720000Y15880000D01*
X35720000Y29080000D02*
X35756600Y29043400D01*
X18280000Y8120000D02*
X19550000Y9390000D01*
X35720000Y15880000D02*
X35756600Y15843400D01*
X9820000Y15880000D02*
X9856600Y15843400D01*
X9295000Y16040000D02*
X9660000Y16040000D01*
X19550000Y9390000D02*
X19550000Y9900000D01*
X9856600Y15843400D02*
X9856600Y13153400D01*
X19550000Y22590000D02*
X19550000Y23100000D01*
X9660000Y29240000D02*
X9820000Y29080000D01*
X35756600Y13153400D02*
X35770000Y13140000D01*
X35195000Y29240000D02*
X35560000Y29240000D01*
X9856600Y29043400D02*
X9856600Y26353400D01*
X45450000Y9390000D02*
X45450000Y9900000D01*
X44180000Y21320000D02*
X45450000Y22590000D01*
%TO.N,3.3V*%
X43560000Y13330000D02*
X44010000Y13780000D01*
D23*
X17010000Y9900000D02*
X17660000Y10550000D01*
X42910000Y23100000D02*
X43560000Y23750000D01*
D22*
X12409266Y30319266D02*
X12230000Y30140000D01*
D23*
X35195000Y28640000D02*
X34230000Y28640000D01*
X9295000Y28640000D02*
X8330000Y28640000D01*
D22*
X43560000Y25150000D02*
X43560000Y26530000D01*
X43560000Y26530000D02*
X44010000Y26980000D01*
D23*
X35195000Y14840000D02*
X34230000Y14840000D01*
D22*
X38309266Y17743029D02*
X38309266Y17119266D01*
D23*
X8150000Y15130000D02*
X8150000Y15620000D01*
X34230000Y28640000D02*
X34050000Y28820000D01*
X8150000Y28330000D02*
X8150000Y28820000D01*
X17660000Y23750000D02*
X17660000Y25150000D01*
D22*
X38309266Y17743029D02*
X38309266Y17637542D01*
D23*
X41610000Y24340000D02*
X41610000Y24740000D01*
D22*
X38309266Y17119266D02*
X38130000Y16940000D01*
X12409266Y17743029D02*
X12409266Y17637542D01*
D23*
X40370000Y9900000D02*
X41610000Y11140000D01*
D22*
X12409266Y17743029D02*
X12409266Y17119266D01*
D23*
X8330000Y15440000D02*
X8150000Y15620000D01*
D22*
X12230000Y16940000D02*
X11725000Y16940000D01*
X43560000Y11950000D02*
X43560000Y13330000D01*
X38130000Y16940000D02*
X37625000Y16940000D01*
X12409266Y30837542D02*
X12311724Y30740000D01*
D23*
X8330000Y28040000D02*
X8150000Y27860000D01*
D22*
X17660000Y25150000D02*
X17660000Y26530000D01*
D23*
X35195000Y28040000D02*
X34230000Y28040000D01*
D22*
X12409266Y17637542D02*
X12311724Y17540000D01*
X24630000Y9390000D02*
X24630000Y9900000D01*
D23*
X15710000Y11140000D02*
X15710000Y11540000D01*
X40370000Y23100000D02*
X41610000Y24340000D01*
D22*
X12311724Y17540000D02*
X11725000Y17540000D01*
X17660000Y26530000D02*
X18110000Y26980000D01*
D23*
X9295000Y14840000D02*
X8330000Y14840000D01*
X35195000Y15440000D02*
X34230000Y15440000D01*
X8150000Y28820000D02*
X8150000Y27860000D01*
X34050000Y15620000D02*
X34050000Y14660000D01*
D22*
X38309266Y30943029D02*
X38309266Y30837542D01*
X38309266Y30943029D02*
X38309266Y30319266D01*
D23*
X8330000Y28640000D02*
X8150000Y28820000D01*
X43560000Y23750000D02*
X43560000Y25150000D01*
D22*
X50530000Y22590000D02*
X50530000Y23100000D01*
D23*
X34050000Y28820000D02*
X34050000Y27860000D01*
X34230000Y15440000D02*
X34050000Y15620000D01*
D22*
X38211724Y30740000D02*
X37625000Y30740000D01*
D23*
X17010000Y23100000D02*
X17660000Y23750000D01*
D22*
X23360000Y21320000D02*
X24630000Y22590000D01*
D23*
X34230000Y14840000D02*
X34050000Y14660000D01*
D22*
X12230000Y30140000D02*
X11725000Y30140000D01*
X49260000Y8120000D02*
X50530000Y9390000D01*
X38130000Y30140000D02*
X37625000Y30140000D01*
D23*
X42910000Y9900000D02*
X43560000Y10550000D01*
X9295000Y28040000D02*
X8330000Y28040000D01*
D22*
X12311724Y30740000D02*
X11725000Y30740000D01*
X12409266Y17119266D02*
X12230000Y16940000D01*
D23*
X43560000Y10550000D02*
X43560000Y11950000D01*
D22*
X17660000Y13330000D02*
X18110000Y13780000D01*
X49260000Y21320000D02*
X50530000Y22590000D01*
X24630000Y22590000D02*
X24630000Y23100000D01*
D23*
X9295000Y15440000D02*
X8330000Y15440000D01*
D22*
X12409266Y30943029D02*
X12409266Y30319266D01*
D23*
X8330000Y14840000D02*
X8150000Y14660000D01*
X34230000Y28040000D02*
X34050000Y27860000D01*
X17660000Y10550000D02*
X17660000Y11950000D01*
D22*
X12409266Y30943029D02*
X12409266Y30837542D01*
D23*
X14470000Y9900000D02*
X15710000Y11140000D01*
X15710000Y24340000D02*
X15710000Y24740000D01*
X34050000Y28330000D02*
X34050000Y28820000D01*
D22*
X38309266Y30319266D02*
X38130000Y30140000D01*
D23*
X41610000Y11140000D02*
X41610000Y11540000D01*
D22*
X17660000Y11950000D02*
X17660000Y13330000D01*
D23*
X34050000Y15130000D02*
X34050000Y15620000D01*
D22*
X50530000Y9390000D02*
X50530000Y9900000D01*
X38309266Y17637542D02*
X38211724Y17540000D01*
D23*
X8150000Y15620000D02*
X8150000Y14660000D01*
X14470000Y23100000D02*
X15710000Y24340000D01*
D22*
X23360000Y8120000D02*
X24630000Y9390000D01*
X38309266Y30837542D02*
X38211724Y30740000D01*
X38211724Y17540000D02*
X37625000Y17540000D01*
%TO.N,IRQ*%
X9295000Y27440000D02*
X9295000Y26945000D01*
X9295000Y14240000D02*
X9295000Y13745000D01*
X37520000Y10100000D02*
X37520000Y9700000D01*
X10140000Y24780000D02*
X11620000Y23300000D01*
X11620000Y9700000D02*
X13200000Y8120000D01*
X36040000Y24780000D02*
X37520000Y23300000D01*
X35195000Y14240000D02*
X35195000Y13745000D01*
X35195000Y13745000D02*
X35090000Y13640000D01*
X37520000Y23300000D02*
X37520000Y22900000D01*
X9190000Y26840000D02*
X9190000Y25220000D01*
X11620000Y23300000D02*
X11620000Y22900000D01*
X9190000Y13640000D02*
X9190000Y12020000D01*
X35530000Y24780000D02*
X36040000Y24780000D01*
X11620000Y10100000D02*
X11620000Y9700000D01*
X35090000Y26840000D02*
X35090000Y25220000D01*
X9630000Y11580000D02*
X10140000Y11580000D01*
X37520000Y9700000D02*
X39100000Y8120000D01*
X9190000Y25220000D02*
X9630000Y24780000D01*
X11620000Y22900000D02*
X13200000Y21320000D01*
X10140000Y11580000D02*
X11620000Y10100000D01*
X35195000Y26945000D02*
X35090000Y26840000D01*
X37520000Y22900000D02*
X39100000Y21320000D01*
X9630000Y24780000D02*
X10140000Y24780000D01*
X9190000Y12020000D02*
X9630000Y11580000D01*
X35090000Y25220000D02*
X35530000Y24780000D01*
X36040000Y11580000D02*
X37520000Y10100000D01*
X35530000Y11580000D02*
X36040000Y11580000D01*
X35090000Y13640000D02*
X35090000Y12020000D01*
X35195000Y27440000D02*
X35195000Y26945000D01*
X9295000Y26945000D02*
X9190000Y26840000D01*
X35090000Y12020000D02*
X35530000Y11580000D01*
X9295000Y13745000D02*
X9190000Y13640000D01*
D23*
%TO.N,Net-(JP3-A)*%
X50530000Y24550000D02*
X50540000Y24560000D01*
X50530000Y24120000D02*
X50530000Y24550000D01*
X24630000Y10920000D02*
X24630000Y11350000D01*
X24630000Y24550000D02*
X24640000Y24560000D01*
X24630000Y24120000D02*
X24630000Y24550000D01*
X50530000Y10920000D02*
X50530000Y11350000D01*
X50530000Y11350000D02*
X50540000Y11360000D01*
X24630000Y11350000D02*
X24640000Y11360000D01*
D22*
%TO.N,Net-(JP4-A)*%
X21374800Y23444800D02*
X22050000Y24120000D01*
X46910000Y9670000D02*
X47274800Y10034800D01*
X45816666Y29434998D02*
X46071600Y29180064D01*
X20171600Y10048400D02*
X20550000Y9670000D01*
X20550000Y22870000D02*
X21010000Y22870000D01*
X21010000Y22870000D02*
X21374800Y23234800D01*
X22050000Y24120000D02*
X22120000Y24120000D01*
X47274800Y10244800D02*
X47950000Y10920000D01*
X46071600Y15980064D02*
X46071600Y10048400D01*
X47274800Y10034800D02*
X47274800Y10244800D01*
X20171600Y15980064D02*
X20171600Y10048400D01*
X47950000Y10920000D02*
X48020000Y10920000D01*
X21374800Y10244800D02*
X22050000Y10920000D01*
X19916666Y16234998D02*
X20171600Y15980064D01*
X46071600Y10048400D02*
X46450000Y9670000D01*
X47950000Y24120000D02*
X48020000Y24120000D01*
X46910000Y22870000D02*
X47274800Y23234800D01*
X21374800Y23234800D02*
X21374800Y23444800D01*
X22050000Y10920000D02*
X22120000Y10920000D01*
X45816666Y16234998D02*
X46071600Y15980064D01*
X46071600Y29180064D02*
X46071600Y23248400D01*
X19916666Y29434998D02*
X20171600Y29180064D01*
X46450000Y9670000D02*
X46910000Y9670000D01*
X47274800Y23444800D02*
X47950000Y24120000D01*
X46450000Y22870000D02*
X46910000Y22870000D01*
X47274800Y23234800D02*
X47274800Y23444800D01*
X21374800Y10034800D02*
X21374800Y10244800D01*
X21010000Y9670000D02*
X21374800Y10034800D01*
X20550000Y9670000D02*
X21010000Y9670000D01*
X20171600Y29180064D02*
X20171600Y23248400D01*
X20171600Y23248400D02*
X20550000Y22870000D01*
X46071600Y23248400D02*
X46450000Y22870000D01*
D23*
%TO.N,Net-(JP4-B)*%
X19550000Y12250000D02*
X19560000Y12260000D01*
X45450000Y10920000D02*
X45450000Y12250000D01*
X19550000Y10920000D02*
X19550000Y12250000D01*
X45450000Y25450000D02*
X45460000Y25460000D01*
X19550000Y24120000D02*
X19550000Y25450000D01*
X45450000Y12250000D02*
X45460000Y12260000D01*
X19550000Y25450000D02*
X19560000Y25460000D01*
X45450000Y24120000D02*
X45450000Y25450000D01*
%TD*%
%TA.AperFunction,Conductor*%
%TO.N,GND*%
G36*
X31886821Y32424698D02*
G01*
X31933314Y32371042D01*
X31944700Y32318700D01*
X31944700Y27158798D01*
X31924698Y27090677D01*
X31871042Y27044184D01*
X31800768Y27034080D01*
X31736188Y27063574D01*
X31721301Y27078864D01*
X31693157Y27113157D01*
X31540324Y27238584D01*
X31365957Y27331785D01*
X31365953Y27331787D01*
X31176763Y27389177D01*
X31176752Y27389179D01*
X30980003Y27408556D01*
X30979997Y27408556D01*
X30783247Y27389179D01*
X30783236Y27389177D01*
X30594046Y27331787D01*
X30594042Y27331785D01*
X30419675Y27238584D01*
X30266843Y27113157D01*
X30141416Y26960325D01*
X30048215Y26785958D01*
X30048213Y26785954D01*
X29990823Y26596764D01*
X29990821Y26596753D01*
X29971444Y26400004D01*
X29971444Y26399997D01*
X29990821Y26203248D01*
X29990823Y26203237D01*
X30048213Y26014047D01*
X30048215Y26014043D01*
X30121409Y25877106D01*
X30141416Y25839676D01*
X30266843Y25686843D01*
X30419676Y25561416D01*
X30572121Y25479933D01*
X30594042Y25468216D01*
X30594046Y25468214D01*
X30783236Y25410824D01*
X30783237Y25410824D01*
X30783240Y25410823D01*
X30783243Y25410823D01*
X30783247Y25410822D01*
X30979997Y25391444D01*
X30980000Y25391444D01*
X30980003Y25391444D01*
X31176752Y25410822D01*
X31176754Y25410823D01*
X31176760Y25410823D01*
X31235781Y25428727D01*
X31365953Y25468214D01*
X31365955Y25468216D01*
X31365958Y25468216D01*
X31540324Y25561416D01*
X31693157Y25686843D01*
X31721301Y25721137D01*
X31779977Y25761105D01*
X31850948Y25763006D01*
X31911681Y25726236D01*
X31942893Y25662468D01*
X31944700Y25641203D01*
X31944700Y21354921D01*
X31924698Y21286800D01*
X31871042Y21240307D01*
X31800768Y21230203D01*
X31750580Y21248922D01*
X31685268Y21290895D01*
X31640053Y21319953D01*
X31638527Y21320401D01*
X31501961Y21360500D01*
X31414050Y21360500D01*
X31345929Y21380502D01*
X31299436Y21434158D01*
X31289332Y21504432D01*
X31304931Y21549500D01*
X31419056Y21747172D01*
X31419055Y21747172D01*
X31419063Y21747184D01*
X31514451Y21977471D01*
X31578965Y22218240D01*
X31611500Y22465369D01*
X31611500Y22714631D01*
X31587350Y22898063D01*
X31578966Y22961754D01*
X31578965Y22961756D01*
X31578965Y22961760D01*
X31514451Y23202529D01*
X31419063Y23432816D01*
X31419057Y23432825D01*
X31419056Y23432829D01*
X31294434Y23648681D01*
X31294429Y23648688D01*
X31142698Y23846428D01*
X31142679Y23846449D01*
X30966448Y24022680D01*
X30966427Y24022699D01*
X30768687Y24174430D01*
X30768680Y24174435D01*
X30552828Y24299057D01*
X30552820Y24299061D01*
X30552816Y24299063D01*
X30322529Y24394451D01*
X30110691Y24451213D01*
X30081753Y24458967D01*
X29834633Y24491500D01*
X29834631Y24491500D01*
X29585369Y24491500D01*
X29585366Y24491500D01*
X29338246Y24458967D01*
X29223942Y24428339D01*
X29097471Y24394451D01*
X28941680Y24329920D01*
X28867182Y24299062D01*
X28867171Y24299057D01*
X28651319Y24174435D01*
X28651312Y24174430D01*
X28453572Y24022699D01*
X28453551Y24022680D01*
X28277320Y23846449D01*
X28277301Y23846428D01*
X28125570Y23648688D01*
X28125565Y23648681D01*
X28000943Y23432829D01*
X28000938Y23432818D01*
X28000937Y23432816D01*
X27971297Y23361259D01*
X27905549Y23202529D01*
X27905548Y23202525D01*
X27841033Y22961754D01*
X27808500Y22714634D01*
X27808500Y22465367D01*
X27841033Y22218247D01*
X27841035Y22218240D01*
X27905549Y21977471D01*
X28000937Y21747184D01*
X28000938Y21747183D01*
X28000943Y21747172D01*
X28125565Y21531320D01*
X28125570Y21531313D01*
X28277301Y21333573D01*
X28277320Y21333552D01*
X28453551Y21157321D01*
X28453572Y21157302D01*
X28651312Y21005571D01*
X28651319Y21005566D01*
X28867171Y20880944D01*
X28867175Y20880943D01*
X28867184Y20880937D01*
X29097471Y20785549D01*
X29338240Y20721035D01*
X29338244Y20721035D01*
X29338246Y20721034D01*
X29401937Y20712650D01*
X29585369Y20688500D01*
X29585376Y20688500D01*
X29834624Y20688500D01*
X29834631Y20688500D01*
X30057973Y20717904D01*
X30081753Y20721034D01*
X30081753Y20721035D01*
X30081760Y20721035D01*
X30322529Y20785549D01*
X30552816Y20880937D01*
X30736637Y20987067D01*
X30805632Y21003804D01*
X30872724Y20980584D01*
X30916611Y20924777D01*
X30923281Y20869012D01*
X30924353Y20869012D01*
X30924353Y20860050D01*
X30924356Y20860024D01*
X30924353Y20860004D01*
X30924353Y20860003D01*
X30924353Y20860000D01*
X30944835Y20717543D01*
X30958099Y20688500D01*
X31004623Y20586627D01*
X31024392Y20563812D01*
X31053885Y20499231D01*
X31043780Y20428957D01*
X30997287Y20375302D01*
X30929167Y20355300D01*
X26985930Y20355300D01*
X26917809Y20375302D01*
X26871316Y20428958D01*
X26861212Y20499232D01*
X26882717Y20553570D01*
X26981970Y20695320D01*
X27074007Y20892694D01*
X27074009Y20892698D01*
X27130373Y21103055D01*
X27136020Y21167600D01*
X26385085Y21167600D01*
X26408000Y21253120D01*
X26408000Y21386880D01*
X26385085Y21472400D01*
X27136020Y21472400D01*
X27130373Y21536946D01*
X27074009Y21747303D01*
X27074007Y21747307D01*
X26981970Y21944681D01*
X26857067Y22123061D01*
X26857058Y22123072D01*
X26703071Y22277059D01*
X26703060Y22277068D01*
X26524680Y22401971D01*
X26524681Y22401971D01*
X26327306Y22494008D01*
X26327301Y22494010D01*
X26116944Y22550375D01*
X26116939Y22550376D01*
X26052400Y22556023D01*
X26052400Y21805086D01*
X25966880Y21828000D01*
X25833120Y21828000D01*
X25747600Y21805086D01*
X25747600Y22556023D01*
X25683060Y22550376D01*
X25683055Y22550375D01*
X25472698Y22494010D01*
X25472693Y22494008D01*
X25275319Y22401971D01*
X25096939Y22277068D01*
X25096933Y22277064D01*
X25075517Y22255647D01*
X25013204Y22221623D01*
X24942388Y22226689D01*
X24935116Y22232133D01*
X24952409Y22185771D01*
X24937318Y22116397D01*
X24929944Y22104512D01*
X24818027Y21944677D01*
X24725992Y21747307D01*
X24725990Y21747302D01*
X24699192Y21647289D01*
X24662240Y21586666D01*
X24598379Y21555645D01*
X24527885Y21564073D01*
X24473138Y21609276D01*
X24456295Y21645419D01*
X24430850Y21734850D01*
X24430849Y21734852D01*
X24396718Y21803396D01*
X24384258Y21873291D01*
X24411565Y21938827D01*
X24420413Y21948655D01*
X24595254Y22123496D01*
X24737636Y22265878D01*
X24799947Y22299903D01*
X24870762Y22294838D01*
X24878035Y22289393D01*
X24860744Y22335758D01*
X24875837Y22405132D01*
X24877283Y22407709D01*
X24914494Y22472158D01*
X24919327Y22490193D01*
X24920480Y22494496D01*
X24927832Y22521937D01*
X24935300Y22549807D01*
X24935300Y22567113D01*
X24955302Y22635234D01*
X25008054Y22681309D01*
X25012267Y22683273D01*
X25096727Y22767733D01*
X25147206Y22875986D01*
X25153700Y22925312D01*
X25153700Y23274688D01*
X25147206Y23324014D01*
X25096727Y23432267D01*
X25096725Y23432269D01*
X25096725Y23432270D01*
X25008090Y23520905D01*
X24974064Y23583217D01*
X24979129Y23654032D01*
X25008090Y23699095D01*
X25096725Y23787731D01*
X25096727Y23787733D01*
X25147206Y23895986D01*
X25153700Y23945312D01*
X25153700Y24294688D01*
X25147206Y24344014D01*
X25140614Y24358149D01*
X25129954Y24428339D01*
X25130071Y24429181D01*
X25148880Y24560000D01*
X25128267Y24703368D01*
X25068097Y24835121D01*
X24973246Y24944586D01*
X24973245Y24944587D01*
X24973244Y24944588D01*
X24851400Y25022892D01*
X24851397Y25022894D01*
X24851396Y25022894D01*
X24846597Y25024303D01*
X24712421Y25063700D01*
X24567579Y25063700D01*
X24428606Y25022895D01*
X24428599Y25022892D01*
X24306755Y24944588D01*
X24211903Y24835122D01*
X24151733Y24703369D01*
X24136387Y24596632D01*
X24131120Y24560000D01*
X24140968Y24491500D01*
X24145194Y24462111D01*
X24135089Y24391837D01*
X24134671Y24390932D01*
X24112795Y24344019D01*
X24112792Y24344010D01*
X24106300Y24294693D01*
X24106300Y24038689D01*
X24086298Y23970568D01*
X24032642Y23924075D01*
X23962368Y23913971D01*
X23944804Y23917792D01*
X23921279Y23924699D01*
X23905272Y23929399D01*
X23760430Y23929399D01*
X23621457Y23888594D01*
X23621450Y23888591D01*
X23499606Y23810287D01*
X23468585Y23774486D01*
X23408859Y23736103D01*
X23373361Y23730999D01*
X23346694Y23730999D01*
X23294928Y23717129D01*
X23269045Y23710193D01*
X23199431Y23670002D01*
X23199425Y23669997D01*
X22833213Y23303785D01*
X22770901Y23269760D01*
X22700085Y23274825D01*
X22643250Y23317372D01*
X22629923Y23339632D01*
X22629661Y23340193D01*
X22593454Y23417841D01*
X22586727Y23432268D01*
X22498090Y23520905D01*
X22464064Y23583217D01*
X22469129Y23654032D01*
X22498090Y23699095D01*
X22586725Y23787731D01*
X22586727Y23787733D01*
X22637206Y23895986D01*
X22643700Y23945312D01*
X22643700Y24294688D01*
X22637206Y24344014D01*
X22586727Y24452267D01*
X22586725Y24452269D01*
X22586725Y24452270D01*
X22502269Y24536726D01*
X22502267Y24536727D01*
X22394012Y24587207D01*
X22344692Y24593700D01*
X22344688Y24593700D01*
X21895312Y24593700D01*
X21895307Y24593700D01*
X21845987Y24587207D01*
X21737733Y24536727D01*
X21737730Y24536726D01*
X21653274Y24452270D01*
X21653274Y24452269D01*
X21602793Y24344013D01*
X21596300Y24294693D01*
X21596300Y24150250D01*
X21576298Y24082129D01*
X21559395Y24061155D01*
X21130505Y23632266D01*
X21130497Y23632256D01*
X21102923Y23584495D01*
X21090308Y23562647D01*
X21090305Y23562640D01*
X21079123Y23520905D01*
X21070162Y23487461D01*
X21069500Y23484992D01*
X21069500Y23413449D01*
X21049498Y23345328D01*
X21032595Y23324354D01*
X20920446Y23212205D01*
X20858134Y23178179D01*
X20831351Y23175300D01*
X20728649Y23175300D01*
X20660528Y23195302D01*
X20639554Y23212205D01*
X20513805Y23337954D01*
X20479779Y23400266D01*
X20476900Y23427049D01*
X20476900Y29220257D01*
X20476899Y29220259D01*
X20475764Y29224494D01*
X20460490Y29281497D01*
X20456094Y29297906D01*
X20452749Y29303700D01*
X20437660Y29329835D01*
X20420922Y29398830D01*
X20422062Y29410769D01*
X20423621Y29421611D01*
X20425546Y29434998D01*
X20404933Y29578366D01*
X20344763Y29710119D01*
X20249912Y29819584D01*
X20249911Y29819585D01*
X20249910Y29819586D01*
X20128066Y29897890D01*
X20128063Y29897892D01*
X20128062Y29897892D01*
X20056316Y29918958D01*
X19989087Y29938698D01*
X19844245Y29938698D01*
X19705272Y29897893D01*
X19705265Y29897890D01*
X19583421Y29819586D01*
X19488569Y29710120D01*
X19428399Y29578367D01*
X19417332Y29501395D01*
X19407786Y29434998D01*
X19428399Y29291630D01*
X19488569Y29159877D01*
X19582690Y29051254D01*
X19583421Y29050411D01*
X19695154Y28978605D01*
X19705270Y28972104D01*
X19775797Y28951396D01*
X19835524Y28913013D01*
X19865017Y28848433D01*
X19866300Y28830500D01*
X19866300Y26063344D01*
X19846298Y25995223D01*
X19792642Y25948730D01*
X19722368Y25938626D01*
X19704803Y25942447D01*
X19632421Y25963700D01*
X19487579Y25963700D01*
X19348606Y25922895D01*
X19348599Y25922892D01*
X19226755Y25844588D01*
X19131903Y25735122D01*
X19071733Y25603369D01*
X19051120Y25460000D01*
X19071733Y25316632D01*
X19131903Y25184879D01*
X19131906Y25184875D01*
X19215524Y25088374D01*
X19245017Y25023794D01*
X19246300Y25005862D01*
X19246300Y24653635D01*
X19226298Y24585514D01*
X19173554Y24539442D01*
X19167733Y24536728D01*
X19167730Y24536726D01*
X19083274Y24452270D01*
X19083274Y24452269D01*
X19032793Y24344013D01*
X19026300Y24294693D01*
X19026300Y23945308D01*
X19032793Y23895988D01*
X19032794Y23895986D01*
X19083273Y23787733D01*
X19083274Y23787732D01*
X19083274Y23787731D01*
X19171910Y23699095D01*
X19205936Y23636783D01*
X19200871Y23565968D01*
X19171910Y23520905D01*
X19083274Y23432270D01*
X19083274Y23432269D01*
X19032793Y23324013D01*
X19026300Y23274693D01*
X19026300Y22925308D01*
X19032793Y22875988D01*
X19032794Y22875986D01*
X19083273Y22767733D01*
X19083274Y22767732D01*
X19083274Y22767731D01*
X19100527Y22750478D01*
X19134553Y22688166D01*
X19129488Y22617351D01*
X19100527Y22572288D01*
X18910743Y22382504D01*
X18848431Y22348478D01*
X18777616Y22353543D01*
X18776131Y22354108D01*
X18716823Y22377084D01*
X18651112Y22402541D01*
X18594277Y22424559D01*
X18594278Y22424559D01*
X18594275Y22424560D01*
X18594274Y22424560D01*
X18385961Y22463500D01*
X18174039Y22463500D01*
X17974703Y22426238D01*
X17965721Y22424559D01*
X17768119Y22348007D01*
X17768108Y22348002D01*
X17587933Y22236442D01*
X17431324Y22093674D01*
X17303612Y21924556D01*
X17209150Y21734850D01*
X17209147Y21734842D01*
X17151154Y21531017D01*
X17135462Y21361672D01*
X17118755Y21319601D01*
X17133656Y21290895D01*
X17135462Y21278329D01*
X17151154Y21108984D01*
X17209147Y20905159D01*
X17209148Y20905155D01*
X17209150Y20905150D01*
X17303611Y20715446D01*
X17423091Y20557230D01*
X17448180Y20490817D01*
X17433381Y20421380D01*
X17383390Y20370967D01*
X17322540Y20355300D01*
X16697460Y20355300D01*
X16629339Y20375302D01*
X16582846Y20428958D01*
X16572742Y20499232D01*
X16596908Y20557229D01*
X16716389Y20715446D01*
X16810850Y20905150D01*
X16868845Y21108982D01*
X16880078Y21230203D01*
X16884538Y21278329D01*
X16901244Y21320401D01*
X16886344Y21349106D01*
X16884538Y21361672D01*
X16868845Y21531017D01*
X16846578Y21609276D01*
X16810850Y21734850D01*
X16716389Y21924554D01*
X16588677Y22093671D01*
X16588675Y22093674D01*
X16432066Y22236442D01*
X16274652Y22333909D01*
X16227265Y22386776D01*
X16215982Y22456870D01*
X16244386Y22521937D01*
X16251877Y22530120D01*
X16427288Y22705531D01*
X16489598Y22739555D01*
X16560413Y22734490D01*
X16605476Y22705529D01*
X16627730Y22683275D01*
X16627731Y22683275D01*
X16627733Y22683273D01*
X16735986Y22632794D01*
X16785312Y22626300D01*
X16785319Y22626300D01*
X17234681Y22626300D01*
X17234688Y22626300D01*
X17284014Y22632794D01*
X17392267Y22683273D01*
X17476727Y22767733D01*
X17527206Y22875986D01*
X17533700Y22925312D01*
X17533700Y23142013D01*
X17553702Y23210134D01*
X17570600Y23231104D01*
X17903021Y23563524D01*
X17943004Y23632776D01*
X17963700Y23710017D01*
X17963700Y23789983D01*
X17963700Y24684321D01*
X17983702Y24752442D01*
X17994471Y24766829D01*
X18088097Y24874879D01*
X18148267Y25006632D01*
X18168880Y25150000D01*
X18148267Y25293368D01*
X18088097Y25425121D01*
X17996074Y25531322D01*
X17966582Y25595902D01*
X17965300Y25613833D01*
X17965300Y26350300D01*
X17985302Y26418421D01*
X18038958Y26464914D01*
X18091300Y26476300D01*
X18182421Y26476300D01*
X18321396Y26517106D01*
X18443246Y26595414D01*
X18538097Y26704879D01*
X18598267Y26836632D01*
X18618880Y26980000D01*
X18598267Y27123368D01*
X18538097Y27255121D01*
X18443246Y27364586D01*
X18443245Y27364587D01*
X18443244Y27364588D01*
X18321400Y27442892D01*
X18321397Y27442894D01*
X18321396Y27442894D01*
X18199766Y27478607D01*
X18182421Y27483700D01*
X18037579Y27483700D01*
X18036076Y27483484D01*
X18034574Y27483700D01*
X18028567Y27483700D01*
X18028567Y27484565D01*
X17965802Y27493592D01*
X17912149Y27540088D01*
X17892151Y27608210D01*
X17912157Y27676330D01*
X17929052Y27697295D01*
X17961155Y27729398D01*
X18023468Y27763421D01*
X18050249Y27766300D01*
X18162421Y27766300D01*
X18301396Y27807106D01*
X18423246Y27885414D01*
X18518097Y27994879D01*
X18578267Y28126632D01*
X18598880Y28270000D01*
X18578267Y28413368D01*
X18518097Y28545121D01*
X18500534Y28565390D01*
X18462998Y28608710D01*
X18433505Y28673291D01*
X18443610Y28743565D01*
X18462999Y28773735D01*
X18480559Y28794000D01*
X18540729Y28925753D01*
X18561342Y29069121D01*
X18540729Y29212489D01*
X18480559Y29344242D01*
X18385708Y29453707D01*
X18385707Y29453708D01*
X18385706Y29453709D01*
X18263862Y29532013D01*
X18263859Y29532015D01*
X18263858Y29532015D01*
X18180914Y29556369D01*
X18124883Y29572821D01*
X17980041Y29572821D01*
X17971919Y29572821D01*
X17903798Y29592823D01*
X17882828Y29609722D01*
X17696650Y29795900D01*
X17696647Y29795902D01*
X17696646Y29795903D01*
X17627032Y29836094D01*
X17549384Y29856900D01*
X16150182Y29856900D01*
X16072534Y29836094D01*
X16072533Y29836094D01*
X16072531Y29836093D01*
X16002917Y29795902D01*
X16002915Y29795901D01*
X15960615Y29753600D01*
X15860843Y29653829D01*
X15798534Y29619805D01*
X15771750Y29616925D01*
X15679579Y29616925D01*
X15540606Y29576120D01*
X15540599Y29576117D01*
X15418755Y29497813D01*
X15323903Y29388347D01*
X15263733Y29256594D01*
X15251283Y29170000D01*
X15243120Y29113225D01*
X15263733Y28969857D01*
X15323903Y28838104D01*
X15379678Y28773735D01*
X15418755Y28728638D01*
X15504877Y28673291D01*
X15540604Y28650331D01*
X15679579Y28609525D01*
X15824421Y28609525D01*
X15963396Y28650331D01*
X16085246Y28728639D01*
X16180097Y28838104D01*
X16240267Y28969857D01*
X16260880Y29113225D01*
X16260879Y29113227D01*
X16260880Y29113229D01*
X16260880Y29120300D01*
X16280882Y29188421D01*
X16334538Y29234914D01*
X16386880Y29246300D01*
X17330541Y29246300D01*
X17398662Y29226298D01*
X17419637Y29209395D01*
X17511186Y29117845D01*
X17545211Y29055533D01*
X17546807Y29046682D01*
X17564193Y28925760D01*
X17564194Y28925755D01*
X17564195Y28925753D01*
X17599506Y28848433D01*
X17624365Y28794000D01*
X17679463Y28730412D01*
X17708956Y28665830D01*
X17698851Y28595557D01*
X17679465Y28565390D01*
X17661903Y28545122D01*
X17626507Y28467615D01*
X17601733Y28413368D01*
X17585637Y28301413D01*
X17581120Y28269997D01*
X17581120Y28265071D01*
X17561118Y28196950D01*
X17544216Y28175976D01*
X16765702Y27397462D01*
X16765697Y27397456D01*
X16726077Y27328831D01*
X16726064Y27328809D01*
X16725508Y27327849D01*
X16725505Y27327841D01*
X16704700Y27250197D01*
X16704700Y25451251D01*
X16684698Y25383130D01*
X16631042Y25336637D01*
X16560768Y25326533D01*
X16496188Y25356027D01*
X16489605Y25362155D01*
X16246161Y25605598D01*
X16246155Y25605603D01*
X16176543Y25645793D01*
X16176542Y25645794D01*
X16176541Y25645794D01*
X16174929Y25646226D01*
X16173997Y25646476D01*
X16173996Y25646476D01*
X16098893Y25666600D01*
X16098890Y25666600D01*
X15489170Y25666600D01*
X15421049Y25686602D01*
X15393946Y25710087D01*
X15362924Y25745888D01*
X15241080Y25824192D01*
X15241077Y25824194D01*
X15241076Y25824194D01*
X15234070Y25826251D01*
X15102101Y25865000D01*
X15009929Y25865000D01*
X14941808Y25885002D01*
X14920838Y25901901D01*
X14808439Y26014300D01*
X14808438Y26014301D01*
X14808435Y26014303D01*
X14738824Y26054493D01*
X14738815Y26054496D01*
X14735042Y26055508D01*
X14735036Y26055508D01*
X14661173Y26075300D01*
X14661171Y26075300D01*
X13458649Y26075300D01*
X13390528Y26095302D01*
X13369554Y26112205D01*
X12728805Y26752954D01*
X12694779Y26815266D01*
X12691900Y26842049D01*
X12691900Y27409192D01*
X12682869Y27442895D01*
X12673301Y27478605D01*
X12673301Y27478607D01*
X12671096Y27486837D01*
X12671093Y27486843D01*
X12630901Y27556459D01*
X12322318Y27865042D01*
X12288292Y27927354D01*
X12293357Y27998169D01*
X12322320Y28043235D01*
X12332221Y28053136D01*
X12383237Y28162541D01*
X12389799Y28212386D01*
X12389800Y28212395D01*
X12389800Y28467605D01*
X12389799Y28467620D01*
X12386556Y28492256D01*
X12397496Y28562404D01*
X12444625Y28615502D01*
X12511478Y28634700D01*
X12858777Y28634700D01*
X12926898Y28614698D01*
X12973391Y28561042D01*
X12979672Y28544200D01*
X12980130Y28542639D01*
X13040303Y28410879D01*
X13135155Y28301413D01*
X13191705Y28265071D01*
X13257004Y28223106D01*
X13395979Y28182300D01*
X13540820Y28182300D01*
X13540821Y28182300D01*
X13603204Y28200617D01*
X13674198Y28200617D01*
X13733924Y28162234D01*
X13763417Y28097653D01*
X13764700Y28079721D01*
X13764700Y27930252D01*
X13744698Y27862131D01*
X13727795Y27841157D01*
X13657243Y27770605D01*
X13594931Y27736579D01*
X13568148Y27733700D01*
X13475977Y27733700D01*
X13337004Y27692895D01*
X13336997Y27692892D01*
X13215153Y27614588D01*
X13120301Y27505122D01*
X13060131Y27373369D01*
X13039518Y27230000D01*
X13060131Y27086632D01*
X13120301Y26954879D01*
X13215153Y26845413D01*
X13336997Y26767109D01*
X13337002Y26767106D01*
X13475977Y26726300D01*
X13620819Y26726300D01*
X13759794Y26767106D01*
X13881644Y26845414D01*
X13976495Y26954879D01*
X14036665Y27086632D01*
X14057278Y27230000D01*
X14056560Y27234992D01*
X14066659Y27305265D01*
X14092177Y27342022D01*
X14314301Y27564143D01*
X14354494Y27633761D01*
X14354958Y27635492D01*
X14375300Y27711409D01*
X14375300Y29034296D01*
X14354494Y29111944D01*
X14327328Y29158997D01*
X14321310Y29169421D01*
X14314302Y29181559D01*
X14314294Y29181569D01*
X13711568Y29784295D01*
X13711558Y29784303D01*
X13641946Y29824493D01*
X13641945Y29824494D01*
X13641944Y29824494D01*
X13638955Y29825295D01*
X13638953Y29825296D01*
X13604304Y29834580D01*
X13564296Y29845300D01*
X13564294Y29845300D01*
X12671250Y29845300D01*
X12603129Y29865302D01*
X12556636Y29918958D01*
X12546532Y29989232D01*
X12576026Y30053812D01*
X12582155Y30060395D01*
X12653565Y30131806D01*
X12653567Y30131809D01*
X12666786Y30154705D01*
X12693760Y30201424D01*
X12699333Y30222228D01*
X12699335Y30222228D01*
X12699335Y30222237D01*
X12714566Y30279073D01*
X12714566Y30479197D01*
X12734568Y30547318D01*
X12745336Y30561703D01*
X12837363Y30667908D01*
X12897533Y30799661D01*
X12918146Y30943029D01*
X12897533Y31086397D01*
X12837363Y31218150D01*
X12742512Y31327615D01*
X12742511Y31327616D01*
X12742510Y31327617D01*
X12620666Y31405921D01*
X12620663Y31405923D01*
X12620662Y31405923D01*
X12481687Y31446729D01*
X12414699Y31446729D01*
X12346578Y31466731D01*
X12300085Y31520387D01*
X12288699Y31572729D01*
X12288699Y31579490D01*
X12288698Y31579499D01*
X12274270Y31652036D01*
X12274270Y31652038D01*
X12274269Y31652040D01*
X12274269Y31652041D01*
X12219302Y31734302D01*
X12137038Y31789270D01*
X12137035Y31789271D01*
X12064494Y31803700D01*
X11255510Y31803700D01*
X11255500Y31803699D01*
X11182960Y31789270D01*
X11182959Y31789270D01*
X11100698Y31734303D01*
X11045730Y31652039D01*
X11045729Y31652036D01*
X11031300Y31579496D01*
X11031300Y31320511D01*
X11031301Y31320501D01*
X11045730Y31247961D01*
X11045730Y31247960D01*
X11100697Y31165699D01*
X11100698Y31165698D01*
X11160258Y31125901D01*
X11205786Y31071424D01*
X11214634Y31000981D01*
X11195022Y30951135D01*
X11175294Y30921611D01*
X11161300Y30851257D01*
X11161300Y30628744D01*
X11175294Y30558390D01*
X11175295Y30558387D01*
X11207626Y30510000D01*
X11228840Y30442247D01*
X11210056Y30373781D01*
X11207626Y30370000D01*
X11175295Y30321614D01*
X11175294Y30321611D01*
X11161300Y30251257D01*
X11161300Y30028744D01*
X11175294Y29958390D01*
X11175295Y29958387D01*
X11207626Y29910000D01*
X11228840Y29842247D01*
X11210056Y29773781D01*
X11207626Y29770000D01*
X11175295Y29721614D01*
X11175294Y29721611D01*
X11161300Y29651257D01*
X11161300Y29428744D01*
X11175294Y29358390D01*
X11175295Y29358387D01*
X11207626Y29310000D01*
X11228840Y29242247D01*
X11210056Y29173781D01*
X11207626Y29170000D01*
X11175295Y29121614D01*
X11175294Y29121611D01*
X11161300Y29051257D01*
X11161300Y28828741D01*
X11174434Y28762714D01*
X11168106Y28692000D01*
X11139952Y28649039D01*
X11117779Y28626866D01*
X11066762Y28517460D01*
X11060200Y28467615D01*
X11060200Y28212386D01*
X11066762Y28162541D01*
X11117779Y28053134D01*
X11139950Y28030963D01*
X11173976Y27968651D01*
X11174434Y27917287D01*
X11161300Y27851260D01*
X11161300Y27628744D01*
X11175294Y27558390D01*
X11175295Y27558387D01*
X11207626Y27510000D01*
X11228840Y27442247D01*
X11210056Y27373781D01*
X11207626Y27370000D01*
X11175295Y27321614D01*
X11175294Y27321611D01*
X11161300Y27251257D01*
X11161300Y27028744D01*
X11175294Y26958390D01*
X11175296Y26958387D01*
X11195021Y26928865D01*
X11216235Y26861112D01*
X11197451Y26792645D01*
X11160259Y26754101D01*
X11100697Y26714302D01*
X11045730Y26632039D01*
X11045729Y26632036D01*
X11031300Y26559496D01*
X11031300Y26300511D01*
X11031301Y26300501D01*
X11045730Y26227961D01*
X11045730Y26227960D01*
X11100697Y26145699D01*
X11100698Y26145698D01*
X11182962Y26090730D01*
X11255507Y26076300D01*
X12064492Y26076301D01*
X12064495Y26076302D01*
X12064499Y26076302D01*
X12088343Y26081045D01*
X12137038Y26090730D01*
X12137039Y26090731D01*
X12137040Y26090731D01*
X12169177Y26112205D01*
X12219302Y26145698D01*
X12235440Y26169850D01*
X12289916Y26215377D01*
X12360359Y26224225D01*
X12424403Y26193584D01*
X12429280Y26188961D01*
X12773653Y25844588D01*
X13092542Y25525699D01*
X13100044Y25521368D01*
X13162158Y25485506D01*
X13182964Y25479932D01*
X13239807Y25464700D01*
X14215279Y25464700D01*
X14283400Y25444698D01*
X14329893Y25391042D01*
X14339997Y25320768D01*
X14310503Y25256188D01*
X14283399Y25232702D01*
X14159347Y25152980D01*
X14064495Y25043514D01*
X14004325Y24911761D01*
X13983712Y24768392D01*
X14004325Y24625024D01*
X14004326Y24625021D01*
X14021814Y24586727D01*
X14031917Y24516453D01*
X14007423Y24462821D01*
X14009597Y24461299D01*
X14003274Y24452269D01*
X13952793Y24344013D01*
X13946300Y24294693D01*
X13946300Y23945308D01*
X13952793Y23895988D01*
X13952794Y23895986D01*
X14003273Y23787733D01*
X14003274Y23787732D01*
X14003274Y23787731D01*
X14091910Y23699095D01*
X14125936Y23636783D01*
X14120871Y23565968D01*
X14091910Y23520905D01*
X14003274Y23432270D01*
X14003274Y23432269D01*
X13952793Y23324013D01*
X13946300Y23274693D01*
X13946300Y22925308D01*
X13952793Y22875988D01*
X13952794Y22875986D01*
X14003273Y22767733D01*
X14003274Y22767732D01*
X14003274Y22767731D01*
X14087730Y22683275D01*
X14087731Y22683275D01*
X14087733Y22683273D01*
X14195986Y22632794D01*
X14245312Y22626300D01*
X14245319Y22626300D01*
X14694681Y22626300D01*
X14694688Y22626300D01*
X14744014Y22632794D01*
X14852267Y22683273D01*
X14936727Y22767733D01*
X14987206Y22875986D01*
X14993700Y22925312D01*
X14993700Y23142013D01*
X15013702Y23210134D01*
X15030605Y23231108D01*
X15791205Y23991708D01*
X15853517Y24025734D01*
X15924332Y24020669D01*
X15981168Y23978122D01*
X16005979Y23911602D01*
X16006300Y23902613D01*
X16006300Y23200250D01*
X15986298Y23132129D01*
X15969395Y23111155D01*
X15495705Y22637466D01*
X15495697Y22637456D01*
X15471559Y22595646D01*
X15471558Y22595645D01*
X15455507Y22567845D01*
X15455506Y22567843D01*
X15432668Y22482613D01*
X15395716Y22421990D01*
X15356479Y22397734D01*
X15228119Y22348007D01*
X15228108Y22348002D01*
X15047933Y22236442D01*
X14891324Y22093674D01*
X14763612Y21924556D01*
X14669150Y21734850D01*
X14669147Y21734842D01*
X14611154Y21531017D01*
X14595462Y21361672D01*
X14578755Y21319601D01*
X14593656Y21290895D01*
X14595462Y21278329D01*
X14611154Y21108984D01*
X14669147Y20905159D01*
X14669148Y20905155D01*
X14669150Y20905150D01*
X14763611Y20715446D01*
X14883091Y20557230D01*
X14908180Y20490817D01*
X14893381Y20421380D01*
X14843390Y20370967D01*
X14782540Y20355300D01*
X14157460Y20355300D01*
X14089339Y20375302D01*
X14042846Y20428958D01*
X14032742Y20499232D01*
X14056908Y20557229D01*
X14176389Y20715446D01*
X14270850Y20905150D01*
X14328845Y21108982D01*
X14340078Y21230203D01*
X14344538Y21278329D01*
X14361244Y21320401D01*
X14346344Y21349106D01*
X14344538Y21361672D01*
X14328845Y21531017D01*
X14306578Y21609276D01*
X14270850Y21734850D01*
X14176389Y21924554D01*
X14048677Y22093671D01*
X14048675Y22093674D01*
X13892066Y22236442D01*
X13711891Y22348002D01*
X13711886Y22348004D01*
X13711885Y22348005D01*
X13696134Y22354107D01*
X13514277Y22424559D01*
X13514278Y22424559D01*
X13514275Y22424560D01*
X13514274Y22424560D01*
X13305961Y22463500D01*
X13094039Y22463500D01*
X12989882Y22444030D01*
X12885724Y22424560D01*
X12703866Y22354107D01*
X12633120Y22348151D01*
X12570384Y22381388D01*
X12569255Y22382504D01*
X11962205Y22989554D01*
X11928179Y23051866D01*
X11925300Y23078649D01*
X11925300Y23340192D01*
X11904494Y23417842D01*
X11904494Y23417843D01*
X11864301Y23487458D01*
X11864299Y23487461D01*
X10327465Y25024295D01*
X10327455Y25024303D01*
X10257841Y25064494D01*
X10180193Y25085300D01*
X10180191Y25085300D01*
X9808649Y25085300D01*
X9740528Y25105302D01*
X9719554Y25122205D01*
X9532205Y25309554D01*
X9498179Y25371866D01*
X9495300Y25398649D01*
X9495300Y25756741D01*
X9515302Y25824862D01*
X9568958Y25871355D01*
X9639232Y25881459D01*
X9656798Y25877637D01*
X9658601Y25877108D01*
X9658604Y25877106D01*
X9797579Y25836300D01*
X9942421Y25836300D01*
X10038923Y25864635D01*
X10109917Y25864635D01*
X10169643Y25826251D01*
X10183538Y25806739D01*
X10227297Y25730945D01*
X10227305Y25730935D01*
X11402536Y24555704D01*
X11402539Y24555702D01*
X11402541Y24555700D01*
X11435401Y24536729D01*
X11435403Y24536727D01*
X11435404Y24536727D01*
X11472159Y24515506D01*
X11549807Y24494700D01*
X11970510Y24494700D01*
X12038631Y24474698D01*
X12065734Y24451213D01*
X12096755Y24415413D01*
X12185862Y24358148D01*
X12218604Y24337106D01*
X12357579Y24296300D01*
X12502421Y24296300D01*
X12641396Y24337106D01*
X12763246Y24415414D01*
X12858097Y24524879D01*
X12918267Y24656632D01*
X12938880Y24800000D01*
X12918267Y24943368D01*
X12858097Y25075121D01*
X12763246Y25184586D01*
X12763245Y25184587D01*
X12763244Y25184588D01*
X12641400Y25262892D01*
X12641397Y25262894D01*
X12641396Y25262894D01*
X12529125Y25295859D01*
X12502421Y25303700D01*
X12357579Y25303700D01*
X12218606Y25262895D01*
X12218599Y25262892D01*
X12096755Y25184588D01*
X12065734Y25148787D01*
X12006008Y25110404D01*
X11970510Y25105300D01*
X11768649Y25105300D01*
X11700528Y25125302D01*
X11679554Y25142205D01*
X10813805Y26007954D01*
X10779779Y26070266D01*
X10776900Y26097049D01*
X10776900Y26629382D01*
X10776900Y26629384D01*
X10757791Y26700700D01*
X10756094Y26707033D01*
X10751897Y26714302D01*
X10715901Y26776649D01*
X10715899Y26776652D01*
X10602005Y26890546D01*
X10567979Y26952858D01*
X10565100Y26979641D01*
X10565100Y29250601D01*
X10565100Y29250603D01*
X10544294Y29328251D01*
X10504101Y29397869D01*
X9847628Y30054341D01*
X9813604Y30116653D01*
X9818668Y30187468D01*
X9822529Y30196686D01*
X9853237Y30262541D01*
X9859799Y30312386D01*
X9859800Y30312395D01*
X9859800Y30567605D01*
X9859799Y30567615D01*
X9853237Y30617460D01*
X9802220Y30726867D01*
X9716866Y30812221D01*
X9607459Y30863238D01*
X9557614Y30869800D01*
X9032385Y30869800D01*
X8982540Y30863238D01*
X8873133Y30812221D01*
X8787779Y30726867D01*
X8736762Y30617460D01*
X8730200Y30567615D01*
X8730200Y30419674D01*
X8710198Y30351553D01*
X8656542Y30305060D01*
X8586268Y30294956D01*
X8539082Y30314314D01*
X8538538Y30313284D01*
X8530189Y30317697D01*
X8403630Y30361982D01*
X8373579Y30364800D01*
X8302400Y30364800D01*
X8302400Y29753600D01*
X8282398Y29685479D01*
X8228742Y29638986D01*
X8176400Y29627600D01*
X7535201Y29627600D01*
X7535201Y29586417D01*
X7538018Y29556369D01*
X7538018Y29556368D01*
X7582302Y29429813D01*
X7582303Y29429812D01*
X7661929Y29321923D01*
X7668603Y29315249D01*
X7666971Y29313618D01*
X7701984Y29267496D01*
X7707526Y29196716D01*
X7698423Y29169421D01*
X7642889Y29050329D01*
X7642889Y29050328D01*
X7636300Y29000277D01*
X7636300Y28639724D01*
X7642889Y28589674D01*
X7642890Y28589670D01*
X7655305Y28563046D01*
X7665966Y28492855D01*
X7662008Y28474307D01*
X7661734Y28473377D01*
X7641120Y28330000D01*
X7662533Y28181068D01*
X7652428Y28110794D01*
X7652011Y28109891D01*
X7642890Y28090332D01*
X7642889Y28090327D01*
X7636300Y28040277D01*
X7636300Y27679724D01*
X7642889Y27629674D01*
X7642890Y27629672D01*
X7684663Y27540088D01*
X7698423Y27510581D01*
X7709084Y27440389D01*
X7680104Y27375576D01*
X7668549Y27364805D01*
X7668603Y27364751D01*
X7661929Y27358078D01*
X7582303Y27250189D01*
X7538018Y27123631D01*
X7535200Y27093580D01*
X7535200Y27052400D01*
X8176400Y27052400D01*
X8244521Y27032398D01*
X8291014Y26978742D01*
X8302400Y26926400D01*
X8302400Y26315201D01*
X8373569Y26315201D01*
X8373583Y26315202D01*
X8403631Y26318019D01*
X8403632Y26318019D01*
X8530187Y26362303D01*
X8530188Y26362304D01*
X8638075Y26441928D01*
X8657321Y26468005D01*
X8713866Y26510938D01*
X8784645Y26516484D01*
X8847188Y26482883D01*
X8881636Y26420804D01*
X8884700Y26393184D01*
X8884700Y25179804D01*
X8903455Y25109813D01*
X8903455Y25109811D01*
X8903456Y25109811D01*
X8903457Y25109807D01*
X8905506Y25102159D01*
X8905507Y25102157D01*
X8945697Y25032545D01*
X8945705Y25032535D01*
X9280319Y24697921D01*
X9314345Y24635609D01*
X9309280Y24564794D01*
X9266733Y24507958D01*
X9207670Y24483904D01*
X9018247Y24458967D01*
X8989309Y24451213D01*
X8777471Y24394451D01*
X8621680Y24329920D01*
X8547182Y24299062D01*
X8547171Y24299057D01*
X8331319Y24174435D01*
X8331312Y24174430D01*
X8133572Y24022699D01*
X8133551Y24022680D01*
X7957320Y23846449D01*
X7957301Y23846428D01*
X7805570Y23648688D01*
X7805565Y23648681D01*
X7680943Y23432829D01*
X7680938Y23432818D01*
X7680937Y23432816D01*
X7651297Y23361259D01*
X7585549Y23202529D01*
X7585548Y23202525D01*
X7521033Y22961754D01*
X7488500Y22714634D01*
X7488500Y22465367D01*
X7521033Y22218247D01*
X7521035Y22218240D01*
X7585549Y21977471D01*
X7680937Y21747184D01*
X7680938Y21747183D01*
X7680943Y21747172D01*
X7805565Y21531320D01*
X7805570Y21531313D01*
X7957301Y21333573D01*
X7957320Y21333552D01*
X8133551Y21157321D01*
X8133572Y21157302D01*
X8331312Y21005571D01*
X8331319Y21005566D01*
X8547171Y20880944D01*
X8547175Y20880943D01*
X8547184Y20880937D01*
X8777471Y20785549D01*
X9018240Y20721035D01*
X9018244Y20721035D01*
X9018246Y20721034D01*
X9081937Y20712650D01*
X9265369Y20688500D01*
X9265376Y20688500D01*
X9514624Y20688500D01*
X9514631Y20688500D01*
X9737973Y20717904D01*
X9761753Y20721034D01*
X9761753Y20721035D01*
X9761760Y20721035D01*
X10002529Y20785549D01*
X10232816Y20880937D01*
X10448684Y21005568D01*
X10646436Y21157309D01*
X10822691Y21333564D01*
X10974432Y21531316D01*
X11099063Y21747184D01*
X11194451Y21977471D01*
X11258965Y22218240D01*
X11291500Y22465369D01*
X11291500Y22492551D01*
X11311502Y22560672D01*
X11365158Y22607165D01*
X11435432Y22617269D01*
X11500012Y22587775D01*
X11506595Y22581646D01*
X12139586Y21948655D01*
X12173612Y21886343D01*
X12168547Y21815528D01*
X12163282Y21803398D01*
X12129152Y21734855D01*
X12129147Y21734842D01*
X12071154Y21531017D01*
X12051601Y21320005D01*
X12051601Y21319996D01*
X12071154Y21108984D01*
X12129147Y20905159D01*
X12129148Y20905155D01*
X12129150Y20905150D01*
X12223611Y20715446D01*
X12343091Y20557230D01*
X12368180Y20490817D01*
X12353381Y20421380D01*
X12303390Y20370967D01*
X12242540Y20355300D01*
X7281300Y20355300D01*
X7213179Y20375302D01*
X7166686Y20428958D01*
X7155300Y20481300D01*
X7155300Y26706417D01*
X7535201Y26706417D01*
X7538018Y26676369D01*
X7538018Y26676368D01*
X7582302Y26549813D01*
X7582303Y26549812D01*
X7661926Y26441927D01*
X7769811Y26362304D01*
X7769810Y26362304D01*
X7896369Y26318019D01*
X7926422Y26315201D01*
X7997599Y26315202D01*
X7997600Y26315202D01*
X7997600Y26747600D01*
X7535201Y26747600D01*
X7535201Y26706417D01*
X7155300Y26706417D01*
X7155300Y29973580D01*
X7535200Y29973580D01*
X7535200Y29932400D01*
X7997600Y29932400D01*
X7997600Y30364801D01*
X7926432Y30364800D01*
X7926415Y30364799D01*
X7896368Y30361982D01*
X7896367Y30361982D01*
X7769812Y30317698D01*
X7769811Y30317697D01*
X7661926Y30238074D01*
X7582303Y30130189D01*
X7538018Y30003631D01*
X7535200Y29973580D01*
X7155300Y29973580D01*
X7155300Y31442227D01*
X7175302Y31510348D01*
X7228958Y31556841D01*
X7299232Y31566945D01*
X7349418Y31548226D01*
X7439947Y31490047D01*
X7578039Y31449500D01*
X7721961Y31449500D01*
X7860053Y31490047D01*
X7981128Y31567857D01*
X8075377Y31676627D01*
X8135165Y31807543D01*
X8155647Y31950000D01*
X8135165Y32092457D01*
X8075377Y32223373D01*
X8064273Y32236188D01*
X8034780Y32300769D01*
X8044885Y32371043D01*
X8091378Y32424698D01*
X8159498Y32444700D01*
X31818700Y32444700D01*
X31886821Y32424698D01*
G37*
%TD.AperFunction*%
%TD*%
%TA.AperFunction,Conductor*%
%TO.N,GND*%
G36*
X57786821Y19224698D02*
G01*
X57833314Y19171042D01*
X57844700Y19118700D01*
X57844700Y13958798D01*
X57824698Y13890677D01*
X57771042Y13844184D01*
X57700768Y13834080D01*
X57636188Y13863574D01*
X57621301Y13878864D01*
X57593157Y13913157D01*
X57440324Y14038584D01*
X57265957Y14131785D01*
X57265953Y14131787D01*
X57076763Y14189177D01*
X57076752Y14189179D01*
X56880003Y14208556D01*
X56879997Y14208556D01*
X56683247Y14189179D01*
X56683236Y14189177D01*
X56494046Y14131787D01*
X56494042Y14131785D01*
X56319675Y14038584D01*
X56166843Y13913157D01*
X56041416Y13760325D01*
X55948215Y13585958D01*
X55948213Y13585954D01*
X55890823Y13396764D01*
X55890821Y13396753D01*
X55871444Y13200004D01*
X55871444Y13199997D01*
X55890821Y13003248D01*
X55890823Y13003237D01*
X55948213Y12814047D01*
X55948215Y12814043D01*
X56021409Y12677106D01*
X56041416Y12639676D01*
X56166843Y12486843D01*
X56319676Y12361416D01*
X56472121Y12279933D01*
X56494042Y12268216D01*
X56494046Y12268214D01*
X56683236Y12210824D01*
X56683237Y12210824D01*
X56683240Y12210823D01*
X56683243Y12210823D01*
X56683247Y12210822D01*
X56879997Y12191444D01*
X56880000Y12191444D01*
X56880003Y12191444D01*
X57076752Y12210822D01*
X57076754Y12210823D01*
X57076760Y12210823D01*
X57135781Y12228727D01*
X57265953Y12268214D01*
X57265955Y12268216D01*
X57265958Y12268216D01*
X57440324Y12361416D01*
X57593157Y12486843D01*
X57621301Y12521137D01*
X57679977Y12561105D01*
X57750948Y12563006D01*
X57811681Y12526236D01*
X57842893Y12462468D01*
X57844700Y12441203D01*
X57844700Y8154921D01*
X57824698Y8086800D01*
X57771042Y8040307D01*
X57700768Y8030203D01*
X57650580Y8048922D01*
X57585268Y8090895D01*
X57540053Y8119953D01*
X57538527Y8120401D01*
X57401961Y8160500D01*
X57314050Y8160500D01*
X57245929Y8180502D01*
X57199436Y8234158D01*
X57189332Y8304432D01*
X57204931Y8349500D01*
X57319056Y8547172D01*
X57319055Y8547172D01*
X57319063Y8547184D01*
X57414451Y8777471D01*
X57478965Y9018240D01*
X57511500Y9265369D01*
X57511500Y9514631D01*
X57487350Y9698063D01*
X57478966Y9761754D01*
X57478965Y9761756D01*
X57478965Y9761760D01*
X57414451Y10002529D01*
X57319063Y10232816D01*
X57319057Y10232825D01*
X57319056Y10232829D01*
X57194434Y10448681D01*
X57194429Y10448688D01*
X57042698Y10646428D01*
X57042679Y10646449D01*
X56866448Y10822680D01*
X56866427Y10822699D01*
X56668687Y10974430D01*
X56668680Y10974435D01*
X56452828Y11099057D01*
X56452820Y11099061D01*
X56452816Y11099063D01*
X56222529Y11194451D01*
X56010691Y11251213D01*
X55981753Y11258967D01*
X55734633Y11291500D01*
X55734631Y11291500D01*
X55485369Y11291500D01*
X55485366Y11291500D01*
X55238246Y11258967D01*
X55123942Y11228339D01*
X54997471Y11194451D01*
X54841680Y11129920D01*
X54767182Y11099062D01*
X54767171Y11099057D01*
X54551319Y10974435D01*
X54551312Y10974430D01*
X54353572Y10822699D01*
X54353551Y10822680D01*
X54177320Y10646449D01*
X54177301Y10646428D01*
X54025570Y10448688D01*
X54025565Y10448681D01*
X53900943Y10232829D01*
X53900938Y10232818D01*
X53900937Y10232816D01*
X53871297Y10161259D01*
X53805549Y10002529D01*
X53805548Y10002525D01*
X53741033Y9761754D01*
X53708500Y9514634D01*
X53708500Y9265367D01*
X53741033Y9018247D01*
X53741035Y9018240D01*
X53805549Y8777471D01*
X53900937Y8547184D01*
X53900938Y8547183D01*
X53900943Y8547172D01*
X54025565Y8331320D01*
X54025570Y8331313D01*
X54177301Y8133573D01*
X54177320Y8133552D01*
X54353551Y7957321D01*
X54353572Y7957302D01*
X54551312Y7805571D01*
X54551319Y7805566D01*
X54767171Y7680944D01*
X54767175Y7680943D01*
X54767184Y7680937D01*
X54997471Y7585549D01*
X55238240Y7521035D01*
X55238244Y7521035D01*
X55238246Y7521034D01*
X55301937Y7512650D01*
X55485369Y7488500D01*
X55485376Y7488500D01*
X55734624Y7488500D01*
X55734631Y7488500D01*
X55957973Y7517904D01*
X55981753Y7521034D01*
X55981753Y7521035D01*
X55981760Y7521035D01*
X56222529Y7585549D01*
X56452816Y7680937D01*
X56636637Y7787067D01*
X56705632Y7803804D01*
X56772724Y7780584D01*
X56816611Y7724777D01*
X56823281Y7669012D01*
X56824353Y7669012D01*
X56824353Y7660050D01*
X56824356Y7660024D01*
X56824353Y7660004D01*
X56824353Y7660003D01*
X56824353Y7660000D01*
X56844835Y7517543D01*
X56858099Y7488500D01*
X56904623Y7386627D01*
X56924392Y7363812D01*
X56953885Y7299231D01*
X56943780Y7228957D01*
X56897287Y7175302D01*
X56829167Y7155300D01*
X52885930Y7155300D01*
X52817809Y7175302D01*
X52771316Y7228958D01*
X52761212Y7299232D01*
X52782717Y7353570D01*
X52881970Y7495320D01*
X52974007Y7692694D01*
X52974009Y7692698D01*
X53030373Y7903055D01*
X53036020Y7967600D01*
X52285085Y7967600D01*
X52308000Y8053120D01*
X52308000Y8186880D01*
X52285085Y8272400D01*
X53036020Y8272400D01*
X53030373Y8336946D01*
X52974009Y8547303D01*
X52974007Y8547307D01*
X52881970Y8744681D01*
X52757067Y8923061D01*
X52757058Y8923072D01*
X52603071Y9077059D01*
X52603060Y9077068D01*
X52424680Y9201971D01*
X52424681Y9201971D01*
X52227306Y9294008D01*
X52227301Y9294010D01*
X52016944Y9350375D01*
X52016939Y9350376D01*
X51952400Y9356023D01*
X51952400Y8605086D01*
X51866880Y8628000D01*
X51733120Y8628000D01*
X51647600Y8605086D01*
X51647600Y9356023D01*
X51583060Y9350376D01*
X51583055Y9350375D01*
X51372698Y9294010D01*
X51372693Y9294008D01*
X51175319Y9201971D01*
X50996939Y9077068D01*
X50996933Y9077064D01*
X50975517Y9055647D01*
X50913204Y9021623D01*
X50842388Y9026689D01*
X50835116Y9032133D01*
X50852409Y8985771D01*
X50837318Y8916397D01*
X50829944Y8904512D01*
X50718027Y8744677D01*
X50625992Y8547307D01*
X50625990Y8547302D01*
X50599192Y8447289D01*
X50562240Y8386666D01*
X50498379Y8355645D01*
X50427885Y8364073D01*
X50373138Y8409276D01*
X50356295Y8445419D01*
X50330850Y8534850D01*
X50330849Y8534852D01*
X50296718Y8603396D01*
X50284258Y8673291D01*
X50311565Y8738827D01*
X50320413Y8748655D01*
X50495254Y8923496D01*
X50637636Y9065878D01*
X50699947Y9099903D01*
X50770762Y9094838D01*
X50778035Y9089393D01*
X50760744Y9135758D01*
X50775837Y9205132D01*
X50777283Y9207709D01*
X50814494Y9272158D01*
X50819327Y9290193D01*
X50820480Y9294496D01*
X50827832Y9321937D01*
X50835300Y9349807D01*
X50835300Y9367113D01*
X50855302Y9435234D01*
X50908054Y9481309D01*
X50912267Y9483273D01*
X50996727Y9567733D01*
X51047206Y9675986D01*
X51053700Y9725312D01*
X51053700Y10074688D01*
X51047206Y10124014D01*
X50996727Y10232267D01*
X50996725Y10232269D01*
X50996725Y10232270D01*
X50908090Y10320905D01*
X50874064Y10383217D01*
X50879129Y10454032D01*
X50908090Y10499095D01*
X50996725Y10587731D01*
X50996727Y10587733D01*
X51047206Y10695986D01*
X51053700Y10745312D01*
X51053700Y11094688D01*
X51047206Y11144014D01*
X51040614Y11158149D01*
X51029954Y11228339D01*
X51030071Y11229181D01*
X51048880Y11360000D01*
X51028267Y11503368D01*
X50968097Y11635121D01*
X50873246Y11744586D01*
X50873245Y11744587D01*
X50873244Y11744588D01*
X50751400Y11822892D01*
X50751397Y11822894D01*
X50751396Y11822894D01*
X50746597Y11824303D01*
X50612421Y11863700D01*
X50467579Y11863700D01*
X50328606Y11822895D01*
X50328599Y11822892D01*
X50206755Y11744588D01*
X50111903Y11635122D01*
X50051733Y11503369D01*
X50036387Y11396632D01*
X50031120Y11360000D01*
X50040968Y11291500D01*
X50045194Y11262111D01*
X50035089Y11191837D01*
X50034671Y11190932D01*
X50012795Y11144019D01*
X50012792Y11144010D01*
X50006300Y11094693D01*
X50006300Y10838689D01*
X49986298Y10770568D01*
X49932642Y10724075D01*
X49862368Y10713971D01*
X49844804Y10717792D01*
X49821279Y10724699D01*
X49805272Y10729399D01*
X49660430Y10729399D01*
X49521457Y10688594D01*
X49521450Y10688591D01*
X49399606Y10610287D01*
X49368585Y10574486D01*
X49308859Y10536103D01*
X49273361Y10530999D01*
X49246694Y10530999D01*
X49194928Y10517129D01*
X49169045Y10510193D01*
X49099431Y10470002D01*
X49099425Y10469997D01*
X48733213Y10103785D01*
X48670901Y10069760D01*
X48600085Y10074825D01*
X48543250Y10117372D01*
X48529923Y10139632D01*
X48529661Y10140193D01*
X48493454Y10217841D01*
X48486727Y10232268D01*
X48398090Y10320905D01*
X48364064Y10383217D01*
X48369129Y10454032D01*
X48398090Y10499095D01*
X48486725Y10587731D01*
X48486727Y10587733D01*
X48537206Y10695986D01*
X48543700Y10745312D01*
X48543700Y11094688D01*
X48537206Y11144014D01*
X48486727Y11252267D01*
X48486725Y11252269D01*
X48486725Y11252270D01*
X48402269Y11336726D01*
X48402267Y11336727D01*
X48294012Y11387207D01*
X48244692Y11393700D01*
X48244688Y11393700D01*
X47795312Y11393700D01*
X47795307Y11393700D01*
X47745987Y11387207D01*
X47637733Y11336727D01*
X47637730Y11336726D01*
X47553274Y11252270D01*
X47553274Y11252269D01*
X47502793Y11144013D01*
X47496300Y11094693D01*
X47496300Y10950250D01*
X47476298Y10882129D01*
X47459395Y10861155D01*
X47030505Y10432266D01*
X47030497Y10432256D01*
X47002923Y10384495D01*
X46990308Y10362647D01*
X46990305Y10362640D01*
X46979123Y10320905D01*
X46970162Y10287461D01*
X46969500Y10284992D01*
X46969500Y10213449D01*
X46949498Y10145328D01*
X46932595Y10124354D01*
X46820446Y10012205D01*
X46758134Y9978179D01*
X46731351Y9975300D01*
X46628649Y9975300D01*
X46560528Y9995302D01*
X46539554Y10012205D01*
X46413805Y10137954D01*
X46379779Y10200266D01*
X46376900Y10227049D01*
X46376900Y16020257D01*
X46376899Y16020259D01*
X46375764Y16024494D01*
X46360490Y16081497D01*
X46356094Y16097906D01*
X46352749Y16103700D01*
X46337660Y16129835D01*
X46320922Y16198830D01*
X46322062Y16210769D01*
X46323621Y16221611D01*
X46325546Y16234998D01*
X46304933Y16378366D01*
X46244763Y16510119D01*
X46149912Y16619584D01*
X46149911Y16619585D01*
X46149910Y16619586D01*
X46028066Y16697890D01*
X46028063Y16697892D01*
X46028062Y16697892D01*
X45956316Y16718958D01*
X45889087Y16738698D01*
X45744245Y16738698D01*
X45605272Y16697893D01*
X45605265Y16697890D01*
X45483421Y16619586D01*
X45388569Y16510120D01*
X45328399Y16378367D01*
X45317332Y16301395D01*
X45307786Y16234998D01*
X45328399Y16091630D01*
X45388569Y15959877D01*
X45482690Y15851254D01*
X45483421Y15850411D01*
X45595154Y15778605D01*
X45605270Y15772104D01*
X45675797Y15751396D01*
X45735524Y15713013D01*
X45765017Y15648433D01*
X45766300Y15630500D01*
X45766300Y12863344D01*
X45746298Y12795223D01*
X45692642Y12748730D01*
X45622368Y12738626D01*
X45604803Y12742447D01*
X45532421Y12763700D01*
X45387579Y12763700D01*
X45248606Y12722895D01*
X45248599Y12722892D01*
X45126755Y12644588D01*
X45031903Y12535122D01*
X44971733Y12403369D01*
X44951120Y12260000D01*
X44971733Y12116632D01*
X45031903Y11984879D01*
X45031906Y11984875D01*
X45115524Y11888374D01*
X45145017Y11823794D01*
X45146300Y11805862D01*
X45146300Y11453635D01*
X45126298Y11385514D01*
X45073554Y11339442D01*
X45067733Y11336728D01*
X45067730Y11336726D01*
X44983274Y11252270D01*
X44983274Y11252269D01*
X44932793Y11144013D01*
X44926300Y11094693D01*
X44926300Y10745308D01*
X44932793Y10695988D01*
X44932794Y10695986D01*
X44983273Y10587733D01*
X44983274Y10587732D01*
X44983274Y10587731D01*
X45071910Y10499095D01*
X45105936Y10436783D01*
X45100871Y10365968D01*
X45071910Y10320905D01*
X44983274Y10232270D01*
X44983274Y10232269D01*
X44932793Y10124013D01*
X44926300Y10074693D01*
X44926300Y9725308D01*
X44932793Y9675988D01*
X44932794Y9675986D01*
X44983273Y9567733D01*
X44983274Y9567732D01*
X44983274Y9567731D01*
X45000527Y9550478D01*
X45034553Y9488166D01*
X45029488Y9417351D01*
X45000527Y9372288D01*
X44810743Y9182504D01*
X44748431Y9148478D01*
X44677616Y9153543D01*
X44676131Y9154108D01*
X44616823Y9177084D01*
X44551112Y9202541D01*
X44494277Y9224559D01*
X44494278Y9224559D01*
X44494275Y9224560D01*
X44494274Y9224560D01*
X44285961Y9263500D01*
X44074039Y9263500D01*
X43874703Y9226238D01*
X43865721Y9224559D01*
X43668119Y9148007D01*
X43668108Y9148002D01*
X43487933Y9036442D01*
X43331324Y8893674D01*
X43203612Y8724556D01*
X43109150Y8534850D01*
X43109147Y8534842D01*
X43051154Y8331017D01*
X43035462Y8161672D01*
X43018755Y8119601D01*
X43033656Y8090895D01*
X43035462Y8078329D01*
X43051154Y7908984D01*
X43109147Y7705159D01*
X43109148Y7705155D01*
X43109150Y7705150D01*
X43203611Y7515446D01*
X43323091Y7357230D01*
X43348180Y7290817D01*
X43333381Y7221380D01*
X43283390Y7170967D01*
X43222540Y7155300D01*
X42597460Y7155300D01*
X42529339Y7175302D01*
X42482846Y7228958D01*
X42472742Y7299232D01*
X42496908Y7357229D01*
X42616389Y7515446D01*
X42710850Y7705150D01*
X42768845Y7908982D01*
X42780078Y8030203D01*
X42784538Y8078329D01*
X42801244Y8120401D01*
X42786344Y8149106D01*
X42784538Y8161672D01*
X42768845Y8331017D01*
X42746578Y8409276D01*
X42710850Y8534850D01*
X42616389Y8724554D01*
X42488677Y8893671D01*
X42488675Y8893674D01*
X42332066Y9036442D01*
X42174652Y9133909D01*
X42127265Y9186776D01*
X42115982Y9256870D01*
X42144386Y9321937D01*
X42151877Y9330120D01*
X42327288Y9505531D01*
X42389598Y9539555D01*
X42460413Y9534490D01*
X42505476Y9505529D01*
X42527730Y9483275D01*
X42527731Y9483275D01*
X42527733Y9483273D01*
X42635986Y9432794D01*
X42685312Y9426300D01*
X42685319Y9426300D01*
X43134681Y9426300D01*
X43134688Y9426300D01*
X43184014Y9432794D01*
X43292267Y9483273D01*
X43376727Y9567733D01*
X43427206Y9675986D01*
X43433700Y9725312D01*
X43433700Y9942013D01*
X43453702Y10010134D01*
X43470600Y10031104D01*
X43803021Y10363524D01*
X43843004Y10432776D01*
X43863700Y10510017D01*
X43863700Y10589983D01*
X43863700Y11484321D01*
X43883702Y11552442D01*
X43894471Y11566829D01*
X43988097Y11674879D01*
X44048267Y11806632D01*
X44068880Y11950000D01*
X44048267Y12093368D01*
X43988097Y12225121D01*
X43896074Y12331322D01*
X43866582Y12395902D01*
X43865300Y12413833D01*
X43865300Y13150300D01*
X43885302Y13218421D01*
X43938958Y13264914D01*
X43991300Y13276300D01*
X44082421Y13276300D01*
X44221396Y13317106D01*
X44343246Y13395414D01*
X44438097Y13504879D01*
X44498267Y13636632D01*
X44518880Y13780000D01*
X44498267Y13923368D01*
X44438097Y14055121D01*
X44343246Y14164586D01*
X44343245Y14164587D01*
X44343244Y14164588D01*
X44221400Y14242892D01*
X44221397Y14242894D01*
X44221396Y14242894D01*
X44099766Y14278607D01*
X44082421Y14283700D01*
X43937579Y14283700D01*
X43936076Y14283484D01*
X43934574Y14283700D01*
X43928567Y14283700D01*
X43928567Y14284565D01*
X43865802Y14293592D01*
X43812149Y14340088D01*
X43792151Y14408210D01*
X43812157Y14476330D01*
X43829052Y14497295D01*
X43861155Y14529398D01*
X43923468Y14563421D01*
X43950249Y14566300D01*
X44062421Y14566300D01*
X44201396Y14607106D01*
X44323246Y14685414D01*
X44418097Y14794879D01*
X44478267Y14926632D01*
X44498880Y15070000D01*
X44478267Y15213368D01*
X44418097Y15345121D01*
X44400534Y15365390D01*
X44362998Y15408710D01*
X44333505Y15473291D01*
X44343610Y15543565D01*
X44362999Y15573735D01*
X44380559Y15594000D01*
X44440729Y15725753D01*
X44461342Y15869121D01*
X44440729Y16012489D01*
X44380559Y16144242D01*
X44285708Y16253707D01*
X44285707Y16253708D01*
X44285706Y16253709D01*
X44163862Y16332013D01*
X44163859Y16332015D01*
X44163858Y16332015D01*
X44080914Y16356369D01*
X44024883Y16372821D01*
X43880041Y16372821D01*
X43871919Y16372821D01*
X43803798Y16392823D01*
X43782828Y16409722D01*
X43596650Y16595900D01*
X43596647Y16595902D01*
X43596646Y16595903D01*
X43527032Y16636094D01*
X43449384Y16656900D01*
X42050182Y16656900D01*
X41972534Y16636094D01*
X41972533Y16636094D01*
X41972531Y16636093D01*
X41902917Y16595902D01*
X41902915Y16595901D01*
X41860615Y16553600D01*
X41760843Y16453829D01*
X41698534Y16419805D01*
X41671750Y16416925D01*
X41579579Y16416925D01*
X41440606Y16376120D01*
X41440599Y16376117D01*
X41318755Y16297813D01*
X41223903Y16188347D01*
X41163733Y16056594D01*
X41151283Y15970000D01*
X41143120Y15913225D01*
X41163733Y15769857D01*
X41223903Y15638104D01*
X41279678Y15573735D01*
X41318755Y15528638D01*
X41404877Y15473291D01*
X41440604Y15450331D01*
X41579579Y15409525D01*
X41724421Y15409525D01*
X41863396Y15450331D01*
X41985246Y15528639D01*
X42080097Y15638104D01*
X42140267Y15769857D01*
X42160880Y15913225D01*
X42160879Y15913227D01*
X42160880Y15913229D01*
X42160880Y15920300D01*
X42180882Y15988421D01*
X42234538Y16034914D01*
X42286880Y16046300D01*
X43230541Y16046300D01*
X43298662Y16026298D01*
X43319637Y16009395D01*
X43411186Y15917845D01*
X43445211Y15855533D01*
X43446807Y15846682D01*
X43464193Y15725760D01*
X43464194Y15725755D01*
X43464195Y15725753D01*
X43499506Y15648433D01*
X43524365Y15594000D01*
X43579463Y15530412D01*
X43608956Y15465830D01*
X43598851Y15395557D01*
X43579465Y15365390D01*
X43561903Y15345122D01*
X43526507Y15267615D01*
X43501733Y15213368D01*
X43485637Y15101413D01*
X43481120Y15069997D01*
X43481120Y15065071D01*
X43461118Y14996950D01*
X43444216Y14975976D01*
X42665702Y14197462D01*
X42665697Y14197456D01*
X42626077Y14128831D01*
X42626064Y14128809D01*
X42625508Y14127849D01*
X42625505Y14127841D01*
X42604700Y14050197D01*
X42604700Y12251251D01*
X42584698Y12183130D01*
X42531042Y12136637D01*
X42460768Y12126533D01*
X42396188Y12156027D01*
X42389605Y12162155D01*
X42146161Y12405598D01*
X42146155Y12405603D01*
X42076543Y12445793D01*
X42076542Y12445794D01*
X42076541Y12445794D01*
X42074929Y12446226D01*
X42073997Y12446476D01*
X42073996Y12446476D01*
X41998893Y12466600D01*
X41998890Y12466600D01*
X41389170Y12466600D01*
X41321049Y12486602D01*
X41293946Y12510087D01*
X41262924Y12545888D01*
X41141080Y12624192D01*
X41141077Y12624194D01*
X41141076Y12624194D01*
X41134070Y12626251D01*
X41002101Y12665000D01*
X40909929Y12665000D01*
X40841808Y12685002D01*
X40820838Y12701901D01*
X40708439Y12814300D01*
X40708438Y12814301D01*
X40708435Y12814303D01*
X40638824Y12854493D01*
X40638815Y12854496D01*
X40635042Y12855508D01*
X40635036Y12855508D01*
X40561173Y12875300D01*
X40561171Y12875300D01*
X39358649Y12875300D01*
X39290528Y12895302D01*
X39269554Y12912205D01*
X38628805Y13552954D01*
X38594779Y13615266D01*
X38591900Y13642049D01*
X38591900Y14209192D01*
X38582869Y14242895D01*
X38573301Y14278605D01*
X38573301Y14278607D01*
X38571096Y14286837D01*
X38571093Y14286843D01*
X38530901Y14356459D01*
X38222318Y14665042D01*
X38188292Y14727354D01*
X38193357Y14798169D01*
X38222320Y14843235D01*
X38232221Y14853136D01*
X38283237Y14962541D01*
X38289799Y15012386D01*
X38289800Y15012395D01*
X38289800Y15267605D01*
X38289799Y15267620D01*
X38286556Y15292256D01*
X38297496Y15362404D01*
X38344625Y15415502D01*
X38411478Y15434700D01*
X38758777Y15434700D01*
X38826898Y15414698D01*
X38873391Y15361042D01*
X38879672Y15344200D01*
X38880130Y15342639D01*
X38940303Y15210879D01*
X39035155Y15101413D01*
X39091705Y15065071D01*
X39157004Y15023106D01*
X39295979Y14982300D01*
X39440820Y14982300D01*
X39440821Y14982300D01*
X39503204Y15000617D01*
X39574198Y15000617D01*
X39633924Y14962234D01*
X39663417Y14897653D01*
X39664700Y14879721D01*
X39664700Y14730252D01*
X39644698Y14662131D01*
X39627795Y14641157D01*
X39557243Y14570605D01*
X39494931Y14536579D01*
X39468148Y14533700D01*
X39375977Y14533700D01*
X39237004Y14492895D01*
X39236997Y14492892D01*
X39115153Y14414588D01*
X39020301Y14305122D01*
X38960131Y14173369D01*
X38939518Y14030000D01*
X38960131Y13886632D01*
X39020301Y13754879D01*
X39115153Y13645413D01*
X39236997Y13567109D01*
X39237002Y13567106D01*
X39375977Y13526300D01*
X39520819Y13526300D01*
X39659794Y13567106D01*
X39781644Y13645414D01*
X39876495Y13754879D01*
X39936665Y13886632D01*
X39957278Y14030000D01*
X39956560Y14034992D01*
X39966659Y14105265D01*
X39992177Y14142022D01*
X40214301Y14364143D01*
X40254494Y14433761D01*
X40254958Y14435492D01*
X40275300Y14511409D01*
X40275300Y15834296D01*
X40254494Y15911944D01*
X40227328Y15958997D01*
X40221310Y15969421D01*
X40214302Y15981559D01*
X40214294Y15981569D01*
X39611568Y16584295D01*
X39611558Y16584303D01*
X39541946Y16624493D01*
X39541945Y16624494D01*
X39541944Y16624494D01*
X39538955Y16625295D01*
X39538953Y16625296D01*
X39504304Y16634580D01*
X39464296Y16645300D01*
X39464294Y16645300D01*
X38571250Y16645300D01*
X38503129Y16665302D01*
X38456636Y16718958D01*
X38446532Y16789232D01*
X38476026Y16853812D01*
X38482155Y16860395D01*
X38553565Y16931806D01*
X38553567Y16931809D01*
X38566786Y16954705D01*
X38593760Y17001424D01*
X38599333Y17022228D01*
X38599335Y17022228D01*
X38599335Y17022237D01*
X38614566Y17079073D01*
X38614566Y17279197D01*
X38634568Y17347318D01*
X38645336Y17361703D01*
X38737363Y17467908D01*
X38797533Y17599661D01*
X38818146Y17743029D01*
X38797533Y17886397D01*
X38737363Y18018150D01*
X38642512Y18127615D01*
X38642511Y18127616D01*
X38642510Y18127617D01*
X38520666Y18205921D01*
X38520663Y18205923D01*
X38520662Y18205923D01*
X38381687Y18246729D01*
X38314699Y18246729D01*
X38246578Y18266731D01*
X38200085Y18320387D01*
X38188699Y18372729D01*
X38188699Y18379490D01*
X38188698Y18379499D01*
X38174270Y18452036D01*
X38174270Y18452038D01*
X38174269Y18452040D01*
X38174269Y18452041D01*
X38119302Y18534302D01*
X38037038Y18589270D01*
X38037035Y18589271D01*
X37964494Y18603700D01*
X37155510Y18603700D01*
X37155500Y18603699D01*
X37082960Y18589270D01*
X37082959Y18589270D01*
X37000698Y18534303D01*
X36945730Y18452039D01*
X36945729Y18452036D01*
X36931300Y18379496D01*
X36931300Y18120511D01*
X36931301Y18120501D01*
X36945730Y18047961D01*
X36945730Y18047960D01*
X37000697Y17965699D01*
X37000698Y17965698D01*
X37060258Y17925901D01*
X37105786Y17871424D01*
X37114634Y17800981D01*
X37095022Y17751135D01*
X37075294Y17721611D01*
X37061300Y17651257D01*
X37061300Y17428744D01*
X37075294Y17358390D01*
X37075295Y17358387D01*
X37107626Y17310000D01*
X37128840Y17242247D01*
X37110056Y17173781D01*
X37107626Y17170000D01*
X37075295Y17121614D01*
X37075294Y17121611D01*
X37061300Y17051257D01*
X37061300Y16828744D01*
X37075294Y16758390D01*
X37075295Y16758387D01*
X37107626Y16710000D01*
X37128840Y16642247D01*
X37110056Y16573781D01*
X37107626Y16570000D01*
X37075295Y16521614D01*
X37075294Y16521611D01*
X37061300Y16451257D01*
X37061300Y16228744D01*
X37075294Y16158390D01*
X37075295Y16158387D01*
X37107626Y16110000D01*
X37128840Y16042247D01*
X37110056Y15973781D01*
X37107626Y15970000D01*
X37075295Y15921614D01*
X37075294Y15921611D01*
X37061300Y15851257D01*
X37061300Y15628741D01*
X37074434Y15562714D01*
X37068106Y15492000D01*
X37039952Y15449039D01*
X37017779Y15426866D01*
X36966762Y15317460D01*
X36960200Y15267615D01*
X36960200Y15012386D01*
X36966762Y14962541D01*
X37017779Y14853134D01*
X37039950Y14830963D01*
X37073976Y14768651D01*
X37074434Y14717287D01*
X37061300Y14651260D01*
X37061300Y14428744D01*
X37075294Y14358390D01*
X37075295Y14358387D01*
X37107626Y14310000D01*
X37128840Y14242247D01*
X37110056Y14173781D01*
X37107626Y14170000D01*
X37075295Y14121614D01*
X37075294Y14121611D01*
X37061300Y14051257D01*
X37061300Y13828744D01*
X37075294Y13758390D01*
X37075296Y13758387D01*
X37095021Y13728865D01*
X37116235Y13661112D01*
X37097451Y13592645D01*
X37060259Y13554101D01*
X37000697Y13514302D01*
X36945730Y13432039D01*
X36945729Y13432036D01*
X36931300Y13359496D01*
X36931300Y13100511D01*
X36931301Y13100501D01*
X36945730Y13027961D01*
X36945730Y13027960D01*
X37000697Y12945699D01*
X37000698Y12945698D01*
X37082962Y12890730D01*
X37155507Y12876300D01*
X37964492Y12876301D01*
X37964495Y12876302D01*
X37964499Y12876302D01*
X37988343Y12881045D01*
X38037038Y12890730D01*
X38037039Y12890731D01*
X38037040Y12890731D01*
X38069177Y12912205D01*
X38119302Y12945698D01*
X38135440Y12969850D01*
X38189916Y13015377D01*
X38260359Y13024225D01*
X38324403Y12993584D01*
X38329280Y12988961D01*
X38673653Y12644588D01*
X38992542Y12325699D01*
X39000044Y12321368D01*
X39062158Y12285506D01*
X39082964Y12279932D01*
X39139807Y12264700D01*
X40115279Y12264700D01*
X40183400Y12244698D01*
X40229893Y12191042D01*
X40239997Y12120768D01*
X40210503Y12056188D01*
X40183399Y12032702D01*
X40059347Y11952980D01*
X39964495Y11843514D01*
X39904325Y11711761D01*
X39883712Y11568392D01*
X39904325Y11425024D01*
X39904326Y11425021D01*
X39921814Y11386727D01*
X39931917Y11316453D01*
X39907423Y11262821D01*
X39909597Y11261299D01*
X39903274Y11252269D01*
X39852793Y11144013D01*
X39846300Y11094693D01*
X39846300Y10745308D01*
X39852793Y10695988D01*
X39852794Y10695986D01*
X39903273Y10587733D01*
X39903274Y10587732D01*
X39903274Y10587731D01*
X39991910Y10499095D01*
X40025936Y10436783D01*
X40020871Y10365968D01*
X39991910Y10320905D01*
X39903274Y10232270D01*
X39903274Y10232269D01*
X39852793Y10124013D01*
X39846300Y10074693D01*
X39846300Y9725308D01*
X39852793Y9675988D01*
X39852794Y9675986D01*
X39903273Y9567733D01*
X39903274Y9567732D01*
X39903274Y9567731D01*
X39987730Y9483275D01*
X39987731Y9483275D01*
X39987733Y9483273D01*
X40095986Y9432794D01*
X40145312Y9426300D01*
X40145319Y9426300D01*
X40594681Y9426300D01*
X40594688Y9426300D01*
X40644014Y9432794D01*
X40752267Y9483273D01*
X40836727Y9567733D01*
X40887206Y9675986D01*
X40893700Y9725312D01*
X40893700Y9942013D01*
X40913702Y10010134D01*
X40930605Y10031108D01*
X41691205Y10791708D01*
X41753517Y10825734D01*
X41824332Y10820669D01*
X41881168Y10778122D01*
X41905979Y10711602D01*
X41906300Y10702613D01*
X41906300Y10000250D01*
X41886298Y9932129D01*
X41869395Y9911155D01*
X41395705Y9437466D01*
X41395697Y9437456D01*
X41371559Y9395646D01*
X41371558Y9395645D01*
X41355507Y9367845D01*
X41355506Y9367843D01*
X41332668Y9282613D01*
X41295716Y9221990D01*
X41256479Y9197734D01*
X41128119Y9148007D01*
X41128108Y9148002D01*
X40947933Y9036442D01*
X40791324Y8893674D01*
X40663612Y8724556D01*
X40569150Y8534850D01*
X40569147Y8534842D01*
X40511154Y8331017D01*
X40495462Y8161672D01*
X40478755Y8119601D01*
X40493656Y8090895D01*
X40495462Y8078329D01*
X40511154Y7908984D01*
X40569147Y7705159D01*
X40569148Y7705155D01*
X40569150Y7705150D01*
X40663611Y7515446D01*
X40783091Y7357230D01*
X40808180Y7290817D01*
X40793381Y7221380D01*
X40743390Y7170967D01*
X40682540Y7155300D01*
X40057460Y7155300D01*
X39989339Y7175302D01*
X39942846Y7228958D01*
X39932742Y7299232D01*
X39956908Y7357229D01*
X40076389Y7515446D01*
X40170850Y7705150D01*
X40228845Y7908982D01*
X40240078Y8030203D01*
X40244538Y8078329D01*
X40261244Y8120401D01*
X40246344Y8149106D01*
X40244538Y8161672D01*
X40228845Y8331017D01*
X40206578Y8409276D01*
X40170850Y8534850D01*
X40076389Y8724554D01*
X39948677Y8893671D01*
X39948675Y8893674D01*
X39792066Y9036442D01*
X39611891Y9148002D01*
X39611886Y9148004D01*
X39611885Y9148005D01*
X39596134Y9154107D01*
X39414277Y9224559D01*
X39414278Y9224559D01*
X39414275Y9224560D01*
X39414274Y9224560D01*
X39205961Y9263500D01*
X38994039Y9263500D01*
X38889882Y9244030D01*
X38785724Y9224560D01*
X38603866Y9154107D01*
X38533120Y9148151D01*
X38470384Y9181388D01*
X38469255Y9182504D01*
X37862205Y9789554D01*
X37828179Y9851866D01*
X37825300Y9878649D01*
X37825300Y10140192D01*
X37804494Y10217842D01*
X37804494Y10217843D01*
X37764301Y10287458D01*
X37764299Y10287461D01*
X36227465Y11824295D01*
X36227455Y11824303D01*
X36157841Y11864494D01*
X36080193Y11885300D01*
X36080191Y11885300D01*
X35708649Y11885300D01*
X35640528Y11905302D01*
X35619554Y11922205D01*
X35432205Y12109554D01*
X35398179Y12171866D01*
X35395300Y12198649D01*
X35395300Y12556741D01*
X35415302Y12624862D01*
X35468958Y12671355D01*
X35539232Y12681459D01*
X35556798Y12677637D01*
X35558601Y12677108D01*
X35558604Y12677106D01*
X35697579Y12636300D01*
X35842421Y12636300D01*
X35938923Y12664635D01*
X36009917Y12664635D01*
X36069643Y12626251D01*
X36083538Y12606739D01*
X36127297Y12530945D01*
X36127305Y12530935D01*
X37302536Y11355704D01*
X37302539Y11355702D01*
X37302541Y11355700D01*
X37335401Y11336729D01*
X37335403Y11336727D01*
X37335404Y11336727D01*
X37372159Y11315506D01*
X37449807Y11294700D01*
X37870510Y11294700D01*
X37938631Y11274698D01*
X37965734Y11251213D01*
X37996755Y11215413D01*
X38085862Y11158148D01*
X38118604Y11137106D01*
X38257579Y11096300D01*
X38402421Y11096300D01*
X38541396Y11137106D01*
X38663246Y11215414D01*
X38758097Y11324879D01*
X38818267Y11456632D01*
X38838880Y11600000D01*
X38818267Y11743368D01*
X38758097Y11875121D01*
X38663246Y11984586D01*
X38663245Y11984587D01*
X38663244Y11984588D01*
X38541400Y12062892D01*
X38541397Y12062894D01*
X38541396Y12062894D01*
X38429125Y12095859D01*
X38402421Y12103700D01*
X38257579Y12103700D01*
X38118606Y12062895D01*
X38118599Y12062892D01*
X37996755Y11984588D01*
X37965734Y11948787D01*
X37906008Y11910404D01*
X37870510Y11905300D01*
X37668649Y11905300D01*
X37600528Y11925302D01*
X37579554Y11942205D01*
X36713805Y12807954D01*
X36679779Y12870266D01*
X36676900Y12897049D01*
X36676900Y13429382D01*
X36676900Y13429384D01*
X36657791Y13500700D01*
X36656094Y13507033D01*
X36651897Y13514302D01*
X36615901Y13576649D01*
X36615899Y13576652D01*
X36502005Y13690546D01*
X36467979Y13752858D01*
X36465100Y13779641D01*
X36465100Y16050601D01*
X36465100Y16050603D01*
X36444294Y16128251D01*
X36404101Y16197869D01*
X35747628Y16854341D01*
X35713604Y16916653D01*
X35718668Y16987468D01*
X35722529Y16996686D01*
X35753237Y17062541D01*
X35759799Y17112386D01*
X35759800Y17112395D01*
X35759800Y17367605D01*
X35759799Y17367615D01*
X35753237Y17417460D01*
X35702220Y17526867D01*
X35616866Y17612221D01*
X35507459Y17663238D01*
X35457614Y17669800D01*
X34932385Y17669800D01*
X34882540Y17663238D01*
X34773133Y17612221D01*
X34687779Y17526867D01*
X34636762Y17417460D01*
X34630200Y17367615D01*
X34630200Y17219674D01*
X34610198Y17151553D01*
X34556542Y17105060D01*
X34486268Y17094956D01*
X34439082Y17114314D01*
X34438538Y17113284D01*
X34430189Y17117697D01*
X34303630Y17161982D01*
X34273579Y17164800D01*
X34202400Y17164800D01*
X34202400Y16553600D01*
X34182398Y16485479D01*
X34128742Y16438986D01*
X34076400Y16427600D01*
X33435201Y16427600D01*
X33435201Y16386417D01*
X33438018Y16356369D01*
X33438018Y16356368D01*
X33482302Y16229813D01*
X33482303Y16229812D01*
X33561929Y16121923D01*
X33568603Y16115249D01*
X33566971Y16113618D01*
X33601984Y16067496D01*
X33607526Y15996716D01*
X33598423Y15969421D01*
X33542889Y15850329D01*
X33542889Y15850328D01*
X33536300Y15800277D01*
X33536300Y15439724D01*
X33542889Y15389674D01*
X33542890Y15389670D01*
X33555305Y15363046D01*
X33565966Y15292855D01*
X33562008Y15274307D01*
X33561734Y15273377D01*
X33541120Y15130000D01*
X33562533Y14981068D01*
X33552428Y14910794D01*
X33552011Y14909891D01*
X33542890Y14890332D01*
X33542889Y14890327D01*
X33536300Y14840277D01*
X33536300Y14479724D01*
X33542889Y14429674D01*
X33542890Y14429672D01*
X33584663Y14340088D01*
X33598423Y14310581D01*
X33609084Y14240389D01*
X33580104Y14175576D01*
X33568549Y14164805D01*
X33568603Y14164751D01*
X33561929Y14158078D01*
X33482303Y14050189D01*
X33438018Y13923631D01*
X33435200Y13893580D01*
X33435200Y13852400D01*
X34076400Y13852400D01*
X34144521Y13832398D01*
X34191014Y13778742D01*
X34202400Y13726400D01*
X34202400Y13115201D01*
X34273569Y13115201D01*
X34273583Y13115202D01*
X34303631Y13118019D01*
X34303632Y13118019D01*
X34430187Y13162303D01*
X34430188Y13162304D01*
X34538075Y13241928D01*
X34557321Y13268005D01*
X34613866Y13310938D01*
X34684645Y13316484D01*
X34747188Y13282883D01*
X34781636Y13220804D01*
X34784700Y13193184D01*
X34784700Y11979804D01*
X34803455Y11909813D01*
X34803455Y11909811D01*
X34803456Y11909811D01*
X34803457Y11909807D01*
X34805506Y11902159D01*
X34805507Y11902157D01*
X34845697Y11832545D01*
X34845705Y11832535D01*
X35180319Y11497921D01*
X35214345Y11435609D01*
X35209280Y11364794D01*
X35166733Y11307958D01*
X35107670Y11283904D01*
X34918247Y11258967D01*
X34889309Y11251213D01*
X34677471Y11194451D01*
X34521680Y11129920D01*
X34447182Y11099062D01*
X34447171Y11099057D01*
X34231319Y10974435D01*
X34231312Y10974430D01*
X34033572Y10822699D01*
X34033551Y10822680D01*
X33857320Y10646449D01*
X33857301Y10646428D01*
X33705570Y10448688D01*
X33705565Y10448681D01*
X33580943Y10232829D01*
X33580938Y10232818D01*
X33580937Y10232816D01*
X33551297Y10161259D01*
X33485549Y10002529D01*
X33485548Y10002525D01*
X33421033Y9761754D01*
X33388500Y9514634D01*
X33388500Y9265367D01*
X33421033Y9018247D01*
X33421035Y9018240D01*
X33485549Y8777471D01*
X33580937Y8547184D01*
X33580938Y8547183D01*
X33580943Y8547172D01*
X33705565Y8331320D01*
X33705570Y8331313D01*
X33857301Y8133573D01*
X33857320Y8133552D01*
X34033551Y7957321D01*
X34033572Y7957302D01*
X34231312Y7805571D01*
X34231319Y7805566D01*
X34447171Y7680944D01*
X34447175Y7680943D01*
X34447184Y7680937D01*
X34677471Y7585549D01*
X34918240Y7521035D01*
X34918244Y7521035D01*
X34918246Y7521034D01*
X34981937Y7512650D01*
X35165369Y7488500D01*
X35165376Y7488500D01*
X35414624Y7488500D01*
X35414631Y7488500D01*
X35637973Y7517904D01*
X35661753Y7521034D01*
X35661753Y7521035D01*
X35661760Y7521035D01*
X35902529Y7585549D01*
X36132816Y7680937D01*
X36348684Y7805568D01*
X36546436Y7957309D01*
X36722691Y8133564D01*
X36874432Y8331316D01*
X36999063Y8547184D01*
X37094451Y8777471D01*
X37158965Y9018240D01*
X37191500Y9265369D01*
X37191500Y9292551D01*
X37211502Y9360672D01*
X37265158Y9407165D01*
X37335432Y9417269D01*
X37400012Y9387775D01*
X37406595Y9381646D01*
X38039586Y8748655D01*
X38073612Y8686343D01*
X38068547Y8615528D01*
X38063282Y8603398D01*
X38029152Y8534855D01*
X38029147Y8534842D01*
X37971154Y8331017D01*
X37951601Y8120005D01*
X37951601Y8119996D01*
X37971154Y7908984D01*
X38029147Y7705159D01*
X38029148Y7705155D01*
X38029150Y7705150D01*
X38123611Y7515446D01*
X38243091Y7357230D01*
X38268180Y7290817D01*
X38253381Y7221380D01*
X38203390Y7170967D01*
X38142540Y7155300D01*
X33181300Y7155300D01*
X33113179Y7175302D01*
X33066686Y7228958D01*
X33055300Y7281300D01*
X33055300Y13506417D01*
X33435201Y13506417D01*
X33438018Y13476369D01*
X33438018Y13476368D01*
X33482302Y13349813D01*
X33482303Y13349812D01*
X33561926Y13241927D01*
X33669811Y13162304D01*
X33669810Y13162304D01*
X33796369Y13118019D01*
X33826422Y13115201D01*
X33897599Y13115202D01*
X33897600Y13115202D01*
X33897600Y13547600D01*
X33435201Y13547600D01*
X33435201Y13506417D01*
X33055300Y13506417D01*
X33055300Y16773580D01*
X33435200Y16773580D01*
X33435200Y16732400D01*
X33897600Y16732400D01*
X33897600Y17164801D01*
X33826432Y17164800D01*
X33826415Y17164799D01*
X33796368Y17161982D01*
X33796367Y17161982D01*
X33669812Y17117698D01*
X33669811Y17117697D01*
X33561926Y17038074D01*
X33482303Y16930189D01*
X33438018Y16803631D01*
X33435200Y16773580D01*
X33055300Y16773580D01*
X33055300Y18242227D01*
X33075302Y18310348D01*
X33128958Y18356841D01*
X33199232Y18366945D01*
X33249418Y18348226D01*
X33339947Y18290047D01*
X33478039Y18249500D01*
X33621961Y18249500D01*
X33760053Y18290047D01*
X33881128Y18367857D01*
X33975377Y18476627D01*
X34035165Y18607543D01*
X34055647Y18750000D01*
X34035165Y18892457D01*
X33975377Y19023373D01*
X33964273Y19036188D01*
X33934780Y19100769D01*
X33944885Y19171043D01*
X33991378Y19224698D01*
X34059498Y19244700D01*
X57718700Y19244700D01*
X57786821Y19224698D01*
G37*
%TD.AperFunction*%
%TD*%
%TA.AperFunction,Conductor*%
%TO.N,GND*%
G36*
X31886821Y19224698D02*
G01*
X31933314Y19171042D01*
X31944700Y19118700D01*
X31944700Y13958798D01*
X31924698Y13890677D01*
X31871042Y13844184D01*
X31800768Y13834080D01*
X31736188Y13863574D01*
X31721301Y13878864D01*
X31693157Y13913157D01*
X31540324Y14038584D01*
X31365957Y14131785D01*
X31365953Y14131787D01*
X31176763Y14189177D01*
X31176752Y14189179D01*
X30980003Y14208556D01*
X30979997Y14208556D01*
X30783247Y14189179D01*
X30783236Y14189177D01*
X30594046Y14131787D01*
X30594042Y14131785D01*
X30419675Y14038584D01*
X30266843Y13913157D01*
X30141416Y13760325D01*
X30048215Y13585958D01*
X30048213Y13585954D01*
X29990823Y13396764D01*
X29990821Y13396753D01*
X29971444Y13200004D01*
X29971444Y13199997D01*
X29990821Y13003248D01*
X29990823Y13003237D01*
X30048213Y12814047D01*
X30048215Y12814043D01*
X30121409Y12677106D01*
X30141416Y12639676D01*
X30266843Y12486843D01*
X30419676Y12361416D01*
X30572121Y12279933D01*
X30594042Y12268216D01*
X30594046Y12268214D01*
X30783236Y12210824D01*
X30783237Y12210824D01*
X30783240Y12210823D01*
X30783243Y12210823D01*
X30783247Y12210822D01*
X30979997Y12191444D01*
X30980000Y12191444D01*
X30980003Y12191444D01*
X31176752Y12210822D01*
X31176754Y12210823D01*
X31176760Y12210823D01*
X31235781Y12228727D01*
X31365953Y12268214D01*
X31365955Y12268216D01*
X31365958Y12268216D01*
X31540324Y12361416D01*
X31693157Y12486843D01*
X31721301Y12521137D01*
X31779977Y12561105D01*
X31850948Y12563006D01*
X31911681Y12526236D01*
X31942893Y12462468D01*
X31944700Y12441203D01*
X31944700Y8154921D01*
X31924698Y8086800D01*
X31871042Y8040307D01*
X31800768Y8030203D01*
X31750580Y8048922D01*
X31685268Y8090895D01*
X31640053Y8119953D01*
X31638527Y8120401D01*
X31501961Y8160500D01*
X31414050Y8160500D01*
X31345929Y8180502D01*
X31299436Y8234158D01*
X31289332Y8304432D01*
X31304931Y8349500D01*
X31419056Y8547172D01*
X31419055Y8547172D01*
X31419063Y8547184D01*
X31514451Y8777471D01*
X31578965Y9018240D01*
X31611500Y9265369D01*
X31611500Y9514631D01*
X31587350Y9698063D01*
X31578966Y9761754D01*
X31578965Y9761756D01*
X31578965Y9761760D01*
X31514451Y10002529D01*
X31419063Y10232816D01*
X31419057Y10232825D01*
X31419056Y10232829D01*
X31294434Y10448681D01*
X31294429Y10448688D01*
X31142698Y10646428D01*
X31142679Y10646449D01*
X30966448Y10822680D01*
X30966427Y10822699D01*
X30768687Y10974430D01*
X30768680Y10974435D01*
X30552828Y11099057D01*
X30552820Y11099061D01*
X30552816Y11099063D01*
X30322529Y11194451D01*
X30110691Y11251213D01*
X30081753Y11258967D01*
X29834633Y11291500D01*
X29834631Y11291500D01*
X29585369Y11291500D01*
X29585366Y11291500D01*
X29338246Y11258967D01*
X29223942Y11228339D01*
X29097471Y11194451D01*
X28941680Y11129920D01*
X28867182Y11099062D01*
X28867171Y11099057D01*
X28651319Y10974435D01*
X28651312Y10974430D01*
X28453572Y10822699D01*
X28453551Y10822680D01*
X28277320Y10646449D01*
X28277301Y10646428D01*
X28125570Y10448688D01*
X28125565Y10448681D01*
X28000943Y10232829D01*
X28000938Y10232818D01*
X28000937Y10232816D01*
X27971297Y10161259D01*
X27905549Y10002529D01*
X27905548Y10002525D01*
X27841033Y9761754D01*
X27808500Y9514634D01*
X27808500Y9265367D01*
X27841033Y9018247D01*
X27841035Y9018240D01*
X27905549Y8777471D01*
X28000937Y8547184D01*
X28000938Y8547183D01*
X28000943Y8547172D01*
X28125565Y8331320D01*
X28125570Y8331313D01*
X28277301Y8133573D01*
X28277320Y8133552D01*
X28453551Y7957321D01*
X28453572Y7957302D01*
X28651312Y7805571D01*
X28651319Y7805566D01*
X28867171Y7680944D01*
X28867175Y7680943D01*
X28867184Y7680937D01*
X29097471Y7585549D01*
X29338240Y7521035D01*
X29338244Y7521035D01*
X29338246Y7521034D01*
X29401937Y7512650D01*
X29585369Y7488500D01*
X29585376Y7488500D01*
X29834624Y7488500D01*
X29834631Y7488500D01*
X30057973Y7517904D01*
X30081753Y7521034D01*
X30081753Y7521035D01*
X30081760Y7521035D01*
X30322529Y7585549D01*
X30552816Y7680937D01*
X30736637Y7787067D01*
X30805632Y7803804D01*
X30872724Y7780584D01*
X30916611Y7724777D01*
X30923281Y7669012D01*
X30924353Y7669012D01*
X30924353Y7660050D01*
X30924356Y7660024D01*
X30924353Y7660004D01*
X30924353Y7660003D01*
X30924353Y7660000D01*
X30944835Y7517543D01*
X30958099Y7488500D01*
X31004623Y7386627D01*
X31024392Y7363812D01*
X31053885Y7299231D01*
X31043780Y7228957D01*
X30997287Y7175302D01*
X30929167Y7155300D01*
X26985930Y7155300D01*
X26917809Y7175302D01*
X26871316Y7228958D01*
X26861212Y7299232D01*
X26882717Y7353570D01*
X26981970Y7495320D01*
X27074007Y7692694D01*
X27074009Y7692698D01*
X27130373Y7903055D01*
X27136020Y7967600D01*
X26385085Y7967600D01*
X26408000Y8053120D01*
X26408000Y8186880D01*
X26385085Y8272400D01*
X27136020Y8272400D01*
X27130373Y8336946D01*
X27074009Y8547303D01*
X27074007Y8547307D01*
X26981970Y8744681D01*
X26857067Y8923061D01*
X26857058Y8923072D01*
X26703071Y9077059D01*
X26703060Y9077068D01*
X26524680Y9201971D01*
X26524681Y9201971D01*
X26327306Y9294008D01*
X26327301Y9294010D01*
X26116944Y9350375D01*
X26116939Y9350376D01*
X26052400Y9356023D01*
X26052400Y8605086D01*
X25966880Y8628000D01*
X25833120Y8628000D01*
X25747600Y8605086D01*
X25747600Y9356023D01*
X25683060Y9350376D01*
X25683055Y9350375D01*
X25472698Y9294010D01*
X25472693Y9294008D01*
X25275319Y9201971D01*
X25096939Y9077068D01*
X25096933Y9077064D01*
X25075517Y9055647D01*
X25013204Y9021623D01*
X24942388Y9026689D01*
X24935116Y9032133D01*
X24952409Y8985771D01*
X24937318Y8916397D01*
X24929944Y8904512D01*
X24818027Y8744677D01*
X24725992Y8547307D01*
X24725990Y8547302D01*
X24699192Y8447289D01*
X24662240Y8386666D01*
X24598379Y8355645D01*
X24527885Y8364073D01*
X24473138Y8409276D01*
X24456295Y8445419D01*
X24430850Y8534850D01*
X24430849Y8534852D01*
X24396718Y8603396D01*
X24384258Y8673291D01*
X24411565Y8738827D01*
X24420413Y8748655D01*
X24595254Y8923496D01*
X24737636Y9065878D01*
X24799947Y9099903D01*
X24870762Y9094838D01*
X24878035Y9089393D01*
X24860744Y9135758D01*
X24875837Y9205132D01*
X24877283Y9207709D01*
X24914494Y9272158D01*
X24919327Y9290193D01*
X24920480Y9294496D01*
X24927832Y9321937D01*
X24935300Y9349807D01*
X24935300Y9367113D01*
X24955302Y9435234D01*
X25008054Y9481309D01*
X25012267Y9483273D01*
X25096727Y9567733D01*
X25147206Y9675986D01*
X25153700Y9725312D01*
X25153700Y10074688D01*
X25147206Y10124014D01*
X25096727Y10232267D01*
X25096725Y10232269D01*
X25096725Y10232270D01*
X25008090Y10320905D01*
X24974064Y10383217D01*
X24979129Y10454032D01*
X25008090Y10499095D01*
X25096725Y10587731D01*
X25096727Y10587733D01*
X25147206Y10695986D01*
X25153700Y10745312D01*
X25153700Y11094688D01*
X25147206Y11144014D01*
X25140614Y11158149D01*
X25129954Y11228339D01*
X25130071Y11229181D01*
X25148880Y11360000D01*
X25128267Y11503368D01*
X25068097Y11635121D01*
X24973246Y11744586D01*
X24973245Y11744587D01*
X24973244Y11744588D01*
X24851400Y11822892D01*
X24851397Y11822894D01*
X24851396Y11822894D01*
X24846597Y11824303D01*
X24712421Y11863700D01*
X24567579Y11863700D01*
X24428606Y11822895D01*
X24428599Y11822892D01*
X24306755Y11744588D01*
X24211903Y11635122D01*
X24151733Y11503369D01*
X24136387Y11396632D01*
X24131120Y11360000D01*
X24140968Y11291500D01*
X24145194Y11262111D01*
X24135089Y11191837D01*
X24134671Y11190932D01*
X24112795Y11144019D01*
X24112792Y11144010D01*
X24106300Y11094693D01*
X24106300Y10838689D01*
X24086298Y10770568D01*
X24032642Y10724075D01*
X23962368Y10713971D01*
X23944804Y10717792D01*
X23921279Y10724699D01*
X23905272Y10729399D01*
X23760430Y10729399D01*
X23621457Y10688594D01*
X23621450Y10688591D01*
X23499606Y10610287D01*
X23468585Y10574486D01*
X23408859Y10536103D01*
X23373361Y10530999D01*
X23346694Y10530999D01*
X23294928Y10517129D01*
X23269045Y10510193D01*
X23199431Y10470002D01*
X23199425Y10469997D01*
X22833213Y10103785D01*
X22770901Y10069760D01*
X22700085Y10074825D01*
X22643250Y10117372D01*
X22629923Y10139632D01*
X22629661Y10140193D01*
X22593454Y10217841D01*
X22586727Y10232268D01*
X22498090Y10320905D01*
X22464064Y10383217D01*
X22469129Y10454032D01*
X22498090Y10499095D01*
X22586725Y10587731D01*
X22586727Y10587733D01*
X22637206Y10695986D01*
X22643700Y10745312D01*
X22643700Y11094688D01*
X22637206Y11144014D01*
X22586727Y11252267D01*
X22586725Y11252269D01*
X22586725Y11252270D01*
X22502269Y11336726D01*
X22502267Y11336727D01*
X22394012Y11387207D01*
X22344692Y11393700D01*
X22344688Y11393700D01*
X21895312Y11393700D01*
X21895307Y11393700D01*
X21845987Y11387207D01*
X21737733Y11336727D01*
X21737730Y11336726D01*
X21653274Y11252270D01*
X21653274Y11252269D01*
X21602793Y11144013D01*
X21596300Y11094693D01*
X21596300Y10950250D01*
X21576298Y10882129D01*
X21559395Y10861155D01*
X21130505Y10432266D01*
X21130497Y10432256D01*
X21102923Y10384495D01*
X21090308Y10362647D01*
X21090305Y10362640D01*
X21079123Y10320905D01*
X21070162Y10287461D01*
X21069500Y10284992D01*
X21069500Y10213449D01*
X21049498Y10145328D01*
X21032595Y10124354D01*
X20920446Y10012205D01*
X20858134Y9978179D01*
X20831351Y9975300D01*
X20728649Y9975300D01*
X20660528Y9995302D01*
X20639554Y10012205D01*
X20513805Y10137954D01*
X20479779Y10200266D01*
X20476900Y10227049D01*
X20476900Y16020257D01*
X20476899Y16020259D01*
X20475764Y16024494D01*
X20460490Y16081497D01*
X20456094Y16097906D01*
X20452749Y16103700D01*
X20437660Y16129835D01*
X20420922Y16198830D01*
X20422062Y16210769D01*
X20423621Y16221611D01*
X20425546Y16234998D01*
X20404933Y16378366D01*
X20344763Y16510119D01*
X20249912Y16619584D01*
X20249911Y16619585D01*
X20249910Y16619586D01*
X20128066Y16697890D01*
X20128063Y16697892D01*
X20128062Y16697892D01*
X20056316Y16718958D01*
X19989087Y16738698D01*
X19844245Y16738698D01*
X19705272Y16697893D01*
X19705265Y16697890D01*
X19583421Y16619586D01*
X19488569Y16510120D01*
X19428399Y16378367D01*
X19417332Y16301395D01*
X19407786Y16234998D01*
X19428399Y16091630D01*
X19488569Y15959877D01*
X19582690Y15851254D01*
X19583421Y15850411D01*
X19695154Y15778605D01*
X19705270Y15772104D01*
X19775797Y15751396D01*
X19835524Y15713013D01*
X19865017Y15648433D01*
X19866300Y15630500D01*
X19866300Y12863344D01*
X19846298Y12795223D01*
X19792642Y12748730D01*
X19722368Y12738626D01*
X19704803Y12742447D01*
X19632421Y12763700D01*
X19487579Y12763700D01*
X19348606Y12722895D01*
X19348599Y12722892D01*
X19226755Y12644588D01*
X19131903Y12535122D01*
X19071733Y12403369D01*
X19051120Y12260000D01*
X19071733Y12116632D01*
X19131903Y11984879D01*
X19131906Y11984875D01*
X19215524Y11888374D01*
X19245017Y11823794D01*
X19246300Y11805862D01*
X19246300Y11453635D01*
X19226298Y11385514D01*
X19173554Y11339442D01*
X19167733Y11336728D01*
X19167730Y11336726D01*
X19083274Y11252270D01*
X19083274Y11252269D01*
X19032793Y11144013D01*
X19026300Y11094693D01*
X19026300Y10745308D01*
X19032793Y10695988D01*
X19032794Y10695986D01*
X19083273Y10587733D01*
X19083274Y10587732D01*
X19083274Y10587731D01*
X19171910Y10499095D01*
X19205936Y10436783D01*
X19200871Y10365968D01*
X19171910Y10320905D01*
X19083274Y10232270D01*
X19083274Y10232269D01*
X19032793Y10124013D01*
X19026300Y10074693D01*
X19026300Y9725308D01*
X19032793Y9675988D01*
X19032794Y9675986D01*
X19083273Y9567733D01*
X19083274Y9567732D01*
X19083274Y9567731D01*
X19100527Y9550478D01*
X19134553Y9488166D01*
X19129488Y9417351D01*
X19100527Y9372288D01*
X18910743Y9182504D01*
X18848431Y9148478D01*
X18777616Y9153543D01*
X18776131Y9154108D01*
X18716823Y9177084D01*
X18651112Y9202541D01*
X18594277Y9224559D01*
X18594278Y9224559D01*
X18594275Y9224560D01*
X18594274Y9224560D01*
X18385961Y9263500D01*
X18174039Y9263500D01*
X17974703Y9226238D01*
X17965721Y9224559D01*
X17768119Y9148007D01*
X17768108Y9148002D01*
X17587933Y9036442D01*
X17431324Y8893674D01*
X17303612Y8724556D01*
X17209150Y8534850D01*
X17209147Y8534842D01*
X17151154Y8331017D01*
X17135462Y8161672D01*
X17118755Y8119601D01*
X17133656Y8090895D01*
X17135462Y8078329D01*
X17151154Y7908984D01*
X17209147Y7705159D01*
X17209148Y7705155D01*
X17209150Y7705150D01*
X17303611Y7515446D01*
X17423091Y7357230D01*
X17448180Y7290817D01*
X17433381Y7221380D01*
X17383390Y7170967D01*
X17322540Y7155300D01*
X16697460Y7155300D01*
X16629339Y7175302D01*
X16582846Y7228958D01*
X16572742Y7299232D01*
X16596908Y7357229D01*
X16716389Y7515446D01*
X16810850Y7705150D01*
X16868845Y7908982D01*
X16880078Y8030203D01*
X16884538Y8078329D01*
X16901244Y8120401D01*
X16886344Y8149106D01*
X16884538Y8161672D01*
X16868845Y8331017D01*
X16846578Y8409276D01*
X16810850Y8534850D01*
X16716389Y8724554D01*
X16588677Y8893671D01*
X16588675Y8893674D01*
X16432066Y9036442D01*
X16274652Y9133909D01*
X16227265Y9186776D01*
X16215982Y9256870D01*
X16244386Y9321937D01*
X16251877Y9330120D01*
X16427288Y9505531D01*
X16489598Y9539555D01*
X16560413Y9534490D01*
X16605476Y9505529D01*
X16627730Y9483275D01*
X16627731Y9483275D01*
X16627733Y9483273D01*
X16735986Y9432794D01*
X16785312Y9426300D01*
X16785319Y9426300D01*
X17234681Y9426300D01*
X17234688Y9426300D01*
X17284014Y9432794D01*
X17392267Y9483273D01*
X17476727Y9567733D01*
X17527206Y9675986D01*
X17533700Y9725312D01*
X17533700Y9942013D01*
X17553702Y10010134D01*
X17570600Y10031104D01*
X17903021Y10363524D01*
X17943004Y10432776D01*
X17963700Y10510017D01*
X17963700Y10589983D01*
X17963700Y11484321D01*
X17983702Y11552442D01*
X17994471Y11566829D01*
X18088097Y11674879D01*
X18148267Y11806632D01*
X18168880Y11950000D01*
X18148267Y12093368D01*
X18088097Y12225121D01*
X17996074Y12331322D01*
X17966582Y12395902D01*
X17965300Y12413833D01*
X17965300Y13150300D01*
X17985302Y13218421D01*
X18038958Y13264914D01*
X18091300Y13276300D01*
X18182421Y13276300D01*
X18321396Y13317106D01*
X18443246Y13395414D01*
X18538097Y13504879D01*
X18598267Y13636632D01*
X18618880Y13780000D01*
X18598267Y13923368D01*
X18538097Y14055121D01*
X18443246Y14164586D01*
X18443245Y14164587D01*
X18443244Y14164588D01*
X18321400Y14242892D01*
X18321397Y14242894D01*
X18321396Y14242894D01*
X18199766Y14278607D01*
X18182421Y14283700D01*
X18037579Y14283700D01*
X18036076Y14283484D01*
X18034574Y14283700D01*
X18028567Y14283700D01*
X18028567Y14284565D01*
X17965802Y14293592D01*
X17912149Y14340088D01*
X17892151Y14408210D01*
X17912157Y14476330D01*
X17929052Y14497295D01*
X17961155Y14529398D01*
X18023468Y14563421D01*
X18050249Y14566300D01*
X18162421Y14566300D01*
X18301396Y14607106D01*
X18423246Y14685414D01*
X18518097Y14794879D01*
X18578267Y14926632D01*
X18598880Y15070000D01*
X18578267Y15213368D01*
X18518097Y15345121D01*
X18500534Y15365390D01*
X18462998Y15408710D01*
X18433505Y15473291D01*
X18443610Y15543565D01*
X18462999Y15573735D01*
X18480559Y15594000D01*
X18540729Y15725753D01*
X18561342Y15869121D01*
X18540729Y16012489D01*
X18480559Y16144242D01*
X18385708Y16253707D01*
X18385707Y16253708D01*
X18385706Y16253709D01*
X18263862Y16332013D01*
X18263859Y16332015D01*
X18263858Y16332015D01*
X18180914Y16356369D01*
X18124883Y16372821D01*
X17980041Y16372821D01*
X17971919Y16372821D01*
X17903798Y16392823D01*
X17882828Y16409722D01*
X17696650Y16595900D01*
X17696647Y16595902D01*
X17696646Y16595903D01*
X17627032Y16636094D01*
X17549384Y16656900D01*
X16150182Y16656900D01*
X16072534Y16636094D01*
X16072533Y16636094D01*
X16072531Y16636093D01*
X16002917Y16595902D01*
X16002915Y16595901D01*
X15960615Y16553600D01*
X15860843Y16453829D01*
X15798534Y16419805D01*
X15771750Y16416925D01*
X15679579Y16416925D01*
X15540606Y16376120D01*
X15540599Y16376117D01*
X15418755Y16297813D01*
X15323903Y16188347D01*
X15263733Y16056594D01*
X15251283Y15970000D01*
X15243120Y15913225D01*
X15263733Y15769857D01*
X15323903Y15638104D01*
X15379678Y15573735D01*
X15418755Y15528638D01*
X15504877Y15473291D01*
X15540604Y15450331D01*
X15679579Y15409525D01*
X15824421Y15409525D01*
X15963396Y15450331D01*
X16085246Y15528639D01*
X16180097Y15638104D01*
X16240267Y15769857D01*
X16260880Y15913225D01*
X16260879Y15913227D01*
X16260880Y15913229D01*
X16260880Y15920300D01*
X16280882Y15988421D01*
X16334538Y16034914D01*
X16386880Y16046300D01*
X17330541Y16046300D01*
X17398662Y16026298D01*
X17419637Y16009395D01*
X17511186Y15917845D01*
X17545211Y15855533D01*
X17546807Y15846682D01*
X17564193Y15725760D01*
X17564194Y15725755D01*
X17564195Y15725753D01*
X17599506Y15648433D01*
X17624365Y15594000D01*
X17679463Y15530412D01*
X17708956Y15465830D01*
X17698851Y15395557D01*
X17679465Y15365390D01*
X17661903Y15345122D01*
X17626507Y15267615D01*
X17601733Y15213368D01*
X17585637Y15101413D01*
X17581120Y15069997D01*
X17581120Y15065071D01*
X17561118Y14996950D01*
X17544216Y14975976D01*
X16765702Y14197462D01*
X16765697Y14197456D01*
X16726077Y14128831D01*
X16726064Y14128809D01*
X16725508Y14127849D01*
X16725505Y14127841D01*
X16704700Y14050197D01*
X16704700Y12251251D01*
X16684698Y12183130D01*
X16631042Y12136637D01*
X16560768Y12126533D01*
X16496188Y12156027D01*
X16489605Y12162155D01*
X16246161Y12405598D01*
X16246155Y12405603D01*
X16176543Y12445793D01*
X16176542Y12445794D01*
X16176541Y12445794D01*
X16174929Y12446226D01*
X16173997Y12446476D01*
X16173996Y12446476D01*
X16098893Y12466600D01*
X16098890Y12466600D01*
X15489170Y12466600D01*
X15421049Y12486602D01*
X15393946Y12510087D01*
X15362924Y12545888D01*
X15241080Y12624192D01*
X15241077Y12624194D01*
X15241076Y12624194D01*
X15234070Y12626251D01*
X15102101Y12665000D01*
X15009929Y12665000D01*
X14941808Y12685002D01*
X14920838Y12701901D01*
X14808439Y12814300D01*
X14808438Y12814301D01*
X14808435Y12814303D01*
X14738824Y12854493D01*
X14738815Y12854496D01*
X14735042Y12855508D01*
X14735036Y12855508D01*
X14661173Y12875300D01*
X14661171Y12875300D01*
X13458649Y12875300D01*
X13390528Y12895302D01*
X13369554Y12912205D01*
X12728805Y13552954D01*
X12694779Y13615266D01*
X12691900Y13642049D01*
X12691900Y14209192D01*
X12682869Y14242895D01*
X12673301Y14278605D01*
X12673301Y14278607D01*
X12671096Y14286837D01*
X12671093Y14286843D01*
X12630901Y14356459D01*
X12322318Y14665042D01*
X12288292Y14727354D01*
X12293357Y14798169D01*
X12322320Y14843235D01*
X12332221Y14853136D01*
X12383237Y14962541D01*
X12389799Y15012386D01*
X12389800Y15012395D01*
X12389800Y15267605D01*
X12389799Y15267620D01*
X12386556Y15292256D01*
X12397496Y15362404D01*
X12444625Y15415502D01*
X12511478Y15434700D01*
X12858777Y15434700D01*
X12926898Y15414698D01*
X12973391Y15361042D01*
X12979672Y15344200D01*
X12980130Y15342639D01*
X13040303Y15210879D01*
X13135155Y15101413D01*
X13191705Y15065071D01*
X13257004Y15023106D01*
X13395979Y14982300D01*
X13540820Y14982300D01*
X13540821Y14982300D01*
X13603204Y15000617D01*
X13674198Y15000617D01*
X13733924Y14962234D01*
X13763417Y14897653D01*
X13764700Y14879721D01*
X13764700Y14730252D01*
X13744698Y14662131D01*
X13727795Y14641157D01*
X13657243Y14570605D01*
X13594931Y14536579D01*
X13568148Y14533700D01*
X13475977Y14533700D01*
X13337004Y14492895D01*
X13336997Y14492892D01*
X13215153Y14414588D01*
X13120301Y14305122D01*
X13060131Y14173369D01*
X13039518Y14030000D01*
X13060131Y13886632D01*
X13120301Y13754879D01*
X13215153Y13645413D01*
X13336997Y13567109D01*
X13337002Y13567106D01*
X13475977Y13526300D01*
X13620819Y13526300D01*
X13759794Y13567106D01*
X13881644Y13645414D01*
X13976495Y13754879D01*
X14036665Y13886632D01*
X14057278Y14030000D01*
X14056560Y14034992D01*
X14066659Y14105265D01*
X14092177Y14142022D01*
X14314301Y14364143D01*
X14354494Y14433761D01*
X14354958Y14435492D01*
X14375300Y14511409D01*
X14375300Y15834296D01*
X14354494Y15911944D01*
X14327328Y15958997D01*
X14321310Y15969421D01*
X14314302Y15981559D01*
X14314294Y15981569D01*
X13711568Y16584295D01*
X13711558Y16584303D01*
X13641946Y16624493D01*
X13641945Y16624494D01*
X13641944Y16624494D01*
X13638955Y16625295D01*
X13638953Y16625296D01*
X13604304Y16634580D01*
X13564296Y16645300D01*
X13564294Y16645300D01*
X12671250Y16645300D01*
X12603129Y16665302D01*
X12556636Y16718958D01*
X12546532Y16789232D01*
X12576026Y16853812D01*
X12582155Y16860395D01*
X12653565Y16931806D01*
X12653567Y16931809D01*
X12666786Y16954705D01*
X12693760Y17001424D01*
X12699333Y17022228D01*
X12699335Y17022228D01*
X12699335Y17022237D01*
X12714566Y17079073D01*
X12714566Y17279197D01*
X12734568Y17347318D01*
X12745336Y17361703D01*
X12837363Y17467908D01*
X12897533Y17599661D01*
X12918146Y17743029D01*
X12897533Y17886397D01*
X12837363Y18018150D01*
X12742512Y18127615D01*
X12742511Y18127616D01*
X12742510Y18127617D01*
X12620666Y18205921D01*
X12620663Y18205923D01*
X12620662Y18205923D01*
X12481687Y18246729D01*
X12414699Y18246729D01*
X12346578Y18266731D01*
X12300085Y18320387D01*
X12288699Y18372729D01*
X12288699Y18379490D01*
X12288698Y18379499D01*
X12274270Y18452036D01*
X12274270Y18452038D01*
X12274269Y18452040D01*
X12274269Y18452041D01*
X12219302Y18534302D01*
X12137038Y18589270D01*
X12137035Y18589271D01*
X12064494Y18603700D01*
X11255510Y18603700D01*
X11255500Y18603699D01*
X11182960Y18589270D01*
X11182959Y18589270D01*
X11100698Y18534303D01*
X11045730Y18452039D01*
X11045729Y18452036D01*
X11031300Y18379496D01*
X11031300Y18120511D01*
X11031301Y18120501D01*
X11045730Y18047961D01*
X11045730Y18047960D01*
X11100697Y17965699D01*
X11100698Y17965698D01*
X11160258Y17925901D01*
X11205786Y17871424D01*
X11214634Y17800981D01*
X11195022Y17751135D01*
X11175294Y17721611D01*
X11161300Y17651257D01*
X11161300Y17428744D01*
X11175294Y17358390D01*
X11175295Y17358387D01*
X11207626Y17310000D01*
X11228840Y17242247D01*
X11210056Y17173781D01*
X11207626Y17170000D01*
X11175295Y17121614D01*
X11175294Y17121611D01*
X11161300Y17051257D01*
X11161300Y16828744D01*
X11175294Y16758390D01*
X11175295Y16758387D01*
X11207626Y16710000D01*
X11228840Y16642247D01*
X11210056Y16573781D01*
X11207626Y16570000D01*
X11175295Y16521614D01*
X11175294Y16521611D01*
X11161300Y16451257D01*
X11161300Y16228744D01*
X11175294Y16158390D01*
X11175295Y16158387D01*
X11207626Y16110000D01*
X11228840Y16042247D01*
X11210056Y15973781D01*
X11207626Y15970000D01*
X11175295Y15921614D01*
X11175294Y15921611D01*
X11161300Y15851257D01*
X11161300Y15628741D01*
X11174434Y15562714D01*
X11168106Y15492000D01*
X11139952Y15449039D01*
X11117779Y15426866D01*
X11066762Y15317460D01*
X11060200Y15267615D01*
X11060200Y15012386D01*
X11066762Y14962541D01*
X11117779Y14853134D01*
X11139950Y14830963D01*
X11173976Y14768651D01*
X11174434Y14717287D01*
X11161300Y14651260D01*
X11161300Y14428744D01*
X11175294Y14358390D01*
X11175295Y14358387D01*
X11207626Y14310000D01*
X11228840Y14242247D01*
X11210056Y14173781D01*
X11207626Y14170000D01*
X11175295Y14121614D01*
X11175294Y14121611D01*
X11161300Y14051257D01*
X11161300Y13828744D01*
X11175294Y13758390D01*
X11175296Y13758387D01*
X11195021Y13728865D01*
X11216235Y13661112D01*
X11197451Y13592645D01*
X11160259Y13554101D01*
X11100697Y13514302D01*
X11045730Y13432039D01*
X11045729Y13432036D01*
X11031300Y13359496D01*
X11031300Y13100511D01*
X11031301Y13100501D01*
X11045730Y13027961D01*
X11045730Y13027960D01*
X11100697Y12945699D01*
X11100698Y12945698D01*
X11182962Y12890730D01*
X11255507Y12876300D01*
X12064492Y12876301D01*
X12064495Y12876302D01*
X12064499Y12876302D01*
X12088343Y12881045D01*
X12137038Y12890730D01*
X12137039Y12890731D01*
X12137040Y12890731D01*
X12169177Y12912205D01*
X12219302Y12945698D01*
X12235440Y12969850D01*
X12289916Y13015377D01*
X12360359Y13024225D01*
X12424403Y12993584D01*
X12429280Y12988961D01*
X12773653Y12644588D01*
X13092542Y12325699D01*
X13100044Y12321368D01*
X13162158Y12285506D01*
X13182964Y12279932D01*
X13239807Y12264700D01*
X14215279Y12264700D01*
X14283400Y12244698D01*
X14329893Y12191042D01*
X14339997Y12120768D01*
X14310503Y12056188D01*
X14283399Y12032702D01*
X14159347Y11952980D01*
X14064495Y11843514D01*
X14004325Y11711761D01*
X13983712Y11568392D01*
X14004325Y11425024D01*
X14004326Y11425021D01*
X14021814Y11386727D01*
X14031917Y11316453D01*
X14007423Y11262821D01*
X14009597Y11261299D01*
X14003274Y11252269D01*
X13952793Y11144013D01*
X13946300Y11094693D01*
X13946300Y10745308D01*
X13952793Y10695988D01*
X13952794Y10695986D01*
X14003273Y10587733D01*
X14003274Y10587732D01*
X14003274Y10587731D01*
X14091910Y10499095D01*
X14125936Y10436783D01*
X14120871Y10365968D01*
X14091910Y10320905D01*
X14003274Y10232270D01*
X14003274Y10232269D01*
X13952793Y10124013D01*
X13946300Y10074693D01*
X13946300Y9725308D01*
X13952793Y9675988D01*
X13952794Y9675986D01*
X14003273Y9567733D01*
X14003274Y9567732D01*
X14003274Y9567731D01*
X14087730Y9483275D01*
X14087731Y9483275D01*
X14087733Y9483273D01*
X14195986Y9432794D01*
X14245312Y9426300D01*
X14245319Y9426300D01*
X14694681Y9426300D01*
X14694688Y9426300D01*
X14744014Y9432794D01*
X14852267Y9483273D01*
X14936727Y9567733D01*
X14987206Y9675986D01*
X14993700Y9725312D01*
X14993700Y9942013D01*
X15013702Y10010134D01*
X15030605Y10031108D01*
X15791205Y10791708D01*
X15853517Y10825734D01*
X15924332Y10820669D01*
X15981168Y10778122D01*
X16005979Y10711602D01*
X16006300Y10702613D01*
X16006300Y10000250D01*
X15986298Y9932129D01*
X15969395Y9911155D01*
X15495705Y9437466D01*
X15495697Y9437456D01*
X15471559Y9395646D01*
X15471558Y9395645D01*
X15455507Y9367845D01*
X15455506Y9367843D01*
X15432668Y9282613D01*
X15395716Y9221990D01*
X15356479Y9197734D01*
X15228119Y9148007D01*
X15228108Y9148002D01*
X15047933Y9036442D01*
X14891324Y8893674D01*
X14763612Y8724556D01*
X14669150Y8534850D01*
X14669147Y8534842D01*
X14611154Y8331017D01*
X14595462Y8161672D01*
X14578755Y8119601D01*
X14593656Y8090895D01*
X14595462Y8078329D01*
X14611154Y7908984D01*
X14669147Y7705159D01*
X14669148Y7705155D01*
X14669150Y7705150D01*
X14763611Y7515446D01*
X14883091Y7357230D01*
X14908180Y7290817D01*
X14893381Y7221380D01*
X14843390Y7170967D01*
X14782540Y7155300D01*
X14157460Y7155300D01*
X14089339Y7175302D01*
X14042846Y7228958D01*
X14032742Y7299232D01*
X14056908Y7357229D01*
X14176389Y7515446D01*
X14270850Y7705150D01*
X14328845Y7908982D01*
X14340078Y8030203D01*
X14344538Y8078329D01*
X14361244Y8120401D01*
X14346344Y8149106D01*
X14344538Y8161672D01*
X14328845Y8331017D01*
X14306578Y8409276D01*
X14270850Y8534850D01*
X14176389Y8724554D01*
X14048677Y8893671D01*
X14048675Y8893674D01*
X13892066Y9036442D01*
X13711891Y9148002D01*
X13711886Y9148004D01*
X13711885Y9148005D01*
X13696134Y9154107D01*
X13514277Y9224559D01*
X13514278Y9224559D01*
X13514275Y9224560D01*
X13514274Y9224560D01*
X13305961Y9263500D01*
X13094039Y9263500D01*
X12989882Y9244030D01*
X12885724Y9224560D01*
X12703866Y9154107D01*
X12633120Y9148151D01*
X12570384Y9181388D01*
X12569255Y9182504D01*
X11962205Y9789554D01*
X11928179Y9851866D01*
X11925300Y9878649D01*
X11925300Y10140192D01*
X11904494Y10217842D01*
X11904494Y10217843D01*
X11864301Y10287458D01*
X11864299Y10287461D01*
X10327465Y11824295D01*
X10327455Y11824303D01*
X10257841Y11864494D01*
X10180193Y11885300D01*
X10180191Y11885300D01*
X9808649Y11885300D01*
X9740528Y11905302D01*
X9719554Y11922205D01*
X9532205Y12109554D01*
X9498179Y12171866D01*
X9495300Y12198649D01*
X9495300Y12556741D01*
X9515302Y12624862D01*
X9568958Y12671355D01*
X9639232Y12681459D01*
X9656798Y12677637D01*
X9658601Y12677108D01*
X9658604Y12677106D01*
X9797579Y12636300D01*
X9942421Y12636300D01*
X10038923Y12664635D01*
X10109917Y12664635D01*
X10169643Y12626251D01*
X10183538Y12606739D01*
X10227297Y12530945D01*
X10227305Y12530935D01*
X11402536Y11355704D01*
X11402539Y11355702D01*
X11402541Y11355700D01*
X11435401Y11336729D01*
X11435403Y11336727D01*
X11435404Y11336727D01*
X11472159Y11315506D01*
X11549807Y11294700D01*
X11970510Y11294700D01*
X12038631Y11274698D01*
X12065734Y11251213D01*
X12096755Y11215413D01*
X12185862Y11158148D01*
X12218604Y11137106D01*
X12357579Y11096300D01*
X12502421Y11096300D01*
X12641396Y11137106D01*
X12763246Y11215414D01*
X12858097Y11324879D01*
X12918267Y11456632D01*
X12938880Y11600000D01*
X12918267Y11743368D01*
X12858097Y11875121D01*
X12763246Y11984586D01*
X12763245Y11984587D01*
X12763244Y11984588D01*
X12641400Y12062892D01*
X12641397Y12062894D01*
X12641396Y12062894D01*
X12529125Y12095859D01*
X12502421Y12103700D01*
X12357579Y12103700D01*
X12218606Y12062895D01*
X12218599Y12062892D01*
X12096755Y11984588D01*
X12065734Y11948787D01*
X12006008Y11910404D01*
X11970510Y11905300D01*
X11768649Y11905300D01*
X11700528Y11925302D01*
X11679554Y11942205D01*
X10813805Y12807954D01*
X10779779Y12870266D01*
X10776900Y12897049D01*
X10776900Y13429382D01*
X10776900Y13429384D01*
X10757791Y13500700D01*
X10756094Y13507033D01*
X10751897Y13514302D01*
X10715901Y13576649D01*
X10715899Y13576652D01*
X10602005Y13690546D01*
X10567979Y13752858D01*
X10565100Y13779641D01*
X10565100Y16050601D01*
X10565100Y16050603D01*
X10544294Y16128251D01*
X10504101Y16197869D01*
X9847628Y16854341D01*
X9813604Y16916653D01*
X9818668Y16987468D01*
X9822529Y16996686D01*
X9853237Y17062541D01*
X9859799Y17112386D01*
X9859800Y17112395D01*
X9859800Y17367605D01*
X9859799Y17367615D01*
X9853237Y17417460D01*
X9802220Y17526867D01*
X9716866Y17612221D01*
X9607459Y17663238D01*
X9557614Y17669800D01*
X9032385Y17669800D01*
X8982540Y17663238D01*
X8873133Y17612221D01*
X8787779Y17526867D01*
X8736762Y17417460D01*
X8730200Y17367615D01*
X8730200Y17219674D01*
X8710198Y17151553D01*
X8656542Y17105060D01*
X8586268Y17094956D01*
X8539082Y17114314D01*
X8538538Y17113284D01*
X8530189Y17117697D01*
X8403630Y17161982D01*
X8373579Y17164800D01*
X8302400Y17164800D01*
X8302400Y16553600D01*
X8282398Y16485479D01*
X8228742Y16438986D01*
X8176400Y16427600D01*
X7535201Y16427600D01*
X7535201Y16386417D01*
X7538018Y16356369D01*
X7538018Y16356368D01*
X7582302Y16229813D01*
X7582303Y16229812D01*
X7661929Y16121923D01*
X7668603Y16115249D01*
X7666971Y16113618D01*
X7701984Y16067496D01*
X7707526Y15996716D01*
X7698423Y15969421D01*
X7642889Y15850329D01*
X7642889Y15850328D01*
X7636300Y15800277D01*
X7636300Y15439724D01*
X7642889Y15389674D01*
X7642890Y15389670D01*
X7655305Y15363046D01*
X7665966Y15292855D01*
X7662008Y15274307D01*
X7661734Y15273377D01*
X7641120Y15130000D01*
X7662533Y14981068D01*
X7652428Y14910794D01*
X7652011Y14909891D01*
X7642890Y14890332D01*
X7642889Y14890327D01*
X7636300Y14840277D01*
X7636300Y14479724D01*
X7642889Y14429674D01*
X7642890Y14429672D01*
X7684663Y14340088D01*
X7698423Y14310581D01*
X7709084Y14240389D01*
X7680104Y14175576D01*
X7668549Y14164805D01*
X7668603Y14164751D01*
X7661929Y14158078D01*
X7582303Y14050189D01*
X7538018Y13923631D01*
X7535200Y13893580D01*
X7535200Y13852400D01*
X8176400Y13852400D01*
X8244521Y13832398D01*
X8291014Y13778742D01*
X8302400Y13726400D01*
X8302400Y13115201D01*
X8373569Y13115201D01*
X8373583Y13115202D01*
X8403631Y13118019D01*
X8403632Y13118019D01*
X8530187Y13162303D01*
X8530188Y13162304D01*
X8638075Y13241928D01*
X8657321Y13268005D01*
X8713866Y13310938D01*
X8784645Y13316484D01*
X8847188Y13282883D01*
X8881636Y13220804D01*
X8884700Y13193184D01*
X8884700Y11979804D01*
X8903455Y11909813D01*
X8903455Y11909811D01*
X8903456Y11909811D01*
X8903457Y11909807D01*
X8905506Y11902159D01*
X8905507Y11902157D01*
X8945697Y11832545D01*
X8945705Y11832535D01*
X9280319Y11497921D01*
X9314345Y11435609D01*
X9309280Y11364794D01*
X9266733Y11307958D01*
X9207670Y11283904D01*
X9018247Y11258967D01*
X8989309Y11251213D01*
X8777471Y11194451D01*
X8621680Y11129920D01*
X8547182Y11099062D01*
X8547171Y11099057D01*
X8331319Y10974435D01*
X8331312Y10974430D01*
X8133572Y10822699D01*
X8133551Y10822680D01*
X7957320Y10646449D01*
X7957301Y10646428D01*
X7805570Y10448688D01*
X7805565Y10448681D01*
X7680943Y10232829D01*
X7680938Y10232818D01*
X7680937Y10232816D01*
X7651297Y10161259D01*
X7585549Y10002529D01*
X7585548Y10002525D01*
X7521033Y9761754D01*
X7488500Y9514634D01*
X7488500Y9265367D01*
X7521033Y9018247D01*
X7521035Y9018240D01*
X7585549Y8777471D01*
X7680937Y8547184D01*
X7680938Y8547183D01*
X7680943Y8547172D01*
X7805565Y8331320D01*
X7805570Y8331313D01*
X7957301Y8133573D01*
X7957320Y8133552D01*
X8133551Y7957321D01*
X8133572Y7957302D01*
X8331312Y7805571D01*
X8331319Y7805566D01*
X8547171Y7680944D01*
X8547175Y7680943D01*
X8547184Y7680937D01*
X8777471Y7585549D01*
X9018240Y7521035D01*
X9018244Y7521035D01*
X9018246Y7521034D01*
X9081937Y7512650D01*
X9265369Y7488500D01*
X9265376Y7488500D01*
X9514624Y7488500D01*
X9514631Y7488500D01*
X9737973Y7517904D01*
X9761753Y7521034D01*
X9761753Y7521035D01*
X9761760Y7521035D01*
X10002529Y7585549D01*
X10232816Y7680937D01*
X10448684Y7805568D01*
X10646436Y7957309D01*
X10822691Y8133564D01*
X10974432Y8331316D01*
X11099063Y8547184D01*
X11194451Y8777471D01*
X11258965Y9018240D01*
X11291500Y9265369D01*
X11291500Y9292551D01*
X11311502Y9360672D01*
X11365158Y9407165D01*
X11435432Y9417269D01*
X11500012Y9387775D01*
X11506595Y9381646D01*
X12139586Y8748655D01*
X12173612Y8686343D01*
X12168547Y8615528D01*
X12163282Y8603398D01*
X12129152Y8534855D01*
X12129147Y8534842D01*
X12071154Y8331017D01*
X12051601Y8120005D01*
X12051601Y8119996D01*
X12071154Y7908984D01*
X12129147Y7705159D01*
X12129148Y7705155D01*
X12129150Y7705150D01*
X12223611Y7515446D01*
X12343091Y7357230D01*
X12368180Y7290817D01*
X12353381Y7221380D01*
X12303390Y7170967D01*
X12242540Y7155300D01*
X7281300Y7155300D01*
X7213179Y7175302D01*
X7166686Y7228958D01*
X7155300Y7281300D01*
X7155300Y13506417D01*
X7535201Y13506417D01*
X7538018Y13476369D01*
X7538018Y13476368D01*
X7582302Y13349813D01*
X7582303Y13349812D01*
X7661926Y13241927D01*
X7769811Y13162304D01*
X7769810Y13162304D01*
X7896369Y13118019D01*
X7926422Y13115201D01*
X7997599Y13115202D01*
X7997600Y13115202D01*
X7997600Y13547600D01*
X7535201Y13547600D01*
X7535201Y13506417D01*
X7155300Y13506417D01*
X7155300Y16773580D01*
X7535200Y16773580D01*
X7535200Y16732400D01*
X7997600Y16732400D01*
X7997600Y17164801D01*
X7926432Y17164800D01*
X7926415Y17164799D01*
X7896368Y17161982D01*
X7896367Y17161982D01*
X7769812Y17117698D01*
X7769811Y17117697D01*
X7661926Y17038074D01*
X7582303Y16930189D01*
X7538018Y16803631D01*
X7535200Y16773580D01*
X7155300Y16773580D01*
X7155300Y18242227D01*
X7175302Y18310348D01*
X7228958Y18356841D01*
X7299232Y18366945D01*
X7349418Y18348226D01*
X7439947Y18290047D01*
X7578039Y18249500D01*
X7721961Y18249500D01*
X7860053Y18290047D01*
X7981128Y18367857D01*
X8075377Y18476627D01*
X8135165Y18607543D01*
X8155647Y18750000D01*
X8135165Y18892457D01*
X8075377Y19023373D01*
X8064273Y19036188D01*
X8034780Y19100769D01*
X8044885Y19171043D01*
X8091378Y19224698D01*
X8159498Y19244700D01*
X31818700Y19244700D01*
X31886821Y19224698D01*
G37*
%TD.AperFunction*%
%TD*%
%TA.AperFunction,Conductor*%
%TO.N,GND*%
G36*
X57786821Y32424698D02*
G01*
X57833314Y32371042D01*
X57844700Y32318700D01*
X57844700Y27158798D01*
X57824698Y27090677D01*
X57771042Y27044184D01*
X57700768Y27034080D01*
X57636188Y27063574D01*
X57621301Y27078864D01*
X57593157Y27113157D01*
X57440324Y27238584D01*
X57265957Y27331785D01*
X57265953Y27331787D01*
X57076763Y27389177D01*
X57076752Y27389179D01*
X56880003Y27408556D01*
X56879997Y27408556D01*
X56683247Y27389179D01*
X56683236Y27389177D01*
X56494046Y27331787D01*
X56494042Y27331785D01*
X56319675Y27238584D01*
X56166843Y27113157D01*
X56041416Y26960325D01*
X55948215Y26785958D01*
X55948213Y26785954D01*
X55890823Y26596764D01*
X55890821Y26596753D01*
X55871444Y26400004D01*
X55871444Y26399997D01*
X55890821Y26203248D01*
X55890823Y26203237D01*
X55948213Y26014047D01*
X55948215Y26014043D01*
X56021409Y25877106D01*
X56041416Y25839676D01*
X56166843Y25686843D01*
X56319676Y25561416D01*
X56472121Y25479933D01*
X56494042Y25468216D01*
X56494046Y25468214D01*
X56683236Y25410824D01*
X56683237Y25410824D01*
X56683240Y25410823D01*
X56683243Y25410823D01*
X56683247Y25410822D01*
X56879997Y25391444D01*
X56880000Y25391444D01*
X56880003Y25391444D01*
X57076752Y25410822D01*
X57076754Y25410823D01*
X57076760Y25410823D01*
X57135781Y25428727D01*
X57265953Y25468214D01*
X57265955Y25468216D01*
X57265958Y25468216D01*
X57440324Y25561416D01*
X57593157Y25686843D01*
X57621301Y25721137D01*
X57679977Y25761105D01*
X57750948Y25763006D01*
X57811681Y25726236D01*
X57842893Y25662468D01*
X57844700Y25641203D01*
X57844700Y21354921D01*
X57824698Y21286800D01*
X57771042Y21240307D01*
X57700768Y21230203D01*
X57650580Y21248922D01*
X57585268Y21290895D01*
X57540053Y21319953D01*
X57538527Y21320401D01*
X57401961Y21360500D01*
X57314050Y21360500D01*
X57245929Y21380502D01*
X57199436Y21434158D01*
X57189332Y21504432D01*
X57204931Y21549500D01*
X57319056Y21747172D01*
X57319055Y21747172D01*
X57319063Y21747184D01*
X57414451Y21977471D01*
X57478965Y22218240D01*
X57511500Y22465369D01*
X57511500Y22714631D01*
X57487350Y22898063D01*
X57478966Y22961754D01*
X57478965Y22961756D01*
X57478965Y22961760D01*
X57414451Y23202529D01*
X57319063Y23432816D01*
X57319057Y23432825D01*
X57319056Y23432829D01*
X57194434Y23648681D01*
X57194429Y23648688D01*
X57042698Y23846428D01*
X57042679Y23846449D01*
X56866448Y24022680D01*
X56866427Y24022699D01*
X56668687Y24174430D01*
X56668680Y24174435D01*
X56452828Y24299057D01*
X56452820Y24299061D01*
X56452816Y24299063D01*
X56222529Y24394451D01*
X56010691Y24451213D01*
X55981753Y24458967D01*
X55734633Y24491500D01*
X55734631Y24491500D01*
X55485369Y24491500D01*
X55485366Y24491500D01*
X55238246Y24458967D01*
X55123942Y24428339D01*
X54997471Y24394451D01*
X54841680Y24329920D01*
X54767182Y24299062D01*
X54767171Y24299057D01*
X54551319Y24174435D01*
X54551312Y24174430D01*
X54353572Y24022699D01*
X54353551Y24022680D01*
X54177320Y23846449D01*
X54177301Y23846428D01*
X54025570Y23648688D01*
X54025565Y23648681D01*
X53900943Y23432829D01*
X53900938Y23432818D01*
X53900937Y23432816D01*
X53871297Y23361259D01*
X53805549Y23202529D01*
X53805548Y23202525D01*
X53741033Y22961754D01*
X53708500Y22714634D01*
X53708500Y22465367D01*
X53741033Y22218247D01*
X53741035Y22218240D01*
X53805549Y21977471D01*
X53900937Y21747184D01*
X53900938Y21747183D01*
X53900943Y21747172D01*
X54025565Y21531320D01*
X54025570Y21531313D01*
X54177301Y21333573D01*
X54177320Y21333552D01*
X54353551Y21157321D01*
X54353572Y21157302D01*
X54551312Y21005571D01*
X54551319Y21005566D01*
X54767171Y20880944D01*
X54767175Y20880943D01*
X54767184Y20880937D01*
X54997471Y20785549D01*
X55238240Y20721035D01*
X55238244Y20721035D01*
X55238246Y20721034D01*
X55301937Y20712650D01*
X55485369Y20688500D01*
X55485376Y20688500D01*
X55734624Y20688500D01*
X55734631Y20688500D01*
X55957973Y20717904D01*
X55981753Y20721034D01*
X55981753Y20721035D01*
X55981760Y20721035D01*
X56222529Y20785549D01*
X56452816Y20880937D01*
X56636637Y20987067D01*
X56705632Y21003804D01*
X56772724Y20980584D01*
X56816611Y20924777D01*
X56823281Y20869012D01*
X56824353Y20869012D01*
X56824353Y20860050D01*
X56824356Y20860024D01*
X56824353Y20860004D01*
X56824353Y20860003D01*
X56824353Y20860000D01*
X56844835Y20717543D01*
X56858099Y20688500D01*
X56904623Y20586627D01*
X56924392Y20563812D01*
X56953885Y20499231D01*
X56943780Y20428957D01*
X56897287Y20375302D01*
X56829167Y20355300D01*
X52885930Y20355300D01*
X52817809Y20375302D01*
X52771316Y20428958D01*
X52761212Y20499232D01*
X52782717Y20553570D01*
X52881970Y20695320D01*
X52974007Y20892694D01*
X52974009Y20892698D01*
X53030373Y21103055D01*
X53036020Y21167600D01*
X52285085Y21167600D01*
X52308000Y21253120D01*
X52308000Y21386880D01*
X52285085Y21472400D01*
X53036020Y21472400D01*
X53030373Y21536946D01*
X52974009Y21747303D01*
X52974007Y21747307D01*
X52881970Y21944681D01*
X52757067Y22123061D01*
X52757058Y22123072D01*
X52603071Y22277059D01*
X52603060Y22277068D01*
X52424680Y22401971D01*
X52424681Y22401971D01*
X52227306Y22494008D01*
X52227301Y22494010D01*
X52016944Y22550375D01*
X52016939Y22550376D01*
X51952400Y22556023D01*
X51952400Y21805086D01*
X51866880Y21828000D01*
X51733120Y21828000D01*
X51647600Y21805086D01*
X51647600Y22556023D01*
X51583060Y22550376D01*
X51583055Y22550375D01*
X51372698Y22494010D01*
X51372693Y22494008D01*
X51175319Y22401971D01*
X50996939Y22277068D01*
X50996933Y22277064D01*
X50975517Y22255647D01*
X50913204Y22221623D01*
X50842388Y22226689D01*
X50835116Y22232133D01*
X50852409Y22185771D01*
X50837318Y22116397D01*
X50829944Y22104512D01*
X50718027Y21944677D01*
X50625992Y21747307D01*
X50625990Y21747302D01*
X50599192Y21647289D01*
X50562240Y21586666D01*
X50498379Y21555645D01*
X50427885Y21564073D01*
X50373138Y21609276D01*
X50356295Y21645419D01*
X50330850Y21734850D01*
X50330849Y21734852D01*
X50296718Y21803396D01*
X50284258Y21873291D01*
X50311565Y21938827D01*
X50320413Y21948655D01*
X50495254Y22123496D01*
X50637636Y22265878D01*
X50699947Y22299903D01*
X50770762Y22294838D01*
X50778035Y22289393D01*
X50760744Y22335758D01*
X50775837Y22405132D01*
X50777283Y22407709D01*
X50814494Y22472158D01*
X50819327Y22490193D01*
X50820480Y22494496D01*
X50827832Y22521937D01*
X50835300Y22549807D01*
X50835300Y22567113D01*
X50855302Y22635234D01*
X50908054Y22681309D01*
X50912267Y22683273D01*
X50996727Y22767733D01*
X51047206Y22875986D01*
X51053700Y22925312D01*
X51053700Y23274688D01*
X51047206Y23324014D01*
X50996727Y23432267D01*
X50996725Y23432269D01*
X50996725Y23432270D01*
X50908090Y23520905D01*
X50874064Y23583217D01*
X50879129Y23654032D01*
X50908090Y23699095D01*
X50996725Y23787731D01*
X50996727Y23787733D01*
X51047206Y23895986D01*
X51053700Y23945312D01*
X51053700Y24294688D01*
X51047206Y24344014D01*
X51040614Y24358149D01*
X51029954Y24428339D01*
X51030071Y24429181D01*
X51048880Y24560000D01*
X51028267Y24703368D01*
X50968097Y24835121D01*
X50873246Y24944586D01*
X50873245Y24944587D01*
X50873244Y24944588D01*
X50751400Y25022892D01*
X50751397Y25022894D01*
X50751396Y25022894D01*
X50746597Y25024303D01*
X50612421Y25063700D01*
X50467579Y25063700D01*
X50328606Y25022895D01*
X50328599Y25022892D01*
X50206755Y24944588D01*
X50111903Y24835122D01*
X50051733Y24703369D01*
X50036387Y24596632D01*
X50031120Y24560000D01*
X50040968Y24491500D01*
X50045194Y24462111D01*
X50035089Y24391837D01*
X50034671Y24390932D01*
X50012795Y24344019D01*
X50012792Y24344010D01*
X50006300Y24294693D01*
X50006300Y24038689D01*
X49986298Y23970568D01*
X49932642Y23924075D01*
X49862368Y23913971D01*
X49844804Y23917792D01*
X49821279Y23924699D01*
X49805272Y23929399D01*
X49660430Y23929399D01*
X49521457Y23888594D01*
X49521450Y23888591D01*
X49399606Y23810287D01*
X49368585Y23774486D01*
X49308859Y23736103D01*
X49273361Y23730999D01*
X49246694Y23730999D01*
X49194928Y23717129D01*
X49169045Y23710193D01*
X49099431Y23670002D01*
X49099425Y23669997D01*
X48733213Y23303785D01*
X48670901Y23269760D01*
X48600085Y23274825D01*
X48543250Y23317372D01*
X48529923Y23339632D01*
X48529661Y23340193D01*
X48493454Y23417841D01*
X48486727Y23432268D01*
X48398090Y23520905D01*
X48364064Y23583217D01*
X48369129Y23654032D01*
X48398090Y23699095D01*
X48486725Y23787731D01*
X48486727Y23787733D01*
X48537206Y23895986D01*
X48543700Y23945312D01*
X48543700Y24294688D01*
X48537206Y24344014D01*
X48486727Y24452267D01*
X48486725Y24452269D01*
X48486725Y24452270D01*
X48402269Y24536726D01*
X48402267Y24536727D01*
X48294012Y24587207D01*
X48244692Y24593700D01*
X48244688Y24593700D01*
X47795312Y24593700D01*
X47795307Y24593700D01*
X47745987Y24587207D01*
X47637733Y24536727D01*
X47637730Y24536726D01*
X47553274Y24452270D01*
X47553274Y24452269D01*
X47502793Y24344013D01*
X47496300Y24294693D01*
X47496300Y24150250D01*
X47476298Y24082129D01*
X47459395Y24061155D01*
X47030505Y23632266D01*
X47030497Y23632256D01*
X47002923Y23584495D01*
X46990308Y23562647D01*
X46990305Y23562640D01*
X46979123Y23520905D01*
X46970162Y23487461D01*
X46969500Y23484992D01*
X46969500Y23413449D01*
X46949498Y23345328D01*
X46932595Y23324354D01*
X46820446Y23212205D01*
X46758134Y23178179D01*
X46731351Y23175300D01*
X46628649Y23175300D01*
X46560528Y23195302D01*
X46539554Y23212205D01*
X46413805Y23337954D01*
X46379779Y23400266D01*
X46376900Y23427049D01*
X46376900Y29220257D01*
X46376899Y29220259D01*
X46375764Y29224494D01*
X46360490Y29281497D01*
X46356094Y29297906D01*
X46352749Y29303700D01*
X46337660Y29329835D01*
X46320922Y29398830D01*
X46322062Y29410769D01*
X46323621Y29421611D01*
X46325546Y29434998D01*
X46304933Y29578366D01*
X46244763Y29710119D01*
X46149912Y29819584D01*
X46149911Y29819585D01*
X46149910Y29819586D01*
X46028066Y29897890D01*
X46028063Y29897892D01*
X46028062Y29897892D01*
X45956316Y29918958D01*
X45889087Y29938698D01*
X45744245Y29938698D01*
X45605272Y29897893D01*
X45605265Y29897890D01*
X45483421Y29819586D01*
X45388569Y29710120D01*
X45328399Y29578367D01*
X45317332Y29501395D01*
X45307786Y29434998D01*
X45328399Y29291630D01*
X45388569Y29159877D01*
X45482690Y29051254D01*
X45483421Y29050411D01*
X45595154Y28978605D01*
X45605270Y28972104D01*
X45675797Y28951396D01*
X45735524Y28913013D01*
X45765017Y28848433D01*
X45766300Y28830500D01*
X45766300Y26063344D01*
X45746298Y25995223D01*
X45692642Y25948730D01*
X45622368Y25938626D01*
X45604803Y25942447D01*
X45532421Y25963700D01*
X45387579Y25963700D01*
X45248606Y25922895D01*
X45248599Y25922892D01*
X45126755Y25844588D01*
X45031903Y25735122D01*
X44971733Y25603369D01*
X44951120Y25460000D01*
X44971733Y25316632D01*
X45031903Y25184879D01*
X45031906Y25184875D01*
X45115524Y25088374D01*
X45145017Y25023794D01*
X45146300Y25005862D01*
X45146300Y24653635D01*
X45126298Y24585514D01*
X45073554Y24539442D01*
X45067733Y24536728D01*
X45067730Y24536726D01*
X44983274Y24452270D01*
X44983274Y24452269D01*
X44932793Y24344013D01*
X44926300Y24294693D01*
X44926300Y23945308D01*
X44932793Y23895988D01*
X44932794Y23895986D01*
X44983273Y23787733D01*
X44983274Y23787732D01*
X44983274Y23787731D01*
X45071910Y23699095D01*
X45105936Y23636783D01*
X45100871Y23565968D01*
X45071910Y23520905D01*
X44983274Y23432270D01*
X44983274Y23432269D01*
X44932793Y23324013D01*
X44926300Y23274693D01*
X44926300Y22925308D01*
X44932793Y22875988D01*
X44932794Y22875986D01*
X44983273Y22767733D01*
X44983274Y22767732D01*
X44983274Y22767731D01*
X45000527Y22750478D01*
X45034553Y22688166D01*
X45029488Y22617351D01*
X45000527Y22572288D01*
X44810743Y22382504D01*
X44748431Y22348478D01*
X44677616Y22353543D01*
X44676131Y22354108D01*
X44616823Y22377084D01*
X44551112Y22402541D01*
X44494277Y22424559D01*
X44494278Y22424559D01*
X44494275Y22424560D01*
X44494274Y22424560D01*
X44285961Y22463500D01*
X44074039Y22463500D01*
X43874703Y22426238D01*
X43865721Y22424559D01*
X43668119Y22348007D01*
X43668108Y22348002D01*
X43487933Y22236442D01*
X43331324Y22093674D01*
X43203612Y21924556D01*
X43109150Y21734850D01*
X43109147Y21734842D01*
X43051154Y21531017D01*
X43035462Y21361672D01*
X43018755Y21319601D01*
X43033656Y21290895D01*
X43035462Y21278329D01*
X43051154Y21108984D01*
X43109147Y20905159D01*
X43109148Y20905155D01*
X43109150Y20905150D01*
X43203611Y20715446D01*
X43323091Y20557230D01*
X43348180Y20490817D01*
X43333381Y20421380D01*
X43283390Y20370967D01*
X43222540Y20355300D01*
X42597460Y20355300D01*
X42529339Y20375302D01*
X42482846Y20428958D01*
X42472742Y20499232D01*
X42496908Y20557229D01*
X42616389Y20715446D01*
X42710850Y20905150D01*
X42768845Y21108982D01*
X42780078Y21230203D01*
X42784538Y21278329D01*
X42801244Y21320401D01*
X42786344Y21349106D01*
X42784538Y21361672D01*
X42768845Y21531017D01*
X42746578Y21609276D01*
X42710850Y21734850D01*
X42616389Y21924554D01*
X42488677Y22093671D01*
X42488675Y22093674D01*
X42332066Y22236442D01*
X42174652Y22333909D01*
X42127265Y22386776D01*
X42115982Y22456870D01*
X42144386Y22521937D01*
X42151877Y22530120D01*
X42327288Y22705531D01*
X42389598Y22739555D01*
X42460413Y22734490D01*
X42505476Y22705529D01*
X42527730Y22683275D01*
X42527731Y22683275D01*
X42527733Y22683273D01*
X42635986Y22632794D01*
X42685312Y22626300D01*
X42685319Y22626300D01*
X43134681Y22626300D01*
X43134688Y22626300D01*
X43184014Y22632794D01*
X43292267Y22683273D01*
X43376727Y22767733D01*
X43427206Y22875986D01*
X43433700Y22925312D01*
X43433700Y23142013D01*
X43453702Y23210134D01*
X43470600Y23231104D01*
X43803021Y23563524D01*
X43843004Y23632776D01*
X43863700Y23710017D01*
X43863700Y23789983D01*
X43863700Y24684321D01*
X43883702Y24752442D01*
X43894471Y24766829D01*
X43988097Y24874879D01*
X44048267Y25006632D01*
X44068880Y25150000D01*
X44048267Y25293368D01*
X43988097Y25425121D01*
X43896074Y25531322D01*
X43866582Y25595902D01*
X43865300Y25613833D01*
X43865300Y26350300D01*
X43885302Y26418421D01*
X43938958Y26464914D01*
X43991300Y26476300D01*
X44082421Y26476300D01*
X44221396Y26517106D01*
X44343246Y26595414D01*
X44438097Y26704879D01*
X44498267Y26836632D01*
X44518880Y26980000D01*
X44498267Y27123368D01*
X44438097Y27255121D01*
X44343246Y27364586D01*
X44343245Y27364587D01*
X44343244Y27364588D01*
X44221400Y27442892D01*
X44221397Y27442894D01*
X44221396Y27442894D01*
X44099766Y27478607D01*
X44082421Y27483700D01*
X43937579Y27483700D01*
X43936076Y27483484D01*
X43934574Y27483700D01*
X43928567Y27483700D01*
X43928567Y27484565D01*
X43865802Y27493592D01*
X43812149Y27540088D01*
X43792151Y27608210D01*
X43812157Y27676330D01*
X43829052Y27697295D01*
X43861155Y27729398D01*
X43923468Y27763421D01*
X43950249Y27766300D01*
X44062421Y27766300D01*
X44201396Y27807106D01*
X44323246Y27885414D01*
X44418097Y27994879D01*
X44478267Y28126632D01*
X44498880Y28270000D01*
X44478267Y28413368D01*
X44418097Y28545121D01*
X44400534Y28565390D01*
X44362998Y28608710D01*
X44333505Y28673291D01*
X44343610Y28743565D01*
X44362999Y28773735D01*
X44380559Y28794000D01*
X44440729Y28925753D01*
X44461342Y29069121D01*
X44440729Y29212489D01*
X44380559Y29344242D01*
X44285708Y29453707D01*
X44285707Y29453708D01*
X44285706Y29453709D01*
X44163862Y29532013D01*
X44163859Y29532015D01*
X44163858Y29532015D01*
X44080914Y29556369D01*
X44024883Y29572821D01*
X43880041Y29572821D01*
X43871919Y29572821D01*
X43803798Y29592823D01*
X43782828Y29609722D01*
X43596650Y29795900D01*
X43596647Y29795902D01*
X43596646Y29795903D01*
X43527032Y29836094D01*
X43449384Y29856900D01*
X42050182Y29856900D01*
X41972534Y29836094D01*
X41972533Y29836094D01*
X41972531Y29836093D01*
X41902917Y29795902D01*
X41902915Y29795901D01*
X41860615Y29753600D01*
X41760843Y29653829D01*
X41698534Y29619805D01*
X41671750Y29616925D01*
X41579579Y29616925D01*
X41440606Y29576120D01*
X41440599Y29576117D01*
X41318755Y29497813D01*
X41223903Y29388347D01*
X41163733Y29256594D01*
X41151283Y29170000D01*
X41143120Y29113225D01*
X41163733Y28969857D01*
X41223903Y28838104D01*
X41279678Y28773735D01*
X41318755Y28728638D01*
X41404877Y28673291D01*
X41440604Y28650331D01*
X41579579Y28609525D01*
X41724421Y28609525D01*
X41863396Y28650331D01*
X41985246Y28728639D01*
X42080097Y28838104D01*
X42140267Y28969857D01*
X42160880Y29113225D01*
X42160879Y29113227D01*
X42160880Y29113229D01*
X42160880Y29120300D01*
X42180882Y29188421D01*
X42234538Y29234914D01*
X42286880Y29246300D01*
X43230541Y29246300D01*
X43298662Y29226298D01*
X43319637Y29209395D01*
X43411186Y29117845D01*
X43445211Y29055533D01*
X43446807Y29046682D01*
X43464193Y28925760D01*
X43464194Y28925755D01*
X43464195Y28925753D01*
X43499506Y28848433D01*
X43524365Y28794000D01*
X43579463Y28730412D01*
X43608956Y28665830D01*
X43598851Y28595557D01*
X43579465Y28565390D01*
X43561903Y28545122D01*
X43526507Y28467615D01*
X43501733Y28413368D01*
X43485637Y28301413D01*
X43481120Y28269997D01*
X43481120Y28265071D01*
X43461118Y28196950D01*
X43444216Y28175976D01*
X42665702Y27397462D01*
X42665697Y27397456D01*
X42626077Y27328831D01*
X42626064Y27328809D01*
X42625508Y27327849D01*
X42625505Y27327841D01*
X42604700Y27250197D01*
X42604700Y25451251D01*
X42584698Y25383130D01*
X42531042Y25336637D01*
X42460768Y25326533D01*
X42396188Y25356027D01*
X42389605Y25362155D01*
X42146161Y25605598D01*
X42146155Y25605603D01*
X42076543Y25645793D01*
X42076542Y25645794D01*
X42076541Y25645794D01*
X42074929Y25646226D01*
X42073997Y25646476D01*
X42073996Y25646476D01*
X41998893Y25666600D01*
X41998890Y25666600D01*
X41389170Y25666600D01*
X41321049Y25686602D01*
X41293946Y25710087D01*
X41262924Y25745888D01*
X41141080Y25824192D01*
X41141077Y25824194D01*
X41141076Y25824194D01*
X41134070Y25826251D01*
X41002101Y25865000D01*
X40909929Y25865000D01*
X40841808Y25885002D01*
X40820838Y25901901D01*
X40708439Y26014300D01*
X40708438Y26014301D01*
X40708435Y26014303D01*
X40638824Y26054493D01*
X40638815Y26054496D01*
X40635042Y26055508D01*
X40635036Y26055508D01*
X40561173Y26075300D01*
X40561171Y26075300D01*
X39358649Y26075300D01*
X39290528Y26095302D01*
X39269554Y26112205D01*
X38628805Y26752954D01*
X38594779Y26815266D01*
X38591900Y26842049D01*
X38591900Y27409192D01*
X38582869Y27442895D01*
X38573301Y27478605D01*
X38573301Y27478607D01*
X38571096Y27486837D01*
X38571093Y27486843D01*
X38530901Y27556459D01*
X38222318Y27865042D01*
X38188292Y27927354D01*
X38193357Y27998169D01*
X38222320Y28043235D01*
X38232221Y28053136D01*
X38283237Y28162541D01*
X38289799Y28212386D01*
X38289800Y28212395D01*
X38289800Y28467605D01*
X38289799Y28467620D01*
X38286556Y28492256D01*
X38297496Y28562404D01*
X38344625Y28615502D01*
X38411478Y28634700D01*
X38758777Y28634700D01*
X38826898Y28614698D01*
X38873391Y28561042D01*
X38879672Y28544200D01*
X38880130Y28542639D01*
X38940303Y28410879D01*
X39035155Y28301413D01*
X39091705Y28265071D01*
X39157004Y28223106D01*
X39295979Y28182300D01*
X39440820Y28182300D01*
X39440821Y28182300D01*
X39503204Y28200617D01*
X39574198Y28200617D01*
X39633924Y28162234D01*
X39663417Y28097653D01*
X39664700Y28079721D01*
X39664700Y27930252D01*
X39644698Y27862131D01*
X39627795Y27841157D01*
X39557243Y27770605D01*
X39494931Y27736579D01*
X39468148Y27733700D01*
X39375977Y27733700D01*
X39237004Y27692895D01*
X39236997Y27692892D01*
X39115153Y27614588D01*
X39020301Y27505122D01*
X38960131Y27373369D01*
X38939518Y27230000D01*
X38960131Y27086632D01*
X39020301Y26954879D01*
X39115153Y26845413D01*
X39236997Y26767109D01*
X39237002Y26767106D01*
X39375977Y26726300D01*
X39520819Y26726300D01*
X39659794Y26767106D01*
X39781644Y26845414D01*
X39876495Y26954879D01*
X39936665Y27086632D01*
X39957278Y27230000D01*
X39956560Y27234992D01*
X39966659Y27305265D01*
X39992177Y27342022D01*
X40214301Y27564143D01*
X40254494Y27633761D01*
X40254958Y27635492D01*
X40275300Y27711409D01*
X40275300Y29034296D01*
X40254494Y29111944D01*
X40227328Y29158997D01*
X40221310Y29169421D01*
X40214302Y29181559D01*
X40214294Y29181569D01*
X39611568Y29784295D01*
X39611558Y29784303D01*
X39541946Y29824493D01*
X39541945Y29824494D01*
X39541944Y29824494D01*
X39538955Y29825295D01*
X39538953Y29825296D01*
X39504304Y29834580D01*
X39464296Y29845300D01*
X39464294Y29845300D01*
X38571250Y29845300D01*
X38503129Y29865302D01*
X38456636Y29918958D01*
X38446532Y29989232D01*
X38476026Y30053812D01*
X38482155Y30060395D01*
X38553565Y30131806D01*
X38553567Y30131809D01*
X38566786Y30154705D01*
X38593760Y30201424D01*
X38599333Y30222228D01*
X38599335Y30222228D01*
X38599335Y30222237D01*
X38614566Y30279073D01*
X38614566Y30479197D01*
X38634568Y30547318D01*
X38645336Y30561703D01*
X38737363Y30667908D01*
X38797533Y30799661D01*
X38818146Y30943029D01*
X38797533Y31086397D01*
X38737363Y31218150D01*
X38642512Y31327615D01*
X38642511Y31327616D01*
X38642510Y31327617D01*
X38520666Y31405921D01*
X38520663Y31405923D01*
X38520662Y31405923D01*
X38381687Y31446729D01*
X38314699Y31446729D01*
X38246578Y31466731D01*
X38200085Y31520387D01*
X38188699Y31572729D01*
X38188699Y31579490D01*
X38188698Y31579499D01*
X38174270Y31652036D01*
X38174270Y31652038D01*
X38174269Y31652040D01*
X38174269Y31652041D01*
X38119302Y31734302D01*
X38037038Y31789270D01*
X38037035Y31789271D01*
X37964494Y31803700D01*
X37155510Y31803700D01*
X37155500Y31803699D01*
X37082960Y31789270D01*
X37082959Y31789270D01*
X37000698Y31734303D01*
X36945730Y31652039D01*
X36945729Y31652036D01*
X36931300Y31579496D01*
X36931300Y31320511D01*
X36931301Y31320501D01*
X36945730Y31247961D01*
X36945730Y31247960D01*
X37000697Y31165699D01*
X37000698Y31165698D01*
X37060258Y31125901D01*
X37105786Y31071424D01*
X37114634Y31000981D01*
X37095022Y30951135D01*
X37075294Y30921611D01*
X37061300Y30851257D01*
X37061300Y30628744D01*
X37075294Y30558390D01*
X37075295Y30558387D01*
X37107626Y30510000D01*
X37128840Y30442247D01*
X37110056Y30373781D01*
X37107626Y30370000D01*
X37075295Y30321614D01*
X37075294Y30321611D01*
X37061300Y30251257D01*
X37061300Y30028744D01*
X37075294Y29958390D01*
X37075295Y29958387D01*
X37107626Y29910000D01*
X37128840Y29842247D01*
X37110056Y29773781D01*
X37107626Y29770000D01*
X37075295Y29721614D01*
X37075294Y29721611D01*
X37061300Y29651257D01*
X37061300Y29428744D01*
X37075294Y29358390D01*
X37075295Y29358387D01*
X37107626Y29310000D01*
X37128840Y29242247D01*
X37110056Y29173781D01*
X37107626Y29170000D01*
X37075295Y29121614D01*
X37075294Y29121611D01*
X37061300Y29051257D01*
X37061300Y28828741D01*
X37074434Y28762714D01*
X37068106Y28692000D01*
X37039952Y28649039D01*
X37017779Y28626866D01*
X36966762Y28517460D01*
X36960200Y28467615D01*
X36960200Y28212386D01*
X36966762Y28162541D01*
X37017779Y28053134D01*
X37039950Y28030963D01*
X37073976Y27968651D01*
X37074434Y27917287D01*
X37061300Y27851260D01*
X37061300Y27628744D01*
X37075294Y27558390D01*
X37075295Y27558387D01*
X37107626Y27510000D01*
X37128840Y27442247D01*
X37110056Y27373781D01*
X37107626Y27370000D01*
X37075295Y27321614D01*
X37075294Y27321611D01*
X37061300Y27251257D01*
X37061300Y27028744D01*
X37075294Y26958390D01*
X37075296Y26958387D01*
X37095021Y26928865D01*
X37116235Y26861112D01*
X37097451Y26792645D01*
X37060259Y26754101D01*
X37000697Y26714302D01*
X36945730Y26632039D01*
X36945729Y26632036D01*
X36931300Y26559496D01*
X36931300Y26300511D01*
X36931301Y26300501D01*
X36945730Y26227961D01*
X36945730Y26227960D01*
X37000697Y26145699D01*
X37000698Y26145698D01*
X37082962Y26090730D01*
X37155507Y26076300D01*
X37964492Y26076301D01*
X37964495Y26076302D01*
X37964499Y26076302D01*
X37988343Y26081045D01*
X38037038Y26090730D01*
X38037039Y26090731D01*
X38037040Y26090731D01*
X38069177Y26112205D01*
X38119302Y26145698D01*
X38135440Y26169850D01*
X38189916Y26215377D01*
X38260359Y26224225D01*
X38324403Y26193584D01*
X38329280Y26188961D01*
X38673653Y25844588D01*
X38992542Y25525699D01*
X39000044Y25521368D01*
X39062158Y25485506D01*
X39082964Y25479932D01*
X39139807Y25464700D01*
X40115279Y25464700D01*
X40183400Y25444698D01*
X40229893Y25391042D01*
X40239997Y25320768D01*
X40210503Y25256188D01*
X40183399Y25232702D01*
X40059347Y25152980D01*
X39964495Y25043514D01*
X39904325Y24911761D01*
X39883712Y24768392D01*
X39904325Y24625024D01*
X39904326Y24625021D01*
X39921814Y24586727D01*
X39931917Y24516453D01*
X39907423Y24462821D01*
X39909597Y24461299D01*
X39903274Y24452269D01*
X39852793Y24344013D01*
X39846300Y24294693D01*
X39846300Y23945308D01*
X39852793Y23895988D01*
X39852794Y23895986D01*
X39903273Y23787733D01*
X39903274Y23787732D01*
X39903274Y23787731D01*
X39991910Y23699095D01*
X40025936Y23636783D01*
X40020871Y23565968D01*
X39991910Y23520905D01*
X39903274Y23432270D01*
X39903274Y23432269D01*
X39852793Y23324013D01*
X39846300Y23274693D01*
X39846300Y22925308D01*
X39852793Y22875988D01*
X39852794Y22875986D01*
X39903273Y22767733D01*
X39903274Y22767732D01*
X39903274Y22767731D01*
X39987730Y22683275D01*
X39987731Y22683275D01*
X39987733Y22683273D01*
X40095986Y22632794D01*
X40145312Y22626300D01*
X40145319Y22626300D01*
X40594681Y22626300D01*
X40594688Y22626300D01*
X40644014Y22632794D01*
X40752267Y22683273D01*
X40836727Y22767733D01*
X40887206Y22875986D01*
X40893700Y22925312D01*
X40893700Y23142013D01*
X40913702Y23210134D01*
X40930605Y23231108D01*
X41691205Y23991708D01*
X41753517Y24025734D01*
X41824332Y24020669D01*
X41881168Y23978122D01*
X41905979Y23911602D01*
X41906300Y23902613D01*
X41906300Y23200250D01*
X41886298Y23132129D01*
X41869395Y23111155D01*
X41395705Y22637466D01*
X41395697Y22637456D01*
X41371559Y22595646D01*
X41371558Y22595645D01*
X41355507Y22567845D01*
X41355506Y22567843D01*
X41332668Y22482613D01*
X41295716Y22421990D01*
X41256479Y22397734D01*
X41128119Y22348007D01*
X41128108Y22348002D01*
X40947933Y22236442D01*
X40791324Y22093674D01*
X40663612Y21924556D01*
X40569150Y21734850D01*
X40569147Y21734842D01*
X40511154Y21531017D01*
X40495462Y21361672D01*
X40478755Y21319601D01*
X40493656Y21290895D01*
X40495462Y21278329D01*
X40511154Y21108984D01*
X40569147Y20905159D01*
X40569148Y20905155D01*
X40569150Y20905150D01*
X40663611Y20715446D01*
X40783091Y20557230D01*
X40808180Y20490817D01*
X40793381Y20421380D01*
X40743390Y20370967D01*
X40682540Y20355300D01*
X40057460Y20355300D01*
X39989339Y20375302D01*
X39942846Y20428958D01*
X39932742Y20499232D01*
X39956908Y20557229D01*
X40076389Y20715446D01*
X40170850Y20905150D01*
X40228845Y21108982D01*
X40240078Y21230203D01*
X40244538Y21278329D01*
X40261244Y21320401D01*
X40246344Y21349106D01*
X40244538Y21361672D01*
X40228845Y21531017D01*
X40206578Y21609276D01*
X40170850Y21734850D01*
X40076389Y21924554D01*
X39948677Y22093671D01*
X39948675Y22093674D01*
X39792066Y22236442D01*
X39611891Y22348002D01*
X39611886Y22348004D01*
X39611885Y22348005D01*
X39596134Y22354107D01*
X39414277Y22424559D01*
X39414278Y22424559D01*
X39414275Y22424560D01*
X39414274Y22424560D01*
X39205961Y22463500D01*
X38994039Y22463500D01*
X38889882Y22444030D01*
X38785724Y22424560D01*
X38603866Y22354107D01*
X38533120Y22348151D01*
X38470384Y22381388D01*
X38469255Y22382504D01*
X37862205Y22989554D01*
X37828179Y23051866D01*
X37825300Y23078649D01*
X37825300Y23340192D01*
X37804494Y23417842D01*
X37804494Y23417843D01*
X37764301Y23487458D01*
X37764299Y23487461D01*
X36227465Y25024295D01*
X36227455Y25024303D01*
X36157841Y25064494D01*
X36080193Y25085300D01*
X36080191Y25085300D01*
X35708649Y25085300D01*
X35640528Y25105302D01*
X35619554Y25122205D01*
X35432205Y25309554D01*
X35398179Y25371866D01*
X35395300Y25398649D01*
X35395300Y25756741D01*
X35415302Y25824862D01*
X35468958Y25871355D01*
X35539232Y25881459D01*
X35556798Y25877637D01*
X35558601Y25877108D01*
X35558604Y25877106D01*
X35697579Y25836300D01*
X35842421Y25836300D01*
X35938923Y25864635D01*
X36009917Y25864635D01*
X36069643Y25826251D01*
X36083538Y25806739D01*
X36127297Y25730945D01*
X36127305Y25730935D01*
X37302536Y24555704D01*
X37302539Y24555702D01*
X37302541Y24555700D01*
X37335401Y24536729D01*
X37335403Y24536727D01*
X37335404Y24536727D01*
X37372159Y24515506D01*
X37449807Y24494700D01*
X37870510Y24494700D01*
X37938631Y24474698D01*
X37965734Y24451213D01*
X37996755Y24415413D01*
X38085862Y24358148D01*
X38118604Y24337106D01*
X38257579Y24296300D01*
X38402421Y24296300D01*
X38541396Y24337106D01*
X38663246Y24415414D01*
X38758097Y24524879D01*
X38818267Y24656632D01*
X38838880Y24800000D01*
X38818267Y24943368D01*
X38758097Y25075121D01*
X38663246Y25184586D01*
X38663245Y25184587D01*
X38663244Y25184588D01*
X38541400Y25262892D01*
X38541397Y25262894D01*
X38541396Y25262894D01*
X38429125Y25295859D01*
X38402421Y25303700D01*
X38257579Y25303700D01*
X38118606Y25262895D01*
X38118599Y25262892D01*
X37996755Y25184588D01*
X37965734Y25148787D01*
X37906008Y25110404D01*
X37870510Y25105300D01*
X37668649Y25105300D01*
X37600528Y25125302D01*
X37579554Y25142205D01*
X36713805Y26007954D01*
X36679779Y26070266D01*
X36676900Y26097049D01*
X36676900Y26629382D01*
X36676900Y26629384D01*
X36657791Y26700700D01*
X36656094Y26707033D01*
X36651897Y26714302D01*
X36615901Y26776649D01*
X36615899Y26776652D01*
X36502005Y26890546D01*
X36467979Y26952858D01*
X36465100Y26979641D01*
X36465100Y29250601D01*
X36465100Y29250603D01*
X36444294Y29328251D01*
X36404101Y29397869D01*
X35747628Y30054341D01*
X35713604Y30116653D01*
X35718668Y30187468D01*
X35722529Y30196686D01*
X35753237Y30262541D01*
X35759799Y30312386D01*
X35759800Y30312395D01*
X35759800Y30567605D01*
X35759799Y30567615D01*
X35753237Y30617460D01*
X35702220Y30726867D01*
X35616866Y30812221D01*
X35507459Y30863238D01*
X35457614Y30869800D01*
X34932385Y30869800D01*
X34882540Y30863238D01*
X34773133Y30812221D01*
X34687779Y30726867D01*
X34636762Y30617460D01*
X34630200Y30567615D01*
X34630200Y30419674D01*
X34610198Y30351553D01*
X34556542Y30305060D01*
X34486268Y30294956D01*
X34439082Y30314314D01*
X34438538Y30313284D01*
X34430189Y30317697D01*
X34303630Y30361982D01*
X34273579Y30364800D01*
X34202400Y30364800D01*
X34202400Y29753600D01*
X34182398Y29685479D01*
X34128742Y29638986D01*
X34076400Y29627600D01*
X33435201Y29627600D01*
X33435201Y29586417D01*
X33438018Y29556369D01*
X33438018Y29556368D01*
X33482302Y29429813D01*
X33482303Y29429812D01*
X33561929Y29321923D01*
X33568603Y29315249D01*
X33566971Y29313618D01*
X33601984Y29267496D01*
X33607526Y29196716D01*
X33598423Y29169421D01*
X33542889Y29050329D01*
X33542889Y29050328D01*
X33536300Y29000277D01*
X33536300Y28639724D01*
X33542889Y28589674D01*
X33542890Y28589670D01*
X33555305Y28563046D01*
X33565966Y28492855D01*
X33562008Y28474307D01*
X33561734Y28473377D01*
X33541120Y28330000D01*
X33562533Y28181068D01*
X33552428Y28110794D01*
X33552011Y28109891D01*
X33542890Y28090332D01*
X33542889Y28090327D01*
X33536300Y28040277D01*
X33536300Y27679724D01*
X33542889Y27629674D01*
X33542890Y27629672D01*
X33584663Y27540088D01*
X33598423Y27510581D01*
X33609084Y27440389D01*
X33580104Y27375576D01*
X33568549Y27364805D01*
X33568603Y27364751D01*
X33561929Y27358078D01*
X33482303Y27250189D01*
X33438018Y27123631D01*
X33435200Y27093580D01*
X33435200Y27052400D01*
X34076400Y27052400D01*
X34144521Y27032398D01*
X34191014Y26978742D01*
X34202400Y26926400D01*
X34202400Y26315201D01*
X34273569Y26315201D01*
X34273583Y26315202D01*
X34303631Y26318019D01*
X34303632Y26318019D01*
X34430187Y26362303D01*
X34430188Y26362304D01*
X34538075Y26441928D01*
X34557321Y26468005D01*
X34613866Y26510938D01*
X34684645Y26516484D01*
X34747188Y26482883D01*
X34781636Y26420804D01*
X34784700Y26393184D01*
X34784700Y25179804D01*
X34803455Y25109813D01*
X34803455Y25109811D01*
X34803456Y25109811D01*
X34803457Y25109807D01*
X34805506Y25102159D01*
X34805507Y25102157D01*
X34845697Y25032545D01*
X34845705Y25032535D01*
X35180319Y24697921D01*
X35214345Y24635609D01*
X35209280Y24564794D01*
X35166733Y24507958D01*
X35107670Y24483904D01*
X34918247Y24458967D01*
X34889309Y24451213D01*
X34677471Y24394451D01*
X34521680Y24329920D01*
X34447182Y24299062D01*
X34447171Y24299057D01*
X34231319Y24174435D01*
X34231312Y24174430D01*
X34033572Y24022699D01*
X34033551Y24022680D01*
X33857320Y23846449D01*
X33857301Y23846428D01*
X33705570Y23648688D01*
X33705565Y23648681D01*
X33580943Y23432829D01*
X33580938Y23432818D01*
X33580937Y23432816D01*
X33551297Y23361259D01*
X33485549Y23202529D01*
X33485548Y23202525D01*
X33421033Y22961754D01*
X33388500Y22714634D01*
X33388500Y22465367D01*
X33421033Y22218247D01*
X33421035Y22218240D01*
X33485549Y21977471D01*
X33580937Y21747184D01*
X33580938Y21747183D01*
X33580943Y21747172D01*
X33705565Y21531320D01*
X33705570Y21531313D01*
X33857301Y21333573D01*
X33857320Y21333552D01*
X34033551Y21157321D01*
X34033572Y21157302D01*
X34231312Y21005571D01*
X34231319Y21005566D01*
X34447171Y20880944D01*
X34447175Y20880943D01*
X34447184Y20880937D01*
X34677471Y20785549D01*
X34918240Y20721035D01*
X34918244Y20721035D01*
X34918246Y20721034D01*
X34981937Y20712650D01*
X35165369Y20688500D01*
X35165376Y20688500D01*
X35414624Y20688500D01*
X35414631Y20688500D01*
X35637973Y20717904D01*
X35661753Y20721034D01*
X35661753Y20721035D01*
X35661760Y20721035D01*
X35902529Y20785549D01*
X36132816Y20880937D01*
X36348684Y21005568D01*
X36546436Y21157309D01*
X36722691Y21333564D01*
X36874432Y21531316D01*
X36999063Y21747184D01*
X37094451Y21977471D01*
X37158965Y22218240D01*
X37191500Y22465369D01*
X37191500Y22492551D01*
X37211502Y22560672D01*
X37265158Y22607165D01*
X37335432Y22617269D01*
X37400012Y22587775D01*
X37406595Y22581646D01*
X38039586Y21948655D01*
X38073612Y21886343D01*
X38068547Y21815528D01*
X38063282Y21803398D01*
X38029152Y21734855D01*
X38029147Y21734842D01*
X37971154Y21531017D01*
X37951601Y21320005D01*
X37951601Y21319996D01*
X37971154Y21108984D01*
X38029147Y20905159D01*
X38029148Y20905155D01*
X38029150Y20905150D01*
X38123611Y20715446D01*
X38243091Y20557230D01*
X38268180Y20490817D01*
X38253381Y20421380D01*
X38203390Y20370967D01*
X38142540Y20355300D01*
X33181300Y20355300D01*
X33113179Y20375302D01*
X33066686Y20428958D01*
X33055300Y20481300D01*
X33055300Y26706417D01*
X33435201Y26706417D01*
X33438018Y26676369D01*
X33438018Y26676368D01*
X33482302Y26549813D01*
X33482303Y26549812D01*
X33561926Y26441927D01*
X33669811Y26362304D01*
X33669810Y26362304D01*
X33796369Y26318019D01*
X33826422Y26315201D01*
X33897599Y26315202D01*
X33897600Y26315202D01*
X33897600Y26747600D01*
X33435201Y26747600D01*
X33435201Y26706417D01*
X33055300Y26706417D01*
X33055300Y29973580D01*
X33435200Y29973580D01*
X33435200Y29932400D01*
X33897600Y29932400D01*
X33897600Y30364801D01*
X33826432Y30364800D01*
X33826415Y30364799D01*
X33796368Y30361982D01*
X33796367Y30361982D01*
X33669812Y30317698D01*
X33669811Y30317697D01*
X33561926Y30238074D01*
X33482303Y30130189D01*
X33438018Y30003631D01*
X33435200Y29973580D01*
X33055300Y29973580D01*
X33055300Y31442227D01*
X33075302Y31510348D01*
X33128958Y31556841D01*
X33199232Y31566945D01*
X33249418Y31548226D01*
X33339947Y31490047D01*
X33478039Y31449500D01*
X33621961Y31449500D01*
X33760053Y31490047D01*
X33881128Y31567857D01*
X33975377Y31676627D01*
X34035165Y31807543D01*
X34055647Y31950000D01*
X34035165Y32092457D01*
X33975377Y32223373D01*
X33964273Y32236188D01*
X33934780Y32300769D01*
X33944885Y32371043D01*
X33991378Y32424698D01*
X34059498Y32444700D01*
X57718700Y32444700D01*
X57786821Y32424698D01*
G37*
%TD.AperFunction*%
%TD*%
M02*
