M48
; DRILL file {KiCad 8.0.6} date 2024-11-25T14:03:37-0700
; FORMAT={-:-/ absolute / metric / decimal}
; #@! TF.CreationDate,2024-11-25T14:03:37-07:00
; #@! TF.GenerationSoftware,Kicad,Pcbnew,8.0.6
; #@! TF.FileFunction,MixedPlating,1,2
FMAT,2
METRIC
; #@! TA.AperFunction,Plated,PTH,ViaDrill
T1C0.300
; #@! TA.AperFunction,Plated,PTH,ComponentDrill
T2C1.016
%
G90
G05
T1
X1.3Y100.95
X1.3Y87.75
X1.3Y74.55
X1.3Y61.35
X1.3Y48.15
X1.3Y34.95
X1.3Y21.75
X1.3Y8.55
X1.3Y-4.65
X1.48Y104.94
X1.48Y91.74
X1.48Y78.54
X1.48Y65.34
X1.48Y52.14
X1.48Y38.94
X1.48Y25.74
X1.48Y12.54
X1.48Y-0.66
X1.76Y93.78
X1.76Y80.58
X1.76Y67.38
X1.76Y54.18
X1.76Y40.98
X1.76Y27.78
X1.76Y14.58
X1.76Y1.38
X1.76Y-11.82
X1.96Y98.18
X1.96Y84.98
X1.96Y71.78
X1.96Y58.58
X1.96Y45.38
X1.96Y32.18
X1.96Y18.98
X1.96Y5.78
X1.96Y-7.42
X2.562Y98.88
X2.562Y85.68
X2.562Y72.48
X2.562Y59.28
X2.562Y46.08
X2.562Y32.88
X2.562Y19.68
X2.562Y6.48
X2.562Y-6.72
X3.783Y98.331
X3.783Y85.131
X3.783Y71.931
X3.783Y58.731
X3.783Y45.531
X3.783Y32.331
X3.783Y19.131
X3.783Y5.931
X3.783Y-7.269
X4.011Y99.735
X4.011Y86.535
X4.011Y73.335
X4.011Y60.135
X4.011Y46.935
X4.011Y33.735
X4.011Y20.535
X4.011Y7.335
X4.011Y-5.865
X5.34Y104.94
X5.34Y91.74
X5.34Y78.54
X5.34Y65.34
X5.34Y52.14
X5.34Y38.94
X5.34Y25.74
X5.34Y12.54
X5.34Y-0.66
X5.759Y103.293
X5.759Y90.093
X5.759Y76.893
X5.759Y63.693
X5.759Y50.493
X5.759Y37.293
X5.759Y24.093
X5.759Y10.893
X5.759Y-2.307
X5.964Y102.392
X5.964Y89.192
X5.964Y75.992
X5.964Y62.792
X5.964Y49.592
X5.964Y36.392
X5.964Y23.192
X5.964Y9.992
X5.964Y-3.208
X6.48Y98.18
X6.48Y84.98
X6.48Y71.78
X6.48Y58.58
X6.48Y45.38
X6.48Y32.18
X6.48Y18.98
X6.48Y5.78
X6.48Y-7.42
X6.793Y97.08
X6.793Y83.88
X6.793Y70.68
X6.793Y57.48
X6.793Y44.28
X6.793Y31.08
X6.793Y17.88
X6.793Y4.68
X6.793Y-8.52
X7.527Y101.75
X7.527Y88.55
X7.527Y75.35
X7.527Y62.15
X7.527Y48.95
X7.527Y35.75
X7.527Y22.55
X7.527Y9.35
X7.527Y-3.85
X7.593Y97.08
X7.593Y83.88
X7.593Y70.68
X7.593Y57.48
X7.593Y44.28
X7.593Y31.08
X7.593Y17.88
X7.593Y4.68
X7.593Y-8.52
X8.3Y98.235
X8.3Y85.035
X8.3Y71.835
X8.3Y58.635
X8.3Y45.435
X8.3Y32.235
X8.3Y19.035
X8.3Y5.835
X8.3Y-7.365
X8.715Y98.919
X8.715Y85.719
X8.715Y72.519
X8.715Y59.319
X8.715Y46.119
X8.715Y32.919
X8.715Y19.719
X8.715Y6.519
X8.715Y-6.681
X9.147Y97.59
X9.147Y84.39
X9.147Y71.19
X9.147Y57.99
X9.147Y44.79
X9.147Y31.59
X9.147Y18.39
X9.147Y5.19
X9.147Y-8.01
X10.6Y98.49
X10.6Y85.29
X10.6Y72.09
X10.6Y58.89
X10.6Y45.69
X10.6Y32.49
X10.6Y19.29
X10.6Y6.09
X10.6Y-7.11
X10.83Y95.68
X10.83Y82.48
X10.83Y69.28
X10.83Y56.08
X10.83Y42.88
X10.83Y29.68
X10.83Y16.48
X10.83Y3.28
X10.83Y-9.92
X10.84Y102.1
X10.84Y88.9
X10.84Y75.7
X10.84Y62.5
X10.84Y49.3
X10.84Y36.1
X10.84Y22.9
X10.84Y9.7
X10.84Y-3.5
X11.398Y100.956
X11.398Y87.756
X11.398Y74.556
X11.398Y61.356
X11.398Y48.156
X11.398Y34.956
X11.398Y21.756
X11.398Y8.556
X11.398Y-4.644
X11.776Y102.407
X11.776Y89.207
X11.776Y76.007
X11.776Y62.807
X11.776Y49.607
X11.776Y36.407
X11.776Y23.207
X11.776Y10.007
X11.776Y-3.193
X12.184Y101.105
X12.184Y87.905
X12.184Y74.705
X12.184Y61.505
X12.184Y48.305
X12.184Y35.105
X12.184Y21.905
X12.184Y8.705
X12.184Y-4.495
X13.31Y95.72
X13.31Y82.52
X13.31Y69.32
X13.31Y56.12
X13.31Y42.92
X13.31Y29.72
X13.31Y16.52
X13.31Y3.32
X13.31Y-9.88
X14.1Y98.54
X14.1Y85.34
X14.1Y72.14
X14.1Y58.94
X14.1Y45.74
X14.1Y32.54
X14.1Y19.34
X14.1Y6.14
X14.1Y-7.06
X14.27Y101.28
X14.27Y88.08
X14.27Y74.88
X14.27Y61.68
X14.27Y48.48
X14.27Y35.28
X14.27Y22.08
X14.27Y8.88
X14.27Y-4.32
X15.24Y104.584
X15.24Y103.06
X15.24Y101.79
X15.24Y100.52
X15.24Y98.996
X15.24Y91.384
X15.24Y89.86
X15.24Y88.59
X15.24Y87.32
X15.24Y85.796
X15.24Y78.184
X15.24Y76.66
X15.24Y75.39
X15.24Y74.12
X15.24Y72.596
X15.24Y64.984
X15.24Y63.46
X15.24Y62.19
X15.24Y60.92
X15.24Y59.396
X15.24Y51.784
X15.24Y50.26
X15.24Y48.99
X15.24Y47.72
X15.24Y46.196
X15.24Y38.584
X15.24Y37.06
X15.24Y35.79
X15.24Y34.52
X15.24Y32.996
X15.24Y25.384
X15.24Y23.86
X15.24Y22.59
X15.24Y21.32
X15.24Y19.796
X15.24Y12.184
X15.24Y10.66
X15.24Y9.39
X15.24Y8.12
X15.24Y6.596
X15.24Y-1.016
X15.24Y-2.54
X15.24Y-3.81
X15.24Y-5.08
X15.24Y-6.604
X15.77Y95.68
X15.77Y82.48
X15.77Y69.28
X15.77Y56.08
X15.77Y42.88
X15.77Y29.68
X15.77Y16.48
X15.77Y3.28
X15.77Y-9.92
X16.51Y104.584
X16.51Y103.06
X16.51Y101.79
X16.51Y100.52
X16.51Y98.996
X16.51Y91.384
X16.51Y89.86
X16.51Y88.59
X16.51Y87.32
X16.51Y85.796
X16.51Y78.184
X16.51Y76.66
X16.51Y75.39
X16.51Y74.12
X16.51Y72.596
X16.51Y64.984
X16.51Y63.46
X16.51Y62.19
X16.51Y60.92
X16.51Y59.396
X16.51Y51.784
X16.51Y50.26
X16.51Y48.99
X16.51Y47.72
X16.51Y46.196
X16.51Y38.584
X16.51Y37.06
X16.51Y35.79
X16.51Y34.52
X16.51Y32.996
X16.51Y25.384
X16.51Y23.86
X16.51Y22.59
X16.51Y21.32
X16.51Y19.796
X16.51Y12.184
X16.51Y10.66
X16.51Y9.39
X16.51Y8.12
X16.51Y6.596
X16.51Y-1.016
X16.51Y-2.54
X16.51Y-3.81
X16.51Y-5.08
X16.51Y-6.604
X17.78Y104.584
X17.78Y103.06
X17.78Y101.79
X17.78Y100.52
X17.78Y98.996
X17.78Y91.384
X17.78Y89.86
X17.78Y88.59
X17.78Y87.32
X17.78Y85.796
X17.78Y78.184
X17.78Y76.66
X17.78Y75.39
X17.78Y74.12
X17.78Y72.596
X17.78Y64.984
X17.78Y63.46
X17.78Y62.19
X17.78Y60.92
X17.78Y59.396
X17.78Y51.784
X17.78Y50.26
X17.78Y48.99
X17.78Y47.72
X17.78Y46.196
X17.78Y38.584
X17.78Y37.06
X17.78Y35.79
X17.78Y34.52
X17.78Y32.996
X17.78Y25.384
X17.78Y23.86
X17.78Y22.59
X17.78Y21.32
X17.78Y19.796
X17.78Y12.184
X17.78Y10.66
X17.78Y9.39
X17.78Y8.12
X17.78Y6.596
X17.78Y-1.016
X17.78Y-2.54
X17.78Y-3.81
X17.78Y-5.08
X17.78Y-6.604
X18.39Y97.41
X18.39Y84.21
X18.39Y71.01
X18.39Y57.81
X18.39Y44.61
X18.39Y31.41
X18.39Y18.21
X18.39Y5.01
X18.39Y-8.19
X19.05Y104.584
X19.05Y103.06
X19.05Y101.79
X19.05Y100.52
X19.05Y98.996
X19.05Y91.384
X19.05Y89.86
X19.05Y88.59
X19.05Y87.32
X19.05Y85.796
X19.05Y78.184
X19.05Y76.66
X19.05Y75.39
X19.05Y74.12
X19.05Y72.596
X19.05Y64.984
X19.05Y63.46
X19.05Y62.19
X19.05Y60.92
X19.05Y59.396
X19.05Y51.784
X19.05Y50.26
X19.05Y48.99
X19.05Y47.72
X19.05Y46.196
X19.05Y38.584
X19.05Y37.06
X19.05Y35.79
X19.05Y34.52
X19.05Y32.996
X19.05Y25.384
X19.05Y23.86
X19.05Y22.59
X19.05Y21.32
X19.05Y19.796
X19.05Y12.184
X19.05Y10.66
X19.05Y9.39
X19.05Y8.12
X19.05Y6.596
X19.05Y-1.016
X19.05Y-2.54
X19.05Y-3.81
X19.05Y-5.08
X19.05Y-6.604
X20.32Y104.584
X20.32Y103.06
X20.32Y101.79
X20.32Y100.52
X20.32Y98.996
X20.32Y91.384
X20.32Y89.86
X20.32Y88.59
X20.32Y87.32
X20.32Y85.796
X20.32Y78.184
X20.32Y76.66
X20.32Y75.39
X20.32Y74.12
X20.32Y72.596
X20.32Y64.984
X20.32Y63.46
X20.32Y62.19
X20.32Y60.92
X20.32Y59.396
X20.32Y51.784
X20.32Y50.26
X20.32Y48.99
X20.32Y47.72
X20.32Y46.196
X20.32Y38.584
X20.32Y37.06
X20.32Y35.79
X20.32Y34.52
X20.32Y32.996
X20.32Y25.384
X20.32Y23.86
X20.32Y22.59
X20.32Y21.32
X20.32Y19.796
X20.32Y12.184
X20.32Y10.66
X20.32Y9.39
X20.32Y8.12
X20.32Y6.596
X20.32Y-1.016
X20.32Y-2.54
X20.32Y-3.81
X20.32Y-5.08
X20.32Y-6.604
X20.892Y97.101
X20.892Y83.901
X20.892Y70.701
X20.892Y57.501
X20.892Y44.301
X20.892Y31.101
X20.892Y17.901
X20.892Y4.701
X20.892Y-8.499
X21.59Y104.584
X21.59Y103.06
X21.59Y101.79
X21.59Y100.52
X21.59Y98.996
X21.59Y91.384
X21.59Y89.86
X21.59Y88.59
X21.59Y87.32
X21.59Y85.796
X21.59Y78.184
X21.59Y76.66
X21.59Y75.39
X21.59Y74.12
X21.59Y72.596
X21.59Y64.984
X21.59Y63.46
X21.59Y62.19
X21.59Y60.92
X21.59Y59.396
X21.59Y51.784
X21.59Y50.26
X21.59Y48.99
X21.59Y47.72
X21.59Y46.196
X21.59Y38.584
X21.59Y37.06
X21.59Y35.79
X21.59Y34.52
X21.59Y32.996
X21.59Y25.384
X21.59Y23.86
X21.59Y22.59
X21.59Y21.32
X21.59Y19.796
X21.59Y12.184
X21.59Y10.66
X21.59Y9.39
X21.59Y8.12
X21.59Y6.596
X21.59Y-1.016
X21.59Y-2.54
X21.59Y-3.81
X21.59Y-5.08
X21.59Y-6.604
X22.46Y94.22
X22.46Y81.02
X22.46Y67.82
X22.46Y54.62
X22.46Y41.42
X22.46Y28.22
X22.46Y15.02
X22.46Y1.82
X22.46Y-11.38
X25.93Y100.95
X25.93Y87.75
X25.93Y74.55
X25.93Y61.35
X25.93Y48.15
X25.93Y34.95
X25.93Y21.75
X25.93Y8.55
X25.93Y-4.65
X26.11Y104.94
X26.11Y91.74
X26.11Y78.54
X26.11Y65.34
X26.11Y52.14
X26.11Y38.94
X26.11Y25.74
X26.11Y12.54
X26.11Y-0.66
X26.39Y93.78
X26.39Y80.58
X26.39Y67.38
X26.39Y54.18
X26.39Y40.98
X26.39Y27.78
X26.39Y14.58
X26.39Y1.38
X26.39Y-11.82
X26.59Y98.18
X26.59Y84.98
X26.59Y71.78
X26.59Y58.58
X26.59Y45.38
X26.59Y32.18
X26.59Y18.98
X26.59Y5.78
X26.59Y-7.42
X27.192Y98.88
X27.192Y85.68
X27.192Y72.48
X27.192Y59.28
X27.192Y46.08
X27.192Y32.88
X27.192Y19.68
X27.192Y6.48
X27.192Y-6.72
X28.413Y98.331
X28.413Y85.131
X28.413Y71.931
X28.413Y58.731
X28.413Y45.531
X28.413Y32.331
X28.413Y19.131
X28.413Y5.931
X28.413Y-7.269
X28.641Y99.735
X28.641Y86.535
X28.641Y73.335
X28.641Y60.135
X28.641Y46.935
X28.641Y33.735
X28.641Y20.535
X28.641Y7.335
X28.641Y-5.865
X29.97Y104.94
X29.97Y91.74
X29.97Y78.54
X29.97Y65.34
X29.97Y52.14
X29.97Y38.94
X29.97Y25.74
X29.97Y12.54
X29.97Y-0.66
X30.389Y103.293
X30.389Y90.093
X30.389Y76.893
X30.389Y63.693
X30.389Y50.493
X30.389Y37.293
X30.389Y24.093
X30.389Y10.893
X30.389Y-2.307
X30.594Y102.392
X30.594Y89.192
X30.594Y75.992
X30.594Y62.792
X30.594Y49.592
X30.594Y36.392
X30.594Y23.192
X30.594Y9.992
X30.594Y-3.208
X31.11Y98.18
X31.11Y84.98
X31.11Y71.78
X31.11Y58.58
X31.11Y45.38
X31.11Y32.18
X31.11Y18.98
X31.11Y5.78
X31.11Y-7.42
X31.423Y97.08
X31.423Y83.88
X31.423Y70.68
X31.423Y57.48
X31.423Y44.28
X31.423Y31.08
X31.423Y17.88
X31.423Y4.68
X31.423Y-8.52
X32.157Y101.75
X32.157Y88.55
X32.157Y75.35
X32.157Y62.15
X32.157Y48.95
X32.157Y35.75
X32.157Y22.55
X32.157Y9.35
X32.157Y-3.85
X32.223Y97.08
X32.223Y83.88
X32.223Y70.68
X32.223Y57.48
X32.223Y44.28
X32.223Y31.08
X32.223Y17.88
X32.223Y4.68
X32.223Y-8.52
X32.93Y98.235
X32.93Y85.035
X32.93Y71.835
X32.93Y58.635
X32.93Y45.435
X32.93Y32.235
X32.93Y19.035
X32.93Y5.835
X32.93Y-7.365
X33.345Y98.919
X33.345Y85.719
X33.345Y72.519
X33.345Y59.319
X33.345Y46.119
X33.345Y32.919
X33.345Y19.719
X33.345Y6.519
X33.345Y-6.681
X33.777Y97.59
X33.777Y84.39
X33.777Y71.19
X33.777Y57.99
X33.777Y44.79
X33.777Y31.59
X33.777Y18.39
X33.777Y5.19
X33.777Y-8.01
X35.23Y98.49
X35.23Y85.29
X35.23Y72.09
X35.23Y58.89
X35.23Y45.69
X35.23Y32.49
X35.23Y19.29
X35.23Y6.09
X35.23Y-7.11
X35.46Y95.68
X35.46Y82.48
X35.46Y69.28
X35.46Y56.08
X35.46Y42.88
X35.46Y29.68
X35.46Y16.48
X35.46Y3.28
X35.46Y-9.92
X35.47Y102.1
X35.47Y88.9
X35.47Y75.7
X35.47Y62.5
X35.47Y49.3
X35.47Y36.1
X35.47Y22.9
X35.47Y9.7
X35.47Y-3.5
X36.028Y100.956
X36.028Y87.756
X36.028Y74.556
X36.028Y61.356
X36.028Y48.156
X36.028Y34.956
X36.028Y21.756
X36.028Y8.556
X36.028Y-4.644
X36.406Y102.407
X36.406Y89.207
X36.406Y76.007
X36.406Y62.807
X36.406Y49.607
X36.406Y36.407
X36.406Y23.207
X36.406Y10.007
X36.406Y-3.193
X36.814Y101.105
X36.814Y87.905
X36.814Y74.705
X36.814Y61.505
X36.814Y48.305
X36.814Y35.105
X36.814Y21.905
X36.814Y8.705
X36.814Y-4.495
X37.94Y95.72
X37.94Y82.52
X37.94Y69.32
X37.94Y56.12
X37.94Y42.92
X37.94Y29.72
X37.94Y16.52
X37.94Y3.32
X37.94Y-9.88
X38.73Y98.54
X38.73Y85.34
X38.73Y72.14
X38.73Y58.94
X38.73Y45.74
X38.73Y32.54
X38.73Y19.34
X38.73Y6.14
X38.73Y-7.06
X38.9Y101.28
X38.9Y88.08
X38.9Y74.88
X38.9Y61.68
X38.9Y48.48
X38.9Y35.28
X38.9Y22.08
X38.9Y8.88
X38.9Y-4.32
X39.87Y104.584
X39.87Y103.06
X39.87Y101.79
X39.87Y100.52
X39.87Y98.996
X39.87Y91.384
X39.87Y89.86
X39.87Y88.59
X39.87Y87.32
X39.87Y85.796
X39.87Y78.184
X39.87Y76.66
X39.87Y75.39
X39.87Y74.12
X39.87Y72.596
X39.87Y64.984
X39.87Y63.46
X39.87Y62.19
X39.87Y60.92
X39.87Y59.396
X39.87Y51.784
X39.87Y50.26
X39.87Y48.99
X39.87Y47.72
X39.87Y46.196
X39.87Y38.584
X39.87Y37.06
X39.87Y35.79
X39.87Y34.52
X39.87Y32.996
X39.87Y25.384
X39.87Y23.86
X39.87Y22.59
X39.87Y21.32
X39.87Y19.796
X39.87Y12.184
X39.87Y10.66
X39.87Y9.39
X39.87Y8.12
X39.87Y6.596
X39.87Y-1.016
X39.87Y-2.54
X39.87Y-3.81
X39.87Y-5.08
X39.87Y-6.604
X40.4Y95.68
X40.4Y82.48
X40.4Y69.28
X40.4Y56.08
X40.4Y42.88
X40.4Y29.68
X40.4Y16.48
X40.4Y3.28
X40.4Y-9.92
X41.14Y104.584
X41.14Y103.06
X41.14Y101.79
X41.14Y100.52
X41.14Y98.996
X41.14Y91.384
X41.14Y89.86
X41.14Y88.59
X41.14Y87.32
X41.14Y85.796
X41.14Y78.184
X41.14Y76.66
X41.14Y75.39
X41.14Y74.12
X41.14Y72.596
X41.14Y64.984
X41.14Y63.46
X41.14Y62.19
X41.14Y60.92
X41.14Y59.396
X41.14Y51.784
X41.14Y50.26
X41.14Y48.99
X41.14Y47.72
X41.14Y46.196
X41.14Y38.584
X41.14Y37.06
X41.14Y35.79
X41.14Y34.52
X41.14Y32.996
X41.14Y25.384
X41.14Y23.86
X41.14Y22.59
X41.14Y21.32
X41.14Y19.796
X41.14Y12.184
X41.14Y10.66
X41.14Y9.39
X41.14Y8.12
X41.14Y6.596
X41.14Y-1.016
X41.14Y-2.54
X41.14Y-3.81
X41.14Y-5.08
X41.14Y-6.604
X42.41Y104.584
X42.41Y103.06
X42.41Y101.79
X42.41Y100.52
X42.41Y98.996
X42.41Y91.384
X42.41Y89.86
X42.41Y88.59
X42.41Y87.32
X42.41Y85.796
X42.41Y78.184
X42.41Y76.66
X42.41Y75.39
X42.41Y74.12
X42.41Y72.596
X42.41Y64.984
X42.41Y63.46
X42.41Y62.19
X42.41Y60.92
X42.41Y59.396
X42.41Y51.784
X42.41Y50.26
X42.41Y48.99
X42.41Y47.72
X42.41Y46.196
X42.41Y38.584
X42.41Y37.06
X42.41Y35.79
X42.41Y34.52
X42.41Y32.996
X42.41Y25.384
X42.41Y23.86
X42.41Y22.59
X42.41Y21.32
X42.41Y19.796
X42.41Y12.184
X42.41Y10.66
X42.41Y9.39
X42.41Y8.12
X42.41Y6.596
X42.41Y-1.016
X42.41Y-2.54
X42.41Y-3.81
X42.41Y-5.08
X42.41Y-6.604
X43.02Y97.41
X43.02Y84.21
X43.02Y71.01
X43.02Y57.81
X43.02Y44.61
X43.02Y31.41
X43.02Y18.21
X43.02Y5.01
X43.02Y-8.19
X43.68Y104.584
X43.68Y103.06
X43.68Y101.79
X43.68Y100.52
X43.68Y98.996
X43.68Y91.384
X43.68Y89.86
X43.68Y88.59
X43.68Y87.32
X43.68Y85.796
X43.68Y78.184
X43.68Y76.66
X43.68Y75.39
X43.68Y74.12
X43.68Y72.596
X43.68Y64.984
X43.68Y63.46
X43.68Y62.19
X43.68Y60.92
X43.68Y59.396
X43.68Y51.784
X43.68Y50.26
X43.68Y48.99
X43.68Y47.72
X43.68Y46.196
X43.68Y38.584
X43.68Y37.06
X43.68Y35.79
X43.68Y34.52
X43.68Y32.996
X43.68Y25.384
X43.68Y23.86
X43.68Y22.59
X43.68Y21.32
X43.68Y19.796
X43.68Y12.184
X43.68Y10.66
X43.68Y9.39
X43.68Y8.12
X43.68Y6.596
X43.68Y-1.016
X43.68Y-2.54
X43.68Y-3.81
X43.68Y-5.08
X43.68Y-6.604
X44.95Y104.584
X44.95Y103.06
X44.95Y101.79
X44.95Y100.52
X44.95Y98.996
X44.95Y91.384
X44.95Y89.86
X44.95Y88.59
X44.95Y87.32
X44.95Y85.796
X44.95Y78.184
X44.95Y76.66
X44.95Y75.39
X44.95Y74.12
X44.95Y72.596
X44.95Y64.984
X44.95Y63.46
X44.95Y62.19
X44.95Y60.92
X44.95Y59.396
X44.95Y51.784
X44.95Y50.26
X44.95Y48.99
X44.95Y47.72
X44.95Y46.196
X44.95Y38.584
X44.95Y37.06
X44.95Y35.79
X44.95Y34.52
X44.95Y32.996
X44.95Y25.384
X44.95Y23.86
X44.95Y22.59
X44.95Y21.32
X44.95Y19.796
X44.95Y12.184
X44.95Y10.66
X44.95Y9.39
X44.95Y8.12
X44.95Y6.596
X44.95Y-1.016
X44.95Y-2.54
X44.95Y-3.81
X44.95Y-5.08
X44.95Y-6.604
X45.522Y97.101
X45.522Y83.901
X45.522Y70.701
X45.522Y57.501
X45.522Y44.301
X45.522Y31.101
X45.522Y17.901
X45.522Y4.701
X45.522Y-8.499
X46.22Y104.584
X46.22Y103.06
X46.22Y101.79
X46.22Y100.52
X46.22Y98.996
X46.22Y91.384
X46.22Y89.86
X46.22Y88.59
X46.22Y87.32
X46.22Y85.796
X46.22Y78.184
X46.22Y76.66
X46.22Y75.39
X46.22Y74.12
X46.22Y72.596
X46.22Y64.984
X46.22Y63.46
X46.22Y62.19
X46.22Y60.92
X46.22Y59.396
X46.22Y51.784
X46.22Y50.26
X46.22Y48.99
X46.22Y47.72
X46.22Y46.196
X46.22Y38.584
X46.22Y37.06
X46.22Y35.79
X46.22Y34.52
X46.22Y32.996
X46.22Y25.384
X46.22Y23.86
X46.22Y22.59
X46.22Y21.32
X46.22Y19.796
X46.22Y12.184
X46.22Y10.66
X46.22Y9.39
X46.22Y8.12
X46.22Y6.596
X46.22Y-1.016
X46.22Y-2.54
X46.22Y-3.81
X46.22Y-5.08
X46.22Y-6.604
X47.09Y94.22
X47.09Y81.02
X47.09Y67.82
X47.09Y54.62
X47.09Y41.42
X47.09Y28.22
X47.09Y15.02
X47.09Y1.82
X47.09Y-11.38
X50.56Y100.95
X50.56Y87.75
X50.56Y74.55
X50.56Y61.35
X50.56Y48.15
X50.56Y34.95
X50.56Y21.75
X50.56Y8.55
X50.56Y-4.65
X50.74Y104.94
X50.74Y91.74
X50.74Y78.54
X50.74Y65.34
X50.74Y52.14
X50.74Y38.94
X50.74Y25.74
X50.74Y12.54
X50.74Y-0.66
X51.02Y93.78
X51.02Y80.58
X51.02Y67.38
X51.02Y54.18
X51.02Y40.98
X51.02Y27.78
X51.02Y14.58
X51.02Y1.38
X51.02Y-11.82
X51.22Y98.18
X51.22Y84.98
X51.22Y71.78
X51.22Y58.58
X51.22Y45.38
X51.22Y32.18
X51.22Y18.98
X51.22Y5.78
X51.22Y-7.42
X51.822Y98.88
X51.822Y85.68
X51.822Y72.48
X51.822Y59.28
X51.822Y46.08
X51.822Y32.88
X51.822Y19.68
X51.822Y6.48
X51.822Y-6.72
X53.043Y98.331
X53.043Y85.131
X53.043Y71.931
X53.043Y58.731
X53.043Y45.531
X53.043Y32.331
X53.043Y19.131
X53.043Y5.931
X53.043Y-7.269
X53.271Y99.735
X53.271Y86.535
X53.271Y73.335
X53.271Y60.135
X53.271Y46.935
X53.271Y33.735
X53.271Y20.535
X53.271Y7.335
X53.271Y-5.865
X54.6Y104.94
X54.6Y91.74
X54.6Y78.54
X54.6Y65.34
X54.6Y52.14
X54.6Y38.94
X54.6Y25.74
X54.6Y12.54
X54.6Y-0.66
X55.019Y103.293
X55.019Y90.093
X55.019Y76.893
X55.019Y63.693
X55.019Y50.493
X55.019Y37.293
X55.019Y24.093
X55.019Y10.893
X55.019Y-2.307
X55.224Y102.392
X55.224Y89.192
X55.224Y75.992
X55.224Y62.792
X55.224Y49.592
X55.224Y36.392
X55.224Y23.192
X55.224Y9.992
X55.224Y-3.208
X55.74Y98.18
X55.74Y84.98
X55.74Y71.78
X55.74Y58.58
X55.74Y45.38
X55.74Y32.18
X55.74Y18.98
X55.74Y5.78
X55.74Y-7.42
X56.053Y97.08
X56.053Y83.88
X56.053Y70.68
X56.053Y57.48
X56.053Y44.28
X56.053Y31.08
X56.053Y17.88
X56.053Y4.68
X56.053Y-8.52
X56.787Y101.75
X56.787Y88.55
X56.787Y75.35
X56.787Y62.15
X56.787Y48.95
X56.787Y35.75
X56.787Y22.55
X56.787Y9.35
X56.787Y-3.85
X56.853Y97.08
X56.853Y83.88
X56.853Y70.68
X56.853Y57.48
X56.853Y44.28
X56.853Y31.08
X56.853Y17.88
X56.853Y4.68
X56.853Y-8.52
X57.56Y98.235
X57.56Y85.035
X57.56Y71.835
X57.56Y58.635
X57.56Y45.435
X57.56Y32.235
X57.56Y19.035
X57.56Y5.835
X57.56Y-7.365
X57.975Y98.919
X57.975Y85.719
X57.975Y72.519
X57.975Y59.319
X57.975Y46.119
X57.975Y32.919
X57.975Y19.719
X57.975Y6.519
X57.975Y-6.681
X58.407Y97.59
X58.407Y84.39
X58.407Y71.19
X58.407Y57.99
X58.407Y44.79
X58.407Y31.59
X58.407Y18.39
X58.407Y5.19
X58.407Y-8.01
X59.86Y98.49
X59.86Y85.29
X59.86Y72.09
X59.86Y58.89
X59.86Y45.69
X59.86Y32.49
X59.86Y19.29
X59.86Y6.09
X59.86Y-7.11
X60.09Y95.68
X60.09Y82.48
X60.09Y69.28
X60.09Y56.08
X60.09Y42.88
X60.09Y29.68
X60.09Y16.48
X60.09Y3.28
X60.09Y-9.92
X60.1Y102.1
X60.1Y88.9
X60.1Y75.7
X60.1Y62.5
X60.1Y49.3
X60.1Y36.1
X60.1Y22.9
X60.1Y9.7
X60.1Y-3.5
X60.658Y100.956
X60.658Y87.756
X60.658Y74.556
X60.658Y61.356
X60.658Y48.156
X60.658Y34.956
X60.658Y21.756
X60.658Y8.556
X60.658Y-4.644
X61.036Y102.407
X61.036Y89.207
X61.036Y76.007
X61.036Y62.807
X61.036Y49.607
X61.036Y36.407
X61.036Y23.207
X61.036Y10.007
X61.036Y-3.193
X61.444Y101.105
X61.444Y87.905
X61.444Y74.705
X61.444Y61.505
X61.444Y48.305
X61.444Y35.105
X61.444Y21.905
X61.444Y8.705
X61.444Y-4.495
X62.57Y95.72
X62.57Y82.52
X62.57Y69.32
X62.57Y56.12
X62.57Y42.92
X62.57Y29.72
X62.57Y16.52
X62.57Y3.32
X62.57Y-9.88
X63.36Y98.54
X63.36Y85.34
X63.36Y72.14
X63.36Y58.94
X63.36Y45.74
X63.36Y32.54
X63.36Y19.34
X63.36Y6.14
X63.36Y-7.06
X63.53Y101.28
X63.53Y88.08
X63.53Y74.88
X63.53Y61.68
X63.53Y48.48
X63.53Y35.28
X63.53Y22.08
X63.53Y8.88
X63.53Y-4.32
X64.5Y104.584
X64.5Y103.06
X64.5Y101.79
X64.5Y100.52
X64.5Y98.996
X64.5Y91.384
X64.5Y89.86
X64.5Y88.59
X64.5Y87.32
X64.5Y85.796
X64.5Y78.184
X64.5Y76.66
X64.5Y75.39
X64.5Y74.12
X64.5Y72.596
X64.5Y64.984
X64.5Y63.46
X64.5Y62.19
X64.5Y60.92
X64.5Y59.396
X64.5Y51.784
X64.5Y50.26
X64.5Y48.99
X64.5Y47.72
X64.5Y46.196
X64.5Y38.584
X64.5Y37.06
X64.5Y35.79
X64.5Y34.52
X64.5Y32.996
X64.5Y25.384
X64.5Y23.86
X64.5Y22.59
X64.5Y21.32
X64.5Y19.796
X64.5Y12.184
X64.5Y10.66
X64.5Y9.39
X64.5Y8.12
X64.5Y6.596
X64.5Y-1.016
X64.5Y-2.54
X64.5Y-3.81
X64.5Y-5.08
X64.5Y-6.604
X65.03Y95.68
X65.03Y82.48
X65.03Y69.28
X65.03Y56.08
X65.03Y42.88
X65.03Y29.68
X65.03Y16.48
X65.03Y3.28
X65.03Y-9.92
X65.77Y104.584
X65.77Y103.06
X65.77Y101.79
X65.77Y100.52
X65.77Y98.996
X65.77Y91.384
X65.77Y89.86
X65.77Y88.59
X65.77Y87.32
X65.77Y85.796
X65.77Y78.184
X65.77Y76.66
X65.77Y75.39
X65.77Y74.12
X65.77Y72.596
X65.77Y64.984
X65.77Y63.46
X65.77Y62.19
X65.77Y60.92
X65.77Y59.396
X65.77Y51.784
X65.77Y50.26
X65.77Y48.99
X65.77Y47.72
X65.77Y46.196
X65.77Y38.584
X65.77Y37.06
X65.77Y35.79
X65.77Y34.52
X65.77Y32.996
X65.77Y25.384
X65.77Y23.86
X65.77Y22.59
X65.77Y21.32
X65.77Y19.796
X65.77Y12.184
X65.77Y10.66
X65.77Y9.39
X65.77Y8.12
X65.77Y6.596
X65.77Y-1.016
X65.77Y-2.54
X65.77Y-3.81
X65.77Y-5.08
X65.77Y-6.604
X67.04Y104.584
X67.04Y103.06
X67.04Y101.79
X67.04Y100.52
X67.04Y98.996
X67.04Y91.384
X67.04Y89.86
X67.04Y88.59
X67.04Y87.32
X67.04Y85.796
X67.04Y78.184
X67.04Y76.66
X67.04Y75.39
X67.04Y74.12
X67.04Y72.596
X67.04Y64.984
X67.04Y63.46
X67.04Y62.19
X67.04Y60.92
X67.04Y59.396
X67.04Y51.784
X67.04Y50.26
X67.04Y48.99
X67.04Y47.72
X67.04Y46.196
X67.04Y38.584
X67.04Y37.06
X67.04Y35.79
X67.04Y34.52
X67.04Y32.996
X67.04Y25.384
X67.04Y23.86
X67.04Y22.59
X67.04Y21.32
X67.04Y19.796
X67.04Y12.184
X67.04Y10.66
X67.04Y9.39
X67.04Y8.12
X67.04Y6.596
X67.04Y-1.016
X67.04Y-2.54
X67.04Y-3.81
X67.04Y-5.08
X67.04Y-6.604
X67.65Y97.41
X67.65Y84.21
X67.65Y71.01
X67.65Y57.81
X67.65Y44.61
X67.65Y31.41
X67.65Y18.21
X67.65Y5.01
X67.65Y-8.19
X68.31Y104.584
X68.31Y103.06
X68.31Y101.79
X68.31Y100.52
X68.31Y98.996
X68.31Y91.384
X68.31Y89.86
X68.31Y88.59
X68.31Y87.32
X68.31Y85.796
X68.31Y78.184
X68.31Y76.66
X68.31Y75.39
X68.31Y74.12
X68.31Y72.596
X68.31Y64.984
X68.31Y63.46
X68.31Y62.19
X68.31Y60.92
X68.31Y59.396
X68.31Y51.784
X68.31Y50.26
X68.31Y48.99
X68.31Y47.72
X68.31Y46.196
X68.31Y38.584
X68.31Y37.06
X68.31Y35.79
X68.31Y34.52
X68.31Y32.996
X68.31Y25.384
X68.31Y23.86
X68.31Y22.59
X68.31Y21.32
X68.31Y19.796
X68.31Y12.184
X68.31Y10.66
X68.31Y9.39
X68.31Y8.12
X68.31Y6.596
X68.31Y-1.016
X68.31Y-2.54
X68.31Y-3.81
X68.31Y-5.08
X68.31Y-6.604
X69.58Y104.584
X69.58Y103.06
X69.58Y101.79
X69.58Y100.52
X69.58Y98.996
X69.58Y91.384
X69.58Y89.86
X69.58Y88.59
X69.58Y87.32
X69.58Y85.796
X69.58Y78.184
X69.58Y76.66
X69.58Y75.39
X69.58Y74.12
X69.58Y72.596
X69.58Y64.984
X69.58Y63.46
X69.58Y62.19
X69.58Y60.92
X69.58Y59.396
X69.58Y51.784
X69.58Y50.26
X69.58Y48.99
X69.58Y47.72
X69.58Y46.196
X69.58Y38.584
X69.58Y37.06
X69.58Y35.79
X69.58Y34.52
X69.58Y32.996
X69.58Y25.384
X69.58Y23.86
X69.58Y22.59
X69.58Y21.32
X69.58Y19.796
X69.58Y12.184
X69.58Y10.66
X69.58Y9.39
X69.58Y8.12
X69.58Y6.596
X69.58Y-1.016
X69.58Y-2.54
X69.58Y-3.81
X69.58Y-5.08
X69.58Y-6.604
X70.152Y97.101
X70.152Y83.901
X70.152Y70.701
X70.152Y57.501
X70.152Y44.301
X70.152Y31.101
X70.152Y17.901
X70.152Y4.701
X70.152Y-8.499
X70.85Y104.584
X70.85Y103.06
X70.85Y101.79
X70.85Y100.52
X70.85Y98.996
X70.85Y91.384
X70.85Y89.86
X70.85Y88.59
X70.85Y87.32
X70.85Y85.796
X70.85Y78.184
X70.85Y76.66
X70.85Y75.39
X70.85Y74.12
X70.85Y72.596
X70.85Y64.984
X70.85Y63.46
X70.85Y62.19
X70.85Y60.92
X70.85Y59.396
X70.85Y51.784
X70.85Y50.26
X70.85Y48.99
X70.85Y47.72
X70.85Y46.196
X70.85Y38.584
X70.85Y37.06
X70.85Y35.79
X70.85Y34.52
X70.85Y32.996
X70.85Y25.384
X70.85Y23.86
X70.85Y22.59
X70.85Y21.32
X70.85Y19.796
X70.85Y12.184
X70.85Y10.66
X70.85Y9.39
X70.85Y8.12
X70.85Y6.596
X70.85Y-1.016
X70.85Y-2.54
X70.85Y-3.81
X70.85Y-5.08
X70.85Y-6.604
X71.72Y94.22
X71.72Y81.02
X71.72Y67.82
X71.72Y54.62
X71.72Y41.42
X71.72Y28.22
X71.72Y15.02
X71.72Y1.82
X71.72Y-11.38
X75.19Y100.95
X75.19Y87.75
X75.19Y74.55
X75.19Y61.35
X75.19Y48.15
X75.19Y34.95
X75.19Y21.75
X75.19Y8.55
X75.19Y-4.65
X75.37Y104.94
X75.37Y91.74
X75.37Y78.54
X75.37Y65.34
X75.37Y52.14
X75.37Y38.94
X75.37Y25.74
X75.37Y12.54
X75.37Y-0.66
X75.65Y93.78
X75.65Y80.58
X75.65Y67.38
X75.65Y54.18
X75.65Y40.98
X75.65Y27.78
X75.65Y14.58
X75.65Y1.38
X75.65Y-11.82
X75.85Y98.18
X75.85Y84.98
X75.85Y71.78
X75.85Y58.58
X75.85Y45.38
X75.85Y32.18
X75.85Y18.98
X75.85Y5.78
X75.85Y-7.42
X76.452Y98.88
X76.452Y85.68
X76.452Y72.48
X76.452Y59.28
X76.452Y46.08
X76.452Y32.88
X76.452Y19.68
X76.452Y6.48
X76.452Y-6.72
X77.673Y98.331
X77.673Y85.131
X77.673Y71.931
X77.673Y58.731
X77.673Y45.531
X77.673Y32.331
X77.673Y19.131
X77.673Y5.931
X77.673Y-7.269
X77.901Y99.735
X77.901Y86.535
X77.901Y73.335
X77.901Y60.135
X77.901Y46.935
X77.901Y33.735
X77.901Y20.535
X77.901Y7.335
X77.901Y-5.865
X79.23Y104.94
X79.23Y91.74
X79.23Y78.54
X79.23Y65.34
X79.23Y52.14
X79.23Y38.94
X79.23Y25.74
X79.23Y12.54
X79.23Y-0.66
X79.649Y103.293
X79.649Y90.093
X79.649Y76.893
X79.649Y63.693
X79.649Y50.493
X79.649Y37.293
X79.649Y24.093
X79.649Y10.893
X79.649Y-2.307
X79.854Y102.392
X79.854Y89.192
X79.854Y75.992
X79.854Y62.792
X79.854Y49.592
X79.854Y36.392
X79.854Y23.192
X79.854Y9.992
X79.854Y-3.208
X80.37Y98.18
X80.37Y84.98
X80.37Y71.78
X80.37Y58.58
X80.37Y45.38
X80.37Y32.18
X80.37Y18.98
X80.37Y5.78
X80.37Y-7.42
X80.683Y97.08
X80.683Y83.88
X80.683Y70.68
X80.683Y57.48
X80.683Y44.28
X80.683Y31.08
X80.683Y17.88
X80.683Y4.68
X80.683Y-8.52
X81.417Y101.75
X81.417Y88.55
X81.417Y75.35
X81.417Y62.15
X81.417Y48.95
X81.417Y35.75
X81.417Y22.55
X81.417Y9.35
X81.417Y-3.85
X81.483Y97.08
X81.483Y83.88
X81.483Y70.68
X81.483Y57.48
X81.483Y44.28
X81.483Y31.08
X81.483Y17.88
X81.483Y4.68
X81.483Y-8.52
X82.19Y98.235
X82.19Y85.035
X82.19Y71.835
X82.19Y58.635
X82.19Y45.435
X82.19Y32.235
X82.19Y19.035
X82.19Y5.835
X82.19Y-7.365
X82.605Y98.919
X82.605Y85.719
X82.605Y72.519
X82.605Y59.319
X82.605Y46.119
X82.605Y32.919
X82.605Y19.719
X82.605Y6.519
X82.605Y-6.681
X83.037Y97.59
X83.037Y84.39
X83.037Y71.19
X83.037Y57.99
X83.037Y44.79
X83.037Y31.59
X83.037Y18.39
X83.037Y5.19
X83.037Y-8.01
X84.49Y98.49
X84.49Y85.29
X84.49Y72.09
X84.49Y58.89
X84.49Y45.69
X84.49Y32.49
X84.49Y19.29
X84.49Y6.09
X84.49Y-7.11
X84.72Y95.68
X84.72Y82.48
X84.72Y69.28
X84.72Y56.08
X84.72Y42.88
X84.72Y29.68
X84.72Y16.48
X84.72Y3.28
X84.72Y-9.92
X84.73Y102.1
X84.73Y88.9
X84.73Y75.7
X84.73Y62.5
X84.73Y49.3
X84.73Y36.1
X84.73Y22.9
X84.73Y9.7
X84.73Y-3.5
X85.288Y100.956
X85.288Y87.756
X85.288Y74.556
X85.288Y61.356
X85.288Y48.156
X85.288Y34.956
X85.288Y21.756
X85.288Y8.556
X85.288Y-4.644
X85.666Y102.407
X85.666Y89.207
X85.666Y76.007
X85.666Y62.807
X85.666Y49.607
X85.666Y36.407
X85.666Y23.207
X85.666Y10.007
X85.666Y-3.193
X86.074Y101.105
X86.074Y87.905
X86.074Y74.705
X86.074Y61.505
X86.074Y48.305
X86.074Y35.105
X86.074Y21.905
X86.074Y8.705
X86.074Y-4.495
X87.2Y95.72
X87.2Y82.52
X87.2Y69.32
X87.2Y56.12
X87.2Y42.92
X87.2Y29.72
X87.2Y16.52
X87.2Y3.32
X87.2Y-9.88
X87.99Y98.54
X87.99Y85.34
X87.99Y72.14
X87.99Y58.94
X87.99Y45.74
X87.99Y32.54
X87.99Y19.34
X87.99Y6.14
X87.99Y-7.06
X88.16Y101.28
X88.16Y88.08
X88.16Y74.88
X88.16Y61.68
X88.16Y48.48
X88.16Y35.28
X88.16Y22.08
X88.16Y8.88
X88.16Y-4.32
X89.13Y104.584
X89.13Y103.06
X89.13Y101.79
X89.13Y100.52
X89.13Y98.996
X89.13Y91.384
X89.13Y89.86
X89.13Y88.59
X89.13Y87.32
X89.13Y85.796
X89.13Y78.184
X89.13Y76.66
X89.13Y75.39
X89.13Y74.12
X89.13Y72.596
X89.13Y64.984
X89.13Y63.46
X89.13Y62.19
X89.13Y60.92
X89.13Y59.396
X89.13Y51.784
X89.13Y50.26
X89.13Y48.99
X89.13Y47.72
X89.13Y46.196
X89.13Y38.584
X89.13Y37.06
X89.13Y35.79
X89.13Y34.52
X89.13Y32.996
X89.13Y25.384
X89.13Y23.86
X89.13Y22.59
X89.13Y21.32
X89.13Y19.796
X89.13Y12.184
X89.13Y10.66
X89.13Y9.39
X89.13Y8.12
X89.13Y6.596
X89.13Y-1.016
X89.13Y-2.54
X89.13Y-3.81
X89.13Y-5.08
X89.13Y-6.604
X89.66Y95.68
X89.66Y82.48
X89.66Y69.28
X89.66Y56.08
X89.66Y42.88
X89.66Y29.68
X89.66Y16.48
X89.66Y3.28
X89.66Y-9.92
X90.4Y104.584
X90.4Y103.06
X90.4Y101.79
X90.4Y100.52
X90.4Y98.996
X90.4Y91.384
X90.4Y89.86
X90.4Y88.59
X90.4Y87.32
X90.4Y85.796
X90.4Y78.184
X90.4Y76.66
X90.4Y75.39
X90.4Y74.12
X90.4Y72.596
X90.4Y64.984
X90.4Y63.46
X90.4Y62.19
X90.4Y60.92
X90.4Y59.396
X90.4Y51.784
X90.4Y50.26
X90.4Y48.99
X90.4Y47.72
X90.4Y46.196
X90.4Y38.584
X90.4Y37.06
X90.4Y35.79
X90.4Y34.52
X90.4Y32.996
X90.4Y25.384
X90.4Y23.86
X90.4Y22.59
X90.4Y21.32
X90.4Y19.796
X90.4Y12.184
X90.4Y10.66
X90.4Y9.39
X90.4Y8.12
X90.4Y6.596
X90.4Y-1.016
X90.4Y-2.54
X90.4Y-3.81
X90.4Y-5.08
X90.4Y-6.604
X91.67Y104.584
X91.67Y103.06
X91.67Y101.79
X91.67Y100.52
X91.67Y98.996
X91.67Y91.384
X91.67Y89.86
X91.67Y88.59
X91.67Y87.32
X91.67Y85.796
X91.67Y78.184
X91.67Y76.66
X91.67Y75.39
X91.67Y74.12
X91.67Y72.596
X91.67Y64.984
X91.67Y63.46
X91.67Y62.19
X91.67Y60.92
X91.67Y59.396
X91.67Y51.784
X91.67Y50.26
X91.67Y48.99
X91.67Y47.72
X91.67Y46.196
X91.67Y38.584
X91.67Y37.06
X91.67Y35.79
X91.67Y34.52
X91.67Y32.996
X91.67Y25.384
X91.67Y23.86
X91.67Y22.59
X91.67Y21.32
X91.67Y19.796
X91.67Y12.184
X91.67Y10.66
X91.67Y9.39
X91.67Y8.12
X91.67Y6.596
X91.67Y-1.016
X91.67Y-2.54
X91.67Y-3.81
X91.67Y-5.08
X91.67Y-6.604
X92.28Y97.41
X92.28Y84.21
X92.28Y71.01
X92.28Y57.81
X92.28Y44.61
X92.28Y31.41
X92.28Y18.21
X92.28Y5.01
X92.28Y-8.19
X92.94Y104.584
X92.94Y103.06
X92.94Y101.79
X92.94Y100.52
X92.94Y98.996
X92.94Y91.384
X92.94Y89.86
X92.94Y88.59
X92.94Y87.32
X92.94Y85.796
X92.94Y78.184
X92.94Y76.66
X92.94Y75.39
X92.94Y74.12
X92.94Y72.596
X92.94Y64.984
X92.94Y63.46
X92.94Y62.19
X92.94Y60.92
X92.94Y59.396
X92.94Y51.784
X92.94Y50.26
X92.94Y48.99
X92.94Y47.72
X92.94Y46.196
X92.94Y38.584
X92.94Y37.06
X92.94Y35.79
X92.94Y34.52
X92.94Y32.996
X92.94Y25.384
X92.94Y23.86
X92.94Y22.59
X92.94Y21.32
X92.94Y19.796
X92.94Y12.184
X92.94Y10.66
X92.94Y9.39
X92.94Y8.12
X92.94Y6.596
X92.94Y-1.016
X92.94Y-2.54
X92.94Y-3.81
X92.94Y-5.08
X92.94Y-6.604
X94.21Y104.584
X94.21Y103.06
X94.21Y101.79
X94.21Y100.52
X94.21Y98.996
X94.21Y91.384
X94.21Y89.86
X94.21Y88.59
X94.21Y87.32
X94.21Y85.796
X94.21Y78.184
X94.21Y76.66
X94.21Y75.39
X94.21Y74.12
X94.21Y72.596
X94.21Y64.984
X94.21Y63.46
X94.21Y62.19
X94.21Y60.92
X94.21Y59.396
X94.21Y51.784
X94.21Y50.26
X94.21Y48.99
X94.21Y47.72
X94.21Y46.196
X94.21Y38.584
X94.21Y37.06
X94.21Y35.79
X94.21Y34.52
X94.21Y32.996
X94.21Y25.384
X94.21Y23.86
X94.21Y22.59
X94.21Y21.32
X94.21Y19.796
X94.21Y12.184
X94.21Y10.66
X94.21Y9.39
X94.21Y8.12
X94.21Y6.596
X94.21Y-1.016
X94.21Y-2.54
X94.21Y-3.81
X94.21Y-5.08
X94.21Y-6.604
X94.782Y97.101
X94.782Y83.901
X94.782Y70.701
X94.782Y57.501
X94.782Y44.301
X94.782Y31.101
X94.782Y17.901
X94.782Y4.701
X94.782Y-8.499
X95.48Y104.584
X95.48Y103.06
X95.48Y101.79
X95.48Y100.52
X95.48Y98.996
X95.48Y91.384
X95.48Y89.86
X95.48Y88.59
X95.48Y87.32
X95.48Y85.796
X95.48Y78.184
X95.48Y76.66
X95.48Y75.39
X95.48Y74.12
X95.48Y72.596
X95.48Y64.984
X95.48Y63.46
X95.48Y62.19
X95.48Y60.92
X95.48Y59.396
X95.48Y51.784
X95.48Y50.26
X95.48Y48.99
X95.48Y47.72
X95.48Y46.196
X95.48Y38.584
X95.48Y37.06
X95.48Y35.79
X95.48Y34.52
X95.48Y32.996
X95.48Y25.384
X95.48Y23.86
X95.48Y22.59
X95.48Y21.32
X95.48Y19.796
X95.48Y12.184
X95.48Y10.66
X95.48Y9.39
X95.48Y8.12
X95.48Y6.596
X95.48Y-1.016
X95.48Y-2.54
X95.48Y-3.81
X95.48Y-5.08
X95.48Y-6.604
X96.35Y94.22
X96.35Y81.02
X96.35Y67.82
X96.35Y54.62
X96.35Y41.42
X96.35Y28.22
X96.35Y15.02
X96.35Y1.82
X96.35Y-11.38
X99.82Y100.95
X99.82Y87.75
X99.82Y74.55
X99.82Y61.35
X99.82Y48.15
X99.82Y34.95
X99.82Y21.75
X99.82Y8.55
X99.82Y-4.65
X100.0Y104.94
X100.0Y91.74
X100.0Y78.54
X100.0Y65.34
X100.0Y52.14
X100.0Y38.94
X100.0Y25.74
X100.0Y12.54
X100.0Y-0.66
X100.28Y93.78
X100.28Y80.58
X100.28Y67.38
X100.28Y54.18
X100.28Y40.98
X100.28Y27.78
X100.28Y14.58
X100.28Y1.38
X100.28Y-11.82
X100.48Y98.18
X100.48Y84.98
X100.48Y71.78
X100.48Y58.58
X100.48Y45.38
X100.48Y32.18
X100.48Y18.98
X100.48Y5.78
X100.48Y-7.42
X101.082Y98.88
X101.082Y85.68
X101.082Y72.48
X101.082Y59.28
X101.082Y46.08
X101.082Y32.88
X101.082Y19.68
X101.082Y6.48
X101.082Y-6.72
X102.303Y98.331
X102.303Y85.131
X102.303Y71.931
X102.303Y58.731
X102.303Y45.531
X102.303Y32.331
X102.303Y19.131
X102.303Y5.931
X102.303Y-7.269
X102.531Y99.735
X102.531Y86.535
X102.531Y73.335
X102.531Y60.135
X102.531Y46.935
X102.531Y33.735
X102.531Y20.535
X102.531Y7.335
X102.531Y-5.865
X103.86Y104.94
X103.86Y91.74
X103.86Y78.54
X103.86Y65.34
X103.86Y52.14
X103.86Y38.94
X103.86Y25.74
X103.86Y12.54
X103.86Y-0.66
X104.279Y103.293
X104.279Y90.093
X104.279Y76.893
X104.279Y63.693
X104.279Y50.493
X104.279Y37.293
X104.279Y24.093
X104.279Y10.893
X104.279Y-2.307
X104.484Y102.392
X104.484Y89.192
X104.484Y75.992
X104.484Y62.792
X104.484Y49.592
X104.484Y36.392
X104.484Y23.192
X104.484Y9.992
X104.484Y-3.208
X105.0Y98.18
X105.0Y84.98
X105.0Y71.78
X105.0Y58.58
X105.0Y45.38
X105.0Y32.18
X105.0Y18.98
X105.0Y5.78
X105.0Y-7.42
X105.313Y97.08
X105.313Y83.88
X105.313Y70.68
X105.313Y57.48
X105.313Y44.28
X105.313Y31.08
X105.313Y17.88
X105.313Y4.68
X105.313Y-8.52
X106.047Y101.75
X106.047Y88.55
X106.047Y75.35
X106.047Y62.15
X106.047Y48.95
X106.047Y35.75
X106.047Y22.55
X106.047Y9.35
X106.047Y-3.85
X106.113Y97.08
X106.113Y83.88
X106.113Y70.68
X106.113Y57.48
X106.113Y44.28
X106.113Y31.08
X106.113Y17.88
X106.113Y4.68
X106.113Y-8.52
X106.82Y98.235
X106.82Y85.035
X106.82Y71.835
X106.82Y58.635
X106.82Y45.435
X106.82Y32.235
X106.82Y19.035
X106.82Y5.835
X106.82Y-7.365
X107.235Y98.919
X107.235Y85.719
X107.235Y72.519
X107.235Y59.319
X107.235Y46.119
X107.235Y32.919
X107.235Y19.719
X107.235Y6.519
X107.235Y-6.681
X107.667Y97.59
X107.667Y84.39
X107.667Y71.19
X107.667Y57.99
X107.667Y44.79
X107.667Y31.59
X107.667Y18.39
X107.667Y5.19
X107.667Y-8.01
X109.12Y98.49
X109.12Y85.29
X109.12Y72.09
X109.12Y58.89
X109.12Y45.69
X109.12Y32.49
X109.12Y19.29
X109.12Y6.09
X109.12Y-7.11
X109.35Y95.68
X109.35Y82.48
X109.35Y69.28
X109.35Y56.08
X109.35Y42.88
X109.35Y29.68
X109.35Y16.48
X109.35Y3.28
X109.35Y-9.92
X109.36Y102.1
X109.36Y88.9
X109.36Y75.7
X109.36Y62.5
X109.36Y49.3
X109.36Y36.1
X109.36Y22.9
X109.36Y9.7
X109.36Y-3.5
X109.918Y100.956
X109.918Y87.756
X109.918Y74.556
X109.918Y61.356
X109.918Y48.156
X109.918Y34.956
X109.918Y21.756
X109.918Y8.556
X109.918Y-4.644
X110.296Y102.407
X110.296Y89.207
X110.296Y76.007
X110.296Y62.807
X110.296Y49.607
X110.296Y36.407
X110.296Y23.207
X110.296Y10.007
X110.296Y-3.193
X110.704Y101.105
X110.704Y87.905
X110.704Y74.705
X110.704Y61.505
X110.704Y48.305
X110.704Y35.105
X110.704Y21.905
X110.704Y8.705
X110.704Y-4.495
X111.83Y95.72
X111.83Y82.52
X111.83Y69.32
X111.83Y56.12
X111.83Y42.92
X111.83Y29.72
X111.83Y16.52
X111.83Y3.32
X111.83Y-9.88
X112.62Y98.54
X112.62Y85.34
X112.62Y72.14
X112.62Y58.94
X112.62Y45.74
X112.62Y32.54
X112.62Y19.34
X112.62Y6.14
X112.62Y-7.06
X112.79Y101.28
X112.79Y88.08
X112.79Y74.88
X112.79Y61.68
X112.79Y48.48
X112.79Y35.28
X112.79Y22.08
X112.79Y8.88
X112.79Y-4.32
X113.76Y104.584
X113.76Y103.06
X113.76Y101.79
X113.76Y100.52
X113.76Y98.996
X113.76Y91.384
X113.76Y89.86
X113.76Y88.59
X113.76Y87.32
X113.76Y85.796
X113.76Y78.184
X113.76Y76.66
X113.76Y75.39
X113.76Y74.12
X113.76Y72.596
X113.76Y64.984
X113.76Y63.46
X113.76Y62.19
X113.76Y60.92
X113.76Y59.396
X113.76Y51.784
X113.76Y50.26
X113.76Y48.99
X113.76Y47.72
X113.76Y46.196
X113.76Y38.584
X113.76Y37.06
X113.76Y35.79
X113.76Y34.52
X113.76Y32.996
X113.76Y25.384
X113.76Y23.86
X113.76Y22.59
X113.76Y21.32
X113.76Y19.796
X113.76Y12.184
X113.76Y10.66
X113.76Y9.39
X113.76Y8.12
X113.76Y6.596
X113.76Y-1.016
X113.76Y-2.54
X113.76Y-3.81
X113.76Y-5.08
X113.76Y-6.604
X114.29Y95.68
X114.29Y82.48
X114.29Y69.28
X114.29Y56.08
X114.29Y42.88
X114.29Y29.68
X114.29Y16.48
X114.29Y3.28
X114.29Y-9.92
X115.03Y104.584
X115.03Y103.06
X115.03Y101.79
X115.03Y100.52
X115.03Y98.996
X115.03Y91.384
X115.03Y89.86
X115.03Y88.59
X115.03Y87.32
X115.03Y85.796
X115.03Y78.184
X115.03Y76.66
X115.03Y75.39
X115.03Y74.12
X115.03Y72.596
X115.03Y64.984
X115.03Y63.46
X115.03Y62.19
X115.03Y60.92
X115.03Y59.396
X115.03Y51.784
X115.03Y50.26
X115.03Y48.99
X115.03Y47.72
X115.03Y46.196
X115.03Y38.584
X115.03Y37.06
X115.03Y35.79
X115.03Y34.52
X115.03Y32.996
X115.03Y25.384
X115.03Y23.86
X115.03Y22.59
X115.03Y21.32
X115.03Y19.796
X115.03Y12.184
X115.03Y10.66
X115.03Y9.39
X115.03Y8.12
X115.03Y6.596
X115.03Y-1.016
X115.03Y-2.54
X115.03Y-3.81
X115.03Y-5.08
X115.03Y-6.604
X116.3Y104.584
X116.3Y103.06
X116.3Y101.79
X116.3Y100.52
X116.3Y98.996
X116.3Y91.384
X116.3Y89.86
X116.3Y88.59
X116.3Y87.32
X116.3Y85.796
X116.3Y78.184
X116.3Y76.66
X116.3Y75.39
X116.3Y74.12
X116.3Y72.596
X116.3Y64.984
X116.3Y63.46
X116.3Y62.19
X116.3Y60.92
X116.3Y59.396
X116.3Y51.784
X116.3Y50.26
X116.3Y48.99
X116.3Y47.72
X116.3Y46.196
X116.3Y38.584
X116.3Y37.06
X116.3Y35.79
X116.3Y34.52
X116.3Y32.996
X116.3Y25.384
X116.3Y23.86
X116.3Y22.59
X116.3Y21.32
X116.3Y19.796
X116.3Y12.184
X116.3Y10.66
X116.3Y9.39
X116.3Y8.12
X116.3Y6.596
X116.3Y-1.016
X116.3Y-2.54
X116.3Y-3.81
X116.3Y-5.08
X116.3Y-6.604
X116.91Y97.41
X116.91Y84.21
X116.91Y71.01
X116.91Y57.81
X116.91Y44.61
X116.91Y31.41
X116.91Y18.21
X116.91Y5.01
X116.91Y-8.19
X117.57Y104.584
X117.57Y103.06
X117.57Y101.79
X117.57Y100.52
X117.57Y98.996
X117.57Y91.384
X117.57Y89.86
X117.57Y88.59
X117.57Y87.32
X117.57Y85.796
X117.57Y78.184
X117.57Y76.66
X117.57Y75.39
X117.57Y74.12
X117.57Y72.596
X117.57Y64.984
X117.57Y63.46
X117.57Y62.19
X117.57Y60.92
X117.57Y59.396
X117.57Y51.784
X117.57Y50.26
X117.57Y48.99
X117.57Y47.72
X117.57Y46.196
X117.57Y38.584
X117.57Y37.06
X117.57Y35.79
X117.57Y34.52
X117.57Y32.996
X117.57Y25.384
X117.57Y23.86
X117.57Y22.59
X117.57Y21.32
X117.57Y19.796
X117.57Y12.184
X117.57Y10.66
X117.57Y9.39
X117.57Y8.12
X117.57Y6.596
X117.57Y-1.016
X117.57Y-2.54
X117.57Y-3.81
X117.57Y-5.08
X117.57Y-6.604
X118.84Y104.584
X118.84Y103.06
X118.84Y101.79
X118.84Y100.52
X118.84Y98.996
X118.84Y91.384
X118.84Y89.86
X118.84Y88.59
X118.84Y87.32
X118.84Y85.796
X118.84Y78.184
X118.84Y76.66
X118.84Y75.39
X118.84Y74.12
X118.84Y72.596
X118.84Y64.984
X118.84Y63.46
X118.84Y62.19
X118.84Y60.92
X118.84Y59.396
X118.84Y51.784
X118.84Y50.26
X118.84Y48.99
X118.84Y47.72
X118.84Y46.196
X118.84Y38.584
X118.84Y37.06
X118.84Y35.79
X118.84Y34.52
X118.84Y32.996
X118.84Y25.384
X118.84Y23.86
X118.84Y22.59
X118.84Y21.32
X118.84Y19.796
X118.84Y12.184
X118.84Y10.66
X118.84Y9.39
X118.84Y8.12
X118.84Y6.596
X118.84Y-1.016
X118.84Y-2.54
X118.84Y-3.81
X118.84Y-5.08
X118.84Y-6.604
X119.412Y97.101
X119.412Y83.901
X119.412Y70.701
X119.412Y57.501
X119.412Y44.301
X119.412Y31.101
X119.412Y17.901
X119.412Y4.701
X119.412Y-8.499
X120.11Y104.584
X120.11Y103.06
X120.11Y101.79
X120.11Y100.52
X120.11Y98.996
X120.11Y91.384
X120.11Y89.86
X120.11Y88.59
X120.11Y87.32
X120.11Y85.796
X120.11Y78.184
X120.11Y76.66
X120.11Y75.39
X120.11Y74.12
X120.11Y72.596
X120.11Y64.984
X120.11Y63.46
X120.11Y62.19
X120.11Y60.92
X120.11Y59.396
X120.11Y51.784
X120.11Y50.26
X120.11Y48.99
X120.11Y47.72
X120.11Y46.196
X120.11Y38.584
X120.11Y37.06
X120.11Y35.79
X120.11Y34.52
X120.11Y32.996
X120.11Y25.384
X120.11Y23.86
X120.11Y22.59
X120.11Y21.32
X120.11Y19.796
X120.11Y12.184
X120.11Y10.66
X120.11Y9.39
X120.11Y8.12
X120.11Y6.596
X120.11Y-1.016
X120.11Y-2.54
X120.11Y-3.81
X120.11Y-5.08
X120.11Y-6.604
X120.98Y94.22
X120.98Y81.02
X120.98Y67.82
X120.98Y54.62
X120.98Y41.42
X120.98Y28.22
X120.98Y15.02
X120.98Y1.82
X120.98Y-11.38
X124.45Y100.95
X124.45Y87.75
X124.45Y74.55
X124.45Y61.35
X124.45Y48.15
X124.45Y34.95
X124.45Y21.75
X124.45Y8.55
X124.45Y-4.65
X124.63Y104.94
X124.63Y91.74
X124.63Y78.54
X124.63Y65.34
X124.63Y52.14
X124.63Y38.94
X124.63Y25.74
X124.63Y12.54
X124.63Y-0.66
X124.91Y93.78
X124.91Y80.58
X124.91Y67.38
X124.91Y54.18
X124.91Y40.98
X124.91Y27.78
X124.91Y14.58
X124.91Y1.38
X124.91Y-11.82
X125.11Y98.18
X125.11Y84.98
X125.11Y71.78
X125.11Y58.58
X125.11Y45.38
X125.11Y32.18
X125.11Y18.98
X125.11Y5.78
X125.11Y-7.42
X125.712Y98.88
X125.712Y85.68
X125.712Y72.48
X125.712Y59.28
X125.712Y46.08
X125.712Y32.88
X125.712Y19.68
X125.712Y6.48
X125.712Y-6.72
X126.933Y98.331
X126.933Y85.131
X126.933Y71.931
X126.933Y58.731
X126.933Y45.531
X126.933Y32.331
X126.933Y19.131
X126.933Y5.931
X126.933Y-7.269
X127.161Y99.735
X127.161Y86.535
X127.161Y73.335
X127.161Y60.135
X127.161Y46.935
X127.161Y33.735
X127.161Y20.535
X127.161Y7.335
X127.161Y-5.865
X128.49Y104.94
X128.49Y91.74
X128.49Y78.54
X128.49Y65.34
X128.49Y52.14
X128.49Y38.94
X128.49Y25.74
X128.49Y12.54
X128.49Y-0.66
X128.909Y103.293
X128.909Y90.093
X128.909Y76.893
X128.909Y63.693
X128.909Y50.493
X128.909Y37.293
X128.909Y24.093
X128.909Y10.893
X128.909Y-2.307
X129.114Y102.392
X129.114Y89.192
X129.114Y75.992
X129.114Y62.792
X129.114Y49.592
X129.114Y36.392
X129.114Y23.192
X129.114Y9.992
X129.114Y-3.208
X129.63Y98.18
X129.63Y84.98
X129.63Y71.78
X129.63Y58.58
X129.63Y45.38
X129.63Y32.18
X129.63Y18.98
X129.63Y5.78
X129.63Y-7.42
X129.943Y97.08
X129.943Y83.88
X129.943Y70.68
X129.943Y57.48
X129.943Y44.28
X129.943Y31.08
X129.943Y17.88
X129.943Y4.68
X129.943Y-8.52
X130.677Y101.75
X130.677Y88.55
X130.677Y75.35
X130.677Y62.15
X130.677Y48.95
X130.677Y35.75
X130.677Y22.55
X130.677Y9.35
X130.677Y-3.85
X130.743Y97.08
X130.743Y83.88
X130.743Y70.68
X130.743Y57.48
X130.743Y44.28
X130.743Y31.08
X130.743Y17.88
X130.743Y4.68
X130.743Y-8.52
X131.45Y98.235
X131.45Y85.035
X131.45Y71.835
X131.45Y58.635
X131.45Y45.435
X131.45Y32.235
X131.45Y19.035
X131.45Y5.835
X131.45Y-7.365
X131.865Y98.919
X131.865Y85.719
X131.865Y72.519
X131.865Y59.319
X131.865Y46.119
X131.865Y32.919
X131.865Y19.719
X131.865Y6.519
X131.865Y-6.681
X132.297Y97.59
X132.297Y84.39
X132.297Y71.19
X132.297Y57.99
X132.297Y44.79
X132.297Y31.59
X132.297Y18.39
X132.297Y5.19
X132.297Y-8.01
X133.75Y98.49
X133.75Y85.29
X133.75Y72.09
X133.75Y58.89
X133.75Y45.69
X133.75Y32.49
X133.75Y19.29
X133.75Y6.09
X133.75Y-7.11
X133.98Y95.68
X133.98Y82.48
X133.98Y69.28
X133.98Y56.08
X133.98Y42.88
X133.98Y29.68
X133.98Y16.48
X133.98Y3.28
X133.98Y-9.92
X133.99Y102.1
X133.99Y88.9
X133.99Y75.7
X133.99Y62.5
X133.99Y49.3
X133.99Y36.1
X133.99Y22.9
X133.99Y9.7
X133.99Y-3.5
X134.548Y100.956
X134.548Y87.756
X134.548Y74.556
X134.548Y61.356
X134.548Y48.156
X134.548Y34.956
X134.548Y21.756
X134.548Y8.556
X134.548Y-4.644
X134.926Y102.407
X134.926Y89.207
X134.926Y76.007
X134.926Y62.807
X134.926Y49.607
X134.926Y36.407
X134.926Y23.207
X134.926Y10.007
X134.926Y-3.193
X135.334Y101.105
X135.334Y87.905
X135.334Y74.705
X135.334Y61.505
X135.334Y48.305
X135.334Y35.105
X135.334Y21.905
X135.334Y8.705
X135.334Y-4.495
X136.46Y95.72
X136.46Y82.52
X136.46Y69.32
X136.46Y56.12
X136.46Y42.92
X136.46Y29.72
X136.46Y16.52
X136.46Y3.32
X136.46Y-9.88
X137.25Y98.54
X137.25Y85.34
X137.25Y72.14
X137.25Y58.94
X137.25Y45.74
X137.25Y32.54
X137.25Y19.34
X137.25Y6.14
X137.25Y-7.06
X137.42Y101.28
X137.42Y88.08
X137.42Y74.88
X137.42Y61.68
X137.42Y48.48
X137.42Y35.28
X137.42Y22.08
X137.42Y8.88
X137.42Y-4.32
X138.39Y104.584
X138.39Y103.06
X138.39Y101.79
X138.39Y100.52
X138.39Y98.996
X138.39Y91.384
X138.39Y89.86
X138.39Y88.59
X138.39Y87.32
X138.39Y85.796
X138.39Y78.184
X138.39Y76.66
X138.39Y75.39
X138.39Y74.12
X138.39Y72.596
X138.39Y64.984
X138.39Y63.46
X138.39Y62.19
X138.39Y60.92
X138.39Y59.396
X138.39Y51.784
X138.39Y50.26
X138.39Y48.99
X138.39Y47.72
X138.39Y46.196
X138.39Y38.584
X138.39Y37.06
X138.39Y35.79
X138.39Y34.52
X138.39Y32.996
X138.39Y25.384
X138.39Y23.86
X138.39Y22.59
X138.39Y21.32
X138.39Y19.796
X138.39Y12.184
X138.39Y10.66
X138.39Y9.39
X138.39Y8.12
X138.39Y6.596
X138.39Y-1.016
X138.39Y-2.54
X138.39Y-3.81
X138.39Y-5.08
X138.39Y-6.604
X138.92Y95.68
X138.92Y82.48
X138.92Y69.28
X138.92Y56.08
X138.92Y42.88
X138.92Y29.68
X138.92Y16.48
X138.92Y3.28
X138.92Y-9.92
X139.66Y104.584
X139.66Y103.06
X139.66Y101.79
X139.66Y100.52
X139.66Y98.996
X139.66Y91.384
X139.66Y89.86
X139.66Y88.59
X139.66Y87.32
X139.66Y85.796
X139.66Y78.184
X139.66Y76.66
X139.66Y75.39
X139.66Y74.12
X139.66Y72.596
X139.66Y64.984
X139.66Y63.46
X139.66Y62.19
X139.66Y60.92
X139.66Y59.396
X139.66Y51.784
X139.66Y50.26
X139.66Y48.99
X139.66Y47.72
X139.66Y46.196
X139.66Y38.584
X139.66Y37.06
X139.66Y35.79
X139.66Y34.52
X139.66Y32.996
X139.66Y25.384
X139.66Y23.86
X139.66Y22.59
X139.66Y21.32
X139.66Y19.796
X139.66Y12.184
X139.66Y10.66
X139.66Y9.39
X139.66Y8.12
X139.66Y6.596
X139.66Y-1.016
X139.66Y-2.54
X139.66Y-3.81
X139.66Y-5.08
X139.66Y-6.604
X140.93Y104.584
X140.93Y103.06
X140.93Y101.79
X140.93Y100.52
X140.93Y98.996
X140.93Y91.384
X140.93Y89.86
X140.93Y88.59
X140.93Y87.32
X140.93Y85.796
X140.93Y78.184
X140.93Y76.66
X140.93Y75.39
X140.93Y74.12
X140.93Y72.596
X140.93Y64.984
X140.93Y63.46
X140.93Y62.19
X140.93Y60.92
X140.93Y59.396
X140.93Y51.784
X140.93Y50.26
X140.93Y48.99
X140.93Y47.72
X140.93Y46.196
X140.93Y38.584
X140.93Y37.06
X140.93Y35.79
X140.93Y34.52
X140.93Y32.996
X140.93Y25.384
X140.93Y23.86
X140.93Y22.59
X140.93Y21.32
X140.93Y19.796
X140.93Y12.184
X140.93Y10.66
X140.93Y9.39
X140.93Y8.12
X140.93Y6.596
X140.93Y-1.016
X140.93Y-2.54
X140.93Y-3.81
X140.93Y-5.08
X140.93Y-6.604
X141.54Y97.41
X141.54Y84.21
X141.54Y71.01
X141.54Y57.81
X141.54Y44.61
X141.54Y31.41
X141.54Y18.21
X141.54Y5.01
X141.54Y-8.19
X142.2Y104.584
X142.2Y103.06
X142.2Y101.79
X142.2Y100.52
X142.2Y98.996
X142.2Y91.384
X142.2Y89.86
X142.2Y88.59
X142.2Y87.32
X142.2Y85.796
X142.2Y78.184
X142.2Y76.66
X142.2Y75.39
X142.2Y74.12
X142.2Y72.596
X142.2Y64.984
X142.2Y63.46
X142.2Y62.19
X142.2Y60.92
X142.2Y59.396
X142.2Y51.784
X142.2Y50.26
X142.2Y48.99
X142.2Y47.72
X142.2Y46.196
X142.2Y38.584
X142.2Y37.06
X142.2Y35.79
X142.2Y34.52
X142.2Y32.996
X142.2Y25.384
X142.2Y23.86
X142.2Y22.59
X142.2Y21.32
X142.2Y19.796
X142.2Y12.184
X142.2Y10.66
X142.2Y9.39
X142.2Y8.12
X142.2Y6.596
X142.2Y-1.016
X142.2Y-2.54
X142.2Y-3.81
X142.2Y-5.08
X142.2Y-6.604
X143.47Y104.584
X143.47Y103.06
X143.47Y101.79
X143.47Y100.52
X143.47Y98.996
X143.47Y91.384
X143.47Y89.86
X143.47Y88.59
X143.47Y87.32
X143.47Y85.796
X143.47Y78.184
X143.47Y76.66
X143.47Y75.39
X143.47Y74.12
X143.47Y72.596
X143.47Y64.984
X143.47Y63.46
X143.47Y62.19
X143.47Y60.92
X143.47Y59.396
X143.47Y51.784
X143.47Y50.26
X143.47Y48.99
X143.47Y47.72
X143.47Y46.196
X143.47Y38.584
X143.47Y37.06
X143.47Y35.79
X143.47Y34.52
X143.47Y32.996
X143.47Y25.384
X143.47Y23.86
X143.47Y22.59
X143.47Y21.32
X143.47Y19.796
X143.47Y12.184
X143.47Y10.66
X143.47Y9.39
X143.47Y8.12
X143.47Y6.596
X143.47Y-1.016
X143.47Y-2.54
X143.47Y-3.81
X143.47Y-5.08
X143.47Y-6.604
X144.042Y97.101
X144.042Y83.901
X144.042Y70.701
X144.042Y57.501
X144.042Y44.301
X144.042Y31.101
X144.042Y17.901
X144.042Y4.701
X144.042Y-8.499
X144.74Y104.584
X144.74Y103.06
X144.74Y101.79
X144.74Y100.52
X144.74Y98.996
X144.74Y91.384
X144.74Y89.86
X144.74Y88.59
X144.74Y87.32
X144.74Y85.796
X144.74Y78.184
X144.74Y76.66
X144.74Y75.39
X144.74Y74.12
X144.74Y72.596
X144.74Y64.984
X144.74Y63.46
X144.74Y62.19
X144.74Y60.92
X144.74Y59.396
X144.74Y51.784
X144.74Y50.26
X144.74Y48.99
X144.74Y47.72
X144.74Y46.196
X144.74Y38.584
X144.74Y37.06
X144.74Y35.79
X144.74Y34.52
X144.74Y32.996
X144.74Y25.384
X144.74Y23.86
X144.74Y22.59
X144.74Y21.32
X144.74Y19.796
X144.74Y12.184
X144.74Y10.66
X144.74Y9.39
X144.74Y8.12
X144.74Y6.596
X144.74Y-1.016
X144.74Y-2.54
X144.74Y-3.81
X144.74Y-5.08
X144.74Y-6.604
X145.61Y94.22
X145.61Y81.02
X145.61Y67.82
X145.61Y54.62
X145.61Y41.42
X145.61Y28.22
X145.61Y15.02
X145.61Y1.82
X145.61Y-11.38
T2
X4.445Y94.805
X4.445Y81.605
X4.445Y68.405
X4.445Y55.205
X4.445Y42.005
X4.445Y28.805
X4.445Y15.605
X4.445Y2.405
X4.445Y-10.795
X6.985Y94.805
X6.985Y81.605
X6.985Y68.405
X6.985Y55.205
X6.985Y42.005
X6.985Y28.805
X6.985Y15.605
X6.985Y2.405
X6.985Y-10.795
X9.525Y94.805
X9.525Y81.605
X9.525Y68.405
X9.525Y55.205
X9.525Y42.005
X9.525Y28.805
X9.525Y15.605
X9.525Y2.405
X9.525Y-10.795
X12.065Y94.805
X12.065Y81.605
X12.065Y68.405
X12.065Y55.205
X12.065Y42.005
X12.065Y28.805
X12.065Y15.605
X12.065Y2.405
X12.065Y-10.795
X14.605Y94.805
X14.605Y81.605
X14.605Y68.405
X14.605Y55.205
X14.605Y42.005
X14.605Y28.805
X14.605Y15.605
X14.605Y2.405
X14.605Y-10.795
X17.145Y94.805
X17.145Y81.605
X17.145Y68.405
X17.145Y55.205
X17.145Y42.005
X17.145Y28.805
X17.145Y15.605
X17.145Y2.405
X17.145Y-10.795
X19.685Y94.805
X19.685Y81.605
X19.685Y68.405
X19.685Y55.205
X19.685Y42.005
X19.685Y28.805
X19.685Y15.605
X19.685Y2.405
X19.685Y-10.795
X29.075Y94.805
X29.075Y81.605
X29.075Y68.405
X29.075Y55.205
X29.075Y42.005
X29.075Y28.805
X29.075Y15.605
X29.075Y2.405
X29.075Y-10.795
X31.615Y94.805
X31.615Y81.605
X31.615Y68.405
X31.615Y55.205
X31.615Y42.005
X31.615Y28.805
X31.615Y15.605
X31.615Y2.405
X31.615Y-10.795
X34.155Y94.805
X34.155Y81.605
X34.155Y68.405
X34.155Y55.205
X34.155Y42.005
X34.155Y28.805
X34.155Y15.605
X34.155Y2.405
X34.155Y-10.795
X36.695Y94.805
X36.695Y81.605
X36.695Y68.405
X36.695Y55.205
X36.695Y42.005
X36.695Y28.805
X36.695Y15.605
X36.695Y2.405
X36.695Y-10.795
X39.235Y94.805
X39.235Y81.605
X39.235Y68.405
X39.235Y55.205
X39.235Y42.005
X39.235Y28.805
X39.235Y15.605
X39.235Y2.405
X39.235Y-10.795
X41.775Y94.805
X41.775Y81.605
X41.775Y68.405
X41.775Y55.205
X41.775Y42.005
X41.775Y28.805
X41.775Y15.605
X41.775Y2.405
X41.775Y-10.795
X44.315Y94.805
X44.315Y81.605
X44.315Y68.405
X44.315Y55.205
X44.315Y42.005
X44.315Y28.805
X44.315Y15.605
X44.315Y2.405
X44.315Y-10.795
X53.705Y94.805
X53.705Y81.605
X53.705Y68.405
X53.705Y55.205
X53.705Y42.005
X53.705Y28.805
X53.705Y15.605
X53.705Y2.405
X53.705Y-10.795
X56.245Y94.805
X56.245Y81.605
X56.245Y68.405
X56.245Y55.205
X56.245Y42.005
X56.245Y28.805
X56.245Y15.605
X56.245Y2.405
X56.245Y-10.795
X58.785Y94.805
X58.785Y81.605
X58.785Y68.405
X58.785Y55.205
X58.785Y42.005
X58.785Y28.805
X58.785Y15.605
X58.785Y2.405
X58.785Y-10.795
X61.325Y94.805
X61.325Y81.605
X61.325Y68.405
X61.325Y55.205
X61.325Y42.005
X61.325Y28.805
X61.325Y15.605
X61.325Y2.405
X61.325Y-10.795
X63.865Y94.805
X63.865Y81.605
X63.865Y68.405
X63.865Y55.205
X63.865Y42.005
X63.865Y28.805
X63.865Y15.605
X63.865Y2.405
X63.865Y-10.795
X66.405Y94.805
X66.405Y81.605
X66.405Y68.405
X66.405Y55.205
X66.405Y42.005
X66.405Y28.805
X66.405Y15.605
X66.405Y2.405
X66.405Y-10.795
X68.945Y94.805
X68.945Y81.605
X68.945Y68.405
X68.945Y55.205
X68.945Y42.005
X68.945Y28.805
X68.945Y15.605
X68.945Y2.405
X68.945Y-10.795
X78.335Y94.805
X78.335Y81.605
X78.335Y68.405
X78.335Y55.205
X78.335Y42.005
X78.335Y28.805
X78.335Y15.605
X78.335Y2.405
X78.335Y-10.795
X80.875Y94.805
X80.875Y81.605
X80.875Y68.405
X80.875Y55.205
X80.875Y42.005
X80.875Y28.805
X80.875Y15.605
X80.875Y2.405
X80.875Y-10.795
X83.415Y94.805
X83.415Y81.605
X83.415Y68.405
X83.415Y55.205
X83.415Y42.005
X83.415Y28.805
X83.415Y15.605
X83.415Y2.405
X83.415Y-10.795
X85.955Y94.805
X85.955Y81.605
X85.955Y68.405
X85.955Y55.205
X85.955Y42.005
X85.955Y28.805
X85.955Y15.605
X85.955Y2.405
X85.955Y-10.795
X88.495Y94.805
X88.495Y81.605
X88.495Y68.405
X88.495Y55.205
X88.495Y42.005
X88.495Y28.805
X88.495Y15.605
X88.495Y2.405
X88.495Y-10.795
X91.035Y94.805
X91.035Y81.605
X91.035Y68.405
X91.035Y55.205
X91.035Y42.005
X91.035Y28.805
X91.035Y15.605
X91.035Y2.405
X91.035Y-10.795
X93.575Y94.805
X93.575Y81.605
X93.575Y68.405
X93.575Y55.205
X93.575Y42.005
X93.575Y28.805
X93.575Y15.605
X93.575Y2.405
X93.575Y-10.795
X102.965Y94.805
X102.965Y81.605
X102.965Y68.405
X102.965Y55.205
X102.965Y42.005
X102.965Y28.805
X102.965Y15.605
X102.965Y2.405
X102.965Y-10.795
X105.505Y94.805
X105.505Y81.605
X105.505Y68.405
X105.505Y55.205
X105.505Y42.005
X105.505Y28.805
X105.505Y15.605
X105.505Y2.405
X105.505Y-10.795
X108.045Y94.805
X108.045Y81.605
X108.045Y68.405
X108.045Y55.205
X108.045Y42.005
X108.045Y28.805
X108.045Y15.605
X108.045Y2.405
X108.045Y-10.795
X110.585Y94.805
X110.585Y81.605
X110.585Y68.405
X110.585Y55.205
X110.585Y42.005
X110.585Y28.805
X110.585Y15.605
X110.585Y2.405
X110.585Y-10.795
X113.125Y94.805
X113.125Y81.605
X113.125Y68.405
X113.125Y55.205
X113.125Y42.005
X113.125Y28.805
X113.125Y15.605
X113.125Y2.405
X113.125Y-10.795
X115.665Y94.805
X115.665Y81.605
X115.665Y68.405
X115.665Y55.205
X115.665Y42.005
X115.665Y28.805
X115.665Y15.605
X115.665Y2.405
X115.665Y-10.795
X118.205Y94.805
X118.205Y81.605
X118.205Y68.405
X118.205Y55.205
X118.205Y42.005
X118.205Y28.805
X118.205Y15.605
X118.205Y2.405
X118.205Y-10.795
X127.595Y94.805
X127.595Y81.605
X127.595Y68.405
X127.595Y55.205
X127.595Y42.005
X127.595Y28.805
X127.595Y15.605
X127.595Y2.405
X127.595Y-10.795
X130.135Y94.805
X130.135Y81.605
X130.135Y68.405
X130.135Y55.205
X130.135Y42.005
X130.135Y28.805
X130.135Y15.605
X130.135Y2.405
X130.135Y-10.795
X132.675Y94.805
X132.675Y81.605
X132.675Y68.405
X132.675Y55.205
X132.675Y42.005
X132.675Y28.805
X132.675Y15.605
X132.675Y2.405
X132.675Y-10.795
X135.215Y94.805
X135.215Y81.605
X135.215Y68.405
X135.215Y55.205
X135.215Y42.005
X135.215Y28.805
X135.215Y15.605
X135.215Y2.405
X135.215Y-10.795
X137.755Y94.805
X137.755Y81.605
X137.755Y68.405
X137.755Y55.205
X137.755Y42.005
X137.755Y28.805
X137.755Y15.605
X137.755Y2.405
X137.755Y-10.795
X140.295Y94.805
X140.295Y81.605
X140.295Y68.405
X140.295Y55.205
X140.295Y42.005
X140.295Y28.805
X140.295Y15.605
X140.295Y2.405
X140.295Y-10.795
X142.835Y94.805
X142.835Y81.605
X142.835Y68.405
X142.835Y55.205
X142.835Y42.005
X142.835Y28.805
X142.835Y15.605
X142.835Y2.405
X142.835Y-10.795
M30
