M48
; DRILL file {KiCad 8.0.4} date 2024-08-23T09:14:10-0600
; FORMAT={-:-/ absolute / metric / decimal}
; #@! TF.CreationDate,2024-08-23T09:14:10-06:00
; #@! TF.GenerationSoftware,Kicad,Pcbnew,8.0.4
; #@! TF.FileFunction,MixedPlating,1,2
FMAT,2
METRIC
; #@! TA.AperFunction,Plated,PTH,ViaDrill
T1C0.300
; #@! TA.AperFunction,Plated,PTH,ComponentDrill
T2C0.950
; #@! TA.AperFunction,Plated,PTH,ComponentDrill
T3C1.016
; #@! TA.AperFunction,NonPlated,NPTH,ComponentDrill
T4C3.302
%
G90
G05
T1
X7.5Y30.54
X7.5Y17.34
X8.15Y28.33
X8.15Y15.13
X8.79Y24.72
X8.79Y11.52
X9.84Y25.54
X9.84Y12.34
X9.87Y26.34
X9.87Y13.14
X10.44Y31.4
X10.44Y18.2
X11.57Y22.02
X11.57Y8.82
X12.19Y32.09
X12.19Y18.89
X12.409Y30.943
X12.409Y17.743
X12.43Y24.8
X12.43Y11.6
X12.49Y25.69
X12.49Y12.49
X12.783Y28.091
X12.783Y14.891
X13.468Y28.686
X13.468Y15.486
X13.52Y26.381
X13.52Y13.181
X13.548Y27.23
X13.548Y14.03
X14.493Y24.768
X14.493Y11.568
X15.03Y25.361
X15.03Y12.161
X15.71Y24.74
X15.71Y11.54
X15.752Y29.113
X15.752Y15.913
X15.77Y28.313
X15.77Y15.113
X16.31Y32.05
X16.31Y18.85
X17.26Y28.95
X17.26Y15.75
X17.66Y25.15
X17.66Y11.95
X18.052Y29.069
X18.052Y15.869
X18.09Y28.27
X18.09Y15.07
X18.11Y26.98
X18.11Y13.78
X18.54Y26.11
X18.54Y12.91
X19.56Y25.46
X19.56Y12.26
X19.917Y29.435
X19.917Y16.235
X20.773Y23.55
X20.773Y10.35
X21.86Y25.08
X21.86Y11.88
X22.02Y22.21
X22.02Y9.01
X22.09Y31.734
X22.09Y30.21
X22.09Y28.94
X22.09Y27.67
X22.09Y26.146
X22.09Y18.534
X22.09Y17.01
X22.09Y15.74
X22.09Y14.47
X22.09Y12.946
X23.36Y31.734
X23.36Y30.21
X23.36Y28.94
X23.36Y27.67
X23.36Y26.146
X23.36Y18.534
X23.36Y17.01
X23.36Y15.74
X23.36Y14.47
X23.36Y12.946
X23.833Y23.426
X23.833Y10.226
X24.63Y31.734
X24.63Y30.21
X24.63Y28.94
X24.63Y27.67
X24.63Y26.146
X24.63Y18.534
X24.63Y17.01
X24.63Y15.74
X24.63Y14.47
X24.63Y12.946
X24.64Y24.56
X24.64Y11.36
X25.9Y31.734
X25.9Y30.21
X25.9Y28.94
X25.9Y27.67
X25.9Y26.146
X25.9Y18.534
X25.9Y17.01
X25.9Y15.74
X25.9Y14.47
X25.9Y12.946
X27.17Y31.734
X27.17Y30.21
X27.17Y28.94
X27.17Y27.67
X27.17Y26.146
X27.17Y18.534
X27.17Y17.01
X27.17Y15.74
X27.17Y14.47
X27.17Y12.946
X28.44Y31.734
X28.44Y30.21
X28.44Y28.94
X28.44Y27.67
X28.44Y26.146
X28.44Y18.534
X28.44Y17.01
X28.44Y15.74
X28.44Y14.47
X28.44Y12.946
X33.4Y30.54
X33.4Y17.34
X34.05Y28.33
X34.05Y15.13
X34.69Y24.72
X34.69Y11.52
X35.74Y25.54
X35.74Y12.34
X35.77Y26.34
X35.77Y13.14
X36.34Y31.4
X36.34Y18.2
X37.47Y22.02
X37.47Y8.82
X38.09Y32.09
X38.09Y18.89
X38.309Y30.943
X38.309Y17.743
X38.33Y24.8
X38.33Y11.6
X38.39Y25.69
X38.39Y12.49
X38.683Y28.091
X38.683Y14.891
X39.368Y28.686
X39.368Y15.486
X39.42Y26.381
X39.42Y13.181
X39.448Y27.23
X39.448Y14.03
X40.393Y24.768
X40.393Y11.568
X40.93Y25.361
X40.93Y12.161
X41.61Y24.74
X41.61Y11.54
X41.652Y29.113
X41.652Y15.913
X41.67Y28.313
X41.67Y15.113
X42.21Y32.05
X42.21Y18.85
X43.16Y28.95
X43.16Y15.75
X43.56Y25.15
X43.56Y11.95
X43.952Y29.069
X43.952Y15.869
X43.99Y28.27
X43.99Y15.07
X44.01Y26.98
X44.01Y13.78
X44.44Y26.11
X44.44Y12.91
X45.46Y25.46
X45.46Y12.26
X45.817Y29.435
X45.817Y16.235
X46.673Y23.55
X46.673Y10.35
X47.76Y25.08
X47.76Y11.88
X47.92Y22.21
X47.92Y9.01
X47.99Y31.734
X47.99Y30.21
X47.99Y28.94
X47.99Y27.67
X47.99Y26.146
X47.99Y18.534
X47.99Y17.01
X47.99Y15.74
X47.99Y14.47
X47.99Y12.946
X49.26Y31.734
X49.26Y30.21
X49.26Y28.94
X49.26Y27.67
X49.26Y26.146
X49.26Y18.534
X49.26Y17.01
X49.26Y15.74
X49.26Y14.47
X49.26Y12.946
X49.733Y23.426
X49.733Y10.226
X50.53Y31.734
X50.53Y30.21
X50.53Y28.94
X50.53Y27.67
X50.53Y26.146
X50.53Y18.534
X50.53Y17.01
X50.53Y15.74
X50.53Y14.47
X50.53Y12.946
X50.54Y24.56
X50.54Y11.36
X51.8Y31.734
X51.8Y30.21
X51.8Y28.94
X51.8Y27.67
X51.8Y26.146
X51.8Y18.534
X51.8Y17.01
X51.8Y15.74
X51.8Y14.47
X51.8Y12.946
X53.07Y31.734
X53.07Y30.21
X53.07Y28.94
X53.07Y27.67
X53.07Y26.146
X53.07Y18.534
X53.07Y17.01
X53.07Y15.74
X53.07Y14.47
X53.07Y12.946
X54.34Y31.734
X54.34Y30.21
X54.34Y28.94
X54.34Y27.67
X54.34Y26.146
X54.34Y18.534
X54.34Y17.01
X54.34Y15.74
X54.34Y14.47
X54.34Y12.946
T2
X30.98Y26.4
X30.98Y13.2
X56.88Y26.4
X56.88Y13.2
T3
X13.2Y21.32
X13.2Y8.12
X15.74Y21.32
X15.74Y8.12
X18.28Y21.32
X18.28Y8.12
X20.82Y21.32
X20.82Y8.12
X23.36Y21.32
X23.36Y8.12
X25.9Y21.32
X25.9Y8.12
X39.1Y21.32
X39.1Y8.12
X41.64Y21.32
X41.64Y8.12
X44.18Y21.32
X44.18Y8.12
X46.72Y21.32
X46.72Y8.12
X49.26Y21.32
X49.26Y8.12
X51.8Y21.32
X51.8Y8.12
T4
X9.39Y22.59
X9.39Y9.39
X29.71Y22.59
X29.71Y9.39
X35.29Y22.59
X35.29Y9.39
X55.61Y22.59
X55.61Y9.39
M30
