%TF.GenerationSoftware,KiCad,Pcbnew,8.0.4*%
%TF.CreationDate,2024-08-23T09:14:10-06:00*%
%TF.ProjectId,SparkFun_BMV080_panelized_v01b,53706172-6b46-4756-9e5f-424d56303830,v01*%
%TF.SameCoordinates,Original*%
%TF.FileFunction,Paste,Top*%
%TF.FilePolarity,Positive*%
%FSLAX46Y46*%
G04 Gerber Fmt 4.6, Leading zero omitted, Abs format (unit mm)*
G04 Created by KiCad (PCBNEW 8.0.4) date 2024-08-23 09:14:10*
%MOMM*%
%LPD*%
G01*
G04 APERTURE LIST*
G04 Aperture macros list*
%AMRoundRect*
0 Rectangle with rounded corners*
0 $1 Rounding radius*
0 $2 $3 $4 $5 $6 $7 $8 $9 X,Y pos of 4 corners*
0 Add a 4 corners polygon primitive as box body*
4,1,4,$2,$3,$4,$5,$6,$7,$8,$9,$2,$3,0*
0 Add four circle primitives for the rounded corners*
1,1,$1+$1,$2,$3*
1,1,$1+$1,$4,$5*
1,1,$1+$1,$6,$7*
1,1,$1+$1,$8,$9*
0 Add four rect primitives between the rounded corners*
20,1,$1+$1,$2,$3,$4,$5,0*
20,1,$1+$1,$4,$5,$6,$7,0*
20,1,$1+$1,$6,$7,$8,$9,0*
20,1,$1+$1,$8,$9,$2,$3,0*%
G04 Aperture macros list end*
%ADD10RoundRect,0.135000X0.185000X-0.135000X0.185000X0.135000X-0.185000X0.135000X-0.185000X-0.135000X0*%
%ADD11RoundRect,0.037500X0.322500X-0.087500X0.322500X0.087500X-0.322500X0.087500X-0.322500X-0.087500X0*%
%ADD12RoundRect,0.037500X0.222500X-0.087500X0.222500X0.087500X-0.222500X0.087500X-0.222500X-0.087500X0*%
%ADD13RoundRect,0.045000X0.380000X-0.105000X0.380000X0.105000X-0.380000X0.105000X-0.380000X-0.105000X0*%
%ADD14RoundRect,0.140000X-0.170000X0.140000X-0.170000X-0.140000X0.170000X-0.140000X0.170000X0.140000X0*%
%ADD15RoundRect,0.140000X0.170000X-0.140000X0.170000X0.140000X-0.170000X0.140000X-0.170000X-0.140000X0*%
G04 APERTURE END LIST*
D10*
%TO.C,R3*%
X45450000Y23100000D03*
X45450000Y24120000D03*
%TD*%
%TO.C,R4*%
X24630000Y23100000D03*
X24630000Y24120000D03*
%TD*%
%TO.C,R5*%
X48020000Y23100000D03*
X48020000Y24120000D03*
%TD*%
D11*
%TO.C,U1*%
X11725000Y30740000D03*
D12*
X9295000Y30440000D03*
D11*
X11725000Y30140000D03*
D12*
X9295000Y29840000D03*
D11*
X11725000Y29540000D03*
D12*
X9295000Y29240000D03*
D11*
X11725000Y28940000D03*
D12*
X9295000Y28640000D03*
D11*
X11725000Y28340000D03*
D12*
X9295000Y28040000D03*
D11*
X11725000Y27740000D03*
D12*
X9295000Y27440000D03*
D11*
X11725000Y27140000D03*
D13*
X11660000Y26430000D03*
X11660000Y31450000D03*
%TD*%
D10*
%TO.C,R4*%
X50530000Y23100000D03*
X50530000Y24120000D03*
%TD*%
%TO.C,R2*%
X40370000Y23100000D03*
X40370000Y24120000D03*
%TD*%
D14*
%TO.C,C2*%
X34050000Y14660000D03*
X34050000Y13700000D03*
%TD*%
D10*
%TO.C,R2*%
X14470000Y23100000D03*
X14470000Y24120000D03*
%TD*%
D14*
%TO.C,C2*%
X34050000Y27860000D03*
X34050000Y26900000D03*
%TD*%
D10*
%TO.C,R1*%
X17010000Y9900000D03*
X17010000Y10920000D03*
%TD*%
%TO.C,R2*%
X14470000Y9900000D03*
X14470000Y10920000D03*
%TD*%
D15*
%TO.C,C1*%
X8150000Y28820000D03*
X8150000Y29780000D03*
%TD*%
D10*
%TO.C,R4*%
X24630000Y9900000D03*
X24630000Y10920000D03*
%TD*%
D11*
%TO.C,U1*%
X37625000Y17540000D03*
D12*
X35195000Y17240000D03*
D11*
X37625000Y16940000D03*
D12*
X35195000Y16640000D03*
D11*
X37625000Y16340000D03*
D12*
X35195000Y16040000D03*
D11*
X37625000Y15740000D03*
D12*
X35195000Y15440000D03*
D11*
X37625000Y15140000D03*
D12*
X35195000Y14840000D03*
D11*
X37625000Y14540000D03*
D12*
X35195000Y14240000D03*
D11*
X37625000Y13940000D03*
D13*
X37560000Y13230000D03*
X37560000Y18250000D03*
%TD*%
D11*
%TO.C,U1*%
X37625000Y30740000D03*
D12*
X35195000Y30440000D03*
D11*
X37625000Y30140000D03*
D12*
X35195000Y29840000D03*
D11*
X37625000Y29540000D03*
D12*
X35195000Y29240000D03*
D11*
X37625000Y28940000D03*
D12*
X35195000Y28640000D03*
D11*
X37625000Y28340000D03*
D12*
X35195000Y28040000D03*
D11*
X37625000Y27740000D03*
D12*
X35195000Y27440000D03*
D11*
X37625000Y27140000D03*
D13*
X37560000Y26430000D03*
X37560000Y31450000D03*
%TD*%
D10*
%TO.C,R1*%
X42910000Y23100000D03*
X42910000Y24120000D03*
%TD*%
%TO.C,R1*%
X17010000Y23100000D03*
X17010000Y24120000D03*
%TD*%
%TO.C,R2*%
X40370000Y9900000D03*
X40370000Y10920000D03*
%TD*%
%TO.C,R1*%
X42910000Y9900000D03*
X42910000Y10920000D03*
%TD*%
D15*
%TO.C,C1*%
X8150000Y15620000D03*
X8150000Y16580000D03*
%TD*%
D10*
%TO.C,R5*%
X22120000Y9900000D03*
X22120000Y10920000D03*
%TD*%
%TO.C,R5*%
X48020000Y9900000D03*
X48020000Y10920000D03*
%TD*%
%TO.C,R3*%
X45450000Y9900000D03*
X45450000Y10920000D03*
%TD*%
%TO.C,R3*%
X19550000Y23100000D03*
X19550000Y24120000D03*
%TD*%
D11*
%TO.C,U1*%
X11725000Y17540000D03*
D12*
X9295000Y17240000D03*
D11*
X11725000Y16940000D03*
D12*
X9295000Y16640000D03*
D11*
X11725000Y16340000D03*
D12*
X9295000Y16040000D03*
D11*
X11725000Y15740000D03*
D12*
X9295000Y15440000D03*
D11*
X11725000Y15140000D03*
D12*
X9295000Y14840000D03*
D11*
X11725000Y14540000D03*
D12*
X9295000Y14240000D03*
D11*
X11725000Y13940000D03*
D13*
X11660000Y13230000D03*
X11660000Y18250000D03*
%TD*%
D10*
%TO.C,R3*%
X19550000Y9900000D03*
X19550000Y10920000D03*
%TD*%
%TO.C,R4*%
X50530000Y9900000D03*
X50530000Y10920000D03*
%TD*%
D15*
%TO.C,C1*%
X34050000Y15620000D03*
X34050000Y16580000D03*
%TD*%
%TO.C,C1*%
X34050000Y28820000D03*
X34050000Y29780000D03*
%TD*%
D10*
%TO.C,R5*%
X22120000Y23100000D03*
X22120000Y24120000D03*
%TD*%
D14*
%TO.C,C2*%
X8150000Y14660000D03*
X8150000Y13700000D03*
%TD*%
%TO.C,C2*%
X8150000Y27860000D03*
X8150000Y26900000D03*
%TD*%
M02*
