%TF.GenerationSoftware,KiCad,Pcbnew,8.0.6*%
%TF.CreationDate,2024-11-25T14:03:36-07:00*%
%TF.ProjectId,SparkFun_BMV080_panelized,53706172-6b46-4756-9e5f-424d56303830,v01*%
%TF.SameCoordinates,Original*%
%TF.FileFunction,Paste,Bot*%
%TF.FilePolarity,Positive*%
%FSLAX46Y46*%
G04 Gerber Fmt 4.6, Leading zero omitted, Abs format (unit mm)*
G04 Created by KiCad (PCBNEW 8.0.6) date 2024-11-25 14:03:36*
%MOMM*%
%LPD*%
G01*
G04 APERTURE LIST*
G04 Aperture macros list*
%AMRoundRect*
0 Rectangle with rounded corners*
0 $1 Rounding radius*
0 $2 $3 $4 $5 $6 $7 $8 $9 X,Y pos of 4 corners*
0 Add a 4 corners polygon primitive as box body*
4,1,4,$2,$3,$4,$5,$6,$7,$8,$9,$2,$3,0*
0 Add four circle primitives for the rounded corners*
1,1,$1+$1,$2,$3*
1,1,$1+$1,$4,$5*
1,1,$1+$1,$6,$7*
1,1,$1+$1,$8,$9*
0 Add four rect primitives between the rounded corners*
20,1,$1+$1,$2,$3,$4,$5,0*
20,1,$1+$1,$4,$5,$6,$7,0*
20,1,$1+$1,$6,$7,$8,$9,0*
20,1,$1+$1,$8,$9,$2,$3,0*%
G04 Aperture macros list end*
%ADD10RoundRect,0.140000X0.170000X-0.140000X0.170000X0.140000X-0.170000X0.140000X-0.170000X-0.140000X0*%
%ADD11RoundRect,0.225000X0.250000X-0.225000X0.250000X0.225000X-0.250000X0.225000X-0.250000X-0.225000X0*%
%ADD12R,1.350000X0.600000*%
%ADD13R,2.000000X1.200000*%
G04 APERTURE END LIST*
D10*
%TO.C,C4*%
X129661000Y103464000D03*
X129661000Y104424000D03*
%TD*%
%TO.C,C4*%
X129661000Y90264000D03*
X129661000Y91224000D03*
%TD*%
%TO.C,C4*%
X129661000Y77064000D03*
X129661000Y78024000D03*
%TD*%
%TO.C,C4*%
X129661000Y63864000D03*
X129661000Y64824000D03*
%TD*%
%TO.C,C4*%
X129661000Y50664000D03*
X129661000Y51624000D03*
%TD*%
%TO.C,C4*%
X129661000Y37464000D03*
X129661000Y38424000D03*
%TD*%
%TO.C,C4*%
X129661000Y24264000D03*
X129661000Y25224000D03*
%TD*%
%TO.C,C4*%
X129661000Y11064000D03*
X129661000Y12024000D03*
%TD*%
%TO.C,C4*%
X129661000Y-2136000D03*
X129661000Y-1176000D03*
%TD*%
%TO.C,C4*%
X105031000Y103464000D03*
X105031000Y104424000D03*
%TD*%
%TO.C,C4*%
X105031000Y90264000D03*
X105031000Y91224000D03*
%TD*%
%TO.C,C4*%
X105031000Y77064000D03*
X105031000Y78024000D03*
%TD*%
%TO.C,C4*%
X105031000Y63864000D03*
X105031000Y64824000D03*
%TD*%
%TO.C,C4*%
X105031000Y50664000D03*
X105031000Y51624000D03*
%TD*%
%TO.C,C4*%
X105031000Y37464000D03*
X105031000Y38424000D03*
%TD*%
%TO.C,C4*%
X105031000Y24264000D03*
X105031000Y25224000D03*
%TD*%
%TO.C,C4*%
X105031000Y11064000D03*
X105031000Y12024000D03*
%TD*%
%TO.C,C4*%
X105031000Y-2136000D03*
X105031000Y-1176000D03*
%TD*%
%TO.C,C4*%
X80401000Y103464000D03*
X80401000Y104424000D03*
%TD*%
%TO.C,C4*%
X80401000Y90264000D03*
X80401000Y91224000D03*
%TD*%
%TO.C,C4*%
X80401000Y77064000D03*
X80401000Y78024000D03*
%TD*%
%TO.C,C4*%
X80401000Y63864000D03*
X80401000Y64824000D03*
%TD*%
%TO.C,C4*%
X80401000Y50664000D03*
X80401000Y51624000D03*
%TD*%
%TO.C,C4*%
X80401000Y37464000D03*
X80401000Y38424000D03*
%TD*%
%TO.C,C4*%
X80401000Y24264000D03*
X80401000Y25224000D03*
%TD*%
%TO.C,C4*%
X80401000Y11064000D03*
X80401000Y12024000D03*
%TD*%
%TO.C,C4*%
X80401000Y-2136000D03*
X80401000Y-1176000D03*
%TD*%
%TO.C,C4*%
X55771000Y103464000D03*
X55771000Y104424000D03*
%TD*%
%TO.C,C4*%
X55771000Y90264000D03*
X55771000Y91224000D03*
%TD*%
%TO.C,C4*%
X55771000Y77064000D03*
X55771000Y78024000D03*
%TD*%
%TO.C,C4*%
X55771000Y63864000D03*
X55771000Y64824000D03*
%TD*%
%TO.C,C4*%
X55771000Y50664000D03*
X55771000Y51624000D03*
%TD*%
%TO.C,C4*%
X55771000Y37464000D03*
X55771000Y38424000D03*
%TD*%
%TO.C,C4*%
X55771000Y24264000D03*
X55771000Y25224000D03*
%TD*%
%TO.C,C4*%
X55771000Y11064000D03*
X55771000Y12024000D03*
%TD*%
%TO.C,C4*%
X55771000Y-2136000D03*
X55771000Y-1176000D03*
%TD*%
%TO.C,C4*%
X31141000Y103464000D03*
X31141000Y104424000D03*
%TD*%
%TO.C,C4*%
X31141000Y90264000D03*
X31141000Y91224000D03*
%TD*%
%TO.C,C4*%
X31141000Y77064000D03*
X31141000Y78024000D03*
%TD*%
%TO.C,C4*%
X31141000Y63864000D03*
X31141000Y64824000D03*
%TD*%
%TO.C,C4*%
X31141000Y50664000D03*
X31141000Y51624000D03*
%TD*%
%TO.C,C4*%
X31141000Y37464000D03*
X31141000Y38424000D03*
%TD*%
%TO.C,C4*%
X31141000Y24264000D03*
X31141000Y25224000D03*
%TD*%
%TO.C,C4*%
X31141000Y11064000D03*
X31141000Y12024000D03*
%TD*%
%TO.C,C4*%
X31141000Y-2136000D03*
X31141000Y-1176000D03*
%TD*%
%TO.C,C4*%
X6511000Y103464000D03*
X6511000Y104424000D03*
%TD*%
%TO.C,C4*%
X6511000Y90264000D03*
X6511000Y91224000D03*
%TD*%
%TO.C,C4*%
X6511000Y77064000D03*
X6511000Y78024000D03*
%TD*%
%TO.C,C4*%
X6511000Y63864000D03*
X6511000Y64824000D03*
%TD*%
%TO.C,C4*%
X6511000Y50664000D03*
X6511000Y51624000D03*
%TD*%
%TO.C,C4*%
X6511000Y37464000D03*
X6511000Y38424000D03*
%TD*%
%TO.C,C4*%
X6511000Y24264000D03*
X6511000Y25224000D03*
%TD*%
%TO.C,C4*%
X6511000Y11064000D03*
X6511000Y12024000D03*
%TD*%
D11*
%TO.C,C5*%
X131994000Y102711000D03*
X131994000Y104261000D03*
%TD*%
%TO.C,C5*%
X131994000Y89511000D03*
X131994000Y91061000D03*
%TD*%
%TO.C,C5*%
X131994000Y76311000D03*
X131994000Y77861000D03*
%TD*%
%TO.C,C5*%
X131994000Y63111000D03*
X131994000Y64661000D03*
%TD*%
%TO.C,C5*%
X131994000Y49911000D03*
X131994000Y51461000D03*
%TD*%
%TO.C,C5*%
X131994000Y36711000D03*
X131994000Y38261000D03*
%TD*%
%TO.C,C5*%
X131994000Y23511000D03*
X131994000Y25061000D03*
%TD*%
%TO.C,C5*%
X131994000Y10311000D03*
X131994000Y11861000D03*
%TD*%
%TO.C,C5*%
X131994000Y-2889000D03*
X131994000Y-1339000D03*
%TD*%
%TO.C,C5*%
X107364000Y102711000D03*
X107364000Y104261000D03*
%TD*%
%TO.C,C5*%
X107364000Y89511000D03*
X107364000Y91061000D03*
%TD*%
%TO.C,C5*%
X107364000Y76311000D03*
X107364000Y77861000D03*
%TD*%
%TO.C,C5*%
X107364000Y63111000D03*
X107364000Y64661000D03*
%TD*%
%TO.C,C5*%
X107364000Y49911000D03*
X107364000Y51461000D03*
%TD*%
%TO.C,C5*%
X107364000Y36711000D03*
X107364000Y38261000D03*
%TD*%
%TO.C,C5*%
X107364000Y23511000D03*
X107364000Y25061000D03*
%TD*%
%TO.C,C5*%
X107364000Y10311000D03*
X107364000Y11861000D03*
%TD*%
%TO.C,C5*%
X107364000Y-2889000D03*
X107364000Y-1339000D03*
%TD*%
%TO.C,C5*%
X82734000Y102711000D03*
X82734000Y104261000D03*
%TD*%
%TO.C,C5*%
X82734000Y89511000D03*
X82734000Y91061000D03*
%TD*%
%TO.C,C5*%
X82734000Y76311000D03*
X82734000Y77861000D03*
%TD*%
%TO.C,C5*%
X82734000Y63111000D03*
X82734000Y64661000D03*
%TD*%
%TO.C,C5*%
X82734000Y49911000D03*
X82734000Y51461000D03*
%TD*%
%TO.C,C5*%
X82734000Y36711000D03*
X82734000Y38261000D03*
%TD*%
%TO.C,C5*%
X82734000Y23511000D03*
X82734000Y25061000D03*
%TD*%
%TO.C,C5*%
X82734000Y10311000D03*
X82734000Y11861000D03*
%TD*%
%TO.C,C5*%
X82734000Y-2889000D03*
X82734000Y-1339000D03*
%TD*%
%TO.C,C5*%
X58104000Y102711000D03*
X58104000Y104261000D03*
%TD*%
%TO.C,C5*%
X58104000Y89511000D03*
X58104000Y91061000D03*
%TD*%
%TO.C,C5*%
X58104000Y76311000D03*
X58104000Y77861000D03*
%TD*%
%TO.C,C5*%
X58104000Y63111000D03*
X58104000Y64661000D03*
%TD*%
%TO.C,C5*%
X58104000Y49911000D03*
X58104000Y51461000D03*
%TD*%
%TO.C,C5*%
X58104000Y36711000D03*
X58104000Y38261000D03*
%TD*%
%TO.C,C5*%
X58104000Y23511000D03*
X58104000Y25061000D03*
%TD*%
%TO.C,C5*%
X58104000Y10311000D03*
X58104000Y11861000D03*
%TD*%
%TO.C,C5*%
X58104000Y-2889000D03*
X58104000Y-1339000D03*
%TD*%
%TO.C,C5*%
X33474000Y102711000D03*
X33474000Y104261000D03*
%TD*%
%TO.C,C5*%
X33474000Y89511000D03*
X33474000Y91061000D03*
%TD*%
%TO.C,C5*%
X33474000Y76311000D03*
X33474000Y77861000D03*
%TD*%
%TO.C,C5*%
X33474000Y63111000D03*
X33474000Y64661000D03*
%TD*%
%TO.C,C5*%
X33474000Y49911000D03*
X33474000Y51461000D03*
%TD*%
%TO.C,C5*%
X33474000Y36711000D03*
X33474000Y38261000D03*
%TD*%
%TO.C,C5*%
X33474000Y23511000D03*
X33474000Y25061000D03*
%TD*%
%TO.C,C5*%
X33474000Y10311000D03*
X33474000Y11861000D03*
%TD*%
%TO.C,C5*%
X33474000Y-2889000D03*
X33474000Y-1339000D03*
%TD*%
%TO.C,C5*%
X8844000Y102711000D03*
X8844000Y104261000D03*
%TD*%
%TO.C,C5*%
X8844000Y89511000D03*
X8844000Y91061000D03*
%TD*%
%TO.C,C5*%
X8844000Y76311000D03*
X8844000Y77861000D03*
%TD*%
%TO.C,C5*%
X8844000Y63111000D03*
X8844000Y64661000D03*
%TD*%
%TO.C,C5*%
X8844000Y49911000D03*
X8844000Y51461000D03*
%TD*%
%TO.C,C5*%
X8844000Y36711000D03*
X8844000Y38261000D03*
%TD*%
%TO.C,C5*%
X8844000Y23511000D03*
X8844000Y25061000D03*
%TD*%
%TO.C,C5*%
X8844000Y10311000D03*
X8844000Y11861000D03*
%TD*%
D10*
%TO.C,C3*%
X130719000Y103467000D03*
X130719000Y104427000D03*
%TD*%
%TO.C,C3*%
X130719000Y90267000D03*
X130719000Y91227000D03*
%TD*%
%TO.C,C3*%
X130719000Y77067000D03*
X130719000Y78027000D03*
%TD*%
%TO.C,C3*%
X130719000Y63867000D03*
X130719000Y64827000D03*
%TD*%
%TO.C,C3*%
X130719000Y50667000D03*
X130719000Y51627000D03*
%TD*%
%TO.C,C3*%
X130719000Y37467000D03*
X130719000Y38427000D03*
%TD*%
%TO.C,C3*%
X130719000Y24267000D03*
X130719000Y25227000D03*
%TD*%
%TO.C,C3*%
X130719000Y11067000D03*
X130719000Y12027000D03*
%TD*%
%TO.C,C3*%
X130719000Y-2133000D03*
X130719000Y-1173000D03*
%TD*%
%TO.C,C3*%
X106089000Y103467000D03*
X106089000Y104427000D03*
%TD*%
%TO.C,C3*%
X106089000Y90267000D03*
X106089000Y91227000D03*
%TD*%
%TO.C,C3*%
X106089000Y77067000D03*
X106089000Y78027000D03*
%TD*%
%TO.C,C3*%
X106089000Y63867000D03*
X106089000Y64827000D03*
%TD*%
%TO.C,C3*%
X106089000Y50667000D03*
X106089000Y51627000D03*
%TD*%
%TO.C,C3*%
X106089000Y37467000D03*
X106089000Y38427000D03*
%TD*%
%TO.C,C3*%
X106089000Y24267000D03*
X106089000Y25227000D03*
%TD*%
%TO.C,C3*%
X106089000Y11067000D03*
X106089000Y12027000D03*
%TD*%
%TO.C,C3*%
X106089000Y-2133000D03*
X106089000Y-1173000D03*
%TD*%
%TO.C,C3*%
X81459000Y103467000D03*
X81459000Y104427000D03*
%TD*%
%TO.C,C3*%
X81459000Y90267000D03*
X81459000Y91227000D03*
%TD*%
%TO.C,C3*%
X81459000Y77067000D03*
X81459000Y78027000D03*
%TD*%
%TO.C,C3*%
X81459000Y63867000D03*
X81459000Y64827000D03*
%TD*%
%TO.C,C3*%
X81459000Y50667000D03*
X81459000Y51627000D03*
%TD*%
%TO.C,C3*%
X81459000Y37467000D03*
X81459000Y38427000D03*
%TD*%
%TO.C,C3*%
X81459000Y24267000D03*
X81459000Y25227000D03*
%TD*%
%TO.C,C3*%
X81459000Y11067000D03*
X81459000Y12027000D03*
%TD*%
%TO.C,C3*%
X81459000Y-2133000D03*
X81459000Y-1173000D03*
%TD*%
%TO.C,C3*%
X56829000Y103467000D03*
X56829000Y104427000D03*
%TD*%
%TO.C,C3*%
X56829000Y90267000D03*
X56829000Y91227000D03*
%TD*%
%TO.C,C3*%
X56829000Y77067000D03*
X56829000Y78027000D03*
%TD*%
%TO.C,C3*%
X56829000Y63867000D03*
X56829000Y64827000D03*
%TD*%
%TO.C,C3*%
X56829000Y50667000D03*
X56829000Y51627000D03*
%TD*%
%TO.C,C3*%
X56829000Y37467000D03*
X56829000Y38427000D03*
%TD*%
%TO.C,C3*%
X56829000Y24267000D03*
X56829000Y25227000D03*
%TD*%
%TO.C,C3*%
X56829000Y11067000D03*
X56829000Y12027000D03*
%TD*%
%TO.C,C3*%
X56829000Y-2133000D03*
X56829000Y-1173000D03*
%TD*%
%TO.C,C3*%
X32199000Y103467000D03*
X32199000Y104427000D03*
%TD*%
%TO.C,C3*%
X32199000Y90267000D03*
X32199000Y91227000D03*
%TD*%
%TO.C,C3*%
X32199000Y77067000D03*
X32199000Y78027000D03*
%TD*%
%TO.C,C3*%
X32199000Y63867000D03*
X32199000Y64827000D03*
%TD*%
%TO.C,C3*%
X32199000Y50667000D03*
X32199000Y51627000D03*
%TD*%
%TO.C,C3*%
X32199000Y37467000D03*
X32199000Y38427000D03*
%TD*%
%TO.C,C3*%
X32199000Y24267000D03*
X32199000Y25227000D03*
%TD*%
%TO.C,C3*%
X32199000Y11067000D03*
X32199000Y12027000D03*
%TD*%
%TO.C,C3*%
X32199000Y-2133000D03*
X32199000Y-1173000D03*
%TD*%
%TO.C,C3*%
X7569000Y103467000D03*
X7569000Y104427000D03*
%TD*%
%TO.C,C3*%
X7569000Y90267000D03*
X7569000Y91227000D03*
%TD*%
%TO.C,C3*%
X7569000Y77067000D03*
X7569000Y78027000D03*
%TD*%
%TO.C,C3*%
X7569000Y63867000D03*
X7569000Y64827000D03*
%TD*%
%TO.C,C3*%
X7569000Y50667000D03*
X7569000Y51627000D03*
%TD*%
%TO.C,C3*%
X7569000Y37467000D03*
X7569000Y38427000D03*
%TD*%
%TO.C,C3*%
X7569000Y24267000D03*
X7569000Y25227000D03*
%TD*%
%TO.C,C3*%
X7569000Y11067000D03*
X7569000Y12027000D03*
%TD*%
D12*
%TO.C,J1*%
X128230000Y97750000D03*
X128230000Y98750000D03*
X128230000Y99750000D03*
X128230000Y100750000D03*
D13*
X124555000Y102050000D03*
X124555000Y96450000D03*
%TD*%
D12*
%TO.C,J1*%
X128230000Y84550000D03*
X128230000Y85550000D03*
X128230000Y86550000D03*
X128230000Y87550000D03*
D13*
X124555000Y88850000D03*
X124555000Y83250000D03*
%TD*%
D12*
%TO.C,J1*%
X128230000Y71350000D03*
X128230000Y72350000D03*
X128230000Y73350000D03*
X128230000Y74350000D03*
D13*
X124555000Y75650000D03*
X124555000Y70050000D03*
%TD*%
D12*
%TO.C,J1*%
X128230000Y58150000D03*
X128230000Y59150000D03*
X128230000Y60150000D03*
X128230000Y61150000D03*
D13*
X124555000Y62450000D03*
X124555000Y56850000D03*
%TD*%
D12*
%TO.C,J1*%
X128230000Y44950000D03*
X128230000Y45950000D03*
X128230000Y46950000D03*
X128230000Y47950000D03*
D13*
X124555000Y49250000D03*
X124555000Y43650000D03*
%TD*%
D12*
%TO.C,J1*%
X128230000Y31750000D03*
X128230000Y32750000D03*
X128230000Y33750000D03*
X128230000Y34750000D03*
D13*
X124555000Y36050000D03*
X124555000Y30450000D03*
%TD*%
D12*
%TO.C,J1*%
X128230000Y18550000D03*
X128230000Y19550000D03*
X128230000Y20550000D03*
X128230000Y21550000D03*
D13*
X124555000Y22850000D03*
X124555000Y17250000D03*
%TD*%
D12*
%TO.C,J1*%
X128230000Y5350000D03*
X128230000Y6350000D03*
X128230000Y7350000D03*
X128230000Y8350000D03*
D13*
X124555000Y9650000D03*
X124555000Y4050000D03*
%TD*%
D12*
%TO.C,J1*%
X128230000Y-7850000D03*
X128230000Y-6850000D03*
X128230000Y-5850000D03*
X128230000Y-4850000D03*
D13*
X124555000Y-3550000D03*
X124555000Y-9150000D03*
%TD*%
D12*
%TO.C,J1*%
X103600000Y97750000D03*
X103600000Y98750000D03*
X103600000Y99750000D03*
X103600000Y100750000D03*
D13*
X99925000Y102050000D03*
X99925000Y96450000D03*
%TD*%
D12*
%TO.C,J1*%
X103600000Y84550000D03*
X103600000Y85550000D03*
X103600000Y86550000D03*
X103600000Y87550000D03*
D13*
X99925000Y88850000D03*
X99925000Y83250000D03*
%TD*%
D12*
%TO.C,J1*%
X103600000Y71350000D03*
X103600000Y72350000D03*
X103600000Y73350000D03*
X103600000Y74350000D03*
D13*
X99925000Y75650000D03*
X99925000Y70050000D03*
%TD*%
D12*
%TO.C,J1*%
X103600000Y58150000D03*
X103600000Y59150000D03*
X103600000Y60150000D03*
X103600000Y61150000D03*
D13*
X99925000Y62450000D03*
X99925000Y56850000D03*
%TD*%
D12*
%TO.C,J1*%
X103600000Y44950000D03*
X103600000Y45950000D03*
X103600000Y46950000D03*
X103600000Y47950000D03*
D13*
X99925000Y49250000D03*
X99925000Y43650000D03*
%TD*%
D12*
%TO.C,J1*%
X103600000Y31750000D03*
X103600000Y32750000D03*
X103600000Y33750000D03*
X103600000Y34750000D03*
D13*
X99925000Y36050000D03*
X99925000Y30450000D03*
%TD*%
D12*
%TO.C,J1*%
X103600000Y18550000D03*
X103600000Y19550000D03*
X103600000Y20550000D03*
X103600000Y21550000D03*
D13*
X99925000Y22850000D03*
X99925000Y17250000D03*
%TD*%
D12*
%TO.C,J1*%
X103600000Y5350000D03*
X103600000Y6350000D03*
X103600000Y7350000D03*
X103600000Y8350000D03*
D13*
X99925000Y9650000D03*
X99925000Y4050000D03*
%TD*%
D12*
%TO.C,J1*%
X103600000Y-7850000D03*
X103600000Y-6850000D03*
X103600000Y-5850000D03*
X103600000Y-4850000D03*
D13*
X99925000Y-3550000D03*
X99925000Y-9150000D03*
%TD*%
D12*
%TO.C,J1*%
X78970000Y97750000D03*
X78970000Y98750000D03*
X78970000Y99750000D03*
X78970000Y100750000D03*
D13*
X75295000Y102050000D03*
X75295000Y96450000D03*
%TD*%
D12*
%TO.C,J1*%
X78970000Y84550000D03*
X78970000Y85550000D03*
X78970000Y86550000D03*
X78970000Y87550000D03*
D13*
X75295000Y88850000D03*
X75295000Y83250000D03*
%TD*%
D12*
%TO.C,J1*%
X78970000Y71350000D03*
X78970000Y72350000D03*
X78970000Y73350000D03*
X78970000Y74350000D03*
D13*
X75295000Y75650000D03*
X75295000Y70050000D03*
%TD*%
D12*
%TO.C,J1*%
X78970000Y58150000D03*
X78970000Y59150000D03*
X78970000Y60150000D03*
X78970000Y61150000D03*
D13*
X75295000Y62450000D03*
X75295000Y56850000D03*
%TD*%
D12*
%TO.C,J1*%
X78970000Y44950000D03*
X78970000Y45950000D03*
X78970000Y46950000D03*
X78970000Y47950000D03*
D13*
X75295000Y49250000D03*
X75295000Y43650000D03*
%TD*%
D12*
%TO.C,J1*%
X78970000Y31750000D03*
X78970000Y32750000D03*
X78970000Y33750000D03*
X78970000Y34750000D03*
D13*
X75295000Y36050000D03*
X75295000Y30450000D03*
%TD*%
D12*
%TO.C,J1*%
X78970000Y18550000D03*
X78970000Y19550000D03*
X78970000Y20550000D03*
X78970000Y21550000D03*
D13*
X75295000Y22850000D03*
X75295000Y17250000D03*
%TD*%
D12*
%TO.C,J1*%
X78970000Y5350000D03*
X78970000Y6350000D03*
X78970000Y7350000D03*
X78970000Y8350000D03*
D13*
X75295000Y9650000D03*
X75295000Y4050000D03*
%TD*%
D12*
%TO.C,J1*%
X78970000Y-7850000D03*
X78970000Y-6850000D03*
X78970000Y-5850000D03*
X78970000Y-4850000D03*
D13*
X75295000Y-3550000D03*
X75295000Y-9150000D03*
%TD*%
D12*
%TO.C,J1*%
X54340000Y97750000D03*
X54340000Y98750000D03*
X54340000Y99750000D03*
X54340000Y100750000D03*
D13*
X50665000Y102050000D03*
X50665000Y96450000D03*
%TD*%
D12*
%TO.C,J1*%
X54340000Y84550000D03*
X54340000Y85550000D03*
X54340000Y86550000D03*
X54340000Y87550000D03*
D13*
X50665000Y88850000D03*
X50665000Y83250000D03*
%TD*%
D12*
%TO.C,J1*%
X54340000Y71350000D03*
X54340000Y72350000D03*
X54340000Y73350000D03*
X54340000Y74350000D03*
D13*
X50665000Y75650000D03*
X50665000Y70050000D03*
%TD*%
D12*
%TO.C,J1*%
X54340000Y58150000D03*
X54340000Y59150000D03*
X54340000Y60150000D03*
X54340000Y61150000D03*
D13*
X50665000Y62450000D03*
X50665000Y56850000D03*
%TD*%
D12*
%TO.C,J1*%
X54340000Y44950000D03*
X54340000Y45950000D03*
X54340000Y46950000D03*
X54340000Y47950000D03*
D13*
X50665000Y49250000D03*
X50665000Y43650000D03*
%TD*%
D12*
%TO.C,J1*%
X54340000Y31750000D03*
X54340000Y32750000D03*
X54340000Y33750000D03*
X54340000Y34750000D03*
D13*
X50665000Y36050000D03*
X50665000Y30450000D03*
%TD*%
D12*
%TO.C,J1*%
X54340000Y18550000D03*
X54340000Y19550000D03*
X54340000Y20550000D03*
X54340000Y21550000D03*
D13*
X50665000Y22850000D03*
X50665000Y17250000D03*
%TD*%
D12*
%TO.C,J1*%
X54340000Y5350000D03*
X54340000Y6350000D03*
X54340000Y7350000D03*
X54340000Y8350000D03*
D13*
X50665000Y9650000D03*
X50665000Y4050000D03*
%TD*%
D12*
%TO.C,J1*%
X54340000Y-7850000D03*
X54340000Y-6850000D03*
X54340000Y-5850000D03*
X54340000Y-4850000D03*
D13*
X50665000Y-3550000D03*
X50665000Y-9150000D03*
%TD*%
D12*
%TO.C,J1*%
X29710000Y97750000D03*
X29710000Y98750000D03*
X29710000Y99750000D03*
X29710000Y100750000D03*
D13*
X26035000Y102050000D03*
X26035000Y96450000D03*
%TD*%
D12*
%TO.C,J1*%
X29710000Y84550000D03*
X29710000Y85550000D03*
X29710000Y86550000D03*
X29710000Y87550000D03*
D13*
X26035000Y88850000D03*
X26035000Y83250000D03*
%TD*%
D12*
%TO.C,J1*%
X29710000Y71350000D03*
X29710000Y72350000D03*
X29710000Y73350000D03*
X29710000Y74350000D03*
D13*
X26035000Y75650000D03*
X26035000Y70050000D03*
%TD*%
D12*
%TO.C,J1*%
X29710000Y58150000D03*
X29710000Y59150000D03*
X29710000Y60150000D03*
X29710000Y61150000D03*
D13*
X26035000Y62450000D03*
X26035000Y56850000D03*
%TD*%
D12*
%TO.C,J1*%
X29710000Y44950000D03*
X29710000Y45950000D03*
X29710000Y46950000D03*
X29710000Y47950000D03*
D13*
X26035000Y49250000D03*
X26035000Y43650000D03*
%TD*%
D12*
%TO.C,J1*%
X29710000Y31750000D03*
X29710000Y32750000D03*
X29710000Y33750000D03*
X29710000Y34750000D03*
D13*
X26035000Y36050000D03*
X26035000Y30450000D03*
%TD*%
D12*
%TO.C,J1*%
X29710000Y18550000D03*
X29710000Y19550000D03*
X29710000Y20550000D03*
X29710000Y21550000D03*
D13*
X26035000Y22850000D03*
X26035000Y17250000D03*
%TD*%
D12*
%TO.C,J1*%
X29710000Y5350000D03*
X29710000Y6350000D03*
X29710000Y7350000D03*
X29710000Y8350000D03*
D13*
X26035000Y9650000D03*
X26035000Y4050000D03*
%TD*%
D12*
%TO.C,J1*%
X29710000Y-7850000D03*
X29710000Y-6850000D03*
X29710000Y-5850000D03*
X29710000Y-4850000D03*
D13*
X26035000Y-3550000D03*
X26035000Y-9150000D03*
%TD*%
D12*
%TO.C,J1*%
X5080000Y97750000D03*
X5080000Y98750000D03*
X5080000Y99750000D03*
X5080000Y100750000D03*
D13*
X1405000Y102050000D03*
X1405000Y96450000D03*
%TD*%
D12*
%TO.C,J1*%
X5080000Y84550000D03*
X5080000Y85550000D03*
X5080000Y86550000D03*
X5080000Y87550000D03*
D13*
X1405000Y88850000D03*
X1405000Y83250000D03*
%TD*%
D12*
%TO.C,J1*%
X5080000Y71350000D03*
X5080000Y72350000D03*
X5080000Y73350000D03*
X5080000Y74350000D03*
D13*
X1405000Y75650000D03*
X1405000Y70050000D03*
%TD*%
D12*
%TO.C,J1*%
X5080000Y58150000D03*
X5080000Y59150000D03*
X5080000Y60150000D03*
X5080000Y61150000D03*
D13*
X1405000Y62450000D03*
X1405000Y56850000D03*
%TD*%
D12*
%TO.C,J1*%
X5080000Y44950000D03*
X5080000Y45950000D03*
X5080000Y46950000D03*
X5080000Y47950000D03*
D13*
X1405000Y49250000D03*
X1405000Y43650000D03*
%TD*%
D12*
%TO.C,J1*%
X5080000Y31750000D03*
X5080000Y32750000D03*
X5080000Y33750000D03*
X5080000Y34750000D03*
D13*
X1405000Y36050000D03*
X1405000Y30450000D03*
%TD*%
D12*
%TO.C,J1*%
X5080000Y18550000D03*
X5080000Y19550000D03*
X5080000Y20550000D03*
X5080000Y21550000D03*
D13*
X1405000Y22850000D03*
X1405000Y17250000D03*
%TD*%
D12*
%TO.C,J1*%
X5080000Y5350000D03*
X5080000Y6350000D03*
X5080000Y7350000D03*
X5080000Y8350000D03*
D13*
X1405000Y9650000D03*
X1405000Y4050000D03*
%TD*%
D12*
%TO.C,J1*%
X5080000Y-7850000D03*
X5080000Y-6850000D03*
X5080000Y-5850000D03*
X5080000Y-4850000D03*
D13*
X1405000Y-3550000D03*
X1405000Y-9150000D03*
%TD*%
D10*
%TO.C,C3*%
X7569000Y-2133000D03*
X7569000Y-1173000D03*
%TD*%
D11*
%TO.C,C5*%
X8844000Y-2889000D03*
X8844000Y-1339000D03*
%TD*%
D10*
%TO.C,C4*%
X6511000Y-2136000D03*
X6511000Y-1176000D03*
%TD*%
M02*
