%TF.GenerationSoftware,KiCad,Pcbnew,8.0.4*%
%TF.CreationDate,2024-08-22T15:16:27-06:00*%
%TF.ProjectId,SparkFun_BMV080_panelized,53706172-6b46-4756-9e5f-424d56303830,v01*%
%TF.SameCoordinates,Original*%
%TF.FileFunction,Copper,L1,Top*%
%TF.FilePolarity,Positive*%
%FSLAX46Y46*%
G04 Gerber Fmt 4.6, Leading zero omitted, Abs format (unit mm)*
G04 Created by KiCad (PCBNEW 8.0.4) date 2024-08-22 15:16:27*
%MOMM*%
%LPD*%
G01*
G04 APERTURE LIST*
G04 Aperture macros list*
%AMRoundRect*
0 Rectangle with rounded corners*
0 $1 Rounding radius*
0 $2 $3 $4 $5 $6 $7 $8 $9 X,Y pos of 4 corners*
0 Add a 4 corners polygon primitive as box body*
4,1,4,$2,$3,$4,$5,$6,$7,$8,$9,$2,$3,0*
0 Add four circle primitives for the rounded corners*
1,1,$1+$1,$2,$3*
1,1,$1+$1,$4,$5*
1,1,$1+$1,$6,$7*
1,1,$1+$1,$8,$9*
0 Add four rect primitives between the rounded corners*
20,1,$1+$1,$2,$3,$4,$5,0*
20,1,$1+$1,$4,$5,$6,$7,0*
20,1,$1+$1,$6,$7,$8,$9,0*
20,1,$1+$1,$8,$9,$2,$3,0*%
G04 Aperture macros list end*
%TA.AperFunction,SMDPad,CuDef*%
%ADD10C,1.000000*%
%TD*%
%TA.AperFunction,SMDPad,CuDef*%
%ADD11C,1.500000*%
%TD*%
%TA.AperFunction,ComponentPad*%
%ADD12C,1.879600*%
%TD*%
%TA.AperFunction,SMDPad,CuDef*%
%ADD13RoundRect,0.140000X-0.170000X0.140000X-0.170000X-0.140000X0.170000X-0.140000X0.170000X0.140000X0*%
%TD*%
%TA.AperFunction,SMDPad,CuDef*%
%ADD14RoundRect,0.135000X0.185000X-0.135000X0.185000X0.135000X-0.185000X0.135000X-0.185000X-0.135000X0*%
%TD*%
%TA.AperFunction,SMDPad,CuDef*%
%ADD15C,0.500000*%
%TD*%
%TA.AperFunction,SMDPad,CuDef*%
%ADD16RoundRect,0.037500X0.322500X-0.087500X0.322500X0.087500X-0.322500X0.087500X-0.322500X-0.087500X0*%
%TD*%
%TA.AperFunction,SMDPad,CuDef*%
%ADD17RoundRect,0.037500X0.222500X-0.087500X0.222500X0.087500X-0.222500X0.087500X-0.222500X-0.087500X0*%
%TD*%
%TA.AperFunction,SMDPad,CuDef*%
%ADD18RoundRect,0.045000X0.380000X-0.105000X0.380000X0.105000X-0.380000X0.105000X-0.380000X-0.105000X0*%
%TD*%
%TA.AperFunction,SMDPad,CuDef*%
%ADD19RoundRect,0.140000X0.170000X-0.140000X0.170000X0.140000X-0.170000X0.140000X-0.170000X-0.140000X0*%
%TD*%
%TA.AperFunction,ComponentPad*%
%ADD20C,1.600000*%
%TD*%
%TA.AperFunction,ViaPad*%
%ADD21C,0.600000*%
%TD*%
%TA.AperFunction,Conductor*%
%ADD22C,0.200000*%
%TD*%
%TA.AperFunction,Conductor*%
%ADD23C,0.203200*%
%TD*%
G04 APERTURE END LIST*
D10*
%TO.P,,*%
%TO.N,*%
X49325000Y16900000D03*
%TD*%
%TO.P,,*%
%TO.N,*%
X1975000Y16900000D03*
%TD*%
D11*
%TO.P,,*%
%TO.N,*%
X1975000Y-16400000D03*
%TD*%
D12*
%TO.P,J3,1,Pin_1*%
%TO.N,IRQ*%
X32250000Y1770000D03*
%TO.P,J3,2,Pin_2*%
%TO.N,AB0*%
X34790000Y1770000D03*
%TO.P,J3,3,Pin_3*%
%TO.N,SCL*%
X37330000Y1770000D03*
%TO.P,J3,4,Pin_4*%
%TO.N,SDA*%
X39870000Y1770000D03*
%TO.P,J3,5,Pin_5*%
%TO.N,3.3V*%
X42410000Y1770000D03*
%TO.P,J3,6,Pin_6*%
%TO.N,GND*%
X44950000Y1770000D03*
%TD*%
%TO.P,J3,1,Pin_1*%
%TO.N,IRQ*%
X32250000Y-11430000D03*
%TO.P,J3,2,Pin_2*%
%TO.N,AB0*%
X34790000Y-11430000D03*
%TO.P,J3,3,Pin_3*%
%TO.N,SCL*%
X37330000Y-11430000D03*
%TO.P,J3,4,Pin_4*%
%TO.N,SDA*%
X39870000Y-11430000D03*
%TO.P,J3,5,Pin_5*%
%TO.N,3.3V*%
X42410000Y-11430000D03*
%TO.P,J3,6,Pin_6*%
%TO.N,GND*%
X44950000Y-11430000D03*
%TD*%
%TO.P,J3,1,Pin_1*%
%TO.N,IRQ*%
X6350000Y1770000D03*
%TO.P,J3,2,Pin_2*%
%TO.N,AB0*%
X8890000Y1770000D03*
%TO.P,J3,3,Pin_3*%
%TO.N,SCL*%
X11430000Y1770000D03*
%TO.P,J3,4,Pin_4*%
%TO.N,SDA*%
X13970000Y1770000D03*
%TO.P,J3,5,Pin_5*%
%TO.N,3.3V*%
X16510000Y1770000D03*
%TO.P,J3,6,Pin_6*%
%TO.N,GND*%
X19050000Y1770000D03*
%TD*%
D13*
%TO.P,C2,1*%
%TO.N,3.3V*%
X27200000Y8310000D03*
%TO.P,C2,2*%
%TO.N,GND*%
X27200000Y7350000D03*
%TD*%
%TO.P,C2,1*%
%TO.N,3.3V*%
X27200000Y-4890000D03*
%TO.P,C2,2*%
%TO.N,GND*%
X27200000Y-5850000D03*
%TD*%
%TO.P,C2,1*%
%TO.N,3.3V*%
X1300000Y8310000D03*
%TO.P,C2,2*%
%TO.N,GND*%
X1300000Y7350000D03*
%TD*%
D14*
%TO.P,R3,1*%
%TO.N,SCL*%
X38600000Y3550000D03*
%TO.P,R3,2*%
%TO.N,Net-(JP4-B)*%
X38600000Y4570000D03*
%TD*%
%TO.P,R3,1*%
%TO.N,SCL*%
X38600000Y-9650000D03*
%TO.P,R3,2*%
%TO.N,Net-(JP4-B)*%
X38600000Y-8630000D03*
%TD*%
%TO.P,R3,1*%
%TO.N,SCL*%
X12700000Y3550000D03*
%TO.P,R3,2*%
%TO.N,Net-(JP4-B)*%
X12700000Y4570000D03*
%TD*%
D15*
%TO.P,FID4,*%
%TO.N,*%
X26700000Y12400000D03*
%TD*%
%TO.P,FID4,*%
%TO.N,*%
X26700000Y-800000D03*
%TD*%
%TO.P,FID4,*%
%TO.N,*%
X800000Y12400000D03*
%TD*%
D16*
%TO.P,U1,1,VDDL*%
%TO.N,3.3V*%
X30775000Y11190000D03*
D17*
%TO.P,U1,2,VSSA*%
%TO.N,GND*%
X28345000Y10890000D03*
D16*
%TO.P,U1,3,VDDA*%
%TO.N,3.3V*%
X30775000Y10590000D03*
D17*
%TO.P,U1,4,~{CSB}/AB1*%
%TO.N,AB1*%
X28345000Y10290000D03*
D16*
%TO.P,U1,5,PICO/SDA*%
%TO.N,SDA*%
X30775000Y9990000D03*
D17*
%TO.P,U1,6,SCK/SCL*%
%TO.N,SCL*%
X28345000Y9690000D03*
D16*
%TO.P,U1,7,PS*%
%TO.N,Net-(JP1-C)*%
X30775000Y9390000D03*
D17*
%TO.P,U1,8,VDDIO*%
%TO.N,3.3V*%
X28345000Y9090000D03*
D16*
%TO.P,U1,9,VSSD*%
%TO.N,GND*%
X30775000Y8790000D03*
D17*
%TO.P,U1,10,VDDD*%
%TO.N,3.3V*%
X28345000Y8490000D03*
D16*
%TO.P,U1,11,POCI/AB0*%
%TO.N,AB0*%
X30775000Y8190000D03*
D17*
%TO.P,U1,12,IRQ*%
%TO.N,IRQ*%
X28345000Y7890000D03*
D16*
%TO.P,U1,13,NC*%
%TO.N,unconnected-(U1-NC-Pad13)*%
X30775000Y7590000D03*
D18*
%TO.P,U1,M1*%
%TO.N,N/C*%
X30710000Y6880000D03*
X30710000Y11900000D03*
%TD*%
D16*
%TO.P,U1,1,VDDL*%
%TO.N,3.3V*%
X30775000Y-2010000D03*
D17*
%TO.P,U1,2,VSSA*%
%TO.N,GND*%
X28345000Y-2310000D03*
D16*
%TO.P,U1,3,VDDA*%
%TO.N,3.3V*%
X30775000Y-2610000D03*
D17*
%TO.P,U1,4,~{CSB}/AB1*%
%TO.N,AB1*%
X28345000Y-2910000D03*
D16*
%TO.P,U1,5,PICO/SDA*%
%TO.N,SDA*%
X30775000Y-3210000D03*
D17*
%TO.P,U1,6,SCK/SCL*%
%TO.N,SCL*%
X28345000Y-3510000D03*
D16*
%TO.P,U1,7,PS*%
%TO.N,Net-(JP1-C)*%
X30775000Y-3810000D03*
D17*
%TO.P,U1,8,VDDIO*%
%TO.N,3.3V*%
X28345000Y-4110000D03*
D16*
%TO.P,U1,9,VSSD*%
%TO.N,GND*%
X30775000Y-4410000D03*
D17*
%TO.P,U1,10,VDDD*%
%TO.N,3.3V*%
X28345000Y-4710000D03*
D16*
%TO.P,U1,11,POCI/AB0*%
%TO.N,AB0*%
X30775000Y-5010000D03*
D17*
%TO.P,U1,12,IRQ*%
%TO.N,IRQ*%
X28345000Y-5310000D03*
D16*
%TO.P,U1,13,NC*%
%TO.N,unconnected-(U1-NC-Pad13)*%
X30775000Y-5610000D03*
D18*
%TO.P,U1,M1*%
%TO.N,N/C*%
X30710000Y-6320000D03*
X30710000Y-1300000D03*
%TD*%
D16*
%TO.P,U1,1,VDDL*%
%TO.N,3.3V*%
X4875000Y11190000D03*
D17*
%TO.P,U1,2,VSSA*%
%TO.N,GND*%
X2445000Y10890000D03*
D16*
%TO.P,U1,3,VDDA*%
%TO.N,3.3V*%
X4875000Y10590000D03*
D17*
%TO.P,U1,4,~{CSB}/AB1*%
%TO.N,AB1*%
X2445000Y10290000D03*
D16*
%TO.P,U1,5,PICO/SDA*%
%TO.N,SDA*%
X4875000Y9990000D03*
D17*
%TO.P,U1,6,SCK/SCL*%
%TO.N,SCL*%
X2445000Y9690000D03*
D16*
%TO.P,U1,7,PS*%
%TO.N,Net-(JP1-C)*%
X4875000Y9390000D03*
D17*
%TO.P,U1,8,VDDIO*%
%TO.N,3.3V*%
X2445000Y9090000D03*
D16*
%TO.P,U1,9,VSSD*%
%TO.N,GND*%
X4875000Y8790000D03*
D17*
%TO.P,U1,10,VDDD*%
%TO.N,3.3V*%
X2445000Y8490000D03*
D16*
%TO.P,U1,11,POCI/AB0*%
%TO.N,AB0*%
X4875000Y8190000D03*
D17*
%TO.P,U1,12,IRQ*%
%TO.N,IRQ*%
X2445000Y7890000D03*
D16*
%TO.P,U1,13,NC*%
%TO.N,unconnected-(U1-NC-Pad13)*%
X4875000Y7590000D03*
D18*
%TO.P,U1,M1*%
%TO.N,N/C*%
X4810000Y6880000D03*
X4810000Y11900000D03*
%TD*%
D15*
%TO.P,FID2,*%
%TO.N,*%
X50480000Y1310000D03*
%TD*%
%TO.P,FID2,*%
%TO.N,*%
X50480000Y-11890000D03*
%TD*%
%TO.P,FID2,*%
%TO.N,*%
X24580000Y1310000D03*
%TD*%
D14*
%TO.P,R5,1*%
%TO.N,SDA*%
X41170000Y3550000D03*
%TO.P,R5,2*%
%TO.N,Net-(JP4-A)*%
X41170000Y4570000D03*
%TD*%
%TO.P,R5,1*%
%TO.N,SDA*%
X41170000Y-9650000D03*
%TO.P,R5,2*%
%TO.N,Net-(JP4-A)*%
X41170000Y-8630000D03*
%TD*%
%TO.P,R5,1*%
%TO.N,SDA*%
X15270000Y3550000D03*
%TO.P,R5,2*%
%TO.N,Net-(JP4-A)*%
X15270000Y4570000D03*
%TD*%
D19*
%TO.P,C1,1*%
%TO.N,3.3V*%
X27200000Y9270000D03*
%TO.P,C1,2*%
%TO.N,GND*%
X27200000Y10230000D03*
%TD*%
%TO.P,C1,1*%
%TO.N,3.3V*%
X27200000Y-3930000D03*
%TO.P,C1,2*%
%TO.N,GND*%
X27200000Y-2970000D03*
%TD*%
%TO.P,C1,1*%
%TO.N,3.3V*%
X1300000Y9270000D03*
%TO.P,C1,2*%
%TO.N,GND*%
X1300000Y10230000D03*
%TD*%
D14*
%TO.P,R4,1*%
%TO.N,3.3V*%
X43680000Y3550000D03*
%TO.P,R4,2*%
%TO.N,Net-(JP3-A)*%
X43680000Y4570000D03*
%TD*%
%TO.P,R4,1*%
%TO.N,3.3V*%
X43680000Y-9650000D03*
%TO.P,R4,2*%
%TO.N,Net-(JP3-A)*%
X43680000Y-8630000D03*
%TD*%
%TO.P,R4,1*%
%TO.N,3.3V*%
X17780000Y3550000D03*
%TO.P,R4,2*%
%TO.N,Net-(JP3-A)*%
X17780000Y4570000D03*
%TD*%
D20*
%TO.P,J4,1,Pin_1*%
%TO.N,AB1*%
X50030000Y6850000D03*
%TD*%
%TO.P,J4,1,Pin_1*%
%TO.N,AB1*%
X50030000Y-6350000D03*
%TD*%
%TO.P,J4,1,Pin_1*%
%TO.N,AB1*%
X24130000Y6850000D03*
%TD*%
D14*
%TO.P,R2,1*%
%TO.N,3.3V*%
X33520000Y3550000D03*
%TO.P,R2,2*%
%TO.N,Net-(JP2-A)*%
X33520000Y4570000D03*
%TD*%
%TO.P,R2,1*%
%TO.N,3.3V*%
X33520000Y-9650000D03*
%TO.P,R2,2*%
%TO.N,Net-(JP2-A)*%
X33520000Y-8630000D03*
%TD*%
%TO.P,R2,1*%
%TO.N,3.3V*%
X7620000Y3550000D03*
%TO.P,R2,2*%
%TO.N,Net-(JP2-A)*%
X7620000Y4570000D03*
%TD*%
%TO.P,R1,1*%
%TO.N,3.3V*%
X36060000Y3550000D03*
%TO.P,R1,2*%
%TO.N,Net-(JP1-A)*%
X36060000Y4570000D03*
%TD*%
%TO.P,R1,1*%
%TO.N,3.3V*%
X36060000Y-9650000D03*
%TO.P,R1,2*%
%TO.N,Net-(JP1-A)*%
X36060000Y-8630000D03*
%TD*%
%TO.P,R1,1*%
%TO.N,3.3V*%
X10160000Y3550000D03*
%TO.P,R1,2*%
%TO.N,Net-(JP1-A)*%
X10160000Y4570000D03*
%TD*%
%TO.P,R1,1*%
%TO.N,3.3V*%
X10160000Y-9650000D03*
%TO.P,R1,2*%
%TO.N,Net-(JP1-A)*%
X10160000Y-8630000D03*
%TD*%
%TO.P,R2,1*%
%TO.N,3.3V*%
X7620000Y-9650000D03*
%TO.P,R2,2*%
%TO.N,Net-(JP2-A)*%
X7620000Y-8630000D03*
%TD*%
D20*
%TO.P,J4,1,Pin_1*%
%TO.N,AB1*%
X24130000Y-6350000D03*
%TD*%
D14*
%TO.P,R4,1*%
%TO.N,3.3V*%
X17780000Y-9650000D03*
%TO.P,R4,2*%
%TO.N,Net-(JP3-A)*%
X17780000Y-8630000D03*
%TD*%
D19*
%TO.P,C1,1*%
%TO.N,3.3V*%
X1300000Y-3930000D03*
%TO.P,C1,2*%
%TO.N,GND*%
X1300000Y-2970000D03*
%TD*%
D14*
%TO.P,R5,1*%
%TO.N,SDA*%
X15270000Y-9650000D03*
%TO.P,R5,2*%
%TO.N,Net-(JP4-A)*%
X15270000Y-8630000D03*
%TD*%
D15*
%TO.P,FID2,*%
%TO.N,*%
X24580000Y-11890000D03*
%TD*%
D16*
%TO.P,U1,1,VDDL*%
%TO.N,3.3V*%
X4875000Y-2010000D03*
D17*
%TO.P,U1,2,VSSA*%
%TO.N,GND*%
X2445000Y-2310000D03*
D16*
%TO.P,U1,3,VDDA*%
%TO.N,3.3V*%
X4875000Y-2610000D03*
D17*
%TO.P,U1,4,~{CSB}/AB1*%
%TO.N,AB1*%
X2445000Y-2910000D03*
D16*
%TO.P,U1,5,PICO/SDA*%
%TO.N,SDA*%
X4875000Y-3210000D03*
D17*
%TO.P,U1,6,SCK/SCL*%
%TO.N,SCL*%
X2445000Y-3510000D03*
D16*
%TO.P,U1,7,PS*%
%TO.N,Net-(JP1-C)*%
X4875000Y-3810000D03*
D17*
%TO.P,U1,8,VDDIO*%
%TO.N,3.3V*%
X2445000Y-4110000D03*
D16*
%TO.P,U1,9,VSSD*%
%TO.N,GND*%
X4875000Y-4410000D03*
D17*
%TO.P,U1,10,VDDD*%
%TO.N,3.3V*%
X2445000Y-4710000D03*
D16*
%TO.P,U1,11,POCI/AB0*%
%TO.N,AB0*%
X4875000Y-5010000D03*
D17*
%TO.P,U1,12,IRQ*%
%TO.N,IRQ*%
X2445000Y-5310000D03*
D16*
%TO.P,U1,13,NC*%
%TO.N,unconnected-(U1-NC-Pad13)*%
X4875000Y-5610000D03*
D18*
%TO.P,U1,M1*%
%TO.N,N/C*%
X4810000Y-6320000D03*
X4810000Y-1300000D03*
%TD*%
D15*
%TO.P,FID4,*%
%TO.N,*%
X800000Y-800000D03*
%TD*%
D14*
%TO.P,R3,1*%
%TO.N,SCL*%
X12700000Y-9650000D03*
%TO.P,R3,2*%
%TO.N,Net-(JP4-B)*%
X12700000Y-8630000D03*
%TD*%
D13*
%TO.P,C2,1*%
%TO.N,3.3V*%
X1300000Y-4890000D03*
%TO.P,C2,2*%
%TO.N,GND*%
X1300000Y-5850000D03*
%TD*%
D12*
%TO.P,J3,1,Pin_1*%
%TO.N,IRQ*%
X6350000Y-11430000D03*
%TO.P,J3,2,Pin_2*%
%TO.N,AB0*%
X8890000Y-11430000D03*
%TO.P,J3,3,Pin_3*%
%TO.N,SCL*%
X11430000Y-11430000D03*
%TO.P,J3,4,Pin_4*%
%TO.N,SDA*%
X13970000Y-11430000D03*
%TO.P,J3,5,Pin_5*%
%TO.N,3.3V*%
X16510000Y-11430000D03*
%TO.P,J3,6,Pin_6*%
%TO.N,GND*%
X19050000Y-11430000D03*
%TD*%
D21*
%TO.N,Net-(JP4-B)*%
X38610000Y5910000D03*
X38610000Y-7290000D03*
X12710000Y5910000D03*
%TO.N,Net-(JP4-A)*%
X38966666Y9884998D03*
X38966666Y-3315002D03*
X13066666Y9884998D03*
%TO.N,Net-(JP3-A)*%
X43690000Y5010000D03*
X43690000Y-8190000D03*
X17790000Y5010000D03*
%TO.N,3.3V*%
X31459266Y11393029D03*
X31459266Y-1806971D03*
X5559266Y11393029D03*
X36710000Y5600000D03*
X36710000Y-7600000D03*
X10810000Y5600000D03*
X27200000Y8780000D03*
X27200000Y-4420000D03*
X1300000Y8780000D03*
X34760000Y5190000D03*
X34760000Y-8010000D03*
X8860000Y5190000D03*
X37160000Y7430000D03*
X37160000Y-5770000D03*
X11260000Y7430000D03*
%TO.N,SCL*%
X28920000Y6790000D03*
X28920000Y-6410000D03*
X3020000Y6790000D03*
%TO.N,SDA*%
X32598398Y7680000D03*
X32598398Y-5520000D03*
X6698398Y7680000D03*
%TO.N,Net-(JP2-A)*%
X33542592Y5218392D03*
X33542592Y-7981608D03*
X7642592Y5218392D03*
%TO.N,Net-(JP1-A)*%
X37140000Y8720000D03*
X37140000Y-4480000D03*
X11240000Y8720000D03*
%TO.N,AB1*%
X41070000Y2660000D03*
X41070000Y-10540000D03*
X15170000Y2660000D03*
X31480000Y5250000D03*
X31480000Y-7950000D03*
X5580000Y5250000D03*
X42882851Y3875699D03*
X42882851Y-9324301D03*
X16982851Y3875699D03*
%TO.N,Net-(JP1-C)*%
X32518400Y9136000D03*
X32518400Y-4064000D03*
X6618400Y9136000D03*
X37102462Y9519121D03*
X37102462Y-3680879D03*
X11202462Y9519121D03*
X34802000Y9563225D03*
X34802000Y-3636775D03*
X8902000Y9563225D03*
%TO.N,GND*%
X32569596Y6831196D03*
X32569596Y-6368804D03*
X6669596Y6831196D03*
X44950000Y6596000D03*
X44950000Y-6604000D03*
X19050000Y6596000D03*
X44950000Y10660000D03*
X44950000Y-2540000D03*
X19050000Y10660000D03*
X43680000Y10660000D03*
X43680000Y-2540000D03*
X17780000Y10660000D03*
X36310000Y9400000D03*
X36310000Y-3800000D03*
X10410000Y9400000D03*
X44950000Y8120000D03*
X44950000Y-5080000D03*
X19050000Y8120000D03*
X46220000Y6596000D03*
X46220000Y-6604000D03*
X20320000Y6596000D03*
X46220000Y8120000D03*
X46220000Y-5080000D03*
X20320000Y8120000D03*
X41140000Y6596000D03*
X41140000Y-6604000D03*
X15240000Y6596000D03*
X37590000Y6560000D03*
X37590000Y-6640000D03*
X11690000Y6560000D03*
X34820149Y8763429D03*
X34820149Y-4436571D03*
X8920149Y8763429D03*
X41140000Y12184000D03*
X41140000Y-1016000D03*
X15240000Y12184000D03*
X47490000Y9390000D03*
X47490000Y-3810000D03*
X21590000Y9390000D03*
X47490000Y8120000D03*
X47490000Y-5080000D03*
X21590000Y8120000D03*
X43680000Y12184000D03*
X43680000Y-1016000D03*
X17780000Y12184000D03*
X39823200Y4000484D03*
X39823200Y-9199516D03*
X13923200Y4000484D03*
X42410000Y8120000D03*
X42410000Y-5080000D03*
X16510000Y8120000D03*
X35360000Y12500000D03*
X35360000Y-700000D03*
X9460000Y12500000D03*
X31540000Y6140000D03*
X31540000Y-7060000D03*
X5640000Y6140000D03*
X44950000Y12184000D03*
X44950000Y-1016000D03*
X19050000Y12184000D03*
X46220000Y10660000D03*
X46220000Y-2540000D03*
X20320000Y10660000D03*
X43680000Y8120000D03*
X43680000Y-5080000D03*
X17780000Y8120000D03*
X41140000Y8120000D03*
X41140000Y-5080000D03*
X15240000Y8120000D03*
X42410000Y12184000D03*
X42410000Y-1016000D03*
X16510000Y12184000D03*
X47490000Y12184000D03*
X47490000Y-1016000D03*
X21590000Y12184000D03*
X31240000Y12540000D03*
X31240000Y-660000D03*
X5340000Y12540000D03*
X47490000Y10660000D03*
X47490000Y-2540000D03*
X21590000Y10660000D03*
X41140000Y10660000D03*
X41140000Y-2540000D03*
X15240000Y10660000D03*
X44950000Y9390000D03*
X44950000Y-3810000D03*
X19050000Y9390000D03*
X47490000Y6596000D03*
X47490000Y-6604000D03*
X21590000Y6596000D03*
X40910000Y5530000D03*
X40910000Y-7670000D03*
X15010000Y5530000D03*
X42410000Y6596000D03*
X42410000Y-6604000D03*
X16510000Y6596000D03*
X46220000Y12184000D03*
X46220000Y-1016000D03*
X20320000Y12184000D03*
X31833065Y8540690D03*
X31833065Y-4659310D03*
X5933065Y8540690D03*
X28890000Y5990000D03*
X28890000Y-7210000D03*
X2990000Y5990000D03*
X41140000Y9390000D03*
X41140000Y-3810000D03*
X15240000Y9390000D03*
X42410000Y9390000D03*
X42410000Y-3810000D03*
X16510000Y9390000D03*
X30620000Y2470000D03*
X30620000Y-10730000D03*
X4720000Y2470000D03*
X46220000Y9390000D03*
X46220000Y-3810000D03*
X20320000Y9390000D03*
X26550000Y10990000D03*
X26550000Y-2210000D03*
X650000Y10990000D03*
X43680000Y9390000D03*
X43680000Y-3810000D03*
X17780000Y9390000D03*
X42410000Y10660000D03*
X42410000Y-2540000D03*
X16510000Y10660000D03*
X29490000Y11850000D03*
X29490000Y-1350000D03*
X3590000Y11850000D03*
X27840000Y5170000D03*
X27840000Y-8030000D03*
X1940000Y5170000D03*
X43680000Y6596000D03*
X43680000Y-6604000D03*
X17780000Y6596000D03*
%TO.N,AB0*%
X34079680Y5811300D03*
X34079680Y-7388700D03*
X8179680Y5811300D03*
X8179680Y-7388700D03*
%TO.N,GND*%
X17780000Y-6604000D03*
X1940000Y-8030000D03*
X3590000Y-1350000D03*
X16510000Y-2540000D03*
X17780000Y-3810000D03*
X650000Y-2210000D03*
X20320000Y-3810000D03*
X4720000Y-10730000D03*
X16510000Y-3810000D03*
X15240000Y-3810000D03*
X2990000Y-7210000D03*
X5933065Y-4659310D03*
X20320000Y-1016000D03*
X16510000Y-6604000D03*
X15010000Y-7670000D03*
X21590000Y-6604000D03*
X19050000Y-3810000D03*
X15240000Y-2540000D03*
X21590000Y-2540000D03*
X5340000Y-660000D03*
X21590000Y-1016000D03*
X16510000Y-1016000D03*
X15240000Y-5080000D03*
X17780000Y-5080000D03*
X20320000Y-2540000D03*
X19050000Y-1016000D03*
X5640000Y-7060000D03*
X9460000Y-700000D03*
X16510000Y-5080000D03*
X13923200Y-9199516D03*
X17780000Y-1016000D03*
X21590000Y-5080000D03*
X21590000Y-3810000D03*
X15240000Y-1016000D03*
X8920149Y-4436571D03*
X11690000Y-6640000D03*
X15240000Y-6604000D03*
X20320000Y-5080000D03*
X20320000Y-6604000D03*
X19050000Y-5080000D03*
X10410000Y-3800000D03*
X17780000Y-2540000D03*
X19050000Y-2540000D03*
X19050000Y-6604000D03*
X6669596Y-6368804D03*
%TO.N,Net-(JP1-C)*%
X8902000Y-3636775D03*
X11202462Y-3680879D03*
X6618400Y-4064000D03*
%TO.N,AB1*%
X16982851Y-9324301D03*
X5580000Y-7950000D03*
X15170000Y-10540000D03*
%TO.N,Net-(JP1-A)*%
X11240000Y-4480000D03*
%TO.N,Net-(JP2-A)*%
X7642592Y-7981608D03*
%TO.N,SDA*%
X6698398Y-5520000D03*
%TO.N,SCL*%
X3020000Y-6410000D03*
%TO.N,3.3V*%
X11260000Y-5770000D03*
X8860000Y-8010000D03*
X1300000Y-4420000D03*
X10810000Y-7600000D03*
X5559266Y-1806971D03*
%TO.N,Net-(JP3-A)*%
X17790000Y-8190000D03*
%TO.N,Net-(JP4-A)*%
X13066666Y-3315002D03*
%TO.N,Net-(JP4-B)*%
X12710000Y-7290000D03*
%TD*%
D22*
%TO.N,Net-(JP4-B)*%
X38600000Y4570000D02*
X38600000Y5900000D01*
X38600000Y-8630000D02*
X38600000Y-7300000D01*
X12700000Y4570000D02*
X12700000Y5900000D01*
X38600000Y5900000D02*
X38610000Y5910000D01*
X38600000Y-7300000D02*
X38610000Y-7290000D01*
X12700000Y5900000D02*
X12710000Y5910000D01*
D23*
%TO.N,Net-(JP4-A)*%
X39600000Y3320000D02*
X40060000Y3320000D01*
X39600000Y-9880000D02*
X40060000Y-9880000D01*
X13700000Y3320000D02*
X14160000Y3320000D01*
X40060000Y3320000D02*
X40424800Y3684800D01*
X40060000Y-9880000D02*
X40424800Y-9515200D01*
X14160000Y3320000D02*
X14524800Y3684800D01*
X40424800Y3684800D02*
X40424800Y3894800D01*
X40424800Y-9515200D02*
X40424800Y-9305200D01*
X14524800Y3684800D02*
X14524800Y3894800D01*
X41100000Y4570000D02*
X41170000Y4570000D01*
X41100000Y-8630000D02*
X41170000Y-8630000D01*
X15200000Y4570000D02*
X15270000Y4570000D01*
X38966666Y9884998D02*
X39221600Y9630064D01*
X38966666Y-3315002D02*
X39221600Y-3569936D01*
X13066666Y9884998D02*
X13321600Y9630064D01*
X40424800Y3894800D02*
X41100000Y4570000D01*
X40424800Y-9305200D02*
X41100000Y-8630000D01*
X14524800Y3894800D02*
X15200000Y4570000D01*
X39221600Y9630064D02*
X39221600Y3698400D01*
X39221600Y-3569936D02*
X39221600Y-9501600D01*
X13321600Y9630064D02*
X13321600Y3698400D01*
X39221600Y3698400D02*
X39600000Y3320000D01*
X39221600Y-9501600D02*
X39600000Y-9880000D01*
X13321600Y3698400D02*
X13700000Y3320000D01*
D22*
%TO.N,Net-(JP3-A)*%
X43680000Y5000000D02*
X43690000Y5010000D01*
X43680000Y-8200000D02*
X43690000Y-8190000D01*
X17780000Y5000000D02*
X17790000Y5010000D01*
X43680000Y4570000D02*
X43680000Y5000000D01*
X43680000Y-8630000D02*
X43680000Y-8200000D01*
X17780000Y4570000D02*
X17780000Y5000000D01*
D23*
%TO.N,IRQ*%
X28345000Y7395000D02*
X28240000Y7290000D01*
X28345000Y-5805000D02*
X28240000Y-5910000D01*
X2445000Y7395000D02*
X2340000Y7290000D01*
X28240000Y5670000D02*
X28680000Y5230000D01*
X28240000Y-7530000D02*
X28680000Y-7970000D01*
X2340000Y5670000D02*
X2780000Y5230000D01*
X29190000Y5230000D02*
X30670000Y3750000D01*
X29190000Y-7970000D02*
X30670000Y-9450000D01*
X3290000Y5230000D02*
X4770000Y3750000D01*
X28680000Y5230000D02*
X29190000Y5230000D01*
X28680000Y-7970000D02*
X29190000Y-7970000D01*
X2780000Y5230000D02*
X3290000Y5230000D01*
X30670000Y3750000D02*
X30670000Y3350000D01*
X30670000Y-9450000D02*
X30670000Y-9850000D01*
X4770000Y3750000D02*
X4770000Y3350000D01*
X28240000Y7290000D02*
X28240000Y5670000D01*
X28240000Y-5910000D02*
X28240000Y-7530000D01*
X2340000Y7290000D02*
X2340000Y5670000D01*
X30670000Y3350000D02*
X32250000Y1770000D01*
X30670000Y-9850000D02*
X32250000Y-11430000D01*
X4770000Y3350000D02*
X6350000Y1770000D01*
X28345000Y7890000D02*
X28345000Y7395000D01*
X28345000Y-5310000D02*
X28345000Y-5805000D01*
X2445000Y7890000D02*
X2445000Y7395000D01*
%TO.N,3.3V*%
X42410000Y1770000D02*
X43680000Y3040000D01*
X42410000Y-11430000D02*
X43680000Y-10160000D01*
X16510000Y1770000D02*
X17780000Y3040000D01*
D22*
X27200000Y9270000D02*
X27200000Y8310000D01*
X27200000Y-3930000D02*
X27200000Y-4890000D01*
X1300000Y9270000D02*
X1300000Y8310000D01*
D23*
X36710000Y5600000D02*
X36710000Y6980000D01*
X36710000Y-7600000D02*
X36710000Y-6220000D01*
X10810000Y5600000D02*
X10810000Y6980000D01*
D22*
X33520000Y3550000D02*
X34760000Y4790000D01*
X33520000Y-9650000D02*
X34760000Y-8410000D01*
X7620000Y3550000D02*
X8860000Y4790000D01*
X36710000Y4200000D02*
X36710000Y5600000D01*
X36710000Y-9000000D02*
X36710000Y-7600000D01*
X10810000Y4200000D02*
X10810000Y5600000D01*
X27380000Y8490000D02*
X27200000Y8310000D01*
X27380000Y-4710000D02*
X27200000Y-4890000D01*
X1480000Y8490000D02*
X1300000Y8310000D01*
X28345000Y9090000D02*
X27380000Y9090000D01*
X28345000Y-4110000D02*
X27380000Y-4110000D01*
X2445000Y9090000D02*
X1480000Y9090000D01*
D23*
X36710000Y6980000D02*
X37160000Y7430000D01*
X36710000Y-6220000D02*
X37160000Y-5770000D01*
X10810000Y6980000D02*
X11260000Y7430000D01*
X31459266Y10769266D02*
X31280000Y10590000D01*
X31459266Y-2430734D02*
X31280000Y-2610000D01*
X5559266Y10769266D02*
X5380000Y10590000D01*
D22*
X28345000Y8490000D02*
X27380000Y8490000D01*
X28345000Y-4710000D02*
X27380000Y-4710000D01*
X2445000Y8490000D02*
X1480000Y8490000D01*
D23*
X31361724Y11190000D02*
X30775000Y11190000D01*
X31361724Y-2010000D02*
X30775000Y-2010000D01*
X5461724Y11190000D02*
X4875000Y11190000D01*
D22*
X34760000Y4790000D02*
X34760000Y5190000D01*
X34760000Y-8410000D02*
X34760000Y-8010000D01*
X8860000Y4790000D02*
X8860000Y5190000D01*
D23*
X43680000Y3040000D02*
X43680000Y3550000D01*
X43680000Y-10160000D02*
X43680000Y-9650000D01*
X17780000Y3040000D02*
X17780000Y3550000D01*
X31459266Y11287542D02*
X31361724Y11190000D01*
X31459266Y-1912458D02*
X31361724Y-2010000D01*
X5559266Y11287542D02*
X5461724Y11190000D01*
X31280000Y10590000D02*
X30775000Y10590000D01*
X31280000Y-2610000D02*
X30775000Y-2610000D01*
X5380000Y10590000D02*
X4875000Y10590000D01*
D22*
X27380000Y9090000D02*
X27200000Y9270000D01*
X27380000Y-4110000D02*
X27200000Y-3930000D01*
X1480000Y9090000D02*
X1300000Y9270000D01*
D23*
X31459266Y11393029D02*
X31459266Y10769266D01*
X31459266Y-1806971D02*
X31459266Y-2430734D01*
X5559266Y11393029D02*
X5559266Y10769266D01*
X31459266Y11393029D02*
X31459266Y11287542D01*
X31459266Y-1806971D02*
X31459266Y-1912458D01*
X5559266Y11393029D02*
X5559266Y11287542D01*
D22*
X27200000Y8780000D02*
X27200000Y9270000D01*
X27200000Y-4420000D02*
X27200000Y-3930000D01*
X1300000Y8780000D02*
X1300000Y9270000D01*
X36060000Y3550000D02*
X36710000Y4200000D01*
X36060000Y-9650000D02*
X36710000Y-9000000D01*
X10160000Y3550000D02*
X10810000Y4200000D01*
D23*
%TO.N,SCL*%
X28906600Y9493400D02*
X28906600Y6803400D01*
X28906600Y-3706600D02*
X28906600Y-6396600D01*
X3006600Y9493400D02*
X3006600Y6803400D01*
X38600000Y3040000D02*
X38600000Y3550000D01*
X38600000Y-10160000D02*
X38600000Y-9650000D01*
X12700000Y3040000D02*
X12700000Y3550000D01*
X28345000Y9690000D02*
X28710000Y9690000D01*
X28345000Y-3510000D02*
X28710000Y-3510000D01*
X2445000Y9690000D02*
X2810000Y9690000D01*
X28870000Y9530000D02*
X28906600Y9493400D01*
X28870000Y-3670000D02*
X28906600Y-3706600D01*
X2970000Y9530000D02*
X3006600Y9493400D01*
X37330000Y1770000D02*
X38600000Y3040000D01*
X37330000Y-11430000D02*
X38600000Y-10160000D01*
X11430000Y1770000D02*
X12700000Y3040000D01*
X28906600Y6803400D02*
X28920000Y6790000D01*
X28906600Y-6396600D02*
X28920000Y-6410000D01*
X3006600Y6803400D02*
X3020000Y6790000D01*
X28710000Y9690000D02*
X28870000Y9530000D01*
X28710000Y-3510000D02*
X28870000Y-3670000D01*
X2810000Y9690000D02*
X2970000Y9530000D01*
%TO.N,SDA*%
X32598398Y7680000D02*
X33120000Y8201602D01*
X32598398Y-5520000D02*
X33120000Y-4998398D01*
X6698398Y7680000D02*
X7220000Y8201602D01*
X39870000Y1770000D02*
X39870000Y2320000D01*
X39870000Y-11430000D02*
X39870000Y-10880000D01*
X13970000Y1770000D02*
X13970000Y2320000D01*
X32574103Y9990000D02*
X30775000Y9990000D01*
X32574103Y-3210000D02*
X30775000Y-3210000D01*
X6674103Y9990000D02*
X4875000Y9990000D01*
X33120000Y8201602D02*
X33120000Y9444103D01*
X33120000Y-4998398D02*
X33120000Y-3755897D01*
X7220000Y8201602D02*
X7220000Y9444103D01*
X33120000Y9444103D02*
X32574103Y9990000D01*
X33120000Y-3755897D02*
X32574103Y-3210000D01*
X7220000Y9444103D02*
X6674103Y9990000D01*
X39870000Y2320000D02*
X41100000Y3550000D01*
X39870000Y-10880000D02*
X41100000Y-9650000D01*
X13970000Y2320000D02*
X15200000Y3550000D01*
X41100000Y3550000D02*
X41170000Y3550000D01*
X41100000Y-9650000D02*
X41170000Y-9650000D01*
X15200000Y3550000D02*
X15270000Y3550000D01*
D22*
%TO.N,Net-(JP2-A)*%
X33520000Y5195800D02*
X33542592Y5218392D01*
X33520000Y-8004200D02*
X33542592Y-7981608D01*
X7620000Y5195800D02*
X7642592Y5218392D01*
X33520000Y4570000D02*
X33520000Y5195800D01*
X33520000Y-8630000D02*
X33520000Y-8004200D01*
X7620000Y4570000D02*
X7620000Y5195800D01*
D23*
%TO.N,Net-(JP1-A)*%
X37140000Y8720000D02*
X37120000Y8720000D01*
X37140000Y-4480000D02*
X37120000Y-4480000D01*
X11240000Y8720000D02*
X11220000Y8720000D01*
X36060000Y7660000D02*
X36060000Y4570000D01*
X36060000Y-5540000D02*
X36060000Y-8630000D01*
X10160000Y7660000D02*
X10160000Y4570000D01*
X37120000Y8720000D02*
X36060000Y7660000D01*
X37120000Y-4480000D02*
X36060000Y-5540000D01*
X11220000Y8720000D02*
X10160000Y7660000D01*
%TO.N,AB1*%
X29521600Y6368400D02*
X30640000Y5250000D01*
X29521600Y-6831600D02*
X30640000Y-7950000D01*
X3621600Y6368400D02*
X4740000Y5250000D01*
X42436887Y3875699D02*
X41221188Y2660000D01*
X42436887Y-9324301D02*
X41221188Y-10540000D01*
X16536887Y3875699D02*
X15321188Y2660000D01*
X41221188Y2660000D02*
X41070000Y2660000D01*
X41221188Y-10540000D02*
X41070000Y-10540000D01*
X15321188Y2660000D02*
X15170000Y2660000D01*
X42882851Y3875699D02*
X42436887Y3875699D01*
X42882851Y-9324301D02*
X42436887Y-9324301D01*
X16982851Y3875699D02*
X16536887Y3875699D01*
X29309800Y9660410D02*
X29309800Y7250991D01*
X29309800Y-3539590D02*
X29309800Y-5949009D01*
X3409800Y9660410D02*
X3409800Y7250991D01*
X28680210Y10290000D02*
X29309800Y9660410D01*
X28680210Y-2910000D02*
X29309800Y-3539590D01*
X2780210Y10290000D02*
X3409800Y9660410D01*
X29521600Y7039191D02*
X29521600Y6368400D01*
X29521600Y-6160809D02*
X29521600Y-6831600D01*
X3621600Y7039191D02*
X3621600Y6368400D01*
X29309800Y7250991D02*
X29521600Y7039191D01*
X29309800Y-5949009D02*
X29521600Y-6160809D01*
X3409800Y7250991D02*
X3621600Y7039191D01*
X30640000Y5250000D02*
X31480000Y5250000D01*
X30640000Y-7950000D02*
X31480000Y-7950000D01*
X4740000Y5250000D02*
X5580000Y5250000D01*
X28345000Y10290000D02*
X28680210Y10290000D01*
X28345000Y-2910000D02*
X28680210Y-2910000D01*
X2445000Y10290000D02*
X2780210Y10290000D01*
%TO.N,Net-(JP1-C)*%
X34802000Y9563225D02*
X35240375Y10001600D01*
X34802000Y-3636775D02*
X35240375Y-3198400D01*
X8902000Y9563225D02*
X9340375Y10001600D01*
X32518400Y9136000D02*
X32264400Y9390000D01*
X32518400Y-4064000D02*
X32264400Y-3810000D01*
X6618400Y9136000D02*
X6364400Y9390000D01*
X32264400Y9390000D02*
X30775000Y9390000D01*
X32264400Y-3810000D02*
X30775000Y-3810000D01*
X6364400Y9390000D02*
X4875000Y9390000D01*
X36559191Y10001600D02*
X36911600Y9649191D01*
X36559191Y-3198400D02*
X36911600Y-3550809D01*
X10659191Y10001600D02*
X11011600Y9649191D01*
X36911600Y9519121D02*
X37102462Y9519121D01*
X36911600Y-3680879D02*
X37102462Y-3680879D01*
X11011600Y9519121D02*
X11202462Y9519121D01*
X35240375Y10001600D02*
X36559191Y10001600D01*
X35240375Y-3198400D02*
X36559191Y-3198400D01*
X9340375Y10001600D02*
X10659191Y10001600D01*
X36911600Y9649191D02*
X36911600Y9519121D01*
X36911600Y-3550809D02*
X36911600Y-3680879D01*
X11011600Y9649191D02*
X11011600Y9519121D01*
%TO.N,GND*%
X26650000Y10890000D02*
X26550000Y10990000D01*
X26650000Y-2310000D02*
X26550000Y-2210000D01*
X750000Y10890000D02*
X650000Y10990000D01*
X28345000Y10890000D02*
X29057955Y10890000D01*
X28345000Y-2310000D02*
X29057955Y-2310000D01*
X2445000Y10890000D02*
X3157955Y10890000D01*
X31583755Y8790000D02*
X30775000Y8790000D01*
X31583755Y-4410000D02*
X30775000Y-4410000D01*
X5683755Y8790000D02*
X4875000Y8790000D01*
X28345000Y10890000D02*
X26650000Y10890000D01*
X28345000Y-2310000D02*
X26650000Y-2310000D01*
X2445000Y10890000D02*
X750000Y10890000D01*
X30775000Y8790000D02*
X29950000Y8790000D01*
X30775000Y-4410000D02*
X29950000Y-4410000D01*
X4875000Y8790000D02*
X4050000Y8790000D01*
X31833065Y8540690D02*
X31583755Y8790000D01*
X31833065Y-4659310D02*
X31583755Y-4410000D01*
X5933065Y8540690D02*
X5683755Y8790000D01*
%TO.N,AB0*%
X34790000Y2900000D02*
X34790000Y1770000D01*
X34790000Y-10300000D02*
X34790000Y-11430000D01*
X8890000Y2900000D02*
X8890000Y1770000D01*
X34079680Y5811300D02*
X35108700Y5811300D01*
X34079680Y-7388700D02*
X35108700Y-7388700D01*
X8179680Y5811300D02*
X9208700Y5811300D01*
X32330000Y6220000D02*
X33670980Y6220000D01*
X32330000Y-6980000D02*
X33670980Y-6980000D01*
X6430000Y6220000D02*
X7770980Y6220000D01*
X31436600Y7113400D02*
X32330000Y6220000D01*
X31436600Y-6086600D02*
X32330000Y-6980000D01*
X5536600Y7113400D02*
X6430000Y6220000D01*
X35361600Y5558400D02*
X35361600Y3471600D01*
X35361600Y-7641600D02*
X35361600Y-9728400D01*
X9461600Y5558400D02*
X9461600Y3471600D01*
X33670980Y6220000D02*
X34079680Y5811300D01*
X33670980Y-6980000D02*
X34079680Y-7388700D01*
X7770980Y6220000D02*
X8179680Y5811300D01*
X35361600Y3471600D02*
X34790000Y2900000D01*
X35361600Y-9728400D02*
X34790000Y-10300000D01*
X9461600Y3471600D02*
X8890000Y2900000D01*
X31436600Y7819000D02*
X31436600Y7113400D01*
X31436600Y-5381000D02*
X31436600Y-6086600D01*
X5536600Y7819000D02*
X5536600Y7113400D01*
X35108700Y5811300D02*
X35361600Y5558400D01*
X35108700Y-7388700D02*
X35361600Y-7641600D01*
X9208700Y5811300D02*
X9461600Y5558400D01*
X31065600Y8190000D02*
X31436600Y7819000D01*
X31065600Y-5010000D02*
X31436600Y-5381000D01*
X5165600Y8190000D02*
X5536600Y7819000D01*
X30775000Y8190000D02*
X31065600Y8190000D01*
X30775000Y-5010000D02*
X31065600Y-5010000D01*
X4875000Y8190000D02*
X5165600Y8190000D01*
X4875000Y-5010000D02*
X5165600Y-5010000D01*
X5165600Y-5010000D02*
X5536600Y-5381000D01*
X9208700Y-7388700D02*
X9461600Y-7641600D01*
X5536600Y-5381000D02*
X5536600Y-6086600D01*
X9461600Y-9728400D02*
X8890000Y-10300000D01*
X7770980Y-6980000D02*
X8179680Y-7388700D01*
X9461600Y-7641600D02*
X9461600Y-9728400D01*
X5536600Y-6086600D02*
X6430000Y-6980000D01*
X6430000Y-6980000D02*
X7770980Y-6980000D01*
X8179680Y-7388700D02*
X9208700Y-7388700D01*
X8890000Y-10300000D02*
X8890000Y-11430000D01*
%TO.N,GND*%
X5933065Y-4659310D02*
X5683755Y-4410000D01*
X4875000Y-4410000D02*
X4050000Y-4410000D01*
X2445000Y-2310000D02*
X750000Y-2310000D01*
X5683755Y-4410000D02*
X4875000Y-4410000D01*
X2445000Y-2310000D02*
X3157955Y-2310000D01*
X750000Y-2310000D02*
X650000Y-2210000D01*
%TO.N,Net-(JP1-C)*%
X11011600Y-3550809D02*
X11011600Y-3680879D01*
X9340375Y-3198400D02*
X10659191Y-3198400D01*
X11011600Y-3680879D02*
X11202462Y-3680879D01*
X10659191Y-3198400D02*
X11011600Y-3550809D01*
X6364400Y-3810000D02*
X4875000Y-3810000D01*
X6618400Y-4064000D02*
X6364400Y-3810000D01*
X8902000Y-3636775D02*
X9340375Y-3198400D01*
%TO.N,AB1*%
X2445000Y-2910000D02*
X2780210Y-2910000D01*
X4740000Y-7950000D02*
X5580000Y-7950000D01*
X3409800Y-5949009D02*
X3621600Y-6160809D01*
X3621600Y-6160809D02*
X3621600Y-6831600D01*
X2780210Y-2910000D02*
X3409800Y-3539590D01*
X3409800Y-3539590D02*
X3409800Y-5949009D01*
X16982851Y-9324301D02*
X16536887Y-9324301D01*
X15321188Y-10540000D02*
X15170000Y-10540000D01*
X16536887Y-9324301D02*
X15321188Y-10540000D01*
X3621600Y-6831600D02*
X4740000Y-7950000D01*
%TO.N,Net-(JP1-A)*%
X11220000Y-4480000D02*
X10160000Y-5540000D01*
X10160000Y-5540000D02*
X10160000Y-8630000D01*
X11240000Y-4480000D02*
X11220000Y-4480000D01*
D22*
%TO.N,Net-(JP2-A)*%
X7620000Y-8630000D02*
X7620000Y-8004200D01*
X7620000Y-8004200D02*
X7642592Y-7981608D01*
D23*
%TO.N,SDA*%
X15200000Y-9650000D02*
X15270000Y-9650000D01*
X13970000Y-10880000D02*
X15200000Y-9650000D01*
X7220000Y-3755897D02*
X6674103Y-3210000D01*
X7220000Y-4998398D02*
X7220000Y-3755897D01*
X6674103Y-3210000D02*
X4875000Y-3210000D01*
X13970000Y-11430000D02*
X13970000Y-10880000D01*
X6698398Y-5520000D02*
X7220000Y-4998398D01*
%TO.N,SCL*%
X2810000Y-3510000D02*
X2970000Y-3670000D01*
X3006600Y-6396600D02*
X3020000Y-6410000D01*
X11430000Y-11430000D02*
X12700000Y-10160000D01*
X2970000Y-3670000D02*
X3006600Y-3706600D01*
X2445000Y-3510000D02*
X2810000Y-3510000D01*
X12700000Y-10160000D02*
X12700000Y-9650000D01*
X3006600Y-3706600D02*
X3006600Y-6396600D01*
D22*
%TO.N,3.3V*%
X10160000Y-9650000D02*
X10810000Y-9000000D01*
X1300000Y-4420000D02*
X1300000Y-3930000D01*
D23*
X5559266Y-1806971D02*
X5559266Y-1912458D01*
X5559266Y-1806971D02*
X5559266Y-2430734D01*
D22*
X1480000Y-4110000D02*
X1300000Y-3930000D01*
D23*
X5380000Y-2610000D02*
X4875000Y-2610000D01*
X5559266Y-1912458D02*
X5461724Y-2010000D01*
X17780000Y-10160000D02*
X17780000Y-9650000D01*
D22*
X8860000Y-8410000D02*
X8860000Y-8010000D01*
D23*
X5461724Y-2010000D02*
X4875000Y-2010000D01*
D22*
X2445000Y-4710000D02*
X1480000Y-4710000D01*
D23*
X5559266Y-2430734D02*
X5380000Y-2610000D01*
X10810000Y-6220000D02*
X11260000Y-5770000D01*
D22*
X2445000Y-4110000D02*
X1480000Y-4110000D01*
X1480000Y-4710000D02*
X1300000Y-4890000D01*
X10810000Y-9000000D02*
X10810000Y-7600000D01*
X7620000Y-9650000D02*
X8860000Y-8410000D01*
D23*
X10810000Y-7600000D02*
X10810000Y-6220000D01*
D22*
X1300000Y-3930000D02*
X1300000Y-4890000D01*
D23*
X16510000Y-11430000D02*
X17780000Y-10160000D01*
%TO.N,IRQ*%
X2445000Y-5310000D02*
X2445000Y-5805000D01*
X4770000Y-9850000D02*
X6350000Y-11430000D01*
X2340000Y-5910000D02*
X2340000Y-7530000D01*
X4770000Y-9450000D02*
X4770000Y-9850000D01*
X2780000Y-7970000D02*
X3290000Y-7970000D01*
X3290000Y-7970000D02*
X4770000Y-9450000D01*
X2340000Y-7530000D02*
X2780000Y-7970000D01*
X2445000Y-5805000D02*
X2340000Y-5910000D01*
D22*
%TO.N,Net-(JP3-A)*%
X17780000Y-8630000D02*
X17780000Y-8200000D01*
X17780000Y-8200000D02*
X17790000Y-8190000D01*
D23*
%TO.N,Net-(JP4-A)*%
X13321600Y-9501600D02*
X13700000Y-9880000D01*
X13321600Y-3569936D02*
X13321600Y-9501600D01*
X14524800Y-9305200D02*
X15200000Y-8630000D01*
X13066666Y-3315002D02*
X13321600Y-3569936D01*
X15200000Y-8630000D02*
X15270000Y-8630000D01*
X14524800Y-9515200D02*
X14524800Y-9305200D01*
X14160000Y-9880000D02*
X14524800Y-9515200D01*
X13700000Y-9880000D02*
X14160000Y-9880000D01*
D22*
%TO.N,Net-(JP4-B)*%
X12700000Y-7300000D02*
X12710000Y-7290000D01*
X12700000Y-8630000D02*
X12700000Y-7300000D01*
%TD*%
%TA.AperFunction,Conductor*%
%TO.N,GND*%
G36*
X25036821Y-325302D02*
G01*
X25083314Y-378958D01*
X25094700Y-431300D01*
X25094700Y-5591202D01*
X25074698Y-5659323D01*
X25021042Y-5705816D01*
X24950768Y-5715920D01*
X24886188Y-5686426D01*
X24871301Y-5671136D01*
X24843157Y-5636843D01*
X24690324Y-5511416D01*
X24515957Y-5418215D01*
X24515953Y-5418213D01*
X24326763Y-5360823D01*
X24326752Y-5360821D01*
X24130003Y-5341444D01*
X24129997Y-5341444D01*
X23933247Y-5360821D01*
X23933236Y-5360823D01*
X23744046Y-5418213D01*
X23744042Y-5418215D01*
X23569675Y-5511416D01*
X23416843Y-5636843D01*
X23291416Y-5789675D01*
X23198215Y-5964042D01*
X23198213Y-5964046D01*
X23140823Y-6153236D01*
X23140821Y-6153247D01*
X23121444Y-6349996D01*
X23121444Y-6350003D01*
X23140821Y-6546752D01*
X23140823Y-6546763D01*
X23198213Y-6735953D01*
X23198215Y-6735957D01*
X23271409Y-6872894D01*
X23291416Y-6910324D01*
X23416843Y-7063157D01*
X23569676Y-7188584D01*
X23722121Y-7270067D01*
X23744042Y-7281784D01*
X23744046Y-7281786D01*
X23933236Y-7339176D01*
X23933237Y-7339176D01*
X23933240Y-7339177D01*
X23933243Y-7339177D01*
X23933247Y-7339178D01*
X24129997Y-7358556D01*
X24130000Y-7358556D01*
X24130003Y-7358556D01*
X24326752Y-7339178D01*
X24326754Y-7339177D01*
X24326760Y-7339177D01*
X24385781Y-7321273D01*
X24515953Y-7281786D01*
X24515955Y-7281784D01*
X24515958Y-7281784D01*
X24690324Y-7188584D01*
X24843157Y-7063157D01*
X24871301Y-7028863D01*
X24929977Y-6988895D01*
X25000948Y-6986994D01*
X25061681Y-7023764D01*
X25092893Y-7087532D01*
X25094700Y-7108797D01*
X25094700Y-11395079D01*
X25074698Y-11463200D01*
X25021042Y-11509693D01*
X24950768Y-11519797D01*
X24900580Y-11501078D01*
X24835268Y-11459105D01*
X24790053Y-11430047D01*
X24788527Y-11429599D01*
X24651961Y-11389500D01*
X24564050Y-11389500D01*
X24495929Y-11369498D01*
X24449436Y-11315842D01*
X24439332Y-11245568D01*
X24454931Y-11200500D01*
X24569056Y-11002828D01*
X24569055Y-11002828D01*
X24569063Y-11002816D01*
X24664451Y-10772529D01*
X24728965Y-10531760D01*
X24761500Y-10284631D01*
X24761500Y-10035369D01*
X24737350Y-9851937D01*
X24728966Y-9788246D01*
X24728965Y-9788244D01*
X24728965Y-9788240D01*
X24664451Y-9547471D01*
X24569063Y-9317184D01*
X24569057Y-9317175D01*
X24569056Y-9317171D01*
X24444434Y-9101319D01*
X24444429Y-9101312D01*
X24292698Y-8903572D01*
X24292679Y-8903551D01*
X24116448Y-8727320D01*
X24116427Y-8727301D01*
X23918687Y-8575570D01*
X23918680Y-8575565D01*
X23702828Y-8450943D01*
X23702820Y-8450939D01*
X23702816Y-8450937D01*
X23472529Y-8355549D01*
X23260691Y-8298787D01*
X23231753Y-8291033D01*
X22984633Y-8258500D01*
X22984631Y-8258500D01*
X22735369Y-8258500D01*
X22735366Y-8258500D01*
X22488246Y-8291033D01*
X22373942Y-8321661D01*
X22247471Y-8355549D01*
X22091680Y-8420080D01*
X22017182Y-8450938D01*
X22017171Y-8450943D01*
X21801319Y-8575565D01*
X21801312Y-8575570D01*
X21603572Y-8727301D01*
X21603551Y-8727320D01*
X21427320Y-8903551D01*
X21427301Y-8903572D01*
X21275570Y-9101312D01*
X21275565Y-9101319D01*
X21150943Y-9317171D01*
X21150938Y-9317182D01*
X21150937Y-9317184D01*
X21121297Y-9388741D01*
X21055549Y-9547471D01*
X21055548Y-9547475D01*
X20991033Y-9788246D01*
X20958500Y-10035366D01*
X20958500Y-10284633D01*
X20991033Y-10531753D01*
X20991035Y-10531760D01*
X21055549Y-10772529D01*
X21150937Y-11002816D01*
X21150938Y-11002817D01*
X21150943Y-11002828D01*
X21275565Y-11218680D01*
X21275570Y-11218687D01*
X21427301Y-11416427D01*
X21427320Y-11416448D01*
X21603551Y-11592679D01*
X21603572Y-11592698D01*
X21801312Y-11744429D01*
X21801319Y-11744434D01*
X22017171Y-11869056D01*
X22017175Y-11869057D01*
X22017184Y-11869063D01*
X22247471Y-11964451D01*
X22488240Y-12028965D01*
X22488244Y-12028965D01*
X22488246Y-12028966D01*
X22551937Y-12037350D01*
X22735369Y-12061500D01*
X22735376Y-12061500D01*
X22984624Y-12061500D01*
X22984631Y-12061500D01*
X23207973Y-12032096D01*
X23231753Y-12028966D01*
X23231753Y-12028965D01*
X23231760Y-12028965D01*
X23472529Y-11964451D01*
X23702816Y-11869063D01*
X23886637Y-11762933D01*
X23955632Y-11746196D01*
X24022724Y-11769416D01*
X24066611Y-11825223D01*
X24073281Y-11880988D01*
X24074353Y-11880988D01*
X24074353Y-11889950D01*
X24074356Y-11889976D01*
X24074353Y-11889996D01*
X24074353Y-11889997D01*
X24074353Y-11890000D01*
X24094835Y-12032457D01*
X24108099Y-12061500D01*
X24154623Y-12163373D01*
X24174392Y-12186188D01*
X24203885Y-12250769D01*
X24193780Y-12321043D01*
X24147287Y-12374698D01*
X24079167Y-12394700D01*
X20135930Y-12394700D01*
X20067809Y-12374698D01*
X20021316Y-12321042D01*
X20011212Y-12250768D01*
X20032717Y-12196430D01*
X20131970Y-12054680D01*
X20224007Y-11857306D01*
X20224009Y-11857302D01*
X20280373Y-11646945D01*
X20286020Y-11582400D01*
X19535085Y-11582400D01*
X19558000Y-11496880D01*
X19558000Y-11363120D01*
X19535085Y-11277600D01*
X20286020Y-11277600D01*
X20280373Y-11213054D01*
X20224009Y-11002697D01*
X20224007Y-11002693D01*
X20131970Y-10805319D01*
X20007067Y-10626939D01*
X20007058Y-10626928D01*
X19853071Y-10472941D01*
X19853060Y-10472932D01*
X19674680Y-10348029D01*
X19674681Y-10348029D01*
X19477306Y-10255992D01*
X19477301Y-10255990D01*
X19266944Y-10199625D01*
X19266939Y-10199624D01*
X19202400Y-10193977D01*
X19202400Y-10944914D01*
X19116880Y-10922000D01*
X18983120Y-10922000D01*
X18897600Y-10944914D01*
X18897600Y-10193977D01*
X18833060Y-10199624D01*
X18833055Y-10199625D01*
X18622698Y-10255990D01*
X18622693Y-10255992D01*
X18425319Y-10348029D01*
X18246939Y-10472932D01*
X18246933Y-10472936D01*
X18225517Y-10494353D01*
X18163204Y-10528377D01*
X18092388Y-10523311D01*
X18085116Y-10517867D01*
X18102409Y-10564229D01*
X18087318Y-10633603D01*
X18079944Y-10645488D01*
X17968027Y-10805323D01*
X17875992Y-11002693D01*
X17875990Y-11002698D01*
X17849192Y-11102711D01*
X17812240Y-11163334D01*
X17748379Y-11194355D01*
X17677885Y-11185927D01*
X17623138Y-11140724D01*
X17606295Y-11104581D01*
X17580850Y-11015150D01*
X17580849Y-11015148D01*
X17546718Y-10946604D01*
X17534258Y-10876709D01*
X17561565Y-10811173D01*
X17570413Y-10801345D01*
X17745254Y-10626504D01*
X17887636Y-10484122D01*
X17949947Y-10450097D01*
X18020762Y-10455162D01*
X18028035Y-10460607D01*
X18010744Y-10414242D01*
X18025837Y-10344868D01*
X18027283Y-10342291D01*
X18064494Y-10277842D01*
X18069327Y-10259807D01*
X18070480Y-10255504D01*
X18077832Y-10228063D01*
X18085300Y-10200193D01*
X18085300Y-10182887D01*
X18105302Y-10114766D01*
X18158054Y-10068691D01*
X18162267Y-10066727D01*
X18246727Y-9982267D01*
X18297206Y-9874014D01*
X18303700Y-9824688D01*
X18303700Y-9475312D01*
X18297206Y-9425986D01*
X18246727Y-9317733D01*
X18246725Y-9317731D01*
X18246725Y-9317730D01*
X18158090Y-9229095D01*
X18124064Y-9166783D01*
X18129129Y-9095968D01*
X18158090Y-9050905D01*
X18246725Y-8962269D01*
X18246727Y-8962267D01*
X18297206Y-8854014D01*
X18303700Y-8804688D01*
X18303700Y-8455312D01*
X18297206Y-8405986D01*
X18290614Y-8391851D01*
X18279954Y-8321661D01*
X18280071Y-8320819D01*
X18298880Y-8190000D01*
X18278267Y-8046632D01*
X18218097Y-7914879D01*
X18123246Y-7805414D01*
X18123245Y-7805413D01*
X18123244Y-7805412D01*
X18001400Y-7727108D01*
X18001397Y-7727106D01*
X18001396Y-7727106D01*
X17996597Y-7725697D01*
X17862421Y-7686300D01*
X17717579Y-7686300D01*
X17578606Y-7727105D01*
X17578599Y-7727108D01*
X17456755Y-7805412D01*
X17361903Y-7914878D01*
X17301733Y-8046631D01*
X17286387Y-8153368D01*
X17281120Y-8190000D01*
X17290968Y-8258500D01*
X17295194Y-8287889D01*
X17285089Y-8358163D01*
X17284671Y-8359068D01*
X17262795Y-8405981D01*
X17262792Y-8405990D01*
X17256300Y-8455307D01*
X17256300Y-8711311D01*
X17236298Y-8779432D01*
X17182642Y-8825925D01*
X17112368Y-8836029D01*
X17094804Y-8832208D01*
X17071279Y-8825301D01*
X17055272Y-8820601D01*
X16910430Y-8820601D01*
X16771457Y-8861406D01*
X16771450Y-8861409D01*
X16649606Y-8939713D01*
X16618585Y-8975514D01*
X16558859Y-9013897D01*
X16523361Y-9019001D01*
X16496694Y-9019001D01*
X16444928Y-9032871D01*
X16419045Y-9039807D01*
X16349431Y-9079998D01*
X16349425Y-9080003D01*
X15983213Y-9446215D01*
X15920901Y-9480240D01*
X15850085Y-9475175D01*
X15793250Y-9432628D01*
X15779923Y-9410368D01*
X15779661Y-9409807D01*
X15743454Y-9332159D01*
X15736727Y-9317732D01*
X15648090Y-9229095D01*
X15614064Y-9166783D01*
X15619129Y-9095968D01*
X15648090Y-9050905D01*
X15736725Y-8962269D01*
X15736727Y-8962267D01*
X15787206Y-8854014D01*
X15793700Y-8804688D01*
X15793700Y-8455312D01*
X15787206Y-8405986D01*
X15736727Y-8297733D01*
X15736725Y-8297731D01*
X15736725Y-8297730D01*
X15652269Y-8213274D01*
X15652267Y-8213273D01*
X15544012Y-8162793D01*
X15494692Y-8156300D01*
X15494688Y-8156300D01*
X15045312Y-8156300D01*
X15045307Y-8156300D01*
X14995987Y-8162793D01*
X14887733Y-8213273D01*
X14887730Y-8213274D01*
X14803274Y-8297730D01*
X14803274Y-8297731D01*
X14752793Y-8405987D01*
X14746300Y-8455307D01*
X14746300Y-8599750D01*
X14726298Y-8667871D01*
X14709395Y-8688845D01*
X14280505Y-9117734D01*
X14280497Y-9117744D01*
X14252923Y-9165505D01*
X14240308Y-9187353D01*
X14240305Y-9187360D01*
X14229123Y-9229095D01*
X14220162Y-9262539D01*
X14219500Y-9265008D01*
X14219500Y-9336551D01*
X14199498Y-9404672D01*
X14182595Y-9425646D01*
X14070446Y-9537795D01*
X14008134Y-9571821D01*
X13981351Y-9574700D01*
X13878649Y-9574700D01*
X13810528Y-9554698D01*
X13789554Y-9537795D01*
X13663805Y-9412046D01*
X13629779Y-9349734D01*
X13626900Y-9322951D01*
X13626900Y-3529743D01*
X13626899Y-3529741D01*
X13625764Y-3525506D01*
X13610490Y-3468503D01*
X13606094Y-3452094D01*
X13602749Y-3446300D01*
X13587660Y-3420165D01*
X13570922Y-3351170D01*
X13572062Y-3339231D01*
X13573621Y-3328389D01*
X13575546Y-3315002D01*
X13554933Y-3171634D01*
X13494763Y-3039881D01*
X13399912Y-2930416D01*
X13399911Y-2930415D01*
X13399910Y-2930414D01*
X13278066Y-2852110D01*
X13278063Y-2852108D01*
X13278062Y-2852108D01*
X13206316Y-2831042D01*
X13139087Y-2811302D01*
X12994245Y-2811302D01*
X12855272Y-2852107D01*
X12855265Y-2852110D01*
X12733421Y-2930414D01*
X12638569Y-3039880D01*
X12578399Y-3171633D01*
X12567332Y-3248605D01*
X12557786Y-3315002D01*
X12578399Y-3458370D01*
X12638569Y-3590123D01*
X12732690Y-3698746D01*
X12733421Y-3699589D01*
X12845154Y-3771395D01*
X12855270Y-3777896D01*
X12925797Y-3798604D01*
X12985524Y-3836987D01*
X13015017Y-3901567D01*
X13016300Y-3919500D01*
X13016300Y-6686656D01*
X12996298Y-6754777D01*
X12942642Y-6801270D01*
X12872368Y-6811374D01*
X12854803Y-6807553D01*
X12782421Y-6786300D01*
X12637579Y-6786300D01*
X12498606Y-6827105D01*
X12498599Y-6827108D01*
X12376755Y-6905412D01*
X12281903Y-7014878D01*
X12221733Y-7146631D01*
X12201120Y-7290000D01*
X12221733Y-7433368D01*
X12281903Y-7565121D01*
X12281906Y-7565125D01*
X12365524Y-7661626D01*
X12395017Y-7726206D01*
X12396300Y-7744138D01*
X12396300Y-8096365D01*
X12376298Y-8164486D01*
X12323554Y-8210558D01*
X12317733Y-8213272D01*
X12317730Y-8213274D01*
X12233274Y-8297730D01*
X12233274Y-8297731D01*
X12182793Y-8405987D01*
X12176300Y-8455307D01*
X12176300Y-8804692D01*
X12182793Y-8854012D01*
X12182794Y-8854014D01*
X12233273Y-8962267D01*
X12233274Y-8962268D01*
X12233274Y-8962269D01*
X12321910Y-9050905D01*
X12355936Y-9113217D01*
X12350871Y-9184032D01*
X12321910Y-9229095D01*
X12233274Y-9317730D01*
X12233274Y-9317731D01*
X12182793Y-9425987D01*
X12176300Y-9475307D01*
X12176300Y-9824692D01*
X12182793Y-9874012D01*
X12182794Y-9874014D01*
X12233273Y-9982267D01*
X12233274Y-9982268D01*
X12233274Y-9982269D01*
X12250527Y-9999522D01*
X12284553Y-10061834D01*
X12279488Y-10132649D01*
X12250527Y-10177712D01*
X12060743Y-10367496D01*
X11998431Y-10401522D01*
X11927616Y-10396457D01*
X11926131Y-10395892D01*
X11866823Y-10372916D01*
X11801112Y-10347459D01*
X11744277Y-10325441D01*
X11744278Y-10325441D01*
X11744275Y-10325440D01*
X11744274Y-10325440D01*
X11535961Y-10286500D01*
X11324039Y-10286500D01*
X11124703Y-10323762D01*
X11115721Y-10325441D01*
X10918119Y-10401993D01*
X10918108Y-10401998D01*
X10737933Y-10513558D01*
X10581324Y-10656326D01*
X10453612Y-10825444D01*
X10359150Y-11015150D01*
X10359147Y-11015158D01*
X10301154Y-11218983D01*
X10285462Y-11388328D01*
X10268755Y-11430399D01*
X10283656Y-11459105D01*
X10285462Y-11471671D01*
X10301154Y-11641016D01*
X10359147Y-11844841D01*
X10359148Y-11844845D01*
X10359150Y-11844850D01*
X10453611Y-12034554D01*
X10573091Y-12192770D01*
X10598180Y-12259183D01*
X10583381Y-12328620D01*
X10533390Y-12379033D01*
X10472540Y-12394700D01*
X9847460Y-12394700D01*
X9779339Y-12374698D01*
X9732846Y-12321042D01*
X9722742Y-12250768D01*
X9746908Y-12192771D01*
X9866389Y-12034554D01*
X9960850Y-11844850D01*
X10018845Y-11641018D01*
X10030078Y-11519797D01*
X10034538Y-11471671D01*
X10051244Y-11429599D01*
X10036344Y-11400894D01*
X10034538Y-11388328D01*
X10018845Y-11218983D01*
X9996578Y-11140724D01*
X9960850Y-11015150D01*
X9866389Y-10825446D01*
X9738677Y-10656329D01*
X9738675Y-10656326D01*
X9582066Y-10513558D01*
X9424652Y-10416091D01*
X9377265Y-10363224D01*
X9365982Y-10293130D01*
X9394386Y-10228063D01*
X9401877Y-10219880D01*
X9577288Y-10044469D01*
X9639598Y-10010445D01*
X9710413Y-10015510D01*
X9755476Y-10044471D01*
X9777730Y-10066725D01*
X9777731Y-10066725D01*
X9777733Y-10066727D01*
X9885986Y-10117206D01*
X9935312Y-10123700D01*
X9935319Y-10123700D01*
X10384681Y-10123700D01*
X10384688Y-10123700D01*
X10434014Y-10117206D01*
X10542267Y-10066727D01*
X10626727Y-9982267D01*
X10677206Y-9874014D01*
X10683700Y-9824688D01*
X10683700Y-9607987D01*
X10703702Y-9539866D01*
X10720600Y-9518896D01*
X11053021Y-9186476D01*
X11093004Y-9117224D01*
X11113700Y-9039983D01*
X11113700Y-8960017D01*
X11113700Y-8065679D01*
X11133702Y-7997558D01*
X11144471Y-7983171D01*
X11238097Y-7875121D01*
X11298267Y-7743368D01*
X11318880Y-7600000D01*
X11298267Y-7456632D01*
X11238097Y-7324879D01*
X11146074Y-7218678D01*
X11116582Y-7154098D01*
X11115300Y-7136167D01*
X11115300Y-6399700D01*
X11135302Y-6331579D01*
X11188958Y-6285086D01*
X11241300Y-6273700D01*
X11332421Y-6273700D01*
X11471396Y-6232894D01*
X11593246Y-6154586D01*
X11688097Y-6045121D01*
X11748267Y-5913368D01*
X11768880Y-5770000D01*
X11748267Y-5626632D01*
X11688097Y-5494879D01*
X11593246Y-5385414D01*
X11593245Y-5385413D01*
X11593244Y-5385412D01*
X11471400Y-5307108D01*
X11471397Y-5307106D01*
X11471396Y-5307106D01*
X11349766Y-5271393D01*
X11332421Y-5266300D01*
X11187579Y-5266300D01*
X11186076Y-5266516D01*
X11184574Y-5266300D01*
X11178567Y-5266300D01*
X11178567Y-5265435D01*
X11115802Y-5256408D01*
X11062149Y-5209912D01*
X11042151Y-5141790D01*
X11062157Y-5073670D01*
X11079052Y-5052705D01*
X11111155Y-5020602D01*
X11173468Y-4986579D01*
X11200249Y-4983700D01*
X11312421Y-4983700D01*
X11451396Y-4942894D01*
X11573246Y-4864586D01*
X11668097Y-4755121D01*
X11728267Y-4623368D01*
X11748880Y-4480000D01*
X11728267Y-4336632D01*
X11668097Y-4204879D01*
X11650534Y-4184610D01*
X11612998Y-4141290D01*
X11583505Y-4076709D01*
X11593610Y-4006435D01*
X11612999Y-3976265D01*
X11630559Y-3956000D01*
X11690729Y-3824247D01*
X11711342Y-3680879D01*
X11690729Y-3537511D01*
X11630559Y-3405758D01*
X11535708Y-3296293D01*
X11535707Y-3296292D01*
X11535706Y-3296291D01*
X11413862Y-3217987D01*
X11413859Y-3217985D01*
X11413858Y-3217985D01*
X11330914Y-3193631D01*
X11274883Y-3177179D01*
X11130041Y-3177179D01*
X11121919Y-3177179D01*
X11053798Y-3157177D01*
X11032828Y-3140278D01*
X10846650Y-2954100D01*
X10846647Y-2954098D01*
X10846646Y-2954097D01*
X10777032Y-2913906D01*
X10699384Y-2893100D01*
X9300182Y-2893100D01*
X9222534Y-2913906D01*
X9222533Y-2913906D01*
X9222531Y-2913907D01*
X9152917Y-2954098D01*
X9152915Y-2954099D01*
X9110615Y-2996400D01*
X9010843Y-3096171D01*
X8948534Y-3130195D01*
X8921750Y-3133075D01*
X8829579Y-3133075D01*
X8690606Y-3173880D01*
X8690599Y-3173883D01*
X8568755Y-3252187D01*
X8473903Y-3361653D01*
X8413733Y-3493406D01*
X8401283Y-3580000D01*
X8393120Y-3636775D01*
X8413733Y-3780143D01*
X8473903Y-3911896D01*
X8529678Y-3976265D01*
X8568755Y-4021362D01*
X8654877Y-4076709D01*
X8690604Y-4099669D01*
X8829579Y-4140475D01*
X8974421Y-4140475D01*
X9113396Y-4099669D01*
X9235246Y-4021361D01*
X9330097Y-3911896D01*
X9390267Y-3780143D01*
X9410880Y-3636775D01*
X9410879Y-3636773D01*
X9410880Y-3636771D01*
X9410880Y-3629700D01*
X9430882Y-3561579D01*
X9484538Y-3515086D01*
X9536880Y-3503700D01*
X10480541Y-3503700D01*
X10548662Y-3523702D01*
X10569637Y-3540605D01*
X10661186Y-3632155D01*
X10695211Y-3694467D01*
X10696807Y-3703318D01*
X10714193Y-3824240D01*
X10714194Y-3824245D01*
X10714195Y-3824247D01*
X10749506Y-3901567D01*
X10774365Y-3956000D01*
X10829463Y-4019588D01*
X10858956Y-4084170D01*
X10848851Y-4154443D01*
X10829465Y-4184610D01*
X10811903Y-4204878D01*
X10776507Y-4282385D01*
X10751733Y-4336632D01*
X10735637Y-4448587D01*
X10731120Y-4480003D01*
X10731120Y-4484929D01*
X10711118Y-4553050D01*
X10694216Y-4574024D01*
X9915702Y-5352538D01*
X9915697Y-5352544D01*
X9876077Y-5421169D01*
X9876064Y-5421191D01*
X9875508Y-5422151D01*
X9875505Y-5422159D01*
X9854700Y-5499803D01*
X9854700Y-7298749D01*
X9834698Y-7366870D01*
X9781042Y-7413363D01*
X9710768Y-7423467D01*
X9646188Y-7393973D01*
X9639605Y-7387845D01*
X9396161Y-7144402D01*
X9396155Y-7144397D01*
X9326543Y-7104207D01*
X9326542Y-7104206D01*
X9326541Y-7104206D01*
X9324929Y-7103774D01*
X9323997Y-7103524D01*
X9323996Y-7103524D01*
X9248893Y-7083400D01*
X9248890Y-7083400D01*
X8639170Y-7083400D01*
X8571049Y-7063398D01*
X8543946Y-7039913D01*
X8512924Y-7004112D01*
X8391080Y-6925808D01*
X8391077Y-6925806D01*
X8391076Y-6925806D01*
X8384070Y-6923749D01*
X8252101Y-6885000D01*
X8159929Y-6885000D01*
X8091808Y-6864998D01*
X8070838Y-6848099D01*
X7958439Y-6735700D01*
X7958438Y-6735699D01*
X7958435Y-6735697D01*
X7888824Y-6695507D01*
X7888815Y-6695504D01*
X7885042Y-6694492D01*
X7885036Y-6694492D01*
X7811173Y-6674700D01*
X7811171Y-6674700D01*
X6608649Y-6674700D01*
X6540528Y-6654698D01*
X6519554Y-6637795D01*
X5878805Y-5997046D01*
X5844779Y-5934734D01*
X5841900Y-5907951D01*
X5841900Y-5340808D01*
X5832869Y-5307105D01*
X5823301Y-5271395D01*
X5823301Y-5271393D01*
X5821096Y-5263163D01*
X5821093Y-5263157D01*
X5780901Y-5193541D01*
X5472318Y-4884958D01*
X5438292Y-4822646D01*
X5443357Y-4751831D01*
X5472320Y-4706765D01*
X5482221Y-4696864D01*
X5533237Y-4587459D01*
X5539799Y-4537614D01*
X5539800Y-4537605D01*
X5539800Y-4282395D01*
X5539799Y-4282380D01*
X5536556Y-4257744D01*
X5547496Y-4187596D01*
X5594625Y-4134498D01*
X5661478Y-4115300D01*
X6008777Y-4115300D01*
X6076898Y-4135302D01*
X6123391Y-4188958D01*
X6129672Y-4205800D01*
X6130130Y-4207361D01*
X6190303Y-4339121D01*
X6285155Y-4448587D01*
X6341705Y-4484929D01*
X6407004Y-4526894D01*
X6545979Y-4567700D01*
X6690820Y-4567700D01*
X6690821Y-4567700D01*
X6753204Y-4549383D01*
X6824198Y-4549383D01*
X6883924Y-4587766D01*
X6913417Y-4652347D01*
X6914700Y-4670279D01*
X6914700Y-4819748D01*
X6894698Y-4887869D01*
X6877795Y-4908843D01*
X6807243Y-4979395D01*
X6744931Y-5013421D01*
X6718148Y-5016300D01*
X6625977Y-5016300D01*
X6487004Y-5057105D01*
X6486997Y-5057108D01*
X6365153Y-5135412D01*
X6270301Y-5244878D01*
X6210131Y-5376631D01*
X6189518Y-5520000D01*
X6210131Y-5663368D01*
X6270301Y-5795121D01*
X6365153Y-5904587D01*
X6486997Y-5982891D01*
X6487002Y-5982894D01*
X6625977Y-6023700D01*
X6770819Y-6023700D01*
X6909794Y-5982894D01*
X7031644Y-5904586D01*
X7126495Y-5795121D01*
X7186665Y-5663368D01*
X7207278Y-5520000D01*
X7206560Y-5515008D01*
X7216659Y-5444735D01*
X7242177Y-5407978D01*
X7464301Y-5185857D01*
X7504494Y-5116239D01*
X7504958Y-5114508D01*
X7525300Y-5038591D01*
X7525300Y-3715704D01*
X7504494Y-3638056D01*
X7477328Y-3591003D01*
X7471310Y-3580579D01*
X7464302Y-3568441D01*
X7464294Y-3568431D01*
X6861568Y-2965705D01*
X6861558Y-2965697D01*
X6791946Y-2925507D01*
X6791945Y-2925506D01*
X6791944Y-2925506D01*
X6788955Y-2924705D01*
X6788953Y-2924704D01*
X6754304Y-2915420D01*
X6714296Y-2904700D01*
X6714294Y-2904700D01*
X5821250Y-2904700D01*
X5753129Y-2884698D01*
X5706636Y-2831042D01*
X5696532Y-2760768D01*
X5726026Y-2696188D01*
X5732155Y-2689605D01*
X5803565Y-2618194D01*
X5803567Y-2618191D01*
X5816786Y-2595295D01*
X5843760Y-2548576D01*
X5849333Y-2527772D01*
X5849335Y-2527772D01*
X5849335Y-2527763D01*
X5864566Y-2470927D01*
X5864566Y-2270803D01*
X5884568Y-2202682D01*
X5895336Y-2188297D01*
X5987363Y-2082092D01*
X6047533Y-1950339D01*
X6068146Y-1806971D01*
X6047533Y-1663603D01*
X5987363Y-1531850D01*
X5892512Y-1422385D01*
X5892511Y-1422384D01*
X5892510Y-1422383D01*
X5770666Y-1344079D01*
X5770663Y-1344077D01*
X5770662Y-1344077D01*
X5631687Y-1303271D01*
X5564699Y-1303271D01*
X5496578Y-1283269D01*
X5450085Y-1229613D01*
X5438699Y-1177271D01*
X5438699Y-1170510D01*
X5438698Y-1170501D01*
X5424270Y-1097964D01*
X5424270Y-1097962D01*
X5424269Y-1097960D01*
X5424269Y-1097959D01*
X5369302Y-1015698D01*
X5287038Y-960730D01*
X5287035Y-960729D01*
X5214494Y-946300D01*
X4405510Y-946300D01*
X4405500Y-946301D01*
X4332960Y-960730D01*
X4332959Y-960730D01*
X4250698Y-1015697D01*
X4195730Y-1097961D01*
X4195729Y-1097964D01*
X4181300Y-1170504D01*
X4181300Y-1429489D01*
X4181301Y-1429499D01*
X4195730Y-1502039D01*
X4195730Y-1502040D01*
X4250697Y-1584301D01*
X4250698Y-1584302D01*
X4310258Y-1624099D01*
X4355786Y-1678576D01*
X4364634Y-1749019D01*
X4345022Y-1798865D01*
X4325294Y-1828389D01*
X4311300Y-1898743D01*
X4311300Y-2121256D01*
X4325294Y-2191610D01*
X4325295Y-2191613D01*
X4357626Y-2240000D01*
X4378840Y-2307753D01*
X4360056Y-2376219D01*
X4357626Y-2380000D01*
X4325295Y-2428386D01*
X4325294Y-2428389D01*
X4311300Y-2498743D01*
X4311300Y-2721256D01*
X4325294Y-2791610D01*
X4325295Y-2791613D01*
X4357626Y-2840000D01*
X4378840Y-2907753D01*
X4360056Y-2976219D01*
X4357626Y-2980000D01*
X4325295Y-3028386D01*
X4325294Y-3028389D01*
X4311300Y-3098743D01*
X4311300Y-3321256D01*
X4325294Y-3391610D01*
X4325295Y-3391613D01*
X4357626Y-3440000D01*
X4378840Y-3507753D01*
X4360056Y-3576219D01*
X4357626Y-3580000D01*
X4325295Y-3628386D01*
X4325294Y-3628389D01*
X4311300Y-3698743D01*
X4311300Y-3921259D01*
X4324434Y-3987286D01*
X4318106Y-4058000D01*
X4289952Y-4100961D01*
X4267779Y-4123134D01*
X4216762Y-4232540D01*
X4210200Y-4282385D01*
X4210200Y-4537614D01*
X4216762Y-4587459D01*
X4267779Y-4696866D01*
X4289950Y-4719037D01*
X4323976Y-4781349D01*
X4324434Y-4832713D01*
X4311300Y-4898740D01*
X4311300Y-5121256D01*
X4325294Y-5191610D01*
X4325295Y-5191613D01*
X4357626Y-5240000D01*
X4378840Y-5307753D01*
X4360056Y-5376219D01*
X4357626Y-5380000D01*
X4325295Y-5428386D01*
X4325294Y-5428389D01*
X4311300Y-5498743D01*
X4311300Y-5721256D01*
X4325294Y-5791610D01*
X4325296Y-5791613D01*
X4345021Y-5821135D01*
X4366235Y-5888888D01*
X4347451Y-5957355D01*
X4310259Y-5995899D01*
X4250697Y-6035698D01*
X4195730Y-6117961D01*
X4195729Y-6117964D01*
X4181300Y-6190504D01*
X4181300Y-6449489D01*
X4181301Y-6449499D01*
X4195730Y-6522039D01*
X4195730Y-6522040D01*
X4250697Y-6604301D01*
X4250698Y-6604302D01*
X4332962Y-6659270D01*
X4405507Y-6673700D01*
X5214492Y-6673699D01*
X5214495Y-6673698D01*
X5214499Y-6673698D01*
X5238343Y-6668955D01*
X5287038Y-6659270D01*
X5287039Y-6659269D01*
X5287040Y-6659269D01*
X5319177Y-6637795D01*
X5369302Y-6604302D01*
X5385440Y-6580150D01*
X5439916Y-6534623D01*
X5510359Y-6525775D01*
X5574403Y-6556416D01*
X5579280Y-6561039D01*
X5923653Y-6905412D01*
X6242542Y-7224301D01*
X6250044Y-7228632D01*
X6312158Y-7264494D01*
X6332964Y-7270068D01*
X6389807Y-7285300D01*
X7365279Y-7285300D01*
X7433400Y-7305302D01*
X7479893Y-7358958D01*
X7489997Y-7429232D01*
X7460503Y-7493812D01*
X7433399Y-7517298D01*
X7309347Y-7597020D01*
X7214495Y-7706486D01*
X7154325Y-7838239D01*
X7133712Y-7981608D01*
X7154325Y-8124976D01*
X7154326Y-8124979D01*
X7171814Y-8163273D01*
X7181917Y-8233547D01*
X7157423Y-8287179D01*
X7159597Y-8288701D01*
X7153274Y-8297731D01*
X7102793Y-8405987D01*
X7096300Y-8455307D01*
X7096300Y-8804692D01*
X7102793Y-8854012D01*
X7102794Y-8854014D01*
X7153273Y-8962267D01*
X7153274Y-8962268D01*
X7153274Y-8962269D01*
X7241910Y-9050905D01*
X7275936Y-9113217D01*
X7270871Y-9184032D01*
X7241910Y-9229095D01*
X7153274Y-9317730D01*
X7153274Y-9317731D01*
X7102793Y-9425987D01*
X7096300Y-9475307D01*
X7096300Y-9824692D01*
X7102793Y-9874012D01*
X7102794Y-9874014D01*
X7153273Y-9982267D01*
X7153274Y-9982268D01*
X7153274Y-9982269D01*
X7237730Y-10066725D01*
X7237731Y-10066725D01*
X7237733Y-10066727D01*
X7345986Y-10117206D01*
X7395312Y-10123700D01*
X7395319Y-10123700D01*
X7844681Y-10123700D01*
X7844688Y-10123700D01*
X7894014Y-10117206D01*
X8002267Y-10066727D01*
X8086727Y-9982267D01*
X8137206Y-9874014D01*
X8143700Y-9824688D01*
X8143700Y-9607987D01*
X8163702Y-9539866D01*
X8180605Y-9518892D01*
X8941205Y-8758292D01*
X9003517Y-8724266D01*
X9074332Y-8729331D01*
X9131168Y-8771878D01*
X9155979Y-8838398D01*
X9156300Y-8847387D01*
X9156300Y-9549750D01*
X9136298Y-9617871D01*
X9119395Y-9638845D01*
X8645705Y-10112534D01*
X8645697Y-10112544D01*
X8621559Y-10154354D01*
X8621558Y-10154355D01*
X8605507Y-10182155D01*
X8605506Y-10182157D01*
X8582668Y-10267387D01*
X8545716Y-10328010D01*
X8506479Y-10352266D01*
X8378119Y-10401993D01*
X8378108Y-10401998D01*
X8197933Y-10513558D01*
X8041324Y-10656326D01*
X7913612Y-10825444D01*
X7819150Y-11015150D01*
X7819147Y-11015158D01*
X7761154Y-11218983D01*
X7745462Y-11388328D01*
X7728755Y-11430399D01*
X7743656Y-11459105D01*
X7745462Y-11471671D01*
X7761154Y-11641016D01*
X7819147Y-11844841D01*
X7819148Y-11844845D01*
X7819150Y-11844850D01*
X7913611Y-12034554D01*
X8033091Y-12192770D01*
X8058180Y-12259183D01*
X8043381Y-12328620D01*
X7993390Y-12379033D01*
X7932540Y-12394700D01*
X7307460Y-12394700D01*
X7239339Y-12374698D01*
X7192846Y-12321042D01*
X7182742Y-12250768D01*
X7206908Y-12192771D01*
X7326389Y-12034554D01*
X7420850Y-11844850D01*
X7478845Y-11641018D01*
X7490078Y-11519797D01*
X7494538Y-11471671D01*
X7511244Y-11429599D01*
X7496344Y-11400894D01*
X7494538Y-11388328D01*
X7478845Y-11218983D01*
X7456578Y-11140724D01*
X7420850Y-11015150D01*
X7326389Y-10825446D01*
X7198677Y-10656329D01*
X7198675Y-10656326D01*
X7042066Y-10513558D01*
X6861891Y-10401998D01*
X6861886Y-10401996D01*
X6861885Y-10401995D01*
X6846134Y-10395893D01*
X6664277Y-10325441D01*
X6664278Y-10325441D01*
X6664275Y-10325440D01*
X6664274Y-10325440D01*
X6455961Y-10286500D01*
X6244039Y-10286500D01*
X6139882Y-10305970D01*
X6035724Y-10325440D01*
X5853866Y-10395893D01*
X5783120Y-10401849D01*
X5720384Y-10368612D01*
X5719255Y-10367496D01*
X5112205Y-9760446D01*
X5078179Y-9698134D01*
X5075300Y-9671351D01*
X5075300Y-9409808D01*
X5054494Y-9332158D01*
X5054494Y-9332157D01*
X5014301Y-9262542D01*
X5014299Y-9262539D01*
X3477465Y-7725705D01*
X3477455Y-7725697D01*
X3407841Y-7685506D01*
X3330193Y-7664700D01*
X3330191Y-7664700D01*
X2958649Y-7664700D01*
X2890528Y-7644698D01*
X2869554Y-7627795D01*
X2682205Y-7440446D01*
X2648179Y-7378134D01*
X2645300Y-7351351D01*
X2645300Y-6993259D01*
X2665302Y-6925138D01*
X2718958Y-6878645D01*
X2789232Y-6868541D01*
X2806798Y-6872363D01*
X2808601Y-6872892D01*
X2808604Y-6872894D01*
X2947579Y-6913700D01*
X3092421Y-6913700D01*
X3188923Y-6885365D01*
X3259917Y-6885365D01*
X3319643Y-6923749D01*
X3333538Y-6943261D01*
X3377297Y-7019055D01*
X3377305Y-7019065D01*
X4552536Y-8194296D01*
X4552539Y-8194298D01*
X4552541Y-8194300D01*
X4585401Y-8213271D01*
X4585403Y-8213273D01*
X4585404Y-8213273D01*
X4622159Y-8234494D01*
X4699807Y-8255300D01*
X5120510Y-8255300D01*
X5188631Y-8275302D01*
X5215734Y-8298787D01*
X5246755Y-8334587D01*
X5335862Y-8391852D01*
X5368604Y-8412894D01*
X5507579Y-8453700D01*
X5652421Y-8453700D01*
X5791396Y-8412894D01*
X5913246Y-8334586D01*
X6008097Y-8225121D01*
X6068267Y-8093368D01*
X6088880Y-7950000D01*
X6068267Y-7806632D01*
X6008097Y-7674879D01*
X5913246Y-7565414D01*
X5913245Y-7565413D01*
X5913244Y-7565412D01*
X5791400Y-7487108D01*
X5791397Y-7487106D01*
X5791396Y-7487106D01*
X5679125Y-7454141D01*
X5652421Y-7446300D01*
X5507579Y-7446300D01*
X5368606Y-7487105D01*
X5368599Y-7487108D01*
X5246755Y-7565412D01*
X5215734Y-7601213D01*
X5156008Y-7639596D01*
X5120510Y-7644700D01*
X4918649Y-7644700D01*
X4850528Y-7624698D01*
X4829554Y-7607795D01*
X3963805Y-6742046D01*
X3929779Y-6679734D01*
X3926900Y-6652951D01*
X3926900Y-6120618D01*
X3926900Y-6120616D01*
X3907791Y-6049300D01*
X3906094Y-6042967D01*
X3901897Y-6035698D01*
X3865901Y-5973351D01*
X3865899Y-5973348D01*
X3752005Y-5859454D01*
X3717979Y-5797142D01*
X3715100Y-5770359D01*
X3715100Y-3499399D01*
X3715100Y-3499397D01*
X3694294Y-3421749D01*
X3654101Y-3352131D01*
X2997628Y-2695659D01*
X2963604Y-2633347D01*
X2968668Y-2562532D01*
X2972529Y-2553314D01*
X3003237Y-2487459D01*
X3009799Y-2437614D01*
X3009800Y-2437605D01*
X3009800Y-2182395D01*
X3009799Y-2182385D01*
X3003237Y-2132540D01*
X2952220Y-2023133D01*
X2866866Y-1937779D01*
X2757459Y-1886762D01*
X2707614Y-1880200D01*
X2182385Y-1880200D01*
X2132540Y-1886762D01*
X2023133Y-1937779D01*
X1937779Y-2023133D01*
X1886762Y-2132540D01*
X1880200Y-2182385D01*
X1880200Y-2330326D01*
X1860198Y-2398447D01*
X1806542Y-2444940D01*
X1736268Y-2455044D01*
X1689082Y-2435686D01*
X1688538Y-2436716D01*
X1680189Y-2432303D01*
X1553630Y-2388018D01*
X1523579Y-2385200D01*
X1452400Y-2385200D01*
X1452400Y-2996400D01*
X1432398Y-3064521D01*
X1378742Y-3111014D01*
X1326400Y-3122400D01*
X685201Y-3122400D01*
X685201Y-3163583D01*
X688018Y-3193631D01*
X688018Y-3193632D01*
X732302Y-3320187D01*
X732303Y-3320188D01*
X811929Y-3428077D01*
X818603Y-3434751D01*
X816971Y-3436382D01*
X851984Y-3482504D01*
X857526Y-3553284D01*
X848423Y-3580579D01*
X792889Y-3699671D01*
X792889Y-3699672D01*
X786300Y-3749723D01*
X786300Y-4110276D01*
X792889Y-4160326D01*
X792890Y-4160330D01*
X805305Y-4186954D01*
X815966Y-4257145D01*
X812008Y-4275693D01*
X811734Y-4276623D01*
X791120Y-4420000D01*
X812533Y-4568932D01*
X802428Y-4639206D01*
X802011Y-4640109D01*
X792890Y-4659668D01*
X792889Y-4659673D01*
X786300Y-4709723D01*
X786300Y-5070276D01*
X792889Y-5120326D01*
X792890Y-5120328D01*
X834663Y-5209912D01*
X848423Y-5239419D01*
X859084Y-5309611D01*
X830104Y-5374424D01*
X818549Y-5385195D01*
X818603Y-5385249D01*
X811929Y-5391922D01*
X732303Y-5499811D01*
X688018Y-5626369D01*
X685200Y-5656420D01*
X685200Y-5697600D01*
X1326400Y-5697600D01*
X1394521Y-5717602D01*
X1441014Y-5771258D01*
X1452400Y-5823600D01*
X1452400Y-6434799D01*
X1523569Y-6434799D01*
X1523583Y-6434798D01*
X1553631Y-6431981D01*
X1553632Y-6431981D01*
X1680187Y-6387697D01*
X1680188Y-6387696D01*
X1788075Y-6308072D01*
X1807321Y-6281995D01*
X1863866Y-6239062D01*
X1934645Y-6233516D01*
X1997188Y-6267117D01*
X2031636Y-6329196D01*
X2034700Y-6356816D01*
X2034700Y-7570196D01*
X2053455Y-7640187D01*
X2053455Y-7640189D01*
X2053456Y-7640189D01*
X2053457Y-7640193D01*
X2055506Y-7647841D01*
X2055507Y-7647843D01*
X2095697Y-7717455D01*
X2095705Y-7717465D01*
X2430319Y-8052079D01*
X2464345Y-8114391D01*
X2459280Y-8185206D01*
X2416733Y-8242042D01*
X2357670Y-8266096D01*
X2168247Y-8291033D01*
X2139309Y-8298787D01*
X1927471Y-8355549D01*
X1771680Y-8420080D01*
X1697182Y-8450938D01*
X1697171Y-8450943D01*
X1481319Y-8575565D01*
X1481312Y-8575570D01*
X1283572Y-8727301D01*
X1283551Y-8727320D01*
X1107320Y-8903551D01*
X1107301Y-8903572D01*
X955570Y-9101312D01*
X955565Y-9101319D01*
X830943Y-9317171D01*
X830938Y-9317182D01*
X830937Y-9317184D01*
X801297Y-9388741D01*
X735549Y-9547471D01*
X735548Y-9547475D01*
X671033Y-9788246D01*
X638500Y-10035366D01*
X638500Y-10284633D01*
X671033Y-10531753D01*
X671035Y-10531760D01*
X735549Y-10772529D01*
X830937Y-11002816D01*
X830938Y-11002817D01*
X830943Y-11002828D01*
X955565Y-11218680D01*
X955570Y-11218687D01*
X1107301Y-11416427D01*
X1107320Y-11416448D01*
X1283551Y-11592679D01*
X1283572Y-11592698D01*
X1481312Y-11744429D01*
X1481319Y-11744434D01*
X1697171Y-11869056D01*
X1697175Y-11869057D01*
X1697184Y-11869063D01*
X1927471Y-11964451D01*
X2168240Y-12028965D01*
X2168244Y-12028965D01*
X2168246Y-12028966D01*
X2231937Y-12037350D01*
X2415369Y-12061500D01*
X2415376Y-12061500D01*
X2664624Y-12061500D01*
X2664631Y-12061500D01*
X2887973Y-12032096D01*
X2911753Y-12028966D01*
X2911753Y-12028965D01*
X2911760Y-12028965D01*
X3152529Y-11964451D01*
X3382816Y-11869063D01*
X3598684Y-11744432D01*
X3796436Y-11592691D01*
X3972691Y-11416436D01*
X4124432Y-11218684D01*
X4249063Y-11002816D01*
X4344451Y-10772529D01*
X4408965Y-10531760D01*
X4441500Y-10284631D01*
X4441500Y-10257449D01*
X4461502Y-10189328D01*
X4515158Y-10142835D01*
X4585432Y-10132731D01*
X4650012Y-10162225D01*
X4656595Y-10168354D01*
X5289586Y-10801345D01*
X5323612Y-10863657D01*
X5318547Y-10934472D01*
X5313282Y-10946602D01*
X5279152Y-11015145D01*
X5279147Y-11015158D01*
X5221154Y-11218983D01*
X5201601Y-11429995D01*
X5201601Y-11430004D01*
X5221154Y-11641016D01*
X5279147Y-11844841D01*
X5279148Y-11844845D01*
X5279150Y-11844850D01*
X5373611Y-12034554D01*
X5493091Y-12192770D01*
X5518180Y-12259183D01*
X5503381Y-12328620D01*
X5453390Y-12379033D01*
X5392540Y-12394700D01*
X431300Y-12394700D01*
X363179Y-12374698D01*
X316686Y-12321042D01*
X305300Y-12268700D01*
X305300Y-6043583D01*
X685201Y-6043583D01*
X688018Y-6073631D01*
X688018Y-6073632D01*
X732302Y-6200187D01*
X732303Y-6200188D01*
X811926Y-6308073D01*
X919811Y-6387696D01*
X919810Y-6387696D01*
X1046369Y-6431981D01*
X1076422Y-6434799D01*
X1147599Y-6434798D01*
X1147600Y-6434798D01*
X1147600Y-6002400D01*
X685201Y-6002400D01*
X685201Y-6043583D01*
X305300Y-6043583D01*
X305300Y-2776420D01*
X685200Y-2776420D01*
X685200Y-2817600D01*
X1147600Y-2817600D01*
X1147600Y-2385199D01*
X1076432Y-2385200D01*
X1076415Y-2385201D01*
X1046368Y-2388018D01*
X1046367Y-2388018D01*
X919812Y-2432302D01*
X919811Y-2432303D01*
X811926Y-2511926D01*
X732303Y-2619811D01*
X688018Y-2746369D01*
X685200Y-2776420D01*
X305300Y-2776420D01*
X305300Y-1307773D01*
X325302Y-1239652D01*
X378958Y-1193159D01*
X449232Y-1183055D01*
X499418Y-1201774D01*
X589947Y-1259953D01*
X728039Y-1300500D01*
X871961Y-1300500D01*
X1010053Y-1259953D01*
X1131128Y-1182143D01*
X1225377Y-1073373D01*
X1285165Y-942457D01*
X1305647Y-800000D01*
X1285165Y-657543D01*
X1225377Y-526627D01*
X1214273Y-513812D01*
X1184780Y-449231D01*
X1194885Y-378957D01*
X1241378Y-325302D01*
X1309498Y-305300D01*
X24968700Y-305300D01*
X25036821Y-325302D01*
G37*
%TD.AperFunction*%
%TD*%
%TA.AperFunction,Conductor*%
%TO.N,GND*%
G36*
X25036821Y12874698D02*
G01*
X25083314Y12821042D01*
X25094700Y12768700D01*
X25094700Y7608798D01*
X25074698Y7540677D01*
X25021042Y7494184D01*
X24950768Y7484080D01*
X24886188Y7513574D01*
X24871301Y7528864D01*
X24843157Y7563157D01*
X24690324Y7688584D01*
X24515957Y7781785D01*
X24515953Y7781787D01*
X24326763Y7839177D01*
X24326752Y7839179D01*
X24130003Y7858556D01*
X24129997Y7858556D01*
X23933247Y7839179D01*
X23933236Y7839177D01*
X23744046Y7781787D01*
X23744042Y7781785D01*
X23569675Y7688584D01*
X23416843Y7563157D01*
X23291416Y7410325D01*
X23198215Y7235958D01*
X23198213Y7235954D01*
X23140823Y7046764D01*
X23140821Y7046753D01*
X23121444Y6850004D01*
X23121444Y6849997D01*
X23140821Y6653248D01*
X23140823Y6653237D01*
X23198213Y6464047D01*
X23198215Y6464043D01*
X23271409Y6327106D01*
X23291416Y6289676D01*
X23416843Y6136843D01*
X23569676Y6011416D01*
X23722121Y5929933D01*
X23744042Y5918216D01*
X23744046Y5918214D01*
X23933236Y5860824D01*
X23933237Y5860824D01*
X23933240Y5860823D01*
X23933243Y5860823D01*
X23933247Y5860822D01*
X24129997Y5841444D01*
X24130000Y5841444D01*
X24130003Y5841444D01*
X24326752Y5860822D01*
X24326754Y5860823D01*
X24326760Y5860823D01*
X24385781Y5878727D01*
X24515953Y5918214D01*
X24515955Y5918216D01*
X24515958Y5918216D01*
X24690324Y6011416D01*
X24843157Y6136843D01*
X24871301Y6171137D01*
X24929977Y6211105D01*
X25000948Y6213006D01*
X25061681Y6176236D01*
X25092893Y6112468D01*
X25094700Y6091203D01*
X25094700Y1804921D01*
X25074698Y1736800D01*
X25021042Y1690307D01*
X24950768Y1680203D01*
X24900580Y1698922D01*
X24835268Y1740895D01*
X24790053Y1769953D01*
X24788527Y1770401D01*
X24651961Y1810500D01*
X24564050Y1810500D01*
X24495929Y1830502D01*
X24449436Y1884158D01*
X24439332Y1954432D01*
X24454931Y1999500D01*
X24569056Y2197172D01*
X24569055Y2197172D01*
X24569063Y2197184D01*
X24664451Y2427471D01*
X24728965Y2668240D01*
X24761500Y2915369D01*
X24761500Y3164631D01*
X24737350Y3348063D01*
X24728966Y3411754D01*
X24728965Y3411756D01*
X24728965Y3411760D01*
X24664451Y3652529D01*
X24569063Y3882816D01*
X24569057Y3882825D01*
X24569056Y3882829D01*
X24444434Y4098681D01*
X24444429Y4098688D01*
X24292698Y4296428D01*
X24292679Y4296449D01*
X24116448Y4472680D01*
X24116427Y4472699D01*
X23918687Y4624430D01*
X23918680Y4624435D01*
X23702828Y4749057D01*
X23702820Y4749061D01*
X23702816Y4749063D01*
X23472529Y4844451D01*
X23260691Y4901213D01*
X23231753Y4908967D01*
X22984633Y4941500D01*
X22984631Y4941500D01*
X22735369Y4941500D01*
X22735366Y4941500D01*
X22488246Y4908967D01*
X22373942Y4878339D01*
X22247471Y4844451D01*
X22091680Y4779920D01*
X22017182Y4749062D01*
X22017171Y4749057D01*
X21801319Y4624435D01*
X21801312Y4624430D01*
X21603572Y4472699D01*
X21603551Y4472680D01*
X21427320Y4296449D01*
X21427301Y4296428D01*
X21275570Y4098688D01*
X21275565Y4098681D01*
X21150943Y3882829D01*
X21150938Y3882818D01*
X21150937Y3882816D01*
X21121297Y3811259D01*
X21055549Y3652529D01*
X21055548Y3652525D01*
X20991033Y3411754D01*
X20958500Y3164634D01*
X20958500Y2915367D01*
X20991033Y2668247D01*
X20991035Y2668240D01*
X21055549Y2427471D01*
X21150937Y2197184D01*
X21150938Y2197183D01*
X21150943Y2197172D01*
X21275565Y1981320D01*
X21275570Y1981313D01*
X21427301Y1783573D01*
X21427320Y1783552D01*
X21603551Y1607321D01*
X21603572Y1607302D01*
X21801312Y1455571D01*
X21801319Y1455566D01*
X22017171Y1330944D01*
X22017175Y1330943D01*
X22017184Y1330937D01*
X22247471Y1235549D01*
X22488240Y1171035D01*
X22488244Y1171035D01*
X22488246Y1171034D01*
X22551937Y1162650D01*
X22735369Y1138500D01*
X22735376Y1138500D01*
X22984624Y1138500D01*
X22984631Y1138500D01*
X23207973Y1167904D01*
X23231753Y1171034D01*
X23231753Y1171035D01*
X23231760Y1171035D01*
X23472529Y1235549D01*
X23702816Y1330937D01*
X23886637Y1437067D01*
X23955632Y1453804D01*
X24022724Y1430584D01*
X24066611Y1374777D01*
X24073281Y1319012D01*
X24074353Y1319012D01*
X24074353Y1310050D01*
X24074356Y1310024D01*
X24074353Y1310004D01*
X24074353Y1310003D01*
X24074353Y1310000D01*
X24094835Y1167543D01*
X24108099Y1138500D01*
X24154623Y1036627D01*
X24174392Y1013812D01*
X24203885Y949231D01*
X24193780Y878957D01*
X24147287Y825302D01*
X24079167Y805300D01*
X20135930Y805300D01*
X20067809Y825302D01*
X20021316Y878958D01*
X20011212Y949232D01*
X20032717Y1003570D01*
X20131970Y1145320D01*
X20224007Y1342694D01*
X20224009Y1342698D01*
X20280373Y1553055D01*
X20286020Y1617600D01*
X19535085Y1617600D01*
X19558000Y1703120D01*
X19558000Y1836880D01*
X19535085Y1922400D01*
X20286020Y1922400D01*
X20280373Y1986946D01*
X20224009Y2197303D01*
X20224007Y2197307D01*
X20131970Y2394681D01*
X20007067Y2573061D01*
X20007058Y2573072D01*
X19853071Y2727059D01*
X19853060Y2727068D01*
X19674680Y2851971D01*
X19674681Y2851971D01*
X19477306Y2944008D01*
X19477301Y2944010D01*
X19266944Y3000375D01*
X19266939Y3000376D01*
X19202400Y3006023D01*
X19202400Y2255086D01*
X19116880Y2278000D01*
X18983120Y2278000D01*
X18897600Y2255086D01*
X18897600Y3006023D01*
X18833060Y3000376D01*
X18833055Y3000375D01*
X18622698Y2944010D01*
X18622693Y2944008D01*
X18425319Y2851971D01*
X18246939Y2727068D01*
X18246933Y2727064D01*
X18225517Y2705647D01*
X18163204Y2671623D01*
X18092388Y2676689D01*
X18085116Y2682133D01*
X18102409Y2635771D01*
X18087318Y2566397D01*
X18079944Y2554512D01*
X17968027Y2394677D01*
X17875992Y2197307D01*
X17875990Y2197302D01*
X17849192Y2097289D01*
X17812240Y2036666D01*
X17748379Y2005645D01*
X17677885Y2014073D01*
X17623138Y2059276D01*
X17606295Y2095419D01*
X17580850Y2184850D01*
X17580849Y2184852D01*
X17546718Y2253396D01*
X17534258Y2323291D01*
X17561565Y2388827D01*
X17570413Y2398655D01*
X17745254Y2573496D01*
X17887636Y2715878D01*
X17949947Y2749903D01*
X18020762Y2744838D01*
X18028035Y2739393D01*
X18010744Y2785758D01*
X18025837Y2855132D01*
X18027283Y2857709D01*
X18064494Y2922158D01*
X18069327Y2940193D01*
X18070480Y2944496D01*
X18077832Y2971937D01*
X18085300Y2999807D01*
X18085300Y3017113D01*
X18105302Y3085234D01*
X18158054Y3131309D01*
X18162267Y3133273D01*
X18246727Y3217733D01*
X18297206Y3325986D01*
X18303700Y3375312D01*
X18303700Y3724688D01*
X18297206Y3774014D01*
X18246727Y3882267D01*
X18246725Y3882269D01*
X18246725Y3882270D01*
X18158090Y3970905D01*
X18124064Y4033217D01*
X18129129Y4104032D01*
X18158090Y4149095D01*
X18246725Y4237731D01*
X18246727Y4237733D01*
X18297206Y4345986D01*
X18303700Y4395312D01*
X18303700Y4744688D01*
X18297206Y4794014D01*
X18290614Y4808149D01*
X18279954Y4878339D01*
X18280071Y4879181D01*
X18298880Y5010000D01*
X18278267Y5153368D01*
X18218097Y5285121D01*
X18123246Y5394586D01*
X18123245Y5394587D01*
X18123244Y5394588D01*
X18001400Y5472892D01*
X18001397Y5472894D01*
X18001396Y5472894D01*
X17996597Y5474303D01*
X17862421Y5513700D01*
X17717579Y5513700D01*
X17578606Y5472895D01*
X17578599Y5472892D01*
X17456755Y5394588D01*
X17361903Y5285122D01*
X17301733Y5153369D01*
X17286387Y5046632D01*
X17281120Y5010000D01*
X17290968Y4941500D01*
X17295194Y4912111D01*
X17285089Y4841837D01*
X17284671Y4840932D01*
X17262795Y4794019D01*
X17262792Y4794010D01*
X17256300Y4744693D01*
X17256300Y4488689D01*
X17236298Y4420568D01*
X17182642Y4374075D01*
X17112368Y4363971D01*
X17094804Y4367792D01*
X17071279Y4374699D01*
X17055272Y4379399D01*
X16910430Y4379399D01*
X16771457Y4338594D01*
X16771450Y4338591D01*
X16649606Y4260287D01*
X16618585Y4224486D01*
X16558859Y4186103D01*
X16523361Y4180999D01*
X16496694Y4180999D01*
X16444928Y4167129D01*
X16419045Y4160193D01*
X16349431Y4120002D01*
X16349425Y4119997D01*
X15983213Y3753785D01*
X15920901Y3719760D01*
X15850085Y3724825D01*
X15793250Y3767372D01*
X15779923Y3789632D01*
X15779661Y3790193D01*
X15743454Y3867841D01*
X15736727Y3882268D01*
X15648090Y3970905D01*
X15614064Y4033217D01*
X15619129Y4104032D01*
X15648090Y4149095D01*
X15736725Y4237731D01*
X15736727Y4237733D01*
X15787206Y4345986D01*
X15793700Y4395312D01*
X15793700Y4744688D01*
X15787206Y4794014D01*
X15736727Y4902267D01*
X15736725Y4902269D01*
X15736725Y4902270D01*
X15652269Y4986726D01*
X15652267Y4986727D01*
X15544012Y5037207D01*
X15494692Y5043700D01*
X15494688Y5043700D01*
X15045312Y5043700D01*
X15045307Y5043700D01*
X14995987Y5037207D01*
X14887733Y4986727D01*
X14887730Y4986726D01*
X14803274Y4902270D01*
X14803274Y4902269D01*
X14752793Y4794013D01*
X14746300Y4744693D01*
X14746300Y4600250D01*
X14726298Y4532129D01*
X14709395Y4511155D01*
X14280505Y4082266D01*
X14280497Y4082256D01*
X14252923Y4034495D01*
X14240308Y4012647D01*
X14240305Y4012640D01*
X14229123Y3970905D01*
X14220162Y3937461D01*
X14219500Y3934992D01*
X14219500Y3863449D01*
X14199498Y3795328D01*
X14182595Y3774354D01*
X14070446Y3662205D01*
X14008134Y3628179D01*
X13981351Y3625300D01*
X13878649Y3625300D01*
X13810528Y3645302D01*
X13789554Y3662205D01*
X13663805Y3787954D01*
X13629779Y3850266D01*
X13626900Y3877049D01*
X13626900Y9670257D01*
X13626899Y9670259D01*
X13625764Y9674494D01*
X13610490Y9731497D01*
X13606094Y9747906D01*
X13602749Y9753700D01*
X13587660Y9779835D01*
X13570922Y9848830D01*
X13572062Y9860769D01*
X13573621Y9871611D01*
X13575546Y9884998D01*
X13554933Y10028366D01*
X13494763Y10160119D01*
X13399912Y10269584D01*
X13399911Y10269585D01*
X13399910Y10269586D01*
X13278066Y10347890D01*
X13278063Y10347892D01*
X13278062Y10347892D01*
X13206316Y10368958D01*
X13139087Y10388698D01*
X12994245Y10388698D01*
X12855272Y10347893D01*
X12855265Y10347890D01*
X12733421Y10269586D01*
X12638569Y10160120D01*
X12578399Y10028367D01*
X12567332Y9951395D01*
X12557786Y9884998D01*
X12578399Y9741630D01*
X12638569Y9609877D01*
X12732690Y9501254D01*
X12733421Y9500411D01*
X12845154Y9428605D01*
X12855270Y9422104D01*
X12925797Y9401396D01*
X12985524Y9363013D01*
X13015017Y9298433D01*
X13016300Y9280500D01*
X13016300Y6513344D01*
X12996298Y6445223D01*
X12942642Y6398730D01*
X12872368Y6388626D01*
X12854803Y6392447D01*
X12782421Y6413700D01*
X12637579Y6413700D01*
X12498606Y6372895D01*
X12498599Y6372892D01*
X12376755Y6294588D01*
X12281903Y6185122D01*
X12221733Y6053369D01*
X12201120Y5910000D01*
X12221733Y5766632D01*
X12281903Y5634879D01*
X12281906Y5634875D01*
X12365524Y5538374D01*
X12395017Y5473794D01*
X12396300Y5455862D01*
X12396300Y5103635D01*
X12376298Y5035514D01*
X12323554Y4989442D01*
X12317733Y4986728D01*
X12317730Y4986726D01*
X12233274Y4902270D01*
X12233274Y4902269D01*
X12182793Y4794013D01*
X12176300Y4744693D01*
X12176300Y4395308D01*
X12182793Y4345988D01*
X12182794Y4345986D01*
X12233273Y4237733D01*
X12233274Y4237732D01*
X12233274Y4237731D01*
X12321910Y4149095D01*
X12355936Y4086783D01*
X12350871Y4015968D01*
X12321910Y3970905D01*
X12233274Y3882270D01*
X12233274Y3882269D01*
X12182793Y3774013D01*
X12176300Y3724693D01*
X12176300Y3375308D01*
X12182793Y3325988D01*
X12182794Y3325986D01*
X12233273Y3217733D01*
X12233274Y3217732D01*
X12233274Y3217731D01*
X12250527Y3200478D01*
X12284553Y3138166D01*
X12279488Y3067351D01*
X12250527Y3022288D01*
X12060743Y2832504D01*
X11998431Y2798478D01*
X11927616Y2803543D01*
X11926131Y2804108D01*
X11866823Y2827084D01*
X11801112Y2852541D01*
X11744277Y2874559D01*
X11744278Y2874559D01*
X11744275Y2874560D01*
X11744274Y2874560D01*
X11535961Y2913500D01*
X11324039Y2913500D01*
X11124703Y2876238D01*
X11115721Y2874559D01*
X10918119Y2798007D01*
X10918108Y2798002D01*
X10737933Y2686442D01*
X10581324Y2543674D01*
X10453612Y2374556D01*
X10359150Y2184850D01*
X10359147Y2184842D01*
X10301154Y1981017D01*
X10285462Y1811672D01*
X10268755Y1769601D01*
X10283656Y1740895D01*
X10285462Y1728329D01*
X10301154Y1558984D01*
X10359147Y1355159D01*
X10359148Y1355155D01*
X10359150Y1355150D01*
X10453611Y1165446D01*
X10573091Y1007230D01*
X10598180Y940817D01*
X10583381Y871380D01*
X10533390Y820967D01*
X10472540Y805300D01*
X9847460Y805300D01*
X9779339Y825302D01*
X9732846Y878958D01*
X9722742Y949232D01*
X9746908Y1007229D01*
X9866389Y1165446D01*
X9960850Y1355150D01*
X10018845Y1558982D01*
X10030078Y1680203D01*
X10034538Y1728329D01*
X10051244Y1770401D01*
X10036344Y1799106D01*
X10034538Y1811672D01*
X10018845Y1981017D01*
X9996578Y2059276D01*
X9960850Y2184850D01*
X9866389Y2374554D01*
X9738677Y2543671D01*
X9738675Y2543674D01*
X9582066Y2686442D01*
X9424652Y2783909D01*
X9377265Y2836776D01*
X9365982Y2906870D01*
X9394386Y2971937D01*
X9401877Y2980120D01*
X9577288Y3155531D01*
X9639598Y3189555D01*
X9710413Y3184490D01*
X9755476Y3155529D01*
X9777730Y3133275D01*
X9777731Y3133275D01*
X9777733Y3133273D01*
X9885986Y3082794D01*
X9935312Y3076300D01*
X9935319Y3076300D01*
X10384681Y3076300D01*
X10384688Y3076300D01*
X10434014Y3082794D01*
X10542267Y3133273D01*
X10626727Y3217733D01*
X10677206Y3325986D01*
X10683700Y3375312D01*
X10683700Y3592013D01*
X10703702Y3660134D01*
X10720600Y3681104D01*
X11053021Y4013524D01*
X11093004Y4082776D01*
X11113700Y4160017D01*
X11113700Y4239983D01*
X11113700Y5134321D01*
X11133702Y5202442D01*
X11144471Y5216829D01*
X11238097Y5324879D01*
X11298267Y5456632D01*
X11318880Y5600000D01*
X11298267Y5743368D01*
X11238097Y5875121D01*
X11146074Y5981322D01*
X11116582Y6045902D01*
X11115300Y6063833D01*
X11115300Y6800300D01*
X11135302Y6868421D01*
X11188958Y6914914D01*
X11241300Y6926300D01*
X11332421Y6926300D01*
X11471396Y6967106D01*
X11593246Y7045414D01*
X11688097Y7154879D01*
X11748267Y7286632D01*
X11768880Y7430000D01*
X11748267Y7573368D01*
X11688097Y7705121D01*
X11593246Y7814586D01*
X11593245Y7814587D01*
X11593244Y7814588D01*
X11471400Y7892892D01*
X11471397Y7892894D01*
X11471396Y7892894D01*
X11349766Y7928607D01*
X11332421Y7933700D01*
X11187579Y7933700D01*
X11186076Y7933484D01*
X11184574Y7933700D01*
X11178567Y7933700D01*
X11178567Y7934565D01*
X11115802Y7943592D01*
X11062149Y7990088D01*
X11042151Y8058210D01*
X11062157Y8126330D01*
X11079052Y8147295D01*
X11111155Y8179398D01*
X11173468Y8213421D01*
X11200249Y8216300D01*
X11312421Y8216300D01*
X11451396Y8257106D01*
X11573246Y8335414D01*
X11668097Y8444879D01*
X11728267Y8576632D01*
X11748880Y8720000D01*
X11728267Y8863368D01*
X11668097Y8995121D01*
X11650534Y9015390D01*
X11612998Y9058710D01*
X11583505Y9123291D01*
X11593610Y9193565D01*
X11612999Y9223735D01*
X11630559Y9244000D01*
X11690729Y9375753D01*
X11711342Y9519121D01*
X11690729Y9662489D01*
X11630559Y9794242D01*
X11535708Y9903707D01*
X11535707Y9903708D01*
X11535706Y9903709D01*
X11413862Y9982013D01*
X11413859Y9982015D01*
X11413858Y9982015D01*
X11330914Y10006369D01*
X11274883Y10022821D01*
X11130041Y10022821D01*
X11121919Y10022821D01*
X11053798Y10042823D01*
X11032828Y10059722D01*
X10846650Y10245900D01*
X10846647Y10245902D01*
X10846646Y10245903D01*
X10777032Y10286094D01*
X10699384Y10306900D01*
X9300182Y10306900D01*
X9222534Y10286094D01*
X9222533Y10286094D01*
X9222531Y10286093D01*
X9152917Y10245902D01*
X9152915Y10245901D01*
X9110615Y10203600D01*
X9010843Y10103829D01*
X8948534Y10069805D01*
X8921750Y10066925D01*
X8829579Y10066925D01*
X8690606Y10026120D01*
X8690599Y10026117D01*
X8568755Y9947813D01*
X8473903Y9838347D01*
X8413733Y9706594D01*
X8401283Y9620000D01*
X8393120Y9563225D01*
X8413733Y9419857D01*
X8473903Y9288104D01*
X8529678Y9223735D01*
X8568755Y9178638D01*
X8654877Y9123291D01*
X8690604Y9100331D01*
X8829579Y9059525D01*
X8974421Y9059525D01*
X9113396Y9100331D01*
X9235246Y9178639D01*
X9330097Y9288104D01*
X9390267Y9419857D01*
X9410880Y9563225D01*
X9410879Y9563227D01*
X9410880Y9563229D01*
X9410880Y9570300D01*
X9430882Y9638421D01*
X9484538Y9684914D01*
X9536880Y9696300D01*
X10480541Y9696300D01*
X10548662Y9676298D01*
X10569637Y9659395D01*
X10661186Y9567845D01*
X10695211Y9505533D01*
X10696807Y9496682D01*
X10714193Y9375760D01*
X10714194Y9375755D01*
X10714195Y9375753D01*
X10749506Y9298433D01*
X10774365Y9244000D01*
X10829463Y9180412D01*
X10858956Y9115830D01*
X10848851Y9045557D01*
X10829465Y9015390D01*
X10811903Y8995122D01*
X10776507Y8917615D01*
X10751733Y8863368D01*
X10735637Y8751413D01*
X10731120Y8719997D01*
X10731120Y8715071D01*
X10711118Y8646950D01*
X10694216Y8625976D01*
X9915702Y7847462D01*
X9915697Y7847456D01*
X9876077Y7778831D01*
X9876064Y7778809D01*
X9875508Y7777849D01*
X9875505Y7777841D01*
X9854700Y7700197D01*
X9854700Y5901251D01*
X9834698Y5833130D01*
X9781042Y5786637D01*
X9710768Y5776533D01*
X9646188Y5806027D01*
X9639605Y5812155D01*
X9396161Y6055598D01*
X9396155Y6055603D01*
X9326543Y6095793D01*
X9326542Y6095794D01*
X9326541Y6095794D01*
X9324929Y6096226D01*
X9323997Y6096476D01*
X9323996Y6096476D01*
X9248893Y6116600D01*
X9248890Y6116600D01*
X8639170Y6116600D01*
X8571049Y6136602D01*
X8543946Y6160087D01*
X8512924Y6195888D01*
X8391080Y6274192D01*
X8391077Y6274194D01*
X8391076Y6274194D01*
X8384070Y6276251D01*
X8252101Y6315000D01*
X8159929Y6315000D01*
X8091808Y6335002D01*
X8070838Y6351901D01*
X7958439Y6464300D01*
X7958438Y6464301D01*
X7958435Y6464303D01*
X7888824Y6504493D01*
X7888815Y6504496D01*
X7885042Y6505508D01*
X7885036Y6505508D01*
X7811173Y6525300D01*
X7811171Y6525300D01*
X6608649Y6525300D01*
X6540528Y6545302D01*
X6519554Y6562205D01*
X5878805Y7202954D01*
X5844779Y7265266D01*
X5841900Y7292049D01*
X5841900Y7859192D01*
X5832869Y7892895D01*
X5823301Y7928605D01*
X5823301Y7928607D01*
X5821096Y7936837D01*
X5821093Y7936843D01*
X5780901Y8006459D01*
X5472318Y8315042D01*
X5438292Y8377354D01*
X5443357Y8448169D01*
X5472320Y8493235D01*
X5482221Y8503136D01*
X5533237Y8612541D01*
X5539799Y8662386D01*
X5539800Y8662395D01*
X5539800Y8917605D01*
X5539799Y8917620D01*
X5536556Y8942256D01*
X5547496Y9012404D01*
X5594625Y9065502D01*
X5661478Y9084700D01*
X6008777Y9084700D01*
X6076898Y9064698D01*
X6123391Y9011042D01*
X6129672Y8994200D01*
X6130130Y8992639D01*
X6190303Y8860879D01*
X6285155Y8751413D01*
X6341705Y8715071D01*
X6407004Y8673106D01*
X6545979Y8632300D01*
X6690820Y8632300D01*
X6690821Y8632300D01*
X6753204Y8650617D01*
X6824198Y8650617D01*
X6883924Y8612234D01*
X6913417Y8547653D01*
X6914700Y8529721D01*
X6914700Y8380252D01*
X6894698Y8312131D01*
X6877795Y8291157D01*
X6807243Y8220605D01*
X6744931Y8186579D01*
X6718148Y8183700D01*
X6625977Y8183700D01*
X6487004Y8142895D01*
X6486997Y8142892D01*
X6365153Y8064588D01*
X6270301Y7955122D01*
X6210131Y7823369D01*
X6189518Y7680000D01*
X6210131Y7536632D01*
X6270301Y7404879D01*
X6365153Y7295413D01*
X6486997Y7217109D01*
X6487002Y7217106D01*
X6625977Y7176300D01*
X6770819Y7176300D01*
X6909794Y7217106D01*
X7031644Y7295414D01*
X7126495Y7404879D01*
X7186665Y7536632D01*
X7207278Y7680000D01*
X7206560Y7684992D01*
X7216659Y7755265D01*
X7242177Y7792022D01*
X7464301Y8014143D01*
X7504494Y8083761D01*
X7504958Y8085492D01*
X7525300Y8161409D01*
X7525300Y9484296D01*
X7504494Y9561944D01*
X7477328Y9608997D01*
X7471310Y9619421D01*
X7464302Y9631559D01*
X7464294Y9631569D01*
X6861568Y10234295D01*
X6861558Y10234303D01*
X6791946Y10274493D01*
X6791945Y10274494D01*
X6791944Y10274494D01*
X6788955Y10275295D01*
X6788953Y10275296D01*
X6754304Y10284580D01*
X6714296Y10295300D01*
X6714294Y10295300D01*
X5821250Y10295300D01*
X5753129Y10315302D01*
X5706636Y10368958D01*
X5696532Y10439232D01*
X5726026Y10503812D01*
X5732155Y10510395D01*
X5803565Y10581806D01*
X5803567Y10581809D01*
X5816786Y10604705D01*
X5843760Y10651424D01*
X5849333Y10672228D01*
X5849335Y10672228D01*
X5849335Y10672237D01*
X5864566Y10729073D01*
X5864566Y10929197D01*
X5884568Y10997318D01*
X5895336Y11011703D01*
X5987363Y11117908D01*
X6047533Y11249661D01*
X6068146Y11393029D01*
X6047533Y11536397D01*
X5987363Y11668150D01*
X5892512Y11777615D01*
X5892511Y11777616D01*
X5892510Y11777617D01*
X5770666Y11855921D01*
X5770663Y11855923D01*
X5770662Y11855923D01*
X5631687Y11896729D01*
X5564699Y11896729D01*
X5496578Y11916731D01*
X5450085Y11970387D01*
X5438699Y12022729D01*
X5438699Y12029490D01*
X5438698Y12029499D01*
X5424270Y12102036D01*
X5424270Y12102038D01*
X5424269Y12102040D01*
X5424269Y12102041D01*
X5369302Y12184302D01*
X5287038Y12239270D01*
X5287035Y12239271D01*
X5214494Y12253700D01*
X4405510Y12253700D01*
X4405500Y12253699D01*
X4332960Y12239270D01*
X4332959Y12239270D01*
X4250698Y12184303D01*
X4195730Y12102039D01*
X4195729Y12102036D01*
X4181300Y12029496D01*
X4181300Y11770511D01*
X4181301Y11770501D01*
X4195730Y11697961D01*
X4195730Y11697960D01*
X4250697Y11615699D01*
X4250698Y11615698D01*
X4310258Y11575901D01*
X4355786Y11521424D01*
X4364634Y11450981D01*
X4345022Y11401135D01*
X4325294Y11371611D01*
X4311300Y11301257D01*
X4311300Y11078744D01*
X4325294Y11008390D01*
X4325295Y11008387D01*
X4357626Y10960000D01*
X4378840Y10892247D01*
X4360056Y10823781D01*
X4357626Y10820000D01*
X4325295Y10771614D01*
X4325294Y10771611D01*
X4311300Y10701257D01*
X4311300Y10478744D01*
X4325294Y10408390D01*
X4325295Y10408387D01*
X4357626Y10360000D01*
X4378840Y10292247D01*
X4360056Y10223781D01*
X4357626Y10220000D01*
X4325295Y10171614D01*
X4325294Y10171611D01*
X4311300Y10101257D01*
X4311300Y9878744D01*
X4325294Y9808390D01*
X4325295Y9808387D01*
X4357626Y9760000D01*
X4378840Y9692247D01*
X4360056Y9623781D01*
X4357626Y9620000D01*
X4325295Y9571614D01*
X4325294Y9571611D01*
X4311300Y9501257D01*
X4311300Y9278741D01*
X4324434Y9212714D01*
X4318106Y9142000D01*
X4289952Y9099039D01*
X4267779Y9076866D01*
X4216762Y8967460D01*
X4210200Y8917615D01*
X4210200Y8662386D01*
X4216762Y8612541D01*
X4267779Y8503134D01*
X4289950Y8480963D01*
X4323976Y8418651D01*
X4324434Y8367287D01*
X4311300Y8301260D01*
X4311300Y8078744D01*
X4325294Y8008390D01*
X4325295Y8008387D01*
X4357626Y7960000D01*
X4378840Y7892247D01*
X4360056Y7823781D01*
X4357626Y7820000D01*
X4325295Y7771614D01*
X4325294Y7771611D01*
X4311300Y7701257D01*
X4311300Y7478744D01*
X4325294Y7408390D01*
X4325296Y7408387D01*
X4345021Y7378865D01*
X4366235Y7311112D01*
X4347451Y7242645D01*
X4310259Y7204101D01*
X4250697Y7164302D01*
X4195730Y7082039D01*
X4195729Y7082036D01*
X4181300Y7009496D01*
X4181300Y6750511D01*
X4181301Y6750501D01*
X4195730Y6677961D01*
X4195730Y6677960D01*
X4250697Y6595699D01*
X4250698Y6595698D01*
X4332962Y6540730D01*
X4405507Y6526300D01*
X5214492Y6526301D01*
X5214495Y6526302D01*
X5214499Y6526302D01*
X5238343Y6531045D01*
X5287038Y6540730D01*
X5287039Y6540731D01*
X5287040Y6540731D01*
X5319177Y6562205D01*
X5369302Y6595698D01*
X5385440Y6619850D01*
X5439916Y6665377D01*
X5510359Y6674225D01*
X5574403Y6643584D01*
X5579280Y6638961D01*
X5923653Y6294588D01*
X6242542Y5975699D01*
X6250044Y5971368D01*
X6312158Y5935506D01*
X6332964Y5929932D01*
X6389807Y5914700D01*
X7365279Y5914700D01*
X7433400Y5894698D01*
X7479893Y5841042D01*
X7489997Y5770768D01*
X7460503Y5706188D01*
X7433399Y5682702D01*
X7309347Y5602980D01*
X7214495Y5493514D01*
X7154325Y5361761D01*
X7133712Y5218392D01*
X7154325Y5075024D01*
X7154326Y5075021D01*
X7171814Y5036727D01*
X7181917Y4966453D01*
X7157423Y4912821D01*
X7159597Y4911299D01*
X7153274Y4902269D01*
X7102793Y4794013D01*
X7096300Y4744693D01*
X7096300Y4395308D01*
X7102793Y4345988D01*
X7102794Y4345986D01*
X7153273Y4237733D01*
X7153274Y4237732D01*
X7153274Y4237731D01*
X7241910Y4149095D01*
X7275936Y4086783D01*
X7270871Y4015968D01*
X7241910Y3970905D01*
X7153274Y3882270D01*
X7153274Y3882269D01*
X7102793Y3774013D01*
X7096300Y3724693D01*
X7096300Y3375308D01*
X7102793Y3325988D01*
X7102794Y3325986D01*
X7153273Y3217733D01*
X7153274Y3217732D01*
X7153274Y3217731D01*
X7237730Y3133275D01*
X7237731Y3133275D01*
X7237733Y3133273D01*
X7345986Y3082794D01*
X7395312Y3076300D01*
X7395319Y3076300D01*
X7844681Y3076300D01*
X7844688Y3076300D01*
X7894014Y3082794D01*
X8002267Y3133273D01*
X8086727Y3217733D01*
X8137206Y3325986D01*
X8143700Y3375312D01*
X8143700Y3592013D01*
X8163702Y3660134D01*
X8180605Y3681108D01*
X8941205Y4441708D01*
X9003517Y4475734D01*
X9074332Y4470669D01*
X9131168Y4428122D01*
X9155979Y4361602D01*
X9156300Y4352613D01*
X9156300Y3650250D01*
X9136298Y3582129D01*
X9119395Y3561155D01*
X8645705Y3087466D01*
X8645697Y3087456D01*
X8621559Y3045646D01*
X8621558Y3045645D01*
X8605507Y3017845D01*
X8605506Y3017843D01*
X8582668Y2932613D01*
X8545716Y2871990D01*
X8506479Y2847734D01*
X8378119Y2798007D01*
X8378108Y2798002D01*
X8197933Y2686442D01*
X8041324Y2543674D01*
X7913612Y2374556D01*
X7819150Y2184850D01*
X7819147Y2184842D01*
X7761154Y1981017D01*
X7745462Y1811672D01*
X7728755Y1769601D01*
X7743656Y1740895D01*
X7745462Y1728329D01*
X7761154Y1558984D01*
X7819147Y1355159D01*
X7819148Y1355155D01*
X7819150Y1355150D01*
X7913611Y1165446D01*
X8033091Y1007230D01*
X8058180Y940817D01*
X8043381Y871380D01*
X7993390Y820967D01*
X7932540Y805300D01*
X7307460Y805300D01*
X7239339Y825302D01*
X7192846Y878958D01*
X7182742Y949232D01*
X7206908Y1007229D01*
X7326389Y1165446D01*
X7420850Y1355150D01*
X7478845Y1558982D01*
X7490078Y1680203D01*
X7494538Y1728329D01*
X7511244Y1770401D01*
X7496344Y1799106D01*
X7494538Y1811672D01*
X7478845Y1981017D01*
X7456578Y2059276D01*
X7420850Y2184850D01*
X7326389Y2374554D01*
X7198677Y2543671D01*
X7198675Y2543674D01*
X7042066Y2686442D01*
X6861891Y2798002D01*
X6861886Y2798004D01*
X6861885Y2798005D01*
X6846134Y2804107D01*
X6664277Y2874559D01*
X6664278Y2874559D01*
X6664275Y2874560D01*
X6664274Y2874560D01*
X6455961Y2913500D01*
X6244039Y2913500D01*
X6139882Y2894030D01*
X6035724Y2874560D01*
X5853866Y2804107D01*
X5783120Y2798151D01*
X5720384Y2831388D01*
X5719255Y2832504D01*
X5112205Y3439554D01*
X5078179Y3501866D01*
X5075300Y3528649D01*
X5075300Y3790192D01*
X5054494Y3867842D01*
X5054494Y3867843D01*
X5014301Y3937458D01*
X5014299Y3937461D01*
X3477465Y5474295D01*
X3477455Y5474303D01*
X3407841Y5514494D01*
X3330193Y5535300D01*
X3330191Y5535300D01*
X2958649Y5535300D01*
X2890528Y5555302D01*
X2869554Y5572205D01*
X2682205Y5759554D01*
X2648179Y5821866D01*
X2645300Y5848649D01*
X2645300Y6206741D01*
X2665302Y6274862D01*
X2718958Y6321355D01*
X2789232Y6331459D01*
X2806798Y6327637D01*
X2808601Y6327108D01*
X2808604Y6327106D01*
X2947579Y6286300D01*
X3092421Y6286300D01*
X3188923Y6314635D01*
X3259917Y6314635D01*
X3319643Y6276251D01*
X3333538Y6256739D01*
X3377297Y6180945D01*
X3377305Y6180935D01*
X4552536Y5005704D01*
X4552539Y5005702D01*
X4552541Y5005700D01*
X4585401Y4986729D01*
X4585403Y4986727D01*
X4585404Y4986727D01*
X4622159Y4965506D01*
X4699807Y4944700D01*
X5120510Y4944700D01*
X5188631Y4924698D01*
X5215734Y4901213D01*
X5246755Y4865413D01*
X5335862Y4808148D01*
X5368604Y4787106D01*
X5507579Y4746300D01*
X5652421Y4746300D01*
X5791396Y4787106D01*
X5913246Y4865414D01*
X6008097Y4974879D01*
X6068267Y5106632D01*
X6088880Y5250000D01*
X6068267Y5393368D01*
X6008097Y5525121D01*
X5913246Y5634586D01*
X5913245Y5634587D01*
X5913244Y5634588D01*
X5791400Y5712892D01*
X5791397Y5712894D01*
X5791396Y5712894D01*
X5679125Y5745859D01*
X5652421Y5753700D01*
X5507579Y5753700D01*
X5368606Y5712895D01*
X5368599Y5712892D01*
X5246755Y5634588D01*
X5215734Y5598787D01*
X5156008Y5560404D01*
X5120510Y5555300D01*
X4918649Y5555300D01*
X4850528Y5575302D01*
X4829554Y5592205D01*
X3963805Y6457954D01*
X3929779Y6520266D01*
X3926900Y6547049D01*
X3926900Y7079382D01*
X3926900Y7079384D01*
X3907791Y7150700D01*
X3906094Y7157033D01*
X3901897Y7164302D01*
X3865901Y7226649D01*
X3865899Y7226652D01*
X3752005Y7340546D01*
X3717979Y7402858D01*
X3715100Y7429641D01*
X3715100Y9700601D01*
X3715100Y9700603D01*
X3694294Y9778251D01*
X3654101Y9847869D01*
X2997628Y10504341D01*
X2963604Y10566653D01*
X2968668Y10637468D01*
X2972529Y10646686D01*
X3003237Y10712541D01*
X3009799Y10762386D01*
X3009800Y10762395D01*
X3009800Y11017605D01*
X3009799Y11017615D01*
X3003237Y11067460D01*
X2952220Y11176867D01*
X2866866Y11262221D01*
X2757459Y11313238D01*
X2707614Y11319800D01*
X2182385Y11319800D01*
X2132540Y11313238D01*
X2023133Y11262221D01*
X1937779Y11176867D01*
X1886762Y11067460D01*
X1880200Y11017615D01*
X1880200Y10869674D01*
X1860198Y10801553D01*
X1806542Y10755060D01*
X1736268Y10744956D01*
X1689082Y10764314D01*
X1688538Y10763284D01*
X1680189Y10767697D01*
X1553630Y10811982D01*
X1523579Y10814800D01*
X1452400Y10814800D01*
X1452400Y10203600D01*
X1432398Y10135479D01*
X1378742Y10088986D01*
X1326400Y10077600D01*
X685201Y10077600D01*
X685201Y10036417D01*
X688018Y10006369D01*
X688018Y10006368D01*
X732302Y9879813D01*
X732303Y9879812D01*
X811929Y9771923D01*
X818603Y9765249D01*
X816971Y9763618D01*
X851984Y9717496D01*
X857526Y9646716D01*
X848423Y9619421D01*
X792889Y9500329D01*
X792889Y9500328D01*
X786300Y9450277D01*
X786300Y9089724D01*
X792889Y9039674D01*
X792890Y9039670D01*
X805305Y9013046D01*
X815966Y8942855D01*
X812008Y8924307D01*
X811734Y8923377D01*
X791120Y8780000D01*
X812533Y8631068D01*
X802428Y8560794D01*
X802011Y8559891D01*
X792890Y8540332D01*
X792889Y8540327D01*
X786300Y8490277D01*
X786300Y8129724D01*
X792889Y8079674D01*
X792890Y8079672D01*
X834663Y7990088D01*
X848423Y7960581D01*
X859084Y7890389D01*
X830104Y7825576D01*
X818549Y7814805D01*
X818603Y7814751D01*
X811929Y7808078D01*
X732303Y7700189D01*
X688018Y7573631D01*
X685200Y7543580D01*
X685200Y7502400D01*
X1326400Y7502400D01*
X1394521Y7482398D01*
X1441014Y7428742D01*
X1452400Y7376400D01*
X1452400Y6765201D01*
X1523569Y6765201D01*
X1523583Y6765202D01*
X1553631Y6768019D01*
X1553632Y6768019D01*
X1680187Y6812303D01*
X1680188Y6812304D01*
X1788075Y6891928D01*
X1807321Y6918005D01*
X1863866Y6960938D01*
X1934645Y6966484D01*
X1997188Y6932883D01*
X2031636Y6870804D01*
X2034700Y6843184D01*
X2034700Y5629804D01*
X2053455Y5559813D01*
X2053455Y5559811D01*
X2053456Y5559811D01*
X2053457Y5559807D01*
X2055506Y5552159D01*
X2055507Y5552157D01*
X2095697Y5482545D01*
X2095705Y5482535D01*
X2430319Y5147921D01*
X2464345Y5085609D01*
X2459280Y5014794D01*
X2416733Y4957958D01*
X2357670Y4933904D01*
X2168247Y4908967D01*
X2139309Y4901213D01*
X1927471Y4844451D01*
X1771680Y4779920D01*
X1697182Y4749062D01*
X1697171Y4749057D01*
X1481319Y4624435D01*
X1481312Y4624430D01*
X1283572Y4472699D01*
X1283551Y4472680D01*
X1107320Y4296449D01*
X1107301Y4296428D01*
X955570Y4098688D01*
X955565Y4098681D01*
X830943Y3882829D01*
X830938Y3882818D01*
X830937Y3882816D01*
X801297Y3811259D01*
X735549Y3652529D01*
X735548Y3652525D01*
X671033Y3411754D01*
X638500Y3164634D01*
X638500Y2915367D01*
X671033Y2668247D01*
X671035Y2668240D01*
X735549Y2427471D01*
X830937Y2197184D01*
X830938Y2197183D01*
X830943Y2197172D01*
X955565Y1981320D01*
X955570Y1981313D01*
X1107301Y1783573D01*
X1107320Y1783552D01*
X1283551Y1607321D01*
X1283572Y1607302D01*
X1481312Y1455571D01*
X1481319Y1455566D01*
X1697171Y1330944D01*
X1697175Y1330943D01*
X1697184Y1330937D01*
X1927471Y1235549D01*
X2168240Y1171035D01*
X2168244Y1171035D01*
X2168246Y1171034D01*
X2231937Y1162650D01*
X2415369Y1138500D01*
X2415376Y1138500D01*
X2664624Y1138500D01*
X2664631Y1138500D01*
X2887973Y1167904D01*
X2911753Y1171034D01*
X2911753Y1171035D01*
X2911760Y1171035D01*
X3152529Y1235549D01*
X3382816Y1330937D01*
X3598684Y1455568D01*
X3796436Y1607309D01*
X3972691Y1783564D01*
X4124432Y1981316D01*
X4249063Y2197184D01*
X4344451Y2427471D01*
X4408965Y2668240D01*
X4441500Y2915369D01*
X4441500Y2942551D01*
X4461502Y3010672D01*
X4515158Y3057165D01*
X4585432Y3067269D01*
X4650012Y3037775D01*
X4656595Y3031646D01*
X5289586Y2398655D01*
X5323612Y2336343D01*
X5318547Y2265528D01*
X5313282Y2253398D01*
X5279152Y2184855D01*
X5279147Y2184842D01*
X5221154Y1981017D01*
X5201601Y1770005D01*
X5201601Y1769996D01*
X5221154Y1558984D01*
X5279147Y1355159D01*
X5279148Y1355155D01*
X5279150Y1355150D01*
X5373611Y1165446D01*
X5493091Y1007230D01*
X5518180Y940817D01*
X5503381Y871380D01*
X5453390Y820967D01*
X5392540Y805300D01*
X431300Y805300D01*
X363179Y825302D01*
X316686Y878958D01*
X305300Y931300D01*
X305300Y7156417D01*
X685201Y7156417D01*
X688018Y7126369D01*
X688018Y7126368D01*
X732302Y6999813D01*
X732303Y6999812D01*
X811926Y6891927D01*
X919811Y6812304D01*
X919810Y6812304D01*
X1046369Y6768019D01*
X1076422Y6765201D01*
X1147599Y6765202D01*
X1147600Y6765202D01*
X1147600Y7197600D01*
X685201Y7197600D01*
X685201Y7156417D01*
X305300Y7156417D01*
X305300Y10423580D01*
X685200Y10423580D01*
X685200Y10382400D01*
X1147600Y10382400D01*
X1147600Y10814801D01*
X1076432Y10814800D01*
X1076415Y10814799D01*
X1046368Y10811982D01*
X1046367Y10811982D01*
X919812Y10767698D01*
X919811Y10767697D01*
X811926Y10688074D01*
X732303Y10580189D01*
X688018Y10453631D01*
X685200Y10423580D01*
X305300Y10423580D01*
X305300Y11892227D01*
X325302Y11960348D01*
X378958Y12006841D01*
X449232Y12016945D01*
X499418Y11998226D01*
X589947Y11940047D01*
X728039Y11899500D01*
X871961Y11899500D01*
X1010053Y11940047D01*
X1131128Y12017857D01*
X1225377Y12126627D01*
X1285165Y12257543D01*
X1305647Y12400000D01*
X1285165Y12542457D01*
X1225377Y12673373D01*
X1214273Y12686188D01*
X1184780Y12750769D01*
X1194885Y12821043D01*
X1241378Y12874698D01*
X1309498Y12894700D01*
X24968700Y12894700D01*
X25036821Y12874698D01*
G37*
%TD.AperFunction*%
%TD*%
%TA.AperFunction,Conductor*%
%TO.N,GND*%
G36*
X50936821Y-325302D02*
G01*
X50983314Y-378958D01*
X50994700Y-431300D01*
X50994700Y-5591202D01*
X50974698Y-5659323D01*
X50921042Y-5705816D01*
X50850768Y-5715920D01*
X50786188Y-5686426D01*
X50771301Y-5671136D01*
X50743157Y-5636843D01*
X50590324Y-5511416D01*
X50415957Y-5418215D01*
X50415953Y-5418213D01*
X50226763Y-5360823D01*
X50226752Y-5360821D01*
X50030003Y-5341444D01*
X50029997Y-5341444D01*
X49833247Y-5360821D01*
X49833236Y-5360823D01*
X49644046Y-5418213D01*
X49644042Y-5418215D01*
X49469675Y-5511416D01*
X49316843Y-5636843D01*
X49191416Y-5789675D01*
X49098215Y-5964042D01*
X49098213Y-5964046D01*
X49040823Y-6153236D01*
X49040821Y-6153247D01*
X49021444Y-6349996D01*
X49021444Y-6350003D01*
X49040821Y-6546752D01*
X49040823Y-6546763D01*
X49098213Y-6735953D01*
X49098215Y-6735957D01*
X49171409Y-6872894D01*
X49191416Y-6910324D01*
X49316843Y-7063157D01*
X49469676Y-7188584D01*
X49622121Y-7270067D01*
X49644042Y-7281784D01*
X49644046Y-7281786D01*
X49833236Y-7339176D01*
X49833237Y-7339176D01*
X49833240Y-7339177D01*
X49833243Y-7339177D01*
X49833247Y-7339178D01*
X50029997Y-7358556D01*
X50030000Y-7358556D01*
X50030003Y-7358556D01*
X50226752Y-7339178D01*
X50226754Y-7339177D01*
X50226760Y-7339177D01*
X50285781Y-7321273D01*
X50415953Y-7281786D01*
X50415955Y-7281784D01*
X50415958Y-7281784D01*
X50590324Y-7188584D01*
X50743157Y-7063157D01*
X50771301Y-7028863D01*
X50829977Y-6988895D01*
X50900948Y-6986994D01*
X50961681Y-7023764D01*
X50992893Y-7087532D01*
X50994700Y-7108797D01*
X50994700Y-11395079D01*
X50974698Y-11463200D01*
X50921042Y-11509693D01*
X50850768Y-11519797D01*
X50800580Y-11501078D01*
X50735268Y-11459105D01*
X50690053Y-11430047D01*
X50688527Y-11429599D01*
X50551961Y-11389500D01*
X50464050Y-11389500D01*
X50395929Y-11369498D01*
X50349436Y-11315842D01*
X50339332Y-11245568D01*
X50354931Y-11200500D01*
X50469056Y-11002828D01*
X50469055Y-11002828D01*
X50469063Y-11002816D01*
X50564451Y-10772529D01*
X50628965Y-10531760D01*
X50661500Y-10284631D01*
X50661500Y-10035369D01*
X50637350Y-9851937D01*
X50628966Y-9788246D01*
X50628965Y-9788244D01*
X50628965Y-9788240D01*
X50564451Y-9547471D01*
X50469063Y-9317184D01*
X50469057Y-9317175D01*
X50469056Y-9317171D01*
X50344434Y-9101319D01*
X50344429Y-9101312D01*
X50192698Y-8903572D01*
X50192679Y-8903551D01*
X50016448Y-8727320D01*
X50016427Y-8727301D01*
X49818687Y-8575570D01*
X49818680Y-8575565D01*
X49602828Y-8450943D01*
X49602820Y-8450939D01*
X49602816Y-8450937D01*
X49372529Y-8355549D01*
X49160691Y-8298787D01*
X49131753Y-8291033D01*
X48884633Y-8258500D01*
X48884631Y-8258500D01*
X48635369Y-8258500D01*
X48635366Y-8258500D01*
X48388246Y-8291033D01*
X48273942Y-8321661D01*
X48147471Y-8355549D01*
X47991680Y-8420080D01*
X47917182Y-8450938D01*
X47917171Y-8450943D01*
X47701319Y-8575565D01*
X47701312Y-8575570D01*
X47503572Y-8727301D01*
X47503551Y-8727320D01*
X47327320Y-8903551D01*
X47327301Y-8903572D01*
X47175570Y-9101312D01*
X47175565Y-9101319D01*
X47050943Y-9317171D01*
X47050938Y-9317182D01*
X47050937Y-9317184D01*
X47021297Y-9388741D01*
X46955549Y-9547471D01*
X46955548Y-9547475D01*
X46891033Y-9788246D01*
X46858500Y-10035366D01*
X46858500Y-10284633D01*
X46891033Y-10531753D01*
X46891035Y-10531760D01*
X46955549Y-10772529D01*
X47050937Y-11002816D01*
X47050938Y-11002817D01*
X47050943Y-11002828D01*
X47175565Y-11218680D01*
X47175570Y-11218687D01*
X47327301Y-11416427D01*
X47327320Y-11416448D01*
X47503551Y-11592679D01*
X47503572Y-11592698D01*
X47701312Y-11744429D01*
X47701319Y-11744434D01*
X47917171Y-11869056D01*
X47917175Y-11869057D01*
X47917184Y-11869063D01*
X48147471Y-11964451D01*
X48388240Y-12028965D01*
X48388244Y-12028965D01*
X48388246Y-12028966D01*
X48451937Y-12037350D01*
X48635369Y-12061500D01*
X48635376Y-12061500D01*
X48884624Y-12061500D01*
X48884631Y-12061500D01*
X49107973Y-12032096D01*
X49131753Y-12028966D01*
X49131753Y-12028965D01*
X49131760Y-12028965D01*
X49372529Y-11964451D01*
X49602816Y-11869063D01*
X49786637Y-11762933D01*
X49855632Y-11746196D01*
X49922724Y-11769416D01*
X49966611Y-11825223D01*
X49973281Y-11880988D01*
X49974353Y-11880988D01*
X49974353Y-11889950D01*
X49974356Y-11889976D01*
X49974353Y-11889996D01*
X49974353Y-11889997D01*
X49974353Y-11890000D01*
X49994835Y-12032457D01*
X50008099Y-12061500D01*
X50054623Y-12163373D01*
X50074392Y-12186188D01*
X50103885Y-12250769D01*
X50093780Y-12321043D01*
X50047287Y-12374698D01*
X49979167Y-12394700D01*
X46035930Y-12394700D01*
X45967809Y-12374698D01*
X45921316Y-12321042D01*
X45911212Y-12250768D01*
X45932717Y-12196430D01*
X46031970Y-12054680D01*
X46124007Y-11857306D01*
X46124009Y-11857302D01*
X46180373Y-11646945D01*
X46186020Y-11582400D01*
X45435085Y-11582400D01*
X45458000Y-11496880D01*
X45458000Y-11363120D01*
X45435085Y-11277600D01*
X46186020Y-11277600D01*
X46180373Y-11213054D01*
X46124009Y-11002697D01*
X46124007Y-11002693D01*
X46031970Y-10805319D01*
X45907067Y-10626939D01*
X45907058Y-10626928D01*
X45753071Y-10472941D01*
X45753060Y-10472932D01*
X45574680Y-10348029D01*
X45574681Y-10348029D01*
X45377306Y-10255992D01*
X45377301Y-10255990D01*
X45166944Y-10199625D01*
X45166939Y-10199624D01*
X45102400Y-10193977D01*
X45102400Y-10944914D01*
X45016880Y-10922000D01*
X44883120Y-10922000D01*
X44797600Y-10944914D01*
X44797600Y-10193977D01*
X44733060Y-10199624D01*
X44733055Y-10199625D01*
X44522698Y-10255990D01*
X44522693Y-10255992D01*
X44325319Y-10348029D01*
X44146939Y-10472932D01*
X44146933Y-10472936D01*
X44125517Y-10494353D01*
X44063204Y-10528377D01*
X43992388Y-10523311D01*
X43985116Y-10517867D01*
X44002409Y-10564229D01*
X43987318Y-10633603D01*
X43979944Y-10645488D01*
X43868027Y-10805323D01*
X43775992Y-11002693D01*
X43775990Y-11002698D01*
X43749192Y-11102711D01*
X43712240Y-11163334D01*
X43648379Y-11194355D01*
X43577885Y-11185927D01*
X43523138Y-11140724D01*
X43506295Y-11104581D01*
X43480850Y-11015150D01*
X43480849Y-11015148D01*
X43446718Y-10946604D01*
X43434258Y-10876709D01*
X43461565Y-10811173D01*
X43470413Y-10801345D01*
X43645254Y-10626504D01*
X43787636Y-10484122D01*
X43849947Y-10450097D01*
X43920762Y-10455162D01*
X43928035Y-10460607D01*
X43910744Y-10414242D01*
X43925837Y-10344868D01*
X43927283Y-10342291D01*
X43964494Y-10277842D01*
X43969327Y-10259807D01*
X43970480Y-10255504D01*
X43977832Y-10228063D01*
X43985300Y-10200193D01*
X43985300Y-10182887D01*
X44005302Y-10114766D01*
X44058054Y-10068691D01*
X44062267Y-10066727D01*
X44146727Y-9982267D01*
X44197206Y-9874014D01*
X44203700Y-9824688D01*
X44203700Y-9475312D01*
X44197206Y-9425986D01*
X44146727Y-9317733D01*
X44146725Y-9317731D01*
X44146725Y-9317730D01*
X44058090Y-9229095D01*
X44024064Y-9166783D01*
X44029129Y-9095968D01*
X44058090Y-9050905D01*
X44146725Y-8962269D01*
X44146727Y-8962267D01*
X44197206Y-8854014D01*
X44203700Y-8804688D01*
X44203700Y-8455312D01*
X44197206Y-8405986D01*
X44190614Y-8391851D01*
X44179954Y-8321661D01*
X44180071Y-8320819D01*
X44198880Y-8190000D01*
X44178267Y-8046632D01*
X44118097Y-7914879D01*
X44023246Y-7805414D01*
X44023245Y-7805413D01*
X44023244Y-7805412D01*
X43901400Y-7727108D01*
X43901397Y-7727106D01*
X43901396Y-7727106D01*
X43896597Y-7725697D01*
X43762421Y-7686300D01*
X43617579Y-7686300D01*
X43478606Y-7727105D01*
X43478599Y-7727108D01*
X43356755Y-7805412D01*
X43261903Y-7914878D01*
X43201733Y-8046631D01*
X43186387Y-8153368D01*
X43181120Y-8190000D01*
X43190968Y-8258500D01*
X43195194Y-8287889D01*
X43185089Y-8358163D01*
X43184671Y-8359068D01*
X43162795Y-8405981D01*
X43162792Y-8405990D01*
X43156300Y-8455307D01*
X43156300Y-8711311D01*
X43136298Y-8779432D01*
X43082642Y-8825925D01*
X43012368Y-8836029D01*
X42994804Y-8832208D01*
X42971279Y-8825301D01*
X42955272Y-8820601D01*
X42810430Y-8820601D01*
X42671457Y-8861406D01*
X42671450Y-8861409D01*
X42549606Y-8939713D01*
X42518585Y-8975514D01*
X42458859Y-9013897D01*
X42423361Y-9019001D01*
X42396694Y-9019001D01*
X42344928Y-9032871D01*
X42319045Y-9039807D01*
X42249431Y-9079998D01*
X42249425Y-9080003D01*
X41883213Y-9446215D01*
X41820901Y-9480240D01*
X41750085Y-9475175D01*
X41693250Y-9432628D01*
X41679923Y-9410368D01*
X41679661Y-9409807D01*
X41643454Y-9332159D01*
X41636727Y-9317732D01*
X41548090Y-9229095D01*
X41514064Y-9166783D01*
X41519129Y-9095968D01*
X41548090Y-9050905D01*
X41636725Y-8962269D01*
X41636727Y-8962267D01*
X41687206Y-8854014D01*
X41693700Y-8804688D01*
X41693700Y-8455312D01*
X41687206Y-8405986D01*
X41636727Y-8297733D01*
X41636725Y-8297731D01*
X41636725Y-8297730D01*
X41552269Y-8213274D01*
X41552267Y-8213273D01*
X41444012Y-8162793D01*
X41394692Y-8156300D01*
X41394688Y-8156300D01*
X40945312Y-8156300D01*
X40945307Y-8156300D01*
X40895987Y-8162793D01*
X40787733Y-8213273D01*
X40787730Y-8213274D01*
X40703274Y-8297730D01*
X40703274Y-8297731D01*
X40652793Y-8405987D01*
X40646300Y-8455307D01*
X40646300Y-8599750D01*
X40626298Y-8667871D01*
X40609395Y-8688845D01*
X40180505Y-9117734D01*
X40180497Y-9117744D01*
X40152923Y-9165505D01*
X40140308Y-9187353D01*
X40140305Y-9187360D01*
X40129123Y-9229095D01*
X40120162Y-9262539D01*
X40119500Y-9265008D01*
X40119500Y-9336551D01*
X40099498Y-9404672D01*
X40082595Y-9425646D01*
X39970446Y-9537795D01*
X39908134Y-9571821D01*
X39881351Y-9574700D01*
X39778649Y-9574700D01*
X39710528Y-9554698D01*
X39689554Y-9537795D01*
X39563805Y-9412046D01*
X39529779Y-9349734D01*
X39526900Y-9322951D01*
X39526900Y-3529743D01*
X39526899Y-3529741D01*
X39525764Y-3525506D01*
X39510490Y-3468503D01*
X39506094Y-3452094D01*
X39502749Y-3446300D01*
X39487660Y-3420165D01*
X39470922Y-3351170D01*
X39472062Y-3339231D01*
X39473621Y-3328389D01*
X39475546Y-3315002D01*
X39454933Y-3171634D01*
X39394763Y-3039881D01*
X39299912Y-2930416D01*
X39299911Y-2930415D01*
X39299910Y-2930414D01*
X39178066Y-2852110D01*
X39178063Y-2852108D01*
X39178062Y-2852108D01*
X39106316Y-2831042D01*
X39039087Y-2811302D01*
X38894245Y-2811302D01*
X38755272Y-2852107D01*
X38755265Y-2852110D01*
X38633421Y-2930414D01*
X38538569Y-3039880D01*
X38478399Y-3171633D01*
X38467332Y-3248605D01*
X38457786Y-3315002D01*
X38478399Y-3458370D01*
X38538569Y-3590123D01*
X38632690Y-3698746D01*
X38633421Y-3699589D01*
X38745154Y-3771395D01*
X38755270Y-3777896D01*
X38825797Y-3798604D01*
X38885524Y-3836987D01*
X38915017Y-3901567D01*
X38916300Y-3919500D01*
X38916300Y-6686656D01*
X38896298Y-6754777D01*
X38842642Y-6801270D01*
X38772368Y-6811374D01*
X38754803Y-6807553D01*
X38682421Y-6786300D01*
X38537579Y-6786300D01*
X38398606Y-6827105D01*
X38398599Y-6827108D01*
X38276755Y-6905412D01*
X38181903Y-7014878D01*
X38121733Y-7146631D01*
X38101120Y-7290000D01*
X38121733Y-7433368D01*
X38181903Y-7565121D01*
X38181906Y-7565125D01*
X38265524Y-7661626D01*
X38295017Y-7726206D01*
X38296300Y-7744138D01*
X38296300Y-8096365D01*
X38276298Y-8164486D01*
X38223554Y-8210558D01*
X38217733Y-8213272D01*
X38217730Y-8213274D01*
X38133274Y-8297730D01*
X38133274Y-8297731D01*
X38082793Y-8405987D01*
X38076300Y-8455307D01*
X38076300Y-8804692D01*
X38082793Y-8854012D01*
X38082794Y-8854014D01*
X38133273Y-8962267D01*
X38133274Y-8962268D01*
X38133274Y-8962269D01*
X38221910Y-9050905D01*
X38255936Y-9113217D01*
X38250871Y-9184032D01*
X38221910Y-9229095D01*
X38133274Y-9317730D01*
X38133274Y-9317731D01*
X38082793Y-9425987D01*
X38076300Y-9475307D01*
X38076300Y-9824692D01*
X38082793Y-9874012D01*
X38082794Y-9874014D01*
X38133273Y-9982267D01*
X38133274Y-9982268D01*
X38133274Y-9982269D01*
X38150527Y-9999522D01*
X38184553Y-10061834D01*
X38179488Y-10132649D01*
X38150527Y-10177712D01*
X37960743Y-10367496D01*
X37898431Y-10401522D01*
X37827616Y-10396457D01*
X37826131Y-10395892D01*
X37766823Y-10372916D01*
X37701112Y-10347459D01*
X37644277Y-10325441D01*
X37644278Y-10325441D01*
X37644275Y-10325440D01*
X37644274Y-10325440D01*
X37435961Y-10286500D01*
X37224039Y-10286500D01*
X37024703Y-10323762D01*
X37015721Y-10325441D01*
X36818119Y-10401993D01*
X36818108Y-10401998D01*
X36637933Y-10513558D01*
X36481324Y-10656326D01*
X36353612Y-10825444D01*
X36259150Y-11015150D01*
X36259147Y-11015158D01*
X36201154Y-11218983D01*
X36185462Y-11388328D01*
X36168755Y-11430399D01*
X36183656Y-11459105D01*
X36185462Y-11471671D01*
X36201154Y-11641016D01*
X36259147Y-11844841D01*
X36259148Y-11844845D01*
X36259150Y-11844850D01*
X36353611Y-12034554D01*
X36473091Y-12192770D01*
X36498180Y-12259183D01*
X36483381Y-12328620D01*
X36433390Y-12379033D01*
X36372540Y-12394700D01*
X35747460Y-12394700D01*
X35679339Y-12374698D01*
X35632846Y-12321042D01*
X35622742Y-12250768D01*
X35646908Y-12192771D01*
X35766389Y-12034554D01*
X35860850Y-11844850D01*
X35918845Y-11641018D01*
X35930078Y-11519797D01*
X35934538Y-11471671D01*
X35951244Y-11429599D01*
X35936344Y-11400894D01*
X35934538Y-11388328D01*
X35918845Y-11218983D01*
X35896578Y-11140724D01*
X35860850Y-11015150D01*
X35766389Y-10825446D01*
X35638677Y-10656329D01*
X35638675Y-10656326D01*
X35482066Y-10513558D01*
X35324652Y-10416091D01*
X35277265Y-10363224D01*
X35265982Y-10293130D01*
X35294386Y-10228063D01*
X35301877Y-10219880D01*
X35477288Y-10044469D01*
X35539598Y-10010445D01*
X35610413Y-10015510D01*
X35655476Y-10044471D01*
X35677730Y-10066725D01*
X35677731Y-10066725D01*
X35677733Y-10066727D01*
X35785986Y-10117206D01*
X35835312Y-10123700D01*
X35835319Y-10123700D01*
X36284681Y-10123700D01*
X36284688Y-10123700D01*
X36334014Y-10117206D01*
X36442267Y-10066727D01*
X36526727Y-9982267D01*
X36577206Y-9874014D01*
X36583700Y-9824688D01*
X36583700Y-9607987D01*
X36603702Y-9539866D01*
X36620600Y-9518896D01*
X36953021Y-9186476D01*
X36993004Y-9117224D01*
X37013700Y-9039983D01*
X37013700Y-8960017D01*
X37013700Y-8065679D01*
X37033702Y-7997558D01*
X37044471Y-7983171D01*
X37138097Y-7875121D01*
X37198267Y-7743368D01*
X37218880Y-7600000D01*
X37198267Y-7456632D01*
X37138097Y-7324879D01*
X37046074Y-7218678D01*
X37016582Y-7154098D01*
X37015300Y-7136167D01*
X37015300Y-6399700D01*
X37035302Y-6331579D01*
X37088958Y-6285086D01*
X37141300Y-6273700D01*
X37232421Y-6273700D01*
X37371396Y-6232894D01*
X37493246Y-6154586D01*
X37588097Y-6045121D01*
X37648267Y-5913368D01*
X37668880Y-5770000D01*
X37648267Y-5626632D01*
X37588097Y-5494879D01*
X37493246Y-5385414D01*
X37493245Y-5385413D01*
X37493244Y-5385412D01*
X37371400Y-5307108D01*
X37371397Y-5307106D01*
X37371396Y-5307106D01*
X37249766Y-5271393D01*
X37232421Y-5266300D01*
X37087579Y-5266300D01*
X37086076Y-5266516D01*
X37084574Y-5266300D01*
X37078567Y-5266300D01*
X37078567Y-5265435D01*
X37015802Y-5256408D01*
X36962149Y-5209912D01*
X36942151Y-5141790D01*
X36962157Y-5073670D01*
X36979052Y-5052705D01*
X37011155Y-5020602D01*
X37073468Y-4986579D01*
X37100249Y-4983700D01*
X37212421Y-4983700D01*
X37351396Y-4942894D01*
X37473246Y-4864586D01*
X37568097Y-4755121D01*
X37628267Y-4623368D01*
X37648880Y-4480000D01*
X37628267Y-4336632D01*
X37568097Y-4204879D01*
X37550534Y-4184610D01*
X37512998Y-4141290D01*
X37483505Y-4076709D01*
X37493610Y-4006435D01*
X37512999Y-3976265D01*
X37530559Y-3956000D01*
X37590729Y-3824247D01*
X37611342Y-3680879D01*
X37590729Y-3537511D01*
X37530559Y-3405758D01*
X37435708Y-3296293D01*
X37435707Y-3296292D01*
X37435706Y-3296291D01*
X37313862Y-3217987D01*
X37313859Y-3217985D01*
X37313858Y-3217985D01*
X37230914Y-3193631D01*
X37174883Y-3177179D01*
X37030041Y-3177179D01*
X37021919Y-3177179D01*
X36953798Y-3157177D01*
X36932828Y-3140278D01*
X36746650Y-2954100D01*
X36746647Y-2954098D01*
X36746646Y-2954097D01*
X36677032Y-2913906D01*
X36599384Y-2893100D01*
X35200182Y-2893100D01*
X35122534Y-2913906D01*
X35122533Y-2913906D01*
X35122531Y-2913907D01*
X35052917Y-2954098D01*
X35052915Y-2954099D01*
X35010615Y-2996400D01*
X34910843Y-3096171D01*
X34848534Y-3130195D01*
X34821750Y-3133075D01*
X34729579Y-3133075D01*
X34590606Y-3173880D01*
X34590599Y-3173883D01*
X34468755Y-3252187D01*
X34373903Y-3361653D01*
X34313733Y-3493406D01*
X34301283Y-3580000D01*
X34293120Y-3636775D01*
X34313733Y-3780143D01*
X34373903Y-3911896D01*
X34429678Y-3976265D01*
X34468755Y-4021362D01*
X34554877Y-4076709D01*
X34590604Y-4099669D01*
X34729579Y-4140475D01*
X34874421Y-4140475D01*
X35013396Y-4099669D01*
X35135246Y-4021361D01*
X35230097Y-3911896D01*
X35290267Y-3780143D01*
X35310880Y-3636775D01*
X35310879Y-3636773D01*
X35310880Y-3636771D01*
X35310880Y-3629700D01*
X35330882Y-3561579D01*
X35384538Y-3515086D01*
X35436880Y-3503700D01*
X36380541Y-3503700D01*
X36448662Y-3523702D01*
X36469637Y-3540605D01*
X36561186Y-3632155D01*
X36595211Y-3694467D01*
X36596807Y-3703318D01*
X36614193Y-3824240D01*
X36614194Y-3824245D01*
X36614195Y-3824247D01*
X36649506Y-3901567D01*
X36674365Y-3956000D01*
X36729463Y-4019588D01*
X36758956Y-4084170D01*
X36748851Y-4154443D01*
X36729465Y-4184610D01*
X36711903Y-4204878D01*
X36676507Y-4282385D01*
X36651733Y-4336632D01*
X36635637Y-4448587D01*
X36631120Y-4480003D01*
X36631120Y-4484929D01*
X36611118Y-4553050D01*
X36594216Y-4574024D01*
X35815702Y-5352538D01*
X35815697Y-5352544D01*
X35776077Y-5421169D01*
X35776064Y-5421191D01*
X35775508Y-5422151D01*
X35775505Y-5422159D01*
X35754700Y-5499803D01*
X35754700Y-7298749D01*
X35734698Y-7366870D01*
X35681042Y-7413363D01*
X35610768Y-7423467D01*
X35546188Y-7393973D01*
X35539605Y-7387845D01*
X35296161Y-7144402D01*
X35296155Y-7144397D01*
X35226543Y-7104207D01*
X35226542Y-7104206D01*
X35226541Y-7104206D01*
X35224929Y-7103774D01*
X35223997Y-7103524D01*
X35223996Y-7103524D01*
X35148893Y-7083400D01*
X35148890Y-7083400D01*
X34539170Y-7083400D01*
X34471049Y-7063398D01*
X34443946Y-7039913D01*
X34412924Y-7004112D01*
X34291080Y-6925808D01*
X34291077Y-6925806D01*
X34291076Y-6925806D01*
X34284070Y-6923749D01*
X34152101Y-6885000D01*
X34059929Y-6885000D01*
X33991808Y-6864998D01*
X33970838Y-6848099D01*
X33858439Y-6735700D01*
X33858438Y-6735699D01*
X33858435Y-6735697D01*
X33788824Y-6695507D01*
X33788815Y-6695504D01*
X33785042Y-6694492D01*
X33785036Y-6694492D01*
X33711173Y-6674700D01*
X33711171Y-6674700D01*
X32508649Y-6674700D01*
X32440528Y-6654698D01*
X32419554Y-6637795D01*
X31778805Y-5997046D01*
X31744779Y-5934734D01*
X31741900Y-5907951D01*
X31741900Y-5340808D01*
X31732869Y-5307105D01*
X31723301Y-5271395D01*
X31723301Y-5271393D01*
X31721096Y-5263163D01*
X31721093Y-5263157D01*
X31680901Y-5193541D01*
X31372318Y-4884958D01*
X31338292Y-4822646D01*
X31343357Y-4751831D01*
X31372320Y-4706765D01*
X31382221Y-4696864D01*
X31433237Y-4587459D01*
X31439799Y-4537614D01*
X31439800Y-4537605D01*
X31439800Y-4282395D01*
X31439799Y-4282380D01*
X31436556Y-4257744D01*
X31447496Y-4187596D01*
X31494625Y-4134498D01*
X31561478Y-4115300D01*
X31908777Y-4115300D01*
X31976898Y-4135302D01*
X32023391Y-4188958D01*
X32029672Y-4205800D01*
X32030130Y-4207361D01*
X32090303Y-4339121D01*
X32185155Y-4448587D01*
X32241705Y-4484929D01*
X32307004Y-4526894D01*
X32445979Y-4567700D01*
X32590820Y-4567700D01*
X32590821Y-4567700D01*
X32653204Y-4549383D01*
X32724198Y-4549383D01*
X32783924Y-4587766D01*
X32813417Y-4652347D01*
X32814700Y-4670279D01*
X32814700Y-4819748D01*
X32794698Y-4887869D01*
X32777795Y-4908843D01*
X32707243Y-4979395D01*
X32644931Y-5013421D01*
X32618148Y-5016300D01*
X32525977Y-5016300D01*
X32387004Y-5057105D01*
X32386997Y-5057108D01*
X32265153Y-5135412D01*
X32170301Y-5244878D01*
X32110131Y-5376631D01*
X32089518Y-5520000D01*
X32110131Y-5663368D01*
X32170301Y-5795121D01*
X32265153Y-5904587D01*
X32386997Y-5982891D01*
X32387002Y-5982894D01*
X32525977Y-6023700D01*
X32670819Y-6023700D01*
X32809794Y-5982894D01*
X32931644Y-5904586D01*
X33026495Y-5795121D01*
X33086665Y-5663368D01*
X33107278Y-5520000D01*
X33106560Y-5515008D01*
X33116659Y-5444735D01*
X33142177Y-5407978D01*
X33364301Y-5185857D01*
X33404494Y-5116239D01*
X33404958Y-5114508D01*
X33425300Y-5038591D01*
X33425300Y-3715704D01*
X33404494Y-3638056D01*
X33377328Y-3591003D01*
X33371310Y-3580579D01*
X33364302Y-3568441D01*
X33364294Y-3568431D01*
X32761568Y-2965705D01*
X32761558Y-2965697D01*
X32691946Y-2925507D01*
X32691945Y-2925506D01*
X32691944Y-2925506D01*
X32688955Y-2924705D01*
X32688953Y-2924704D01*
X32654304Y-2915420D01*
X32614296Y-2904700D01*
X32614294Y-2904700D01*
X31721250Y-2904700D01*
X31653129Y-2884698D01*
X31606636Y-2831042D01*
X31596532Y-2760768D01*
X31626026Y-2696188D01*
X31632155Y-2689605D01*
X31703565Y-2618194D01*
X31703567Y-2618191D01*
X31716786Y-2595295D01*
X31743760Y-2548576D01*
X31749333Y-2527772D01*
X31749335Y-2527772D01*
X31749335Y-2527763D01*
X31764566Y-2470927D01*
X31764566Y-2270803D01*
X31784568Y-2202682D01*
X31795336Y-2188297D01*
X31887363Y-2082092D01*
X31947533Y-1950339D01*
X31968146Y-1806971D01*
X31947533Y-1663603D01*
X31887363Y-1531850D01*
X31792512Y-1422385D01*
X31792511Y-1422384D01*
X31792510Y-1422383D01*
X31670666Y-1344079D01*
X31670663Y-1344077D01*
X31670662Y-1344077D01*
X31531687Y-1303271D01*
X31464699Y-1303271D01*
X31396578Y-1283269D01*
X31350085Y-1229613D01*
X31338699Y-1177271D01*
X31338699Y-1170510D01*
X31338698Y-1170501D01*
X31324270Y-1097964D01*
X31324270Y-1097962D01*
X31324269Y-1097960D01*
X31324269Y-1097959D01*
X31269302Y-1015698D01*
X31187038Y-960730D01*
X31187035Y-960729D01*
X31114494Y-946300D01*
X30305510Y-946300D01*
X30305500Y-946301D01*
X30232960Y-960730D01*
X30232959Y-960730D01*
X30150698Y-1015697D01*
X30095730Y-1097961D01*
X30095729Y-1097964D01*
X30081300Y-1170504D01*
X30081300Y-1429489D01*
X30081301Y-1429499D01*
X30095730Y-1502039D01*
X30095730Y-1502040D01*
X30150697Y-1584301D01*
X30150698Y-1584302D01*
X30210258Y-1624099D01*
X30255786Y-1678576D01*
X30264634Y-1749019D01*
X30245022Y-1798865D01*
X30225294Y-1828389D01*
X30211300Y-1898743D01*
X30211300Y-2121256D01*
X30225294Y-2191610D01*
X30225295Y-2191613D01*
X30257626Y-2240000D01*
X30278840Y-2307753D01*
X30260056Y-2376219D01*
X30257626Y-2380000D01*
X30225295Y-2428386D01*
X30225294Y-2428389D01*
X30211300Y-2498743D01*
X30211300Y-2721256D01*
X30225294Y-2791610D01*
X30225295Y-2791613D01*
X30257626Y-2840000D01*
X30278840Y-2907753D01*
X30260056Y-2976219D01*
X30257626Y-2980000D01*
X30225295Y-3028386D01*
X30225294Y-3028389D01*
X30211300Y-3098743D01*
X30211300Y-3321256D01*
X30225294Y-3391610D01*
X30225295Y-3391613D01*
X30257626Y-3440000D01*
X30278840Y-3507753D01*
X30260056Y-3576219D01*
X30257626Y-3580000D01*
X30225295Y-3628386D01*
X30225294Y-3628389D01*
X30211300Y-3698743D01*
X30211300Y-3921259D01*
X30224434Y-3987286D01*
X30218106Y-4058000D01*
X30189952Y-4100961D01*
X30167779Y-4123134D01*
X30116762Y-4232540D01*
X30110200Y-4282385D01*
X30110200Y-4537614D01*
X30116762Y-4587459D01*
X30167779Y-4696866D01*
X30189950Y-4719037D01*
X30223976Y-4781349D01*
X30224434Y-4832713D01*
X30211300Y-4898740D01*
X30211300Y-5121256D01*
X30225294Y-5191610D01*
X30225295Y-5191613D01*
X30257626Y-5240000D01*
X30278840Y-5307753D01*
X30260056Y-5376219D01*
X30257626Y-5380000D01*
X30225295Y-5428386D01*
X30225294Y-5428389D01*
X30211300Y-5498743D01*
X30211300Y-5721256D01*
X30225294Y-5791610D01*
X30225296Y-5791613D01*
X30245021Y-5821135D01*
X30266235Y-5888888D01*
X30247451Y-5957355D01*
X30210259Y-5995899D01*
X30150697Y-6035698D01*
X30095730Y-6117961D01*
X30095729Y-6117964D01*
X30081300Y-6190504D01*
X30081300Y-6449489D01*
X30081301Y-6449499D01*
X30095730Y-6522039D01*
X30095730Y-6522040D01*
X30150697Y-6604301D01*
X30150698Y-6604302D01*
X30232962Y-6659270D01*
X30305507Y-6673700D01*
X31114492Y-6673699D01*
X31114495Y-6673698D01*
X31114499Y-6673698D01*
X31138343Y-6668955D01*
X31187038Y-6659270D01*
X31187039Y-6659269D01*
X31187040Y-6659269D01*
X31219177Y-6637795D01*
X31269302Y-6604302D01*
X31285440Y-6580150D01*
X31339916Y-6534623D01*
X31410359Y-6525775D01*
X31474403Y-6556416D01*
X31479280Y-6561039D01*
X31823653Y-6905412D01*
X32142542Y-7224301D01*
X32150044Y-7228632D01*
X32212158Y-7264494D01*
X32232964Y-7270068D01*
X32289807Y-7285300D01*
X33265279Y-7285300D01*
X33333400Y-7305302D01*
X33379893Y-7358958D01*
X33389997Y-7429232D01*
X33360503Y-7493812D01*
X33333399Y-7517298D01*
X33209347Y-7597020D01*
X33114495Y-7706486D01*
X33054325Y-7838239D01*
X33033712Y-7981608D01*
X33054325Y-8124976D01*
X33054326Y-8124979D01*
X33071814Y-8163273D01*
X33081917Y-8233547D01*
X33057423Y-8287179D01*
X33059597Y-8288701D01*
X33053274Y-8297731D01*
X33002793Y-8405987D01*
X32996300Y-8455307D01*
X32996300Y-8804692D01*
X33002793Y-8854012D01*
X33002794Y-8854014D01*
X33053273Y-8962267D01*
X33053274Y-8962268D01*
X33053274Y-8962269D01*
X33141910Y-9050905D01*
X33175936Y-9113217D01*
X33170871Y-9184032D01*
X33141910Y-9229095D01*
X33053274Y-9317730D01*
X33053274Y-9317731D01*
X33002793Y-9425987D01*
X32996300Y-9475307D01*
X32996300Y-9824692D01*
X33002793Y-9874012D01*
X33002794Y-9874014D01*
X33053273Y-9982267D01*
X33053274Y-9982268D01*
X33053274Y-9982269D01*
X33137730Y-10066725D01*
X33137731Y-10066725D01*
X33137733Y-10066727D01*
X33245986Y-10117206D01*
X33295312Y-10123700D01*
X33295319Y-10123700D01*
X33744681Y-10123700D01*
X33744688Y-10123700D01*
X33794014Y-10117206D01*
X33902267Y-10066727D01*
X33986727Y-9982267D01*
X34037206Y-9874014D01*
X34043700Y-9824688D01*
X34043700Y-9607987D01*
X34063702Y-9539866D01*
X34080605Y-9518892D01*
X34841205Y-8758292D01*
X34903517Y-8724266D01*
X34974332Y-8729331D01*
X35031168Y-8771878D01*
X35055979Y-8838398D01*
X35056300Y-8847387D01*
X35056300Y-9549750D01*
X35036298Y-9617871D01*
X35019395Y-9638845D01*
X34545705Y-10112534D01*
X34545697Y-10112544D01*
X34521559Y-10154354D01*
X34521558Y-10154355D01*
X34505507Y-10182155D01*
X34505506Y-10182157D01*
X34482668Y-10267387D01*
X34445716Y-10328010D01*
X34406479Y-10352266D01*
X34278119Y-10401993D01*
X34278108Y-10401998D01*
X34097933Y-10513558D01*
X33941324Y-10656326D01*
X33813612Y-10825444D01*
X33719150Y-11015150D01*
X33719147Y-11015158D01*
X33661154Y-11218983D01*
X33645462Y-11388328D01*
X33628755Y-11430399D01*
X33643656Y-11459105D01*
X33645462Y-11471671D01*
X33661154Y-11641016D01*
X33719147Y-11844841D01*
X33719148Y-11844845D01*
X33719150Y-11844850D01*
X33813611Y-12034554D01*
X33933091Y-12192770D01*
X33958180Y-12259183D01*
X33943381Y-12328620D01*
X33893390Y-12379033D01*
X33832540Y-12394700D01*
X33207460Y-12394700D01*
X33139339Y-12374698D01*
X33092846Y-12321042D01*
X33082742Y-12250768D01*
X33106908Y-12192771D01*
X33226389Y-12034554D01*
X33320850Y-11844850D01*
X33378845Y-11641018D01*
X33390078Y-11519797D01*
X33394538Y-11471671D01*
X33411244Y-11429599D01*
X33396344Y-11400894D01*
X33394538Y-11388328D01*
X33378845Y-11218983D01*
X33356578Y-11140724D01*
X33320850Y-11015150D01*
X33226389Y-10825446D01*
X33098677Y-10656329D01*
X33098675Y-10656326D01*
X32942066Y-10513558D01*
X32761891Y-10401998D01*
X32761886Y-10401996D01*
X32761885Y-10401995D01*
X32746134Y-10395893D01*
X32564277Y-10325441D01*
X32564278Y-10325441D01*
X32564275Y-10325440D01*
X32564274Y-10325440D01*
X32355961Y-10286500D01*
X32144039Y-10286500D01*
X32039882Y-10305970D01*
X31935724Y-10325440D01*
X31753866Y-10395893D01*
X31683120Y-10401849D01*
X31620384Y-10368612D01*
X31619255Y-10367496D01*
X31012205Y-9760446D01*
X30978179Y-9698134D01*
X30975300Y-9671351D01*
X30975300Y-9409808D01*
X30954494Y-9332158D01*
X30954494Y-9332157D01*
X30914301Y-9262542D01*
X30914299Y-9262539D01*
X29377465Y-7725705D01*
X29377455Y-7725697D01*
X29307841Y-7685506D01*
X29230193Y-7664700D01*
X29230191Y-7664700D01*
X28858649Y-7664700D01*
X28790528Y-7644698D01*
X28769554Y-7627795D01*
X28582205Y-7440446D01*
X28548179Y-7378134D01*
X28545300Y-7351351D01*
X28545300Y-6993259D01*
X28565302Y-6925138D01*
X28618958Y-6878645D01*
X28689232Y-6868541D01*
X28706798Y-6872363D01*
X28708601Y-6872892D01*
X28708604Y-6872894D01*
X28847579Y-6913700D01*
X28992421Y-6913700D01*
X29088923Y-6885365D01*
X29159917Y-6885365D01*
X29219643Y-6923749D01*
X29233538Y-6943261D01*
X29277297Y-7019055D01*
X29277305Y-7019065D01*
X30452536Y-8194296D01*
X30452539Y-8194298D01*
X30452541Y-8194300D01*
X30485401Y-8213271D01*
X30485403Y-8213273D01*
X30485404Y-8213273D01*
X30522159Y-8234494D01*
X30599807Y-8255300D01*
X31020510Y-8255300D01*
X31088631Y-8275302D01*
X31115734Y-8298787D01*
X31146755Y-8334587D01*
X31235862Y-8391852D01*
X31268604Y-8412894D01*
X31407579Y-8453700D01*
X31552421Y-8453700D01*
X31691396Y-8412894D01*
X31813246Y-8334586D01*
X31908097Y-8225121D01*
X31968267Y-8093368D01*
X31988880Y-7950000D01*
X31968267Y-7806632D01*
X31908097Y-7674879D01*
X31813246Y-7565414D01*
X31813245Y-7565413D01*
X31813244Y-7565412D01*
X31691400Y-7487108D01*
X31691397Y-7487106D01*
X31691396Y-7487106D01*
X31579125Y-7454141D01*
X31552421Y-7446300D01*
X31407579Y-7446300D01*
X31268606Y-7487105D01*
X31268599Y-7487108D01*
X31146755Y-7565412D01*
X31115734Y-7601213D01*
X31056008Y-7639596D01*
X31020510Y-7644700D01*
X30818649Y-7644700D01*
X30750528Y-7624698D01*
X30729554Y-7607795D01*
X29863805Y-6742046D01*
X29829779Y-6679734D01*
X29826900Y-6652951D01*
X29826900Y-6120618D01*
X29826900Y-6120616D01*
X29807791Y-6049300D01*
X29806094Y-6042967D01*
X29801897Y-6035698D01*
X29765901Y-5973351D01*
X29765899Y-5973348D01*
X29652005Y-5859454D01*
X29617979Y-5797142D01*
X29615100Y-5770359D01*
X29615100Y-3499399D01*
X29615100Y-3499397D01*
X29594294Y-3421749D01*
X29554101Y-3352131D01*
X28897628Y-2695659D01*
X28863604Y-2633347D01*
X28868668Y-2562532D01*
X28872529Y-2553314D01*
X28903237Y-2487459D01*
X28909799Y-2437614D01*
X28909800Y-2437605D01*
X28909800Y-2182395D01*
X28909799Y-2182385D01*
X28903237Y-2132540D01*
X28852220Y-2023133D01*
X28766866Y-1937779D01*
X28657459Y-1886762D01*
X28607614Y-1880200D01*
X28082385Y-1880200D01*
X28032540Y-1886762D01*
X27923133Y-1937779D01*
X27837779Y-2023133D01*
X27786762Y-2132540D01*
X27780200Y-2182385D01*
X27780200Y-2330326D01*
X27760198Y-2398447D01*
X27706542Y-2444940D01*
X27636268Y-2455044D01*
X27589082Y-2435686D01*
X27588538Y-2436716D01*
X27580189Y-2432303D01*
X27453630Y-2388018D01*
X27423579Y-2385200D01*
X27352400Y-2385200D01*
X27352400Y-2996400D01*
X27332398Y-3064521D01*
X27278742Y-3111014D01*
X27226400Y-3122400D01*
X26585201Y-3122400D01*
X26585201Y-3163583D01*
X26588018Y-3193631D01*
X26588018Y-3193632D01*
X26632302Y-3320187D01*
X26632303Y-3320188D01*
X26711929Y-3428077D01*
X26718603Y-3434751D01*
X26716971Y-3436382D01*
X26751984Y-3482504D01*
X26757526Y-3553284D01*
X26748423Y-3580579D01*
X26692889Y-3699671D01*
X26692889Y-3699672D01*
X26686300Y-3749723D01*
X26686300Y-4110276D01*
X26692889Y-4160326D01*
X26692890Y-4160330D01*
X26705305Y-4186954D01*
X26715966Y-4257145D01*
X26712008Y-4275693D01*
X26711734Y-4276623D01*
X26691120Y-4420000D01*
X26712533Y-4568932D01*
X26702428Y-4639206D01*
X26702011Y-4640109D01*
X26692890Y-4659668D01*
X26692889Y-4659673D01*
X26686300Y-4709723D01*
X26686300Y-5070276D01*
X26692889Y-5120326D01*
X26692890Y-5120328D01*
X26734663Y-5209912D01*
X26748423Y-5239419D01*
X26759084Y-5309611D01*
X26730104Y-5374424D01*
X26718549Y-5385195D01*
X26718603Y-5385249D01*
X26711929Y-5391922D01*
X26632303Y-5499811D01*
X26588018Y-5626369D01*
X26585200Y-5656420D01*
X26585200Y-5697600D01*
X27226400Y-5697600D01*
X27294521Y-5717602D01*
X27341014Y-5771258D01*
X27352400Y-5823600D01*
X27352400Y-6434799D01*
X27423569Y-6434799D01*
X27423583Y-6434798D01*
X27453631Y-6431981D01*
X27453632Y-6431981D01*
X27580187Y-6387697D01*
X27580188Y-6387696D01*
X27688075Y-6308072D01*
X27707321Y-6281995D01*
X27763866Y-6239062D01*
X27834645Y-6233516D01*
X27897188Y-6267117D01*
X27931636Y-6329196D01*
X27934700Y-6356816D01*
X27934700Y-7570196D01*
X27953455Y-7640187D01*
X27953455Y-7640189D01*
X27953456Y-7640189D01*
X27953457Y-7640193D01*
X27955506Y-7647841D01*
X27955507Y-7647843D01*
X27995697Y-7717455D01*
X27995705Y-7717465D01*
X28330319Y-8052079D01*
X28364345Y-8114391D01*
X28359280Y-8185206D01*
X28316733Y-8242042D01*
X28257670Y-8266096D01*
X28068247Y-8291033D01*
X28039309Y-8298787D01*
X27827471Y-8355549D01*
X27671680Y-8420080D01*
X27597182Y-8450938D01*
X27597171Y-8450943D01*
X27381319Y-8575565D01*
X27381312Y-8575570D01*
X27183572Y-8727301D01*
X27183551Y-8727320D01*
X27007320Y-8903551D01*
X27007301Y-8903572D01*
X26855570Y-9101312D01*
X26855565Y-9101319D01*
X26730943Y-9317171D01*
X26730938Y-9317182D01*
X26730937Y-9317184D01*
X26701297Y-9388741D01*
X26635549Y-9547471D01*
X26635548Y-9547475D01*
X26571033Y-9788246D01*
X26538500Y-10035366D01*
X26538500Y-10284633D01*
X26571033Y-10531753D01*
X26571035Y-10531760D01*
X26635549Y-10772529D01*
X26730937Y-11002816D01*
X26730938Y-11002817D01*
X26730943Y-11002828D01*
X26855565Y-11218680D01*
X26855570Y-11218687D01*
X27007301Y-11416427D01*
X27007320Y-11416448D01*
X27183551Y-11592679D01*
X27183572Y-11592698D01*
X27381312Y-11744429D01*
X27381319Y-11744434D01*
X27597171Y-11869056D01*
X27597175Y-11869057D01*
X27597184Y-11869063D01*
X27827471Y-11964451D01*
X28068240Y-12028965D01*
X28068244Y-12028965D01*
X28068246Y-12028966D01*
X28131937Y-12037350D01*
X28315369Y-12061500D01*
X28315376Y-12061500D01*
X28564624Y-12061500D01*
X28564631Y-12061500D01*
X28787973Y-12032096D01*
X28811753Y-12028966D01*
X28811753Y-12028965D01*
X28811760Y-12028965D01*
X29052529Y-11964451D01*
X29282816Y-11869063D01*
X29498684Y-11744432D01*
X29696436Y-11592691D01*
X29872691Y-11416436D01*
X30024432Y-11218684D01*
X30149063Y-11002816D01*
X30244451Y-10772529D01*
X30308965Y-10531760D01*
X30341500Y-10284631D01*
X30341500Y-10257449D01*
X30361502Y-10189328D01*
X30415158Y-10142835D01*
X30485432Y-10132731D01*
X30550012Y-10162225D01*
X30556595Y-10168354D01*
X31189586Y-10801345D01*
X31223612Y-10863657D01*
X31218547Y-10934472D01*
X31213282Y-10946602D01*
X31179152Y-11015145D01*
X31179147Y-11015158D01*
X31121154Y-11218983D01*
X31101601Y-11429995D01*
X31101601Y-11430004D01*
X31121154Y-11641016D01*
X31179147Y-11844841D01*
X31179148Y-11844845D01*
X31179150Y-11844850D01*
X31273611Y-12034554D01*
X31393091Y-12192770D01*
X31418180Y-12259183D01*
X31403381Y-12328620D01*
X31353390Y-12379033D01*
X31292540Y-12394700D01*
X26331300Y-12394700D01*
X26263179Y-12374698D01*
X26216686Y-12321042D01*
X26205300Y-12268700D01*
X26205300Y-6043583D01*
X26585201Y-6043583D01*
X26588018Y-6073631D01*
X26588018Y-6073632D01*
X26632302Y-6200187D01*
X26632303Y-6200188D01*
X26711926Y-6308073D01*
X26819811Y-6387696D01*
X26819810Y-6387696D01*
X26946369Y-6431981D01*
X26976422Y-6434799D01*
X27047599Y-6434798D01*
X27047600Y-6434798D01*
X27047600Y-6002400D01*
X26585201Y-6002400D01*
X26585201Y-6043583D01*
X26205300Y-6043583D01*
X26205300Y-2776420D01*
X26585200Y-2776420D01*
X26585200Y-2817600D01*
X27047600Y-2817600D01*
X27047600Y-2385199D01*
X26976432Y-2385200D01*
X26976415Y-2385201D01*
X26946368Y-2388018D01*
X26946367Y-2388018D01*
X26819812Y-2432302D01*
X26819811Y-2432303D01*
X26711926Y-2511926D01*
X26632303Y-2619811D01*
X26588018Y-2746369D01*
X26585200Y-2776420D01*
X26205300Y-2776420D01*
X26205300Y-1307773D01*
X26225302Y-1239652D01*
X26278958Y-1193159D01*
X26349232Y-1183055D01*
X26399418Y-1201774D01*
X26489947Y-1259953D01*
X26628039Y-1300500D01*
X26771961Y-1300500D01*
X26910053Y-1259953D01*
X27031128Y-1182143D01*
X27125377Y-1073373D01*
X27185165Y-942457D01*
X27205647Y-800000D01*
X27185165Y-657543D01*
X27125377Y-526627D01*
X27114273Y-513812D01*
X27084780Y-449231D01*
X27094885Y-378957D01*
X27141378Y-325302D01*
X27209498Y-305300D01*
X50868700Y-305300D01*
X50936821Y-325302D01*
G37*
%TD.AperFunction*%
%TD*%
%TA.AperFunction,Conductor*%
%TO.N,GND*%
G36*
X50936821Y12874698D02*
G01*
X50983314Y12821042D01*
X50994700Y12768700D01*
X50994700Y7608798D01*
X50974698Y7540677D01*
X50921042Y7494184D01*
X50850768Y7484080D01*
X50786188Y7513574D01*
X50771301Y7528864D01*
X50743157Y7563157D01*
X50590324Y7688584D01*
X50415957Y7781785D01*
X50415953Y7781787D01*
X50226763Y7839177D01*
X50226752Y7839179D01*
X50030003Y7858556D01*
X50029997Y7858556D01*
X49833247Y7839179D01*
X49833236Y7839177D01*
X49644046Y7781787D01*
X49644042Y7781785D01*
X49469675Y7688584D01*
X49316843Y7563157D01*
X49191416Y7410325D01*
X49098215Y7235958D01*
X49098213Y7235954D01*
X49040823Y7046764D01*
X49040821Y7046753D01*
X49021444Y6850004D01*
X49021444Y6849997D01*
X49040821Y6653248D01*
X49040823Y6653237D01*
X49098213Y6464047D01*
X49098215Y6464043D01*
X49171409Y6327106D01*
X49191416Y6289676D01*
X49316843Y6136843D01*
X49469676Y6011416D01*
X49622121Y5929933D01*
X49644042Y5918216D01*
X49644046Y5918214D01*
X49833236Y5860824D01*
X49833237Y5860824D01*
X49833240Y5860823D01*
X49833243Y5860823D01*
X49833247Y5860822D01*
X50029997Y5841444D01*
X50030000Y5841444D01*
X50030003Y5841444D01*
X50226752Y5860822D01*
X50226754Y5860823D01*
X50226760Y5860823D01*
X50285781Y5878727D01*
X50415953Y5918214D01*
X50415955Y5918216D01*
X50415958Y5918216D01*
X50590324Y6011416D01*
X50743157Y6136843D01*
X50771301Y6171137D01*
X50829977Y6211105D01*
X50900948Y6213006D01*
X50961681Y6176236D01*
X50992893Y6112468D01*
X50994700Y6091203D01*
X50994700Y1804921D01*
X50974698Y1736800D01*
X50921042Y1690307D01*
X50850768Y1680203D01*
X50800580Y1698922D01*
X50735268Y1740895D01*
X50690053Y1769953D01*
X50688527Y1770401D01*
X50551961Y1810500D01*
X50464050Y1810500D01*
X50395929Y1830502D01*
X50349436Y1884158D01*
X50339332Y1954432D01*
X50354931Y1999500D01*
X50469056Y2197172D01*
X50469055Y2197172D01*
X50469063Y2197184D01*
X50564451Y2427471D01*
X50628965Y2668240D01*
X50661500Y2915369D01*
X50661500Y3164631D01*
X50637350Y3348063D01*
X50628966Y3411754D01*
X50628965Y3411756D01*
X50628965Y3411760D01*
X50564451Y3652529D01*
X50469063Y3882816D01*
X50469057Y3882825D01*
X50469056Y3882829D01*
X50344434Y4098681D01*
X50344429Y4098688D01*
X50192698Y4296428D01*
X50192679Y4296449D01*
X50016448Y4472680D01*
X50016427Y4472699D01*
X49818687Y4624430D01*
X49818680Y4624435D01*
X49602828Y4749057D01*
X49602820Y4749061D01*
X49602816Y4749063D01*
X49372529Y4844451D01*
X49160691Y4901213D01*
X49131753Y4908967D01*
X48884633Y4941500D01*
X48884631Y4941500D01*
X48635369Y4941500D01*
X48635366Y4941500D01*
X48388246Y4908967D01*
X48273942Y4878339D01*
X48147471Y4844451D01*
X47991680Y4779920D01*
X47917182Y4749062D01*
X47917171Y4749057D01*
X47701319Y4624435D01*
X47701312Y4624430D01*
X47503572Y4472699D01*
X47503551Y4472680D01*
X47327320Y4296449D01*
X47327301Y4296428D01*
X47175570Y4098688D01*
X47175565Y4098681D01*
X47050943Y3882829D01*
X47050938Y3882818D01*
X47050937Y3882816D01*
X47021297Y3811259D01*
X46955549Y3652529D01*
X46955548Y3652525D01*
X46891033Y3411754D01*
X46858500Y3164634D01*
X46858500Y2915367D01*
X46891033Y2668247D01*
X46891035Y2668240D01*
X46955549Y2427471D01*
X47050937Y2197184D01*
X47050938Y2197183D01*
X47050943Y2197172D01*
X47175565Y1981320D01*
X47175570Y1981313D01*
X47327301Y1783573D01*
X47327320Y1783552D01*
X47503551Y1607321D01*
X47503572Y1607302D01*
X47701312Y1455571D01*
X47701319Y1455566D01*
X47917171Y1330944D01*
X47917175Y1330943D01*
X47917184Y1330937D01*
X48147471Y1235549D01*
X48388240Y1171035D01*
X48388244Y1171035D01*
X48388246Y1171034D01*
X48451937Y1162650D01*
X48635369Y1138500D01*
X48635376Y1138500D01*
X48884624Y1138500D01*
X48884631Y1138500D01*
X49107973Y1167904D01*
X49131753Y1171034D01*
X49131753Y1171035D01*
X49131760Y1171035D01*
X49372529Y1235549D01*
X49602816Y1330937D01*
X49786637Y1437067D01*
X49855632Y1453804D01*
X49922724Y1430584D01*
X49966611Y1374777D01*
X49973281Y1319012D01*
X49974353Y1319012D01*
X49974353Y1310050D01*
X49974356Y1310024D01*
X49974353Y1310004D01*
X49974353Y1310003D01*
X49974353Y1310000D01*
X49994835Y1167543D01*
X50008099Y1138500D01*
X50054623Y1036627D01*
X50074392Y1013812D01*
X50103885Y949231D01*
X50093780Y878957D01*
X50047287Y825302D01*
X49979167Y805300D01*
X46035930Y805300D01*
X45967809Y825302D01*
X45921316Y878958D01*
X45911212Y949232D01*
X45932717Y1003570D01*
X46031970Y1145320D01*
X46124007Y1342694D01*
X46124009Y1342698D01*
X46180373Y1553055D01*
X46186020Y1617600D01*
X45435085Y1617600D01*
X45458000Y1703120D01*
X45458000Y1836880D01*
X45435085Y1922400D01*
X46186020Y1922400D01*
X46180373Y1986946D01*
X46124009Y2197303D01*
X46124007Y2197307D01*
X46031970Y2394681D01*
X45907067Y2573061D01*
X45907058Y2573072D01*
X45753071Y2727059D01*
X45753060Y2727068D01*
X45574680Y2851971D01*
X45574681Y2851971D01*
X45377306Y2944008D01*
X45377301Y2944010D01*
X45166944Y3000375D01*
X45166939Y3000376D01*
X45102400Y3006023D01*
X45102400Y2255086D01*
X45016880Y2278000D01*
X44883120Y2278000D01*
X44797600Y2255086D01*
X44797600Y3006023D01*
X44733060Y3000376D01*
X44733055Y3000375D01*
X44522698Y2944010D01*
X44522693Y2944008D01*
X44325319Y2851971D01*
X44146939Y2727068D01*
X44146933Y2727064D01*
X44125517Y2705647D01*
X44063204Y2671623D01*
X43992388Y2676689D01*
X43985116Y2682133D01*
X44002409Y2635771D01*
X43987318Y2566397D01*
X43979944Y2554512D01*
X43868027Y2394677D01*
X43775992Y2197307D01*
X43775990Y2197302D01*
X43749192Y2097289D01*
X43712240Y2036666D01*
X43648379Y2005645D01*
X43577885Y2014073D01*
X43523138Y2059276D01*
X43506295Y2095419D01*
X43480850Y2184850D01*
X43480849Y2184852D01*
X43446718Y2253396D01*
X43434258Y2323291D01*
X43461565Y2388827D01*
X43470413Y2398655D01*
X43645254Y2573496D01*
X43787636Y2715878D01*
X43849947Y2749903D01*
X43920762Y2744838D01*
X43928035Y2739393D01*
X43910744Y2785758D01*
X43925837Y2855132D01*
X43927283Y2857709D01*
X43964494Y2922158D01*
X43969327Y2940193D01*
X43970480Y2944496D01*
X43977832Y2971937D01*
X43985300Y2999807D01*
X43985300Y3017113D01*
X44005302Y3085234D01*
X44058054Y3131309D01*
X44062267Y3133273D01*
X44146727Y3217733D01*
X44197206Y3325986D01*
X44203700Y3375312D01*
X44203700Y3724688D01*
X44197206Y3774014D01*
X44146727Y3882267D01*
X44146725Y3882269D01*
X44146725Y3882270D01*
X44058090Y3970905D01*
X44024064Y4033217D01*
X44029129Y4104032D01*
X44058090Y4149095D01*
X44146725Y4237731D01*
X44146727Y4237733D01*
X44197206Y4345986D01*
X44203700Y4395312D01*
X44203700Y4744688D01*
X44197206Y4794014D01*
X44190614Y4808149D01*
X44179954Y4878339D01*
X44180071Y4879181D01*
X44198880Y5010000D01*
X44178267Y5153368D01*
X44118097Y5285121D01*
X44023246Y5394586D01*
X44023245Y5394587D01*
X44023244Y5394588D01*
X43901400Y5472892D01*
X43901397Y5472894D01*
X43901396Y5472894D01*
X43896597Y5474303D01*
X43762421Y5513700D01*
X43617579Y5513700D01*
X43478606Y5472895D01*
X43478599Y5472892D01*
X43356755Y5394588D01*
X43261903Y5285122D01*
X43201733Y5153369D01*
X43186387Y5046632D01*
X43181120Y5010000D01*
X43190968Y4941500D01*
X43195194Y4912111D01*
X43185089Y4841837D01*
X43184671Y4840932D01*
X43162795Y4794019D01*
X43162792Y4794010D01*
X43156300Y4744693D01*
X43156300Y4488689D01*
X43136298Y4420568D01*
X43082642Y4374075D01*
X43012368Y4363971D01*
X42994804Y4367792D01*
X42971279Y4374699D01*
X42955272Y4379399D01*
X42810430Y4379399D01*
X42671457Y4338594D01*
X42671450Y4338591D01*
X42549606Y4260287D01*
X42518585Y4224486D01*
X42458859Y4186103D01*
X42423361Y4180999D01*
X42396694Y4180999D01*
X42344928Y4167129D01*
X42319045Y4160193D01*
X42249431Y4120002D01*
X42249425Y4119997D01*
X41883213Y3753785D01*
X41820901Y3719760D01*
X41750085Y3724825D01*
X41693250Y3767372D01*
X41679923Y3789632D01*
X41679661Y3790193D01*
X41643454Y3867841D01*
X41636727Y3882268D01*
X41548090Y3970905D01*
X41514064Y4033217D01*
X41519129Y4104032D01*
X41548090Y4149095D01*
X41636725Y4237731D01*
X41636727Y4237733D01*
X41687206Y4345986D01*
X41693700Y4395312D01*
X41693700Y4744688D01*
X41687206Y4794014D01*
X41636727Y4902267D01*
X41636725Y4902269D01*
X41636725Y4902270D01*
X41552269Y4986726D01*
X41552267Y4986727D01*
X41444012Y5037207D01*
X41394692Y5043700D01*
X41394688Y5043700D01*
X40945312Y5043700D01*
X40945307Y5043700D01*
X40895987Y5037207D01*
X40787733Y4986727D01*
X40787730Y4986726D01*
X40703274Y4902270D01*
X40703274Y4902269D01*
X40652793Y4794013D01*
X40646300Y4744693D01*
X40646300Y4600250D01*
X40626298Y4532129D01*
X40609395Y4511155D01*
X40180505Y4082266D01*
X40180497Y4082256D01*
X40152923Y4034495D01*
X40140308Y4012647D01*
X40140305Y4012640D01*
X40129123Y3970905D01*
X40120162Y3937461D01*
X40119500Y3934992D01*
X40119500Y3863449D01*
X40099498Y3795328D01*
X40082595Y3774354D01*
X39970446Y3662205D01*
X39908134Y3628179D01*
X39881351Y3625300D01*
X39778649Y3625300D01*
X39710528Y3645302D01*
X39689554Y3662205D01*
X39563805Y3787954D01*
X39529779Y3850266D01*
X39526900Y3877049D01*
X39526900Y9670257D01*
X39526899Y9670259D01*
X39525764Y9674494D01*
X39510490Y9731497D01*
X39506094Y9747906D01*
X39502749Y9753700D01*
X39487660Y9779835D01*
X39470922Y9848830D01*
X39472062Y9860769D01*
X39473621Y9871611D01*
X39475546Y9884998D01*
X39454933Y10028366D01*
X39394763Y10160119D01*
X39299912Y10269584D01*
X39299911Y10269585D01*
X39299910Y10269586D01*
X39178066Y10347890D01*
X39178063Y10347892D01*
X39178062Y10347892D01*
X39106316Y10368958D01*
X39039087Y10388698D01*
X38894245Y10388698D01*
X38755272Y10347893D01*
X38755265Y10347890D01*
X38633421Y10269586D01*
X38538569Y10160120D01*
X38478399Y10028367D01*
X38467332Y9951395D01*
X38457786Y9884998D01*
X38478399Y9741630D01*
X38538569Y9609877D01*
X38632690Y9501254D01*
X38633421Y9500411D01*
X38745154Y9428605D01*
X38755270Y9422104D01*
X38825797Y9401396D01*
X38885524Y9363013D01*
X38915017Y9298433D01*
X38916300Y9280500D01*
X38916300Y6513344D01*
X38896298Y6445223D01*
X38842642Y6398730D01*
X38772368Y6388626D01*
X38754803Y6392447D01*
X38682421Y6413700D01*
X38537579Y6413700D01*
X38398606Y6372895D01*
X38398599Y6372892D01*
X38276755Y6294588D01*
X38181903Y6185122D01*
X38121733Y6053369D01*
X38101120Y5910000D01*
X38121733Y5766632D01*
X38181903Y5634879D01*
X38181906Y5634875D01*
X38265524Y5538374D01*
X38295017Y5473794D01*
X38296300Y5455862D01*
X38296300Y5103635D01*
X38276298Y5035514D01*
X38223554Y4989442D01*
X38217733Y4986728D01*
X38217730Y4986726D01*
X38133274Y4902270D01*
X38133274Y4902269D01*
X38082793Y4794013D01*
X38076300Y4744693D01*
X38076300Y4395308D01*
X38082793Y4345988D01*
X38082794Y4345986D01*
X38133273Y4237733D01*
X38133274Y4237732D01*
X38133274Y4237731D01*
X38221910Y4149095D01*
X38255936Y4086783D01*
X38250871Y4015968D01*
X38221910Y3970905D01*
X38133274Y3882270D01*
X38133274Y3882269D01*
X38082793Y3774013D01*
X38076300Y3724693D01*
X38076300Y3375308D01*
X38082793Y3325988D01*
X38082794Y3325986D01*
X38133273Y3217733D01*
X38133274Y3217732D01*
X38133274Y3217731D01*
X38150527Y3200478D01*
X38184553Y3138166D01*
X38179488Y3067351D01*
X38150527Y3022288D01*
X37960743Y2832504D01*
X37898431Y2798478D01*
X37827616Y2803543D01*
X37826131Y2804108D01*
X37766823Y2827084D01*
X37701112Y2852541D01*
X37644277Y2874559D01*
X37644278Y2874559D01*
X37644275Y2874560D01*
X37644274Y2874560D01*
X37435961Y2913500D01*
X37224039Y2913500D01*
X37024703Y2876238D01*
X37015721Y2874559D01*
X36818119Y2798007D01*
X36818108Y2798002D01*
X36637933Y2686442D01*
X36481324Y2543674D01*
X36353612Y2374556D01*
X36259150Y2184850D01*
X36259147Y2184842D01*
X36201154Y1981017D01*
X36185462Y1811672D01*
X36168755Y1769601D01*
X36183656Y1740895D01*
X36185462Y1728329D01*
X36201154Y1558984D01*
X36259147Y1355159D01*
X36259148Y1355155D01*
X36259150Y1355150D01*
X36353611Y1165446D01*
X36473091Y1007230D01*
X36498180Y940817D01*
X36483381Y871380D01*
X36433390Y820967D01*
X36372540Y805300D01*
X35747460Y805300D01*
X35679339Y825302D01*
X35632846Y878958D01*
X35622742Y949232D01*
X35646908Y1007229D01*
X35766389Y1165446D01*
X35860850Y1355150D01*
X35918845Y1558982D01*
X35930078Y1680203D01*
X35934538Y1728329D01*
X35951244Y1770401D01*
X35936344Y1799106D01*
X35934538Y1811672D01*
X35918845Y1981017D01*
X35896578Y2059276D01*
X35860850Y2184850D01*
X35766389Y2374554D01*
X35638677Y2543671D01*
X35638675Y2543674D01*
X35482066Y2686442D01*
X35324652Y2783909D01*
X35277265Y2836776D01*
X35265982Y2906870D01*
X35294386Y2971937D01*
X35301877Y2980120D01*
X35477288Y3155531D01*
X35539598Y3189555D01*
X35610413Y3184490D01*
X35655476Y3155529D01*
X35677730Y3133275D01*
X35677731Y3133275D01*
X35677733Y3133273D01*
X35785986Y3082794D01*
X35835312Y3076300D01*
X35835319Y3076300D01*
X36284681Y3076300D01*
X36284688Y3076300D01*
X36334014Y3082794D01*
X36442267Y3133273D01*
X36526727Y3217733D01*
X36577206Y3325986D01*
X36583700Y3375312D01*
X36583700Y3592013D01*
X36603702Y3660134D01*
X36620600Y3681104D01*
X36953021Y4013524D01*
X36993004Y4082776D01*
X37013700Y4160017D01*
X37013700Y4239983D01*
X37013700Y5134321D01*
X37033702Y5202442D01*
X37044471Y5216829D01*
X37138097Y5324879D01*
X37198267Y5456632D01*
X37218880Y5600000D01*
X37198267Y5743368D01*
X37138097Y5875121D01*
X37046074Y5981322D01*
X37016582Y6045902D01*
X37015300Y6063833D01*
X37015300Y6800300D01*
X37035302Y6868421D01*
X37088958Y6914914D01*
X37141300Y6926300D01*
X37232421Y6926300D01*
X37371396Y6967106D01*
X37493246Y7045414D01*
X37588097Y7154879D01*
X37648267Y7286632D01*
X37668880Y7430000D01*
X37648267Y7573368D01*
X37588097Y7705121D01*
X37493246Y7814586D01*
X37493245Y7814587D01*
X37493244Y7814588D01*
X37371400Y7892892D01*
X37371397Y7892894D01*
X37371396Y7892894D01*
X37249766Y7928607D01*
X37232421Y7933700D01*
X37087579Y7933700D01*
X37086076Y7933484D01*
X37084574Y7933700D01*
X37078567Y7933700D01*
X37078567Y7934565D01*
X37015802Y7943592D01*
X36962149Y7990088D01*
X36942151Y8058210D01*
X36962157Y8126330D01*
X36979052Y8147295D01*
X37011155Y8179398D01*
X37073468Y8213421D01*
X37100249Y8216300D01*
X37212421Y8216300D01*
X37351396Y8257106D01*
X37473246Y8335414D01*
X37568097Y8444879D01*
X37628267Y8576632D01*
X37648880Y8720000D01*
X37628267Y8863368D01*
X37568097Y8995121D01*
X37550534Y9015390D01*
X37512998Y9058710D01*
X37483505Y9123291D01*
X37493610Y9193565D01*
X37512999Y9223735D01*
X37530559Y9244000D01*
X37590729Y9375753D01*
X37611342Y9519121D01*
X37590729Y9662489D01*
X37530559Y9794242D01*
X37435708Y9903707D01*
X37435707Y9903708D01*
X37435706Y9903709D01*
X37313862Y9982013D01*
X37313859Y9982015D01*
X37313858Y9982015D01*
X37230914Y10006369D01*
X37174883Y10022821D01*
X37030041Y10022821D01*
X37021919Y10022821D01*
X36953798Y10042823D01*
X36932828Y10059722D01*
X36746650Y10245900D01*
X36746647Y10245902D01*
X36746646Y10245903D01*
X36677032Y10286094D01*
X36599384Y10306900D01*
X35200182Y10306900D01*
X35122534Y10286094D01*
X35122533Y10286094D01*
X35122531Y10286093D01*
X35052917Y10245902D01*
X35052915Y10245901D01*
X35010615Y10203600D01*
X34910843Y10103829D01*
X34848534Y10069805D01*
X34821750Y10066925D01*
X34729579Y10066925D01*
X34590606Y10026120D01*
X34590599Y10026117D01*
X34468755Y9947813D01*
X34373903Y9838347D01*
X34313733Y9706594D01*
X34301283Y9620000D01*
X34293120Y9563225D01*
X34313733Y9419857D01*
X34373903Y9288104D01*
X34429678Y9223735D01*
X34468755Y9178638D01*
X34554877Y9123291D01*
X34590604Y9100331D01*
X34729579Y9059525D01*
X34874421Y9059525D01*
X35013396Y9100331D01*
X35135246Y9178639D01*
X35230097Y9288104D01*
X35290267Y9419857D01*
X35310880Y9563225D01*
X35310879Y9563227D01*
X35310880Y9563229D01*
X35310880Y9570300D01*
X35330882Y9638421D01*
X35384538Y9684914D01*
X35436880Y9696300D01*
X36380541Y9696300D01*
X36448662Y9676298D01*
X36469637Y9659395D01*
X36561186Y9567845D01*
X36595211Y9505533D01*
X36596807Y9496682D01*
X36614193Y9375760D01*
X36614194Y9375755D01*
X36614195Y9375753D01*
X36649506Y9298433D01*
X36674365Y9244000D01*
X36729463Y9180412D01*
X36758956Y9115830D01*
X36748851Y9045557D01*
X36729465Y9015390D01*
X36711903Y8995122D01*
X36676507Y8917615D01*
X36651733Y8863368D01*
X36635637Y8751413D01*
X36631120Y8719997D01*
X36631120Y8715071D01*
X36611118Y8646950D01*
X36594216Y8625976D01*
X35815702Y7847462D01*
X35815697Y7847456D01*
X35776077Y7778831D01*
X35776064Y7778809D01*
X35775508Y7777849D01*
X35775505Y7777841D01*
X35754700Y7700197D01*
X35754700Y5901251D01*
X35734698Y5833130D01*
X35681042Y5786637D01*
X35610768Y5776533D01*
X35546188Y5806027D01*
X35539605Y5812155D01*
X35296161Y6055598D01*
X35296155Y6055603D01*
X35226543Y6095793D01*
X35226542Y6095794D01*
X35226541Y6095794D01*
X35224929Y6096226D01*
X35223997Y6096476D01*
X35223996Y6096476D01*
X35148893Y6116600D01*
X35148890Y6116600D01*
X34539170Y6116600D01*
X34471049Y6136602D01*
X34443946Y6160087D01*
X34412924Y6195888D01*
X34291080Y6274192D01*
X34291077Y6274194D01*
X34291076Y6274194D01*
X34284070Y6276251D01*
X34152101Y6315000D01*
X34059929Y6315000D01*
X33991808Y6335002D01*
X33970838Y6351901D01*
X33858439Y6464300D01*
X33858438Y6464301D01*
X33858435Y6464303D01*
X33788824Y6504493D01*
X33788815Y6504496D01*
X33785042Y6505508D01*
X33785036Y6505508D01*
X33711173Y6525300D01*
X33711171Y6525300D01*
X32508649Y6525300D01*
X32440528Y6545302D01*
X32419554Y6562205D01*
X31778805Y7202954D01*
X31744779Y7265266D01*
X31741900Y7292049D01*
X31741900Y7859192D01*
X31732869Y7892895D01*
X31723301Y7928605D01*
X31723301Y7928607D01*
X31721096Y7936837D01*
X31721093Y7936843D01*
X31680901Y8006459D01*
X31372318Y8315042D01*
X31338292Y8377354D01*
X31343357Y8448169D01*
X31372320Y8493235D01*
X31382221Y8503136D01*
X31433237Y8612541D01*
X31439799Y8662386D01*
X31439800Y8662395D01*
X31439800Y8917605D01*
X31439799Y8917620D01*
X31436556Y8942256D01*
X31447496Y9012404D01*
X31494625Y9065502D01*
X31561478Y9084700D01*
X31908777Y9084700D01*
X31976898Y9064698D01*
X32023391Y9011042D01*
X32029672Y8994200D01*
X32030130Y8992639D01*
X32090303Y8860879D01*
X32185155Y8751413D01*
X32241705Y8715071D01*
X32307004Y8673106D01*
X32445979Y8632300D01*
X32590820Y8632300D01*
X32590821Y8632300D01*
X32653204Y8650617D01*
X32724198Y8650617D01*
X32783924Y8612234D01*
X32813417Y8547653D01*
X32814700Y8529721D01*
X32814700Y8380252D01*
X32794698Y8312131D01*
X32777795Y8291157D01*
X32707243Y8220605D01*
X32644931Y8186579D01*
X32618148Y8183700D01*
X32525977Y8183700D01*
X32387004Y8142895D01*
X32386997Y8142892D01*
X32265153Y8064588D01*
X32170301Y7955122D01*
X32110131Y7823369D01*
X32089518Y7680000D01*
X32110131Y7536632D01*
X32170301Y7404879D01*
X32265153Y7295413D01*
X32386997Y7217109D01*
X32387002Y7217106D01*
X32525977Y7176300D01*
X32670819Y7176300D01*
X32809794Y7217106D01*
X32931644Y7295414D01*
X33026495Y7404879D01*
X33086665Y7536632D01*
X33107278Y7680000D01*
X33106560Y7684992D01*
X33116659Y7755265D01*
X33142177Y7792022D01*
X33364301Y8014143D01*
X33404494Y8083761D01*
X33404958Y8085492D01*
X33425300Y8161409D01*
X33425300Y9484296D01*
X33404494Y9561944D01*
X33377328Y9608997D01*
X33371310Y9619421D01*
X33364302Y9631559D01*
X33364294Y9631569D01*
X32761568Y10234295D01*
X32761558Y10234303D01*
X32691946Y10274493D01*
X32691945Y10274494D01*
X32691944Y10274494D01*
X32688955Y10275295D01*
X32688953Y10275296D01*
X32654304Y10284580D01*
X32614296Y10295300D01*
X32614294Y10295300D01*
X31721250Y10295300D01*
X31653129Y10315302D01*
X31606636Y10368958D01*
X31596532Y10439232D01*
X31626026Y10503812D01*
X31632155Y10510395D01*
X31703565Y10581806D01*
X31703567Y10581809D01*
X31716786Y10604705D01*
X31743760Y10651424D01*
X31749333Y10672228D01*
X31749335Y10672228D01*
X31749335Y10672237D01*
X31764566Y10729073D01*
X31764566Y10929197D01*
X31784568Y10997318D01*
X31795336Y11011703D01*
X31887363Y11117908D01*
X31947533Y11249661D01*
X31968146Y11393029D01*
X31947533Y11536397D01*
X31887363Y11668150D01*
X31792512Y11777615D01*
X31792511Y11777616D01*
X31792510Y11777617D01*
X31670666Y11855921D01*
X31670663Y11855923D01*
X31670662Y11855923D01*
X31531687Y11896729D01*
X31464699Y11896729D01*
X31396578Y11916731D01*
X31350085Y11970387D01*
X31338699Y12022729D01*
X31338699Y12029490D01*
X31338698Y12029499D01*
X31324270Y12102036D01*
X31324270Y12102038D01*
X31324269Y12102040D01*
X31324269Y12102041D01*
X31269302Y12184302D01*
X31187038Y12239270D01*
X31187035Y12239271D01*
X31114494Y12253700D01*
X30305510Y12253700D01*
X30305500Y12253699D01*
X30232960Y12239270D01*
X30232959Y12239270D01*
X30150698Y12184303D01*
X30095730Y12102039D01*
X30095729Y12102036D01*
X30081300Y12029496D01*
X30081300Y11770511D01*
X30081301Y11770501D01*
X30095730Y11697961D01*
X30095730Y11697960D01*
X30150697Y11615699D01*
X30150698Y11615698D01*
X30210258Y11575901D01*
X30255786Y11521424D01*
X30264634Y11450981D01*
X30245022Y11401135D01*
X30225294Y11371611D01*
X30211300Y11301257D01*
X30211300Y11078744D01*
X30225294Y11008390D01*
X30225295Y11008387D01*
X30257626Y10960000D01*
X30278840Y10892247D01*
X30260056Y10823781D01*
X30257626Y10820000D01*
X30225295Y10771614D01*
X30225294Y10771611D01*
X30211300Y10701257D01*
X30211300Y10478744D01*
X30225294Y10408390D01*
X30225295Y10408387D01*
X30257626Y10360000D01*
X30278840Y10292247D01*
X30260056Y10223781D01*
X30257626Y10220000D01*
X30225295Y10171614D01*
X30225294Y10171611D01*
X30211300Y10101257D01*
X30211300Y9878744D01*
X30225294Y9808390D01*
X30225295Y9808387D01*
X30257626Y9760000D01*
X30278840Y9692247D01*
X30260056Y9623781D01*
X30257626Y9620000D01*
X30225295Y9571614D01*
X30225294Y9571611D01*
X30211300Y9501257D01*
X30211300Y9278741D01*
X30224434Y9212714D01*
X30218106Y9142000D01*
X30189952Y9099039D01*
X30167779Y9076866D01*
X30116762Y8967460D01*
X30110200Y8917615D01*
X30110200Y8662386D01*
X30116762Y8612541D01*
X30167779Y8503134D01*
X30189950Y8480963D01*
X30223976Y8418651D01*
X30224434Y8367287D01*
X30211300Y8301260D01*
X30211300Y8078744D01*
X30225294Y8008390D01*
X30225295Y8008387D01*
X30257626Y7960000D01*
X30278840Y7892247D01*
X30260056Y7823781D01*
X30257626Y7820000D01*
X30225295Y7771614D01*
X30225294Y7771611D01*
X30211300Y7701257D01*
X30211300Y7478744D01*
X30225294Y7408390D01*
X30225296Y7408387D01*
X30245021Y7378865D01*
X30266235Y7311112D01*
X30247451Y7242645D01*
X30210259Y7204101D01*
X30150697Y7164302D01*
X30095730Y7082039D01*
X30095729Y7082036D01*
X30081300Y7009496D01*
X30081300Y6750511D01*
X30081301Y6750501D01*
X30095730Y6677961D01*
X30095730Y6677960D01*
X30150697Y6595699D01*
X30150698Y6595698D01*
X30232962Y6540730D01*
X30305507Y6526300D01*
X31114492Y6526301D01*
X31114495Y6526302D01*
X31114499Y6526302D01*
X31138343Y6531045D01*
X31187038Y6540730D01*
X31187039Y6540731D01*
X31187040Y6540731D01*
X31219177Y6562205D01*
X31269302Y6595698D01*
X31285440Y6619850D01*
X31339916Y6665377D01*
X31410359Y6674225D01*
X31474403Y6643584D01*
X31479280Y6638961D01*
X31823653Y6294588D01*
X32142542Y5975699D01*
X32150044Y5971368D01*
X32212158Y5935506D01*
X32232964Y5929932D01*
X32289807Y5914700D01*
X33265279Y5914700D01*
X33333400Y5894698D01*
X33379893Y5841042D01*
X33389997Y5770768D01*
X33360503Y5706188D01*
X33333399Y5682702D01*
X33209347Y5602980D01*
X33114495Y5493514D01*
X33054325Y5361761D01*
X33033712Y5218392D01*
X33054325Y5075024D01*
X33054326Y5075021D01*
X33071814Y5036727D01*
X33081917Y4966453D01*
X33057423Y4912821D01*
X33059597Y4911299D01*
X33053274Y4902269D01*
X33002793Y4794013D01*
X32996300Y4744693D01*
X32996300Y4395308D01*
X33002793Y4345988D01*
X33002794Y4345986D01*
X33053273Y4237733D01*
X33053274Y4237732D01*
X33053274Y4237731D01*
X33141910Y4149095D01*
X33175936Y4086783D01*
X33170871Y4015968D01*
X33141910Y3970905D01*
X33053274Y3882270D01*
X33053274Y3882269D01*
X33002793Y3774013D01*
X32996300Y3724693D01*
X32996300Y3375308D01*
X33002793Y3325988D01*
X33002794Y3325986D01*
X33053273Y3217733D01*
X33053274Y3217732D01*
X33053274Y3217731D01*
X33137730Y3133275D01*
X33137731Y3133275D01*
X33137733Y3133273D01*
X33245986Y3082794D01*
X33295312Y3076300D01*
X33295319Y3076300D01*
X33744681Y3076300D01*
X33744688Y3076300D01*
X33794014Y3082794D01*
X33902267Y3133273D01*
X33986727Y3217733D01*
X34037206Y3325986D01*
X34043700Y3375312D01*
X34043700Y3592013D01*
X34063702Y3660134D01*
X34080605Y3681108D01*
X34841205Y4441708D01*
X34903517Y4475734D01*
X34974332Y4470669D01*
X35031168Y4428122D01*
X35055979Y4361602D01*
X35056300Y4352613D01*
X35056300Y3650250D01*
X35036298Y3582129D01*
X35019395Y3561155D01*
X34545705Y3087466D01*
X34545697Y3087456D01*
X34521559Y3045646D01*
X34521558Y3045645D01*
X34505507Y3017845D01*
X34505506Y3017843D01*
X34482668Y2932613D01*
X34445716Y2871990D01*
X34406479Y2847734D01*
X34278119Y2798007D01*
X34278108Y2798002D01*
X34097933Y2686442D01*
X33941324Y2543674D01*
X33813612Y2374556D01*
X33719150Y2184850D01*
X33719147Y2184842D01*
X33661154Y1981017D01*
X33645462Y1811672D01*
X33628755Y1769601D01*
X33643656Y1740895D01*
X33645462Y1728329D01*
X33661154Y1558984D01*
X33719147Y1355159D01*
X33719148Y1355155D01*
X33719150Y1355150D01*
X33813611Y1165446D01*
X33933091Y1007230D01*
X33958180Y940817D01*
X33943381Y871380D01*
X33893390Y820967D01*
X33832540Y805300D01*
X33207460Y805300D01*
X33139339Y825302D01*
X33092846Y878958D01*
X33082742Y949232D01*
X33106908Y1007229D01*
X33226389Y1165446D01*
X33320850Y1355150D01*
X33378845Y1558982D01*
X33390078Y1680203D01*
X33394538Y1728329D01*
X33411244Y1770401D01*
X33396344Y1799106D01*
X33394538Y1811672D01*
X33378845Y1981017D01*
X33356578Y2059276D01*
X33320850Y2184850D01*
X33226389Y2374554D01*
X33098677Y2543671D01*
X33098675Y2543674D01*
X32942066Y2686442D01*
X32761891Y2798002D01*
X32761886Y2798004D01*
X32761885Y2798005D01*
X32746134Y2804107D01*
X32564277Y2874559D01*
X32564278Y2874559D01*
X32564275Y2874560D01*
X32564274Y2874560D01*
X32355961Y2913500D01*
X32144039Y2913500D01*
X32039882Y2894030D01*
X31935724Y2874560D01*
X31753866Y2804107D01*
X31683120Y2798151D01*
X31620384Y2831388D01*
X31619255Y2832504D01*
X31012205Y3439554D01*
X30978179Y3501866D01*
X30975300Y3528649D01*
X30975300Y3790192D01*
X30954494Y3867842D01*
X30954494Y3867843D01*
X30914301Y3937458D01*
X30914299Y3937461D01*
X29377465Y5474295D01*
X29377455Y5474303D01*
X29307841Y5514494D01*
X29230193Y5535300D01*
X29230191Y5535300D01*
X28858649Y5535300D01*
X28790528Y5555302D01*
X28769554Y5572205D01*
X28582205Y5759554D01*
X28548179Y5821866D01*
X28545300Y5848649D01*
X28545300Y6206741D01*
X28565302Y6274862D01*
X28618958Y6321355D01*
X28689232Y6331459D01*
X28706798Y6327637D01*
X28708601Y6327108D01*
X28708604Y6327106D01*
X28847579Y6286300D01*
X28992421Y6286300D01*
X29088923Y6314635D01*
X29159917Y6314635D01*
X29219643Y6276251D01*
X29233538Y6256739D01*
X29277297Y6180945D01*
X29277305Y6180935D01*
X30452536Y5005704D01*
X30452539Y5005702D01*
X30452541Y5005700D01*
X30485401Y4986729D01*
X30485403Y4986727D01*
X30485404Y4986727D01*
X30522159Y4965506D01*
X30599807Y4944700D01*
X31020510Y4944700D01*
X31088631Y4924698D01*
X31115734Y4901213D01*
X31146755Y4865413D01*
X31235862Y4808148D01*
X31268604Y4787106D01*
X31407579Y4746300D01*
X31552421Y4746300D01*
X31691396Y4787106D01*
X31813246Y4865414D01*
X31908097Y4974879D01*
X31968267Y5106632D01*
X31988880Y5250000D01*
X31968267Y5393368D01*
X31908097Y5525121D01*
X31813246Y5634586D01*
X31813245Y5634587D01*
X31813244Y5634588D01*
X31691400Y5712892D01*
X31691397Y5712894D01*
X31691396Y5712894D01*
X31579125Y5745859D01*
X31552421Y5753700D01*
X31407579Y5753700D01*
X31268606Y5712895D01*
X31268599Y5712892D01*
X31146755Y5634588D01*
X31115734Y5598787D01*
X31056008Y5560404D01*
X31020510Y5555300D01*
X30818649Y5555300D01*
X30750528Y5575302D01*
X30729554Y5592205D01*
X29863805Y6457954D01*
X29829779Y6520266D01*
X29826900Y6547049D01*
X29826900Y7079382D01*
X29826900Y7079384D01*
X29807791Y7150700D01*
X29806094Y7157033D01*
X29801897Y7164302D01*
X29765901Y7226649D01*
X29765899Y7226652D01*
X29652005Y7340546D01*
X29617979Y7402858D01*
X29615100Y7429641D01*
X29615100Y9700601D01*
X29615100Y9700603D01*
X29594294Y9778251D01*
X29554101Y9847869D01*
X28897628Y10504341D01*
X28863604Y10566653D01*
X28868668Y10637468D01*
X28872529Y10646686D01*
X28903237Y10712541D01*
X28909799Y10762386D01*
X28909800Y10762395D01*
X28909800Y11017605D01*
X28909799Y11017615D01*
X28903237Y11067460D01*
X28852220Y11176867D01*
X28766866Y11262221D01*
X28657459Y11313238D01*
X28607614Y11319800D01*
X28082385Y11319800D01*
X28032540Y11313238D01*
X27923133Y11262221D01*
X27837779Y11176867D01*
X27786762Y11067460D01*
X27780200Y11017615D01*
X27780200Y10869674D01*
X27760198Y10801553D01*
X27706542Y10755060D01*
X27636268Y10744956D01*
X27589082Y10764314D01*
X27588538Y10763284D01*
X27580189Y10767697D01*
X27453630Y10811982D01*
X27423579Y10814800D01*
X27352400Y10814800D01*
X27352400Y10203600D01*
X27332398Y10135479D01*
X27278742Y10088986D01*
X27226400Y10077600D01*
X26585201Y10077600D01*
X26585201Y10036417D01*
X26588018Y10006369D01*
X26588018Y10006368D01*
X26632302Y9879813D01*
X26632303Y9879812D01*
X26711929Y9771923D01*
X26718603Y9765249D01*
X26716971Y9763618D01*
X26751984Y9717496D01*
X26757526Y9646716D01*
X26748423Y9619421D01*
X26692889Y9500329D01*
X26692889Y9500328D01*
X26686300Y9450277D01*
X26686300Y9089724D01*
X26692889Y9039674D01*
X26692890Y9039670D01*
X26705305Y9013046D01*
X26715966Y8942855D01*
X26712008Y8924307D01*
X26711734Y8923377D01*
X26691120Y8780000D01*
X26712533Y8631068D01*
X26702428Y8560794D01*
X26702011Y8559891D01*
X26692890Y8540332D01*
X26692889Y8540327D01*
X26686300Y8490277D01*
X26686300Y8129724D01*
X26692889Y8079674D01*
X26692890Y8079672D01*
X26734663Y7990088D01*
X26748423Y7960581D01*
X26759084Y7890389D01*
X26730104Y7825576D01*
X26718549Y7814805D01*
X26718603Y7814751D01*
X26711929Y7808078D01*
X26632303Y7700189D01*
X26588018Y7573631D01*
X26585200Y7543580D01*
X26585200Y7502400D01*
X27226400Y7502400D01*
X27294521Y7482398D01*
X27341014Y7428742D01*
X27352400Y7376400D01*
X27352400Y6765201D01*
X27423569Y6765201D01*
X27423583Y6765202D01*
X27453631Y6768019D01*
X27453632Y6768019D01*
X27580187Y6812303D01*
X27580188Y6812304D01*
X27688075Y6891928D01*
X27707321Y6918005D01*
X27763866Y6960938D01*
X27834645Y6966484D01*
X27897188Y6932883D01*
X27931636Y6870804D01*
X27934700Y6843184D01*
X27934700Y5629804D01*
X27953455Y5559813D01*
X27953455Y5559811D01*
X27953456Y5559811D01*
X27953457Y5559807D01*
X27955506Y5552159D01*
X27955507Y5552157D01*
X27995697Y5482545D01*
X27995705Y5482535D01*
X28330319Y5147921D01*
X28364345Y5085609D01*
X28359280Y5014794D01*
X28316733Y4957958D01*
X28257670Y4933904D01*
X28068247Y4908967D01*
X28039309Y4901213D01*
X27827471Y4844451D01*
X27671680Y4779920D01*
X27597182Y4749062D01*
X27597171Y4749057D01*
X27381319Y4624435D01*
X27381312Y4624430D01*
X27183572Y4472699D01*
X27183551Y4472680D01*
X27007320Y4296449D01*
X27007301Y4296428D01*
X26855570Y4098688D01*
X26855565Y4098681D01*
X26730943Y3882829D01*
X26730938Y3882818D01*
X26730937Y3882816D01*
X26701297Y3811259D01*
X26635549Y3652529D01*
X26635548Y3652525D01*
X26571033Y3411754D01*
X26538500Y3164634D01*
X26538500Y2915367D01*
X26571033Y2668247D01*
X26571035Y2668240D01*
X26635549Y2427471D01*
X26730937Y2197184D01*
X26730938Y2197183D01*
X26730943Y2197172D01*
X26855565Y1981320D01*
X26855570Y1981313D01*
X27007301Y1783573D01*
X27007320Y1783552D01*
X27183551Y1607321D01*
X27183572Y1607302D01*
X27381312Y1455571D01*
X27381319Y1455566D01*
X27597171Y1330944D01*
X27597175Y1330943D01*
X27597184Y1330937D01*
X27827471Y1235549D01*
X28068240Y1171035D01*
X28068244Y1171035D01*
X28068246Y1171034D01*
X28131937Y1162650D01*
X28315369Y1138500D01*
X28315376Y1138500D01*
X28564624Y1138500D01*
X28564631Y1138500D01*
X28787973Y1167904D01*
X28811753Y1171034D01*
X28811753Y1171035D01*
X28811760Y1171035D01*
X29052529Y1235549D01*
X29282816Y1330937D01*
X29498684Y1455568D01*
X29696436Y1607309D01*
X29872691Y1783564D01*
X30024432Y1981316D01*
X30149063Y2197184D01*
X30244451Y2427471D01*
X30308965Y2668240D01*
X30341500Y2915369D01*
X30341500Y2942551D01*
X30361502Y3010672D01*
X30415158Y3057165D01*
X30485432Y3067269D01*
X30550012Y3037775D01*
X30556595Y3031646D01*
X31189586Y2398655D01*
X31223612Y2336343D01*
X31218547Y2265528D01*
X31213282Y2253398D01*
X31179152Y2184855D01*
X31179147Y2184842D01*
X31121154Y1981017D01*
X31101601Y1770005D01*
X31101601Y1769996D01*
X31121154Y1558984D01*
X31179147Y1355159D01*
X31179148Y1355155D01*
X31179150Y1355150D01*
X31273611Y1165446D01*
X31393091Y1007230D01*
X31418180Y940817D01*
X31403381Y871380D01*
X31353390Y820967D01*
X31292540Y805300D01*
X26331300Y805300D01*
X26263179Y825302D01*
X26216686Y878958D01*
X26205300Y931300D01*
X26205300Y7156417D01*
X26585201Y7156417D01*
X26588018Y7126369D01*
X26588018Y7126368D01*
X26632302Y6999813D01*
X26632303Y6999812D01*
X26711926Y6891927D01*
X26819811Y6812304D01*
X26819810Y6812304D01*
X26946369Y6768019D01*
X26976422Y6765201D01*
X27047599Y6765202D01*
X27047600Y6765202D01*
X27047600Y7197600D01*
X26585201Y7197600D01*
X26585201Y7156417D01*
X26205300Y7156417D01*
X26205300Y10423580D01*
X26585200Y10423580D01*
X26585200Y10382400D01*
X27047600Y10382400D01*
X27047600Y10814801D01*
X26976432Y10814800D01*
X26976415Y10814799D01*
X26946368Y10811982D01*
X26946367Y10811982D01*
X26819812Y10767698D01*
X26819811Y10767697D01*
X26711926Y10688074D01*
X26632303Y10580189D01*
X26588018Y10453631D01*
X26585200Y10423580D01*
X26205300Y10423580D01*
X26205300Y11892227D01*
X26225302Y11960348D01*
X26278958Y12006841D01*
X26349232Y12016945D01*
X26399418Y11998226D01*
X26489947Y11940047D01*
X26628039Y11899500D01*
X26771961Y11899500D01*
X26910053Y11940047D01*
X27031128Y12017857D01*
X27125377Y12126627D01*
X27185165Y12257543D01*
X27205647Y12400000D01*
X27185165Y12542457D01*
X27125377Y12673373D01*
X27114273Y12686188D01*
X27084780Y12750769D01*
X27094885Y12821043D01*
X27141378Y12874698D01*
X27209498Y12894700D01*
X50868700Y12894700D01*
X50936821Y12874698D01*
G37*
%TD.AperFunction*%
%TD*%
M02*
