%TF.GenerationSoftware,KiCad,Pcbnew,8.0.4*%
%TF.CreationDate,2024-08-23T09:14:10-06:00*%
%TF.ProjectId,SparkFun_BMV080_panelized_v01b,53706172-6b46-4756-9e5f-424d56303830,v01*%
%TF.SameCoordinates,Original*%
%TF.FileFunction,Soldermask,Bot*%
%TF.FilePolarity,Negative*%
%FSLAX46Y46*%
G04 Gerber Fmt 4.6, Leading zero omitted, Abs format (unit mm)*
G04 Created by KiCad (PCBNEW 8.0.4) date 2024-08-23 09:14:10*
%MOMM*%
%LPD*%
G01*
G04 APERTURE LIST*
%TA.AperFunction,Profile*%
%ADD10C,0.100000*%
%TD*%
%TA.AperFunction,Profile*%
%ADD11C,0.050000*%
%TD*%
%ADD12C,0.500000*%
%ADD13C,0.250000*%
G04 APERTURE END LIST*
D10*
X0Y75000000D02*
X75000000Y75000000D01*
D11*
X32750000Y19550000D02*
X58150000Y19550000D01*
X58150000Y19550000D02*
X58150000Y6850000D01*
X6850000Y32750000D02*
X32250000Y32750000D01*
X6850000Y19550000D02*
X32250000Y19550000D01*
X32250000Y6850000D02*
X6850000Y6850000D01*
D10*
X6350000Y6350000D02*
X6350000Y33250000D01*
D11*
X32250000Y32750000D02*
X32250000Y20050000D01*
X58150000Y6850000D02*
X32750000Y6850000D01*
X32250000Y20050000D02*
X6850000Y20050000D01*
D10*
X58650000Y6350000D02*
X6350000Y6350000D01*
D11*
X32250000Y19550000D02*
X32250000Y6850000D01*
D10*
X75000000Y75000000D02*
X75000000Y0D01*
D11*
X32750000Y6850000D02*
X32750000Y19550000D01*
X6850000Y20050000D02*
X6850000Y32750000D01*
D10*
X0Y0D02*
X0Y75000000D01*
X58650000Y33250000D02*
X58650000Y6350000D01*
D11*
X32750000Y32750000D02*
X58150000Y32750000D01*
X58150000Y20050000D02*
X32750000Y20050000D01*
X58150000Y32750000D02*
X58150000Y20050000D01*
D10*
X6350000Y33250000D02*
X58650000Y33250000D01*
X75000000Y0D02*
X0Y0D01*
D11*
X32750000Y20050000D02*
X32750000Y32750000D01*
X6850000Y6850000D02*
X6850000Y19550000D01*
D12*
X6600000Y76000000D02*
X6600000Y-275000D01*
X58400000Y76000000D02*
X58400000Y-275000D01*
X-275000Y6600000D02*
X76000000Y6600000D01*
X-275000Y33000000D02*
X76000000Y33000000D01*
X32500000Y76000000D02*
X32500000Y-275000D01*
X-275000Y19800000D02*
X76000000Y19800000D01*
D13*
X-16248997Y7687762D02*
X-15582331Y5687762D01*
X-15582331Y5687762D02*
X-14915664Y7687762D01*
X-14248997Y6449667D02*
X-12725187Y6449667D01*
X-11868045Y5783000D02*
X-11582331Y5687762D01*
X-11582331Y5687762D02*
X-11106140Y5687762D01*
X-11106140Y5687762D02*
X-10915664Y5783000D01*
X-10915664Y5783000D02*
X-10820426Y5878239D01*
X-10820426Y5878239D02*
X-10725188Y6068715D01*
X-10725188Y6068715D02*
X-10725188Y6259191D01*
X-10725188Y6259191D02*
X-10820426Y6449667D01*
X-10820426Y6449667D02*
X-10915664Y6544905D01*
X-10915664Y6544905D02*
X-11106140Y6640143D01*
X-11106140Y6640143D02*
X-11487093Y6735381D01*
X-11487093Y6735381D02*
X-11677569Y6830620D01*
X-11677569Y6830620D02*
X-11772807Y6925858D01*
X-11772807Y6925858D02*
X-11868045Y7116334D01*
X-11868045Y7116334D02*
X-11868045Y7306810D01*
X-11868045Y7306810D02*
X-11772807Y7497286D01*
X-11772807Y7497286D02*
X-11677569Y7592524D01*
X-11677569Y7592524D02*
X-11487093Y7687762D01*
X-11487093Y7687762D02*
X-11010902Y7687762D01*
X-11010902Y7687762D02*
X-10725188Y7592524D01*
X-8725188Y5878239D02*
X-8820426Y5783000D01*
X-8820426Y5783000D02*
X-9106140Y5687762D01*
X-9106140Y5687762D02*
X-9296616Y5687762D01*
X-9296616Y5687762D02*
X-9582331Y5783000D01*
X-9582331Y5783000D02*
X-9772807Y5973477D01*
X-9772807Y5973477D02*
X-9868045Y6163953D01*
X-9868045Y6163953D02*
X-9963283Y6544905D01*
X-9963283Y6544905D02*
X-9963283Y6830620D01*
X-9963283Y6830620D02*
X-9868045Y7211572D01*
X-9868045Y7211572D02*
X-9772807Y7402048D01*
X-9772807Y7402048D02*
X-9582331Y7592524D01*
X-9582331Y7592524D02*
X-9296616Y7687762D01*
X-9296616Y7687762D02*
X-9106140Y7687762D01*
X-9106140Y7687762D02*
X-8820426Y7592524D01*
X-8820426Y7592524D02*
X-8725188Y7497286D01*
X-7487093Y7687762D02*
X-7106140Y7687762D01*
X-7106140Y7687762D02*
X-6915664Y7592524D01*
X-6915664Y7592524D02*
X-6725188Y7402048D01*
X-6725188Y7402048D02*
X-6629950Y7021096D01*
X-6629950Y7021096D02*
X-6629950Y6354429D01*
X-6629950Y6354429D02*
X-6725188Y5973477D01*
X-6725188Y5973477D02*
X-6915664Y5783000D01*
X-6915664Y5783000D02*
X-7106140Y5687762D01*
X-7106140Y5687762D02*
X-7487093Y5687762D01*
X-7487093Y5687762D02*
X-7677569Y5783000D01*
X-7677569Y5783000D02*
X-7868045Y5973477D01*
X-7868045Y5973477D02*
X-7963283Y6354429D01*
X-7963283Y6354429D02*
X-7963283Y7021096D01*
X-7963283Y7021096D02*
X-7868045Y7402048D01*
X-7868045Y7402048D02*
X-7677569Y7592524D01*
X-7677569Y7592524D02*
X-7487093Y7687762D01*
X-4629950Y5687762D02*
X-5296617Y6640143D01*
X-5772807Y5687762D02*
X-5772807Y7687762D01*
X-5772807Y7687762D02*
X-5010902Y7687762D01*
X-5010902Y7687762D02*
X-4820426Y7592524D01*
X-4820426Y7592524D02*
X-4725188Y7497286D01*
X-4725188Y7497286D02*
X-4629950Y7306810D01*
X-4629950Y7306810D02*
X-4629950Y7021096D01*
X-4629950Y7021096D02*
X-4725188Y6830620D01*
X-4725188Y6830620D02*
X-4820426Y6735381D01*
X-4820426Y6735381D02*
X-5010902Y6640143D01*
X-5010902Y6640143D02*
X-5772807Y6640143D01*
X-3772807Y6735381D02*
X-3106140Y6735381D01*
X-2820426Y5687762D02*
X-3772807Y5687762D01*
X-3772807Y5687762D02*
X-3772807Y7687762D01*
X-3772807Y7687762D02*
X-2820426Y7687762D01*
X-16248997Y34087762D02*
X-15582331Y32087762D01*
X-15582331Y32087762D02*
X-14915664Y34087762D01*
X-14248997Y32849667D02*
X-12725187Y32849667D01*
X-11868045Y32183000D02*
X-11582331Y32087762D01*
X-11582331Y32087762D02*
X-11106140Y32087762D01*
X-11106140Y32087762D02*
X-10915664Y32183000D01*
X-10915664Y32183000D02*
X-10820426Y32278239D01*
X-10820426Y32278239D02*
X-10725188Y32468715D01*
X-10725188Y32468715D02*
X-10725188Y32659191D01*
X-10725188Y32659191D02*
X-10820426Y32849667D01*
X-10820426Y32849667D02*
X-10915664Y32944905D01*
X-10915664Y32944905D02*
X-11106140Y33040143D01*
X-11106140Y33040143D02*
X-11487093Y33135381D01*
X-11487093Y33135381D02*
X-11677569Y33230620D01*
X-11677569Y33230620D02*
X-11772807Y33325858D01*
X-11772807Y33325858D02*
X-11868045Y33516334D01*
X-11868045Y33516334D02*
X-11868045Y33706810D01*
X-11868045Y33706810D02*
X-11772807Y33897286D01*
X-11772807Y33897286D02*
X-11677569Y33992524D01*
X-11677569Y33992524D02*
X-11487093Y34087762D01*
X-11487093Y34087762D02*
X-11010902Y34087762D01*
X-11010902Y34087762D02*
X-10725188Y33992524D01*
X-8725188Y32278239D02*
X-8820426Y32183000D01*
X-8820426Y32183000D02*
X-9106140Y32087762D01*
X-9106140Y32087762D02*
X-9296616Y32087762D01*
X-9296616Y32087762D02*
X-9582331Y32183000D01*
X-9582331Y32183000D02*
X-9772807Y32373477D01*
X-9772807Y32373477D02*
X-9868045Y32563953D01*
X-9868045Y32563953D02*
X-9963283Y32944905D01*
X-9963283Y32944905D02*
X-9963283Y33230620D01*
X-9963283Y33230620D02*
X-9868045Y33611572D01*
X-9868045Y33611572D02*
X-9772807Y33802048D01*
X-9772807Y33802048D02*
X-9582331Y33992524D01*
X-9582331Y33992524D02*
X-9296616Y34087762D01*
X-9296616Y34087762D02*
X-9106140Y34087762D01*
X-9106140Y34087762D02*
X-8820426Y33992524D01*
X-8820426Y33992524D02*
X-8725188Y33897286D01*
X-7487093Y34087762D02*
X-7106140Y34087762D01*
X-7106140Y34087762D02*
X-6915664Y33992524D01*
X-6915664Y33992524D02*
X-6725188Y33802048D01*
X-6725188Y33802048D02*
X-6629950Y33421096D01*
X-6629950Y33421096D02*
X-6629950Y32754429D01*
X-6629950Y32754429D02*
X-6725188Y32373477D01*
X-6725188Y32373477D02*
X-6915664Y32183000D01*
X-6915664Y32183000D02*
X-7106140Y32087762D01*
X-7106140Y32087762D02*
X-7487093Y32087762D01*
X-7487093Y32087762D02*
X-7677569Y32183000D01*
X-7677569Y32183000D02*
X-7868045Y32373477D01*
X-7868045Y32373477D02*
X-7963283Y32754429D01*
X-7963283Y32754429D02*
X-7963283Y33421096D01*
X-7963283Y33421096D02*
X-7868045Y33802048D01*
X-7868045Y33802048D02*
X-7677569Y33992524D01*
X-7677569Y33992524D02*
X-7487093Y34087762D01*
X-4629950Y32087762D02*
X-5296617Y33040143D01*
X-5772807Y32087762D02*
X-5772807Y34087762D01*
X-5772807Y34087762D02*
X-5010902Y34087762D01*
X-5010902Y34087762D02*
X-4820426Y33992524D01*
X-4820426Y33992524D02*
X-4725188Y33897286D01*
X-4725188Y33897286D02*
X-4629950Y33706810D01*
X-4629950Y33706810D02*
X-4629950Y33421096D01*
X-4629950Y33421096D02*
X-4725188Y33230620D01*
X-4725188Y33230620D02*
X-4820426Y33135381D01*
X-4820426Y33135381D02*
X-5010902Y33040143D01*
X-5010902Y33040143D02*
X-5772807Y33040143D01*
X-3772807Y33135381D02*
X-3106140Y33135381D01*
X-2820426Y32087762D02*
X-3772807Y32087762D01*
X-3772807Y32087762D02*
X-3772807Y34087762D01*
X-3772807Y34087762D02*
X-2820426Y34087762D01*
X56912238Y77354950D02*
X58912238Y78021616D01*
X58912238Y78021616D02*
X56912238Y78688283D01*
X58150333Y79354950D02*
X58150333Y80878759D01*
X58817000Y81735902D02*
X58912238Y82021616D01*
X58912238Y82021616D02*
X58912238Y82497807D01*
X58912238Y82497807D02*
X58817000Y82688283D01*
X58817000Y82688283D02*
X58721761Y82783521D01*
X58721761Y82783521D02*
X58531285Y82878759D01*
X58531285Y82878759D02*
X58340809Y82878759D01*
X58340809Y82878759D02*
X58150333Y82783521D01*
X58150333Y82783521D02*
X58055095Y82688283D01*
X58055095Y82688283D02*
X57959857Y82497807D01*
X57959857Y82497807D02*
X57864619Y82116854D01*
X57864619Y82116854D02*
X57769380Y81926378D01*
X57769380Y81926378D02*
X57674142Y81831140D01*
X57674142Y81831140D02*
X57483666Y81735902D01*
X57483666Y81735902D02*
X57293190Y81735902D01*
X57293190Y81735902D02*
X57102714Y81831140D01*
X57102714Y81831140D02*
X57007476Y81926378D01*
X57007476Y81926378D02*
X56912238Y82116854D01*
X56912238Y82116854D02*
X56912238Y82593045D01*
X56912238Y82593045D02*
X57007476Y82878759D01*
X58721761Y84878759D02*
X58817000Y84783521D01*
X58817000Y84783521D02*
X58912238Y84497807D01*
X58912238Y84497807D02*
X58912238Y84307331D01*
X58912238Y84307331D02*
X58817000Y84021616D01*
X58817000Y84021616D02*
X58626523Y83831140D01*
X58626523Y83831140D02*
X58436047Y83735902D01*
X58436047Y83735902D02*
X58055095Y83640664D01*
X58055095Y83640664D02*
X57769380Y83640664D01*
X57769380Y83640664D02*
X57388428Y83735902D01*
X57388428Y83735902D02*
X57197952Y83831140D01*
X57197952Y83831140D02*
X57007476Y84021616D01*
X57007476Y84021616D02*
X56912238Y84307331D01*
X56912238Y84307331D02*
X56912238Y84497807D01*
X56912238Y84497807D02*
X57007476Y84783521D01*
X57007476Y84783521D02*
X57102714Y84878759D01*
X56912238Y86116854D02*
X56912238Y86497807D01*
X56912238Y86497807D02*
X57007476Y86688283D01*
X57007476Y86688283D02*
X57197952Y86878759D01*
X57197952Y86878759D02*
X57578904Y86973997D01*
X57578904Y86973997D02*
X58245571Y86973997D01*
X58245571Y86973997D02*
X58626523Y86878759D01*
X58626523Y86878759D02*
X58817000Y86688283D01*
X58817000Y86688283D02*
X58912238Y86497807D01*
X58912238Y86497807D02*
X58912238Y86116854D01*
X58912238Y86116854D02*
X58817000Y85926378D01*
X58817000Y85926378D02*
X58626523Y85735902D01*
X58626523Y85735902D02*
X58245571Y85640664D01*
X58245571Y85640664D02*
X57578904Y85640664D01*
X57578904Y85640664D02*
X57197952Y85735902D01*
X57197952Y85735902D02*
X57007476Y85926378D01*
X57007476Y85926378D02*
X56912238Y86116854D01*
X58912238Y88973997D02*
X57959857Y88307330D01*
X58912238Y87831140D02*
X56912238Y87831140D01*
X56912238Y87831140D02*
X56912238Y88593045D01*
X56912238Y88593045D02*
X57007476Y88783521D01*
X57007476Y88783521D02*
X57102714Y88878759D01*
X57102714Y88878759D02*
X57293190Y88973997D01*
X57293190Y88973997D02*
X57578904Y88973997D01*
X57578904Y88973997D02*
X57769380Y88878759D01*
X57769380Y88878759D02*
X57864619Y88783521D01*
X57864619Y88783521D02*
X57959857Y88593045D01*
X57959857Y88593045D02*
X57959857Y87831140D01*
X57864619Y89831140D02*
X57864619Y90497807D01*
X58912238Y90783521D02*
X58912238Y89831140D01*
X58912238Y89831140D02*
X56912238Y89831140D01*
X56912238Y89831140D02*
X56912238Y90783521D01*
X-16248997Y20887762D02*
X-15582331Y18887762D01*
X-15582331Y18887762D02*
X-14915664Y20887762D01*
X-14248997Y19649667D02*
X-12725187Y19649667D01*
X-11868045Y18983000D02*
X-11582331Y18887762D01*
X-11582331Y18887762D02*
X-11106140Y18887762D01*
X-11106140Y18887762D02*
X-10915664Y18983000D01*
X-10915664Y18983000D02*
X-10820426Y19078239D01*
X-10820426Y19078239D02*
X-10725188Y19268715D01*
X-10725188Y19268715D02*
X-10725188Y19459191D01*
X-10725188Y19459191D02*
X-10820426Y19649667D01*
X-10820426Y19649667D02*
X-10915664Y19744905D01*
X-10915664Y19744905D02*
X-11106140Y19840143D01*
X-11106140Y19840143D02*
X-11487093Y19935381D01*
X-11487093Y19935381D02*
X-11677569Y20030620D01*
X-11677569Y20030620D02*
X-11772807Y20125858D01*
X-11772807Y20125858D02*
X-11868045Y20316334D01*
X-11868045Y20316334D02*
X-11868045Y20506810D01*
X-11868045Y20506810D02*
X-11772807Y20697286D01*
X-11772807Y20697286D02*
X-11677569Y20792524D01*
X-11677569Y20792524D02*
X-11487093Y20887762D01*
X-11487093Y20887762D02*
X-11010902Y20887762D01*
X-11010902Y20887762D02*
X-10725188Y20792524D01*
X-8725188Y19078239D02*
X-8820426Y18983000D01*
X-8820426Y18983000D02*
X-9106140Y18887762D01*
X-9106140Y18887762D02*
X-9296616Y18887762D01*
X-9296616Y18887762D02*
X-9582331Y18983000D01*
X-9582331Y18983000D02*
X-9772807Y19173477D01*
X-9772807Y19173477D02*
X-9868045Y19363953D01*
X-9868045Y19363953D02*
X-9963283Y19744905D01*
X-9963283Y19744905D02*
X-9963283Y20030620D01*
X-9963283Y20030620D02*
X-9868045Y20411572D01*
X-9868045Y20411572D02*
X-9772807Y20602048D01*
X-9772807Y20602048D02*
X-9582331Y20792524D01*
X-9582331Y20792524D02*
X-9296616Y20887762D01*
X-9296616Y20887762D02*
X-9106140Y20887762D01*
X-9106140Y20887762D02*
X-8820426Y20792524D01*
X-8820426Y20792524D02*
X-8725188Y20697286D01*
X-7487093Y20887762D02*
X-7106140Y20887762D01*
X-7106140Y20887762D02*
X-6915664Y20792524D01*
X-6915664Y20792524D02*
X-6725188Y20602048D01*
X-6725188Y20602048D02*
X-6629950Y20221096D01*
X-6629950Y20221096D02*
X-6629950Y19554429D01*
X-6629950Y19554429D02*
X-6725188Y19173477D01*
X-6725188Y19173477D02*
X-6915664Y18983000D01*
X-6915664Y18983000D02*
X-7106140Y18887762D01*
X-7106140Y18887762D02*
X-7487093Y18887762D01*
X-7487093Y18887762D02*
X-7677569Y18983000D01*
X-7677569Y18983000D02*
X-7868045Y19173477D01*
X-7868045Y19173477D02*
X-7963283Y19554429D01*
X-7963283Y19554429D02*
X-7963283Y20221096D01*
X-7963283Y20221096D02*
X-7868045Y20602048D01*
X-7868045Y20602048D02*
X-7677569Y20792524D01*
X-7677569Y20792524D02*
X-7487093Y20887762D01*
X-4629950Y18887762D02*
X-5296617Y19840143D01*
X-5772807Y18887762D02*
X-5772807Y20887762D01*
X-5772807Y20887762D02*
X-5010902Y20887762D01*
X-5010902Y20887762D02*
X-4820426Y20792524D01*
X-4820426Y20792524D02*
X-4725188Y20697286D01*
X-4725188Y20697286D02*
X-4629950Y20506810D01*
X-4629950Y20506810D02*
X-4629950Y20221096D01*
X-4629950Y20221096D02*
X-4725188Y20030620D01*
X-4725188Y20030620D02*
X-4820426Y19935381D01*
X-4820426Y19935381D02*
X-5010902Y19840143D01*
X-5010902Y19840143D02*
X-5772807Y19840143D01*
X-3772807Y19935381D02*
X-3106140Y19935381D01*
X-2820426Y18887762D02*
X-3772807Y18887762D01*
X-3772807Y18887762D02*
X-3772807Y20887762D01*
X-3772807Y20887762D02*
X-2820426Y20887762D01*
X5112238Y77354950D02*
X7112238Y78021616D01*
X7112238Y78021616D02*
X5112238Y78688283D01*
X6350333Y79354950D02*
X6350333Y80878759D01*
X7017000Y81735902D02*
X7112238Y82021616D01*
X7112238Y82021616D02*
X7112238Y82497807D01*
X7112238Y82497807D02*
X7017000Y82688283D01*
X7017000Y82688283D02*
X6921761Y82783521D01*
X6921761Y82783521D02*
X6731285Y82878759D01*
X6731285Y82878759D02*
X6540809Y82878759D01*
X6540809Y82878759D02*
X6350333Y82783521D01*
X6350333Y82783521D02*
X6255095Y82688283D01*
X6255095Y82688283D02*
X6159857Y82497807D01*
X6159857Y82497807D02*
X6064619Y82116854D01*
X6064619Y82116854D02*
X5969380Y81926378D01*
X5969380Y81926378D02*
X5874142Y81831140D01*
X5874142Y81831140D02*
X5683666Y81735902D01*
X5683666Y81735902D02*
X5493190Y81735902D01*
X5493190Y81735902D02*
X5302714Y81831140D01*
X5302714Y81831140D02*
X5207476Y81926378D01*
X5207476Y81926378D02*
X5112238Y82116854D01*
X5112238Y82116854D02*
X5112238Y82593045D01*
X5112238Y82593045D02*
X5207476Y82878759D01*
X6921761Y84878759D02*
X7017000Y84783521D01*
X7017000Y84783521D02*
X7112238Y84497807D01*
X7112238Y84497807D02*
X7112238Y84307331D01*
X7112238Y84307331D02*
X7017000Y84021616D01*
X7017000Y84021616D02*
X6826523Y83831140D01*
X6826523Y83831140D02*
X6636047Y83735902D01*
X6636047Y83735902D02*
X6255095Y83640664D01*
X6255095Y83640664D02*
X5969380Y83640664D01*
X5969380Y83640664D02*
X5588428Y83735902D01*
X5588428Y83735902D02*
X5397952Y83831140D01*
X5397952Y83831140D02*
X5207476Y84021616D01*
X5207476Y84021616D02*
X5112238Y84307331D01*
X5112238Y84307331D02*
X5112238Y84497807D01*
X5112238Y84497807D02*
X5207476Y84783521D01*
X5207476Y84783521D02*
X5302714Y84878759D01*
X5112238Y86116854D02*
X5112238Y86497807D01*
X5112238Y86497807D02*
X5207476Y86688283D01*
X5207476Y86688283D02*
X5397952Y86878759D01*
X5397952Y86878759D02*
X5778904Y86973997D01*
X5778904Y86973997D02*
X6445571Y86973997D01*
X6445571Y86973997D02*
X6826523Y86878759D01*
X6826523Y86878759D02*
X7017000Y86688283D01*
X7017000Y86688283D02*
X7112238Y86497807D01*
X7112238Y86497807D02*
X7112238Y86116854D01*
X7112238Y86116854D02*
X7017000Y85926378D01*
X7017000Y85926378D02*
X6826523Y85735902D01*
X6826523Y85735902D02*
X6445571Y85640664D01*
X6445571Y85640664D02*
X5778904Y85640664D01*
X5778904Y85640664D02*
X5397952Y85735902D01*
X5397952Y85735902D02*
X5207476Y85926378D01*
X5207476Y85926378D02*
X5112238Y86116854D01*
X7112238Y88973997D02*
X6159857Y88307330D01*
X7112238Y87831140D02*
X5112238Y87831140D01*
X5112238Y87831140D02*
X5112238Y88593045D01*
X5112238Y88593045D02*
X5207476Y88783521D01*
X5207476Y88783521D02*
X5302714Y88878759D01*
X5302714Y88878759D02*
X5493190Y88973997D01*
X5493190Y88973997D02*
X5778904Y88973997D01*
X5778904Y88973997D02*
X5969380Y88878759D01*
X5969380Y88878759D02*
X6064619Y88783521D01*
X6064619Y88783521D02*
X6159857Y88593045D01*
X6159857Y88593045D02*
X6159857Y87831140D01*
X6064619Y89831140D02*
X6064619Y90497807D01*
X7112238Y90783521D02*
X7112238Y89831140D01*
X7112238Y89831140D02*
X5112238Y89831140D01*
X5112238Y89831140D02*
X5112238Y90783521D01*
X31012238Y77354950D02*
X33012238Y78021616D01*
X33012238Y78021616D02*
X31012238Y78688283D01*
X32250333Y79354950D02*
X32250333Y80878759D01*
X32917000Y81735902D02*
X33012238Y82021616D01*
X33012238Y82021616D02*
X33012238Y82497807D01*
X33012238Y82497807D02*
X32917000Y82688283D01*
X32917000Y82688283D02*
X32821761Y82783521D01*
X32821761Y82783521D02*
X32631285Y82878759D01*
X32631285Y82878759D02*
X32440809Y82878759D01*
X32440809Y82878759D02*
X32250333Y82783521D01*
X32250333Y82783521D02*
X32155095Y82688283D01*
X32155095Y82688283D02*
X32059857Y82497807D01*
X32059857Y82497807D02*
X31964619Y82116854D01*
X31964619Y82116854D02*
X31869380Y81926378D01*
X31869380Y81926378D02*
X31774142Y81831140D01*
X31774142Y81831140D02*
X31583666Y81735902D01*
X31583666Y81735902D02*
X31393190Y81735902D01*
X31393190Y81735902D02*
X31202714Y81831140D01*
X31202714Y81831140D02*
X31107476Y81926378D01*
X31107476Y81926378D02*
X31012238Y82116854D01*
X31012238Y82116854D02*
X31012238Y82593045D01*
X31012238Y82593045D02*
X31107476Y82878759D01*
X32821761Y84878759D02*
X32917000Y84783521D01*
X32917000Y84783521D02*
X33012238Y84497807D01*
X33012238Y84497807D02*
X33012238Y84307331D01*
X33012238Y84307331D02*
X32917000Y84021616D01*
X32917000Y84021616D02*
X32726523Y83831140D01*
X32726523Y83831140D02*
X32536047Y83735902D01*
X32536047Y83735902D02*
X32155095Y83640664D01*
X32155095Y83640664D02*
X31869380Y83640664D01*
X31869380Y83640664D02*
X31488428Y83735902D01*
X31488428Y83735902D02*
X31297952Y83831140D01*
X31297952Y83831140D02*
X31107476Y84021616D01*
X31107476Y84021616D02*
X31012238Y84307331D01*
X31012238Y84307331D02*
X31012238Y84497807D01*
X31012238Y84497807D02*
X31107476Y84783521D01*
X31107476Y84783521D02*
X31202714Y84878759D01*
X31012238Y86116854D02*
X31012238Y86497807D01*
X31012238Y86497807D02*
X31107476Y86688283D01*
X31107476Y86688283D02*
X31297952Y86878759D01*
X31297952Y86878759D02*
X31678904Y86973997D01*
X31678904Y86973997D02*
X32345571Y86973997D01*
X32345571Y86973997D02*
X32726523Y86878759D01*
X32726523Y86878759D02*
X32917000Y86688283D01*
X32917000Y86688283D02*
X33012238Y86497807D01*
X33012238Y86497807D02*
X33012238Y86116854D01*
X33012238Y86116854D02*
X32917000Y85926378D01*
X32917000Y85926378D02*
X32726523Y85735902D01*
X32726523Y85735902D02*
X32345571Y85640664D01*
X32345571Y85640664D02*
X31678904Y85640664D01*
X31678904Y85640664D02*
X31297952Y85735902D01*
X31297952Y85735902D02*
X31107476Y85926378D01*
X31107476Y85926378D02*
X31012238Y86116854D01*
X33012238Y88973997D02*
X32059857Y88307330D01*
X33012238Y87831140D02*
X31012238Y87831140D01*
X31012238Y87831140D02*
X31012238Y88593045D01*
X31012238Y88593045D02*
X31107476Y88783521D01*
X31107476Y88783521D02*
X31202714Y88878759D01*
X31202714Y88878759D02*
X31393190Y88973997D01*
X31393190Y88973997D02*
X31678904Y88973997D01*
X31678904Y88973997D02*
X31869380Y88878759D01*
X31869380Y88878759D02*
X31964619Y88783521D01*
X31964619Y88783521D02*
X32059857Y88593045D01*
X32059857Y88593045D02*
X32059857Y87831140D01*
X31964619Y89831140D02*
X31964619Y90497807D01*
X33012238Y90783521D02*
X33012238Y89831140D01*
X33012238Y89831140D02*
X31012238Y89831140D01*
X31012238Y89831140D02*
X31012238Y90783521D01*
M02*
