M48
; DRILL file {KiCad 8.0.4} date 2024-08-22T15:16:28-0600
; FORMAT={-:-/ absolute / metric / decimal}
; #@! TF.CreationDate,2024-08-22T15:16:28-06:00
; #@! TF.GenerationSoftware,Kicad,Pcbnew,8.0.4
; #@! TF.FileFunction,MixedPlating,1,2
FMAT,2
METRIC
; #@! TA.AperFunction,Plated,PTH,ViaDrill
T1C0.300
; #@! TA.AperFunction,Plated,PTH,ComponentDrill
T2C0.950
; #@! TA.AperFunction,Plated,PTH,ComponentDrill
T3C1.016
; #@! TA.AperFunction,NonPlated,NPTH,ComponentDrill
T4C3.302
%
G90
G05
T1
X0.65Y10.99
X0.65Y-2.21
X1.3Y8.78
X1.3Y-4.42
X1.94Y5.17
X1.94Y-8.03
X2.99Y5.99
X2.99Y-7.21
X3.02Y6.79
X3.02Y-6.41
X3.59Y11.85
X3.59Y-1.35
X4.72Y2.47
X4.72Y-10.73
X5.34Y12.54
X5.34Y-0.66
X5.559Y11.393
X5.559Y-1.807
X5.58Y5.25
X5.58Y-7.95
X5.64Y6.14
X5.64Y-7.06
X5.933Y8.541
X5.933Y-4.659
X6.618Y9.136
X6.618Y-4.064
X6.67Y6.831
X6.67Y-6.369
X6.698Y7.68
X6.698Y-5.52
X7.643Y5.218
X7.643Y-7.982
X8.18Y5.811
X8.18Y-7.389
X8.86Y5.19
X8.86Y-8.01
X8.902Y9.563
X8.902Y-3.637
X8.92Y8.763
X8.92Y-4.437
X9.46Y12.5
X9.46Y-0.7
X10.41Y9.4
X10.41Y-3.8
X10.81Y5.6
X10.81Y-7.6
X11.202Y9.519
X11.202Y-3.681
X11.24Y8.72
X11.24Y-4.48
X11.26Y7.43
X11.26Y-5.77
X11.69Y6.56
X11.69Y-6.64
X12.71Y5.91
X12.71Y-7.29
X13.067Y9.885
X13.067Y-3.315
X13.923Y4.0
X13.923Y-9.2
X15.01Y5.53
X15.01Y-7.67
X15.17Y2.66
X15.17Y-10.54
X15.24Y12.184
X15.24Y10.66
X15.24Y9.39
X15.24Y8.12
X15.24Y6.596
X15.24Y-1.016
X15.24Y-2.54
X15.24Y-3.81
X15.24Y-5.08
X15.24Y-6.604
X16.51Y12.184
X16.51Y10.66
X16.51Y9.39
X16.51Y8.12
X16.51Y6.596
X16.51Y-1.016
X16.51Y-2.54
X16.51Y-3.81
X16.51Y-5.08
X16.51Y-6.604
X16.983Y3.876
X16.983Y-9.324
X17.78Y12.184
X17.78Y10.66
X17.78Y9.39
X17.78Y8.12
X17.78Y6.596
X17.78Y-1.016
X17.78Y-2.54
X17.78Y-3.81
X17.78Y-5.08
X17.78Y-6.604
X17.79Y5.01
X17.79Y-8.19
X19.05Y12.184
X19.05Y10.66
X19.05Y9.39
X19.05Y8.12
X19.05Y6.596
X19.05Y-1.016
X19.05Y-2.54
X19.05Y-3.81
X19.05Y-5.08
X19.05Y-6.604
X20.32Y12.184
X20.32Y10.66
X20.32Y9.39
X20.32Y8.12
X20.32Y6.596
X20.32Y-1.016
X20.32Y-2.54
X20.32Y-3.81
X20.32Y-5.08
X20.32Y-6.604
X21.59Y12.184
X21.59Y10.66
X21.59Y9.39
X21.59Y8.12
X21.59Y6.596
X21.59Y-1.016
X21.59Y-2.54
X21.59Y-3.81
X21.59Y-5.08
X21.59Y-6.604
X26.55Y10.99
X26.55Y-2.21
X27.2Y8.78
X27.2Y-4.42
X27.84Y5.17
X27.84Y-8.03
X28.89Y5.99
X28.89Y-7.21
X28.92Y6.79
X28.92Y-6.41
X29.49Y11.85
X29.49Y-1.35
X30.62Y2.47
X30.62Y-10.73
X31.24Y12.54
X31.24Y-0.66
X31.459Y11.393
X31.459Y-1.807
X31.48Y5.25
X31.48Y-7.95
X31.54Y6.14
X31.54Y-7.06
X31.833Y8.541
X31.833Y-4.659
X32.518Y9.136
X32.518Y-4.064
X32.57Y6.831
X32.57Y-6.369
X32.598Y7.68
X32.598Y-5.52
X33.543Y5.218
X33.543Y-7.982
X34.08Y5.811
X34.08Y-7.389
X34.76Y5.19
X34.76Y-8.01
X34.802Y9.563
X34.802Y-3.637
X34.82Y8.763
X34.82Y-4.437
X35.36Y12.5
X35.36Y-0.7
X36.31Y9.4
X36.31Y-3.8
X36.71Y5.6
X36.71Y-7.6
X37.102Y9.519
X37.102Y-3.681
X37.14Y8.72
X37.14Y-4.48
X37.16Y7.43
X37.16Y-5.77
X37.59Y6.56
X37.59Y-6.64
X38.61Y5.91
X38.61Y-7.29
X38.967Y9.885
X38.967Y-3.315
X39.823Y4.0
X39.823Y-9.2
X40.91Y5.53
X40.91Y-7.67
X41.07Y2.66
X41.07Y-10.54
X41.14Y12.184
X41.14Y10.66
X41.14Y9.39
X41.14Y8.12
X41.14Y6.596
X41.14Y-1.016
X41.14Y-2.54
X41.14Y-3.81
X41.14Y-5.08
X41.14Y-6.604
X42.41Y12.184
X42.41Y10.66
X42.41Y9.39
X42.41Y8.12
X42.41Y6.596
X42.41Y-1.016
X42.41Y-2.54
X42.41Y-3.81
X42.41Y-5.08
X42.41Y-6.604
X42.883Y3.876
X42.883Y-9.324
X43.68Y12.184
X43.68Y10.66
X43.68Y9.39
X43.68Y8.12
X43.68Y6.596
X43.68Y-1.016
X43.68Y-2.54
X43.68Y-3.81
X43.68Y-5.08
X43.68Y-6.604
X43.69Y5.01
X43.69Y-8.19
X44.95Y12.184
X44.95Y10.66
X44.95Y9.39
X44.95Y8.12
X44.95Y6.596
X44.95Y-1.016
X44.95Y-2.54
X44.95Y-3.81
X44.95Y-5.08
X44.95Y-6.604
X46.22Y12.184
X46.22Y10.66
X46.22Y9.39
X46.22Y8.12
X46.22Y6.596
X46.22Y-1.016
X46.22Y-2.54
X46.22Y-3.81
X46.22Y-5.08
X46.22Y-6.604
X47.49Y12.184
X47.49Y10.66
X47.49Y9.39
X47.49Y8.12
X47.49Y6.596
X47.49Y-1.016
X47.49Y-2.54
X47.49Y-3.81
X47.49Y-5.08
X47.49Y-6.604
T2
X24.13Y6.85
X24.13Y-6.35
X50.03Y6.85
X50.03Y-6.35
T3
X6.35Y1.77
X6.35Y-11.43
X8.89Y1.77
X8.89Y-11.43
X11.43Y1.77
X11.43Y-11.43
X13.97Y1.77
X13.97Y-11.43
X16.51Y1.77
X16.51Y-11.43
X19.05Y1.77
X19.05Y-11.43
X32.25Y1.77
X32.25Y-11.43
X34.79Y1.77
X34.79Y-11.43
X37.33Y1.77
X37.33Y-11.43
X39.87Y1.77
X39.87Y-11.43
X42.41Y1.77
X42.41Y-11.43
X44.95Y1.77
X44.95Y-11.43
T4
X2.54Y3.04
X2.54Y-10.16
X22.86Y3.04
X22.86Y-10.16
X28.44Y3.04
X28.44Y-10.16
X48.76Y3.04
X48.76Y-10.16
M30
