%TF.GenerationSoftware,KiCad,Pcbnew,8.0.4*%
%TF.CreationDate,2024-08-22T15:16:28-06:00*%
%TF.ProjectId,SparkFun_BMV080_panelized,53706172-6b46-4756-9e5f-424d56303830,v01*%
%TF.SameCoordinates,Original*%
%TF.FileFunction,Soldermask,Bot*%
%TF.FilePolarity,Negative*%
%FSLAX46Y46*%
G04 Gerber Fmt 4.6, Leading zero omitted, Abs format (unit mm)*
G04 Created by KiCad (PCBNEW 8.0.4) date 2024-08-22 15:16:28*
%MOMM*%
%LPD*%
G01*
G04 APERTURE LIST*
G04 Aperture macros list*
%AMRoundRect*
0 Rectangle with rounded corners*
0 $1 Rounding radius*
0 $2 $3 $4 $5 $6 $7 $8 $9 X,Y pos of 4 corners*
0 Add a 4 corners polygon primitive as box body*
4,1,4,$2,$3,$4,$5,$6,$7,$8,$9,$2,$3,0*
0 Add four circle primitives for the rounded corners*
1,1,$1+$1,$2,$3*
1,1,$1+$1,$4,$5*
1,1,$1+$1,$6,$7*
1,1,$1+$1,$8,$9*
0 Add four rect primitives between the rounded corners*
20,1,$1+$1,$2,$3,$4,$5,0*
20,1,$1+$1,$4,$5,$6,$7,0*
20,1,$1+$1,$6,$7,$8,$9,0*
20,1,$1+$1,$8,$9,$2,$3,0*%
G04 Aperture macros list end*
%ADD10C,0.100000*%
%ADD11C,0.000000*%
%ADD12C,3.000000*%
%ADD13C,2.082800*%
%ADD14RoundRect,0.165000X0.195000X-0.165000X0.195000X0.165000X-0.195000X0.165000X-0.195000X-0.165000X0*%
%ADD15C,1.000000*%
%ADD16RoundRect,0.101600X-0.635000X0.330200X-0.635000X-0.330200X0.635000X-0.330200X0.635000X0.330200X0*%
%ADD17RoundRect,0.101600X0.635000X-0.330200X0.635000X0.330200X-0.635000X0.330200X-0.635000X-0.330200X0*%
%ADD18RoundRect,0.250000X0.275000X-0.250000X0.275000X0.250000X-0.275000X0.250000X-0.275000X-0.250000X0*%
%ADD19RoundRect,0.101600X0.330200X0.635000X-0.330200X0.635000X-0.330200X-0.635000X0.330200X-0.635000X0*%
%ADD20RoundRect,0.101600X-0.330200X-0.635000X0.330200X-0.635000X0.330200X0.635000X-0.330200X0.635000X0*%
%ADD21RoundRect,0.101600X-0.775000X0.300000X-0.775000X-0.300000X0.775000X-0.300000X0.775000X0.300000X0*%
%ADD22RoundRect,0.101600X-1.000000X0.600000X-1.000000X-0.600000X1.000000X-0.600000X1.000000X0.600000X0*%
%ADD23C,3.402000*%
%ADD24C,1.803200*%
G04 APERTURE END LIST*
D10*
X41683358Y11778272D02*
X48033358Y11778272D01*
X48033358Y6952272D01*
X41683358Y6952272D01*
X41683358Y11778272D01*
G36*
X41683358Y11778272D02*
G01*
X48033358Y11778272D01*
X48033358Y6952272D01*
X41683358Y6952272D01*
X41683358Y11778272D01*
G37*
X41683358Y-1421728D02*
X48033358Y-1421728D01*
X48033358Y-6247728D01*
X41683358Y-6247728D01*
X41683358Y-1421728D01*
G36*
X41683358Y-1421728D02*
G01*
X48033358Y-1421728D01*
X48033358Y-6247728D01*
X41683358Y-6247728D01*
X41683358Y-1421728D01*
G37*
X15783358Y11778272D02*
X22133358Y11778272D01*
X22133358Y6952272D01*
X15783358Y6952272D01*
X15783358Y11778272D01*
G36*
X15783358Y11778272D02*
G01*
X22133358Y11778272D01*
X22133358Y6952272D01*
X15783358Y6952272D01*
X15783358Y11778272D01*
G37*
X15783358Y-1421728D02*
X22133358Y-1421728D01*
X22133358Y-6247728D01*
X15783358Y-6247728D01*
X15783358Y-1421728D01*
G36*
X15783358Y-1421728D02*
G01*
X22133358Y-1421728D01*
X22133358Y-6247728D01*
X15783358Y-6247728D01*
X15783358Y-1421728D01*
G37*
D11*
%TO.C,JP4*%
G36*
X38959743Y7117869D02*
G01*
X38478743Y7117869D01*
X38478743Y7625869D01*
X38959743Y7625869D01*
X38959743Y7117869D01*
G37*
G36*
X38982743Y8150569D02*
G01*
X38501743Y8150569D01*
X38501743Y8658569D01*
X38982743Y8658569D01*
X38982743Y8150569D01*
G37*
G36*
X38959743Y-6082131D02*
G01*
X38478743Y-6082131D01*
X38478743Y-5574131D01*
X38959743Y-5574131D01*
X38959743Y-6082131D01*
G37*
G36*
X38982743Y-5049431D02*
G01*
X38501743Y-5049431D01*
X38501743Y-4541431D01*
X38982743Y-4541431D01*
X38982743Y-5049431D01*
G37*
G36*
X13059743Y7117869D02*
G01*
X12578743Y7117869D01*
X12578743Y7625869D01*
X13059743Y7625869D01*
X13059743Y7117869D01*
G37*
G36*
X13082743Y8150569D02*
G01*
X12601743Y8150569D01*
X12601743Y8658569D01*
X13082743Y8658569D01*
X13082743Y8150569D01*
G37*
%TO.C,JP1*%
G36*
X38514700Y10779500D02*
G01*
X38006700Y10779500D01*
X38006700Y11260500D01*
X38514700Y11260500D01*
X38514700Y10779500D01*
G37*
G36*
X38514700Y-2420500D02*
G01*
X38006700Y-2420500D01*
X38006700Y-1939500D01*
X38514700Y-1939500D01*
X38514700Y-2420500D01*
G37*
G36*
X12614700Y10779500D02*
G01*
X12106700Y10779500D01*
X12106700Y11260500D01*
X12614700Y11260500D01*
X12614700Y10779500D01*
G37*
%TO.C,JP2*%
G36*
X34203300Y6819500D02*
G01*
X33695300Y6819500D01*
X33695300Y7300500D01*
X34203300Y7300500D01*
X34203300Y6819500D01*
G37*
G36*
X34203300Y-6380500D02*
G01*
X33695300Y-6380500D01*
X33695300Y-5899500D01*
X34203300Y-5899500D01*
X34203300Y-6380500D01*
G37*
G36*
X8303300Y6819500D02*
G01*
X7795300Y6819500D01*
X7795300Y7300500D01*
X8303300Y7300500D01*
X8303300Y6819500D01*
G37*
%TO.C,JP3*%
G36*
X50170500Y8965300D02*
G01*
X49689500Y8965300D01*
X49689500Y9473300D01*
X50170500Y9473300D01*
X50170500Y8965300D01*
G37*
G36*
X50170500Y-4234700D02*
G01*
X49689500Y-4234700D01*
X49689500Y-3726700D01*
X50170500Y-3726700D01*
X50170500Y-4234700D01*
G37*
G36*
X24270500Y8965300D02*
G01*
X23789500Y8965300D01*
X23789500Y9473300D01*
X24270500Y9473300D01*
X24270500Y8965300D01*
G37*
G36*
X24270500Y-4234700D02*
G01*
X23789500Y-4234700D01*
X23789500Y-3726700D01*
X24270500Y-3726700D01*
X24270500Y-4234700D01*
G37*
%TO.C,JP2*%
G36*
X8303300Y-6380500D02*
G01*
X7795300Y-6380500D01*
X7795300Y-5899500D01*
X8303300Y-5899500D01*
X8303300Y-6380500D01*
G37*
%TO.C,JP1*%
G36*
X12614700Y-2420500D02*
G01*
X12106700Y-2420500D01*
X12106700Y-1939500D01*
X12614700Y-1939500D01*
X12614700Y-2420500D01*
G37*
%TO.C,JP4*%
G36*
X13059743Y-6082131D02*
G01*
X12578743Y-6082131D01*
X12578743Y-5574131D01*
X13059743Y-5574131D01*
X13059743Y-6082131D01*
G37*
G36*
X13082743Y-5049431D02*
G01*
X12601743Y-5049431D01*
X12601743Y-4541431D01*
X13082743Y-4541431D01*
X13082743Y-5049431D01*
G37*
%TD*%
D12*
%TO.C,*%
X49325000Y16900000D03*
%TD*%
%TO.C,*%
X1975000Y16900000D03*
%TD*%
%TO.C,*%
X1975000Y-16400000D03*
%TD*%
D13*
%TO.C,J3*%
X32250000Y1770000D03*
X34790000Y1770000D03*
X37330000Y1770000D03*
X39870000Y1770000D03*
X42410000Y1770000D03*
X44950000Y1770000D03*
%TD*%
%TO.C,J3*%
X32250000Y-11430000D03*
X34790000Y-11430000D03*
X37330000Y-11430000D03*
X39870000Y-11430000D03*
X42410000Y-11430000D03*
X44950000Y-11430000D03*
%TD*%
%TO.C,J3*%
X6350000Y1770000D03*
X8890000Y1770000D03*
X11430000Y1770000D03*
X13970000Y1770000D03*
X16510000Y1770000D03*
X19050000Y1770000D03*
%TD*%
D14*
%TO.C,C4*%
X32060000Y11050000D03*
X32060000Y12010000D03*
%TD*%
%TO.C,C4*%
X32060000Y-2150000D03*
X32060000Y-1190000D03*
%TD*%
%TO.C,C4*%
X6160000Y11050000D03*
X6160000Y12010000D03*
%TD*%
D15*
%TO.C,FID1*%
X26690000Y1320000D03*
%TD*%
%TO.C,FID1*%
X26690000Y-11880000D03*
%TD*%
%TO.C,FID1*%
X790000Y1320000D03*
%TD*%
%TO.C,FID3*%
X50500000Y12390000D03*
%TD*%
%TO.C,FID3*%
X50500000Y-810000D03*
%TD*%
%TO.C,FID3*%
X24600000Y12390000D03*
%TD*%
D16*
%TO.C,JP4*%
X38742243Y8925269D03*
X38742243Y7883869D03*
D17*
X38742243Y6842469D03*
%TD*%
D16*
%TO.C,JP4*%
X38742243Y-4274731D03*
X38742243Y-5316131D03*
D17*
X38742243Y-6357531D03*
%TD*%
D16*
%TO.C,JP4*%
X12842243Y8925269D03*
X12842243Y7883869D03*
D17*
X12842243Y6842469D03*
%TD*%
D18*
%TO.C,C5*%
X34280000Y10465000D03*
X34280000Y12015000D03*
%TD*%
%TO.C,C5*%
X34280000Y-2735000D03*
X34280000Y-1185000D03*
%TD*%
%TO.C,C5*%
X8380000Y10465000D03*
X8380000Y12015000D03*
%TD*%
D19*
%TO.C,JP1*%
X38781400Y11020000D03*
X37740000Y11020000D03*
D20*
X36698600Y11020000D03*
%TD*%
D19*
%TO.C,JP1*%
X38781400Y-2180000D03*
X37740000Y-2180000D03*
D20*
X36698600Y-2180000D03*
%TD*%
D19*
%TO.C,JP1*%
X12881400Y11020000D03*
X11840000Y11020000D03*
D20*
X10798600Y11020000D03*
%TD*%
%TO.C,JP2*%
X33428600Y7060000D03*
X34470000Y7060000D03*
D19*
X35511400Y7060000D03*
%TD*%
D20*
%TO.C,JP2*%
X33428600Y-6140000D03*
X34470000Y-6140000D03*
D19*
X35511400Y-6140000D03*
%TD*%
D20*
%TO.C,JP2*%
X7528600Y7060000D03*
X8570000Y7060000D03*
D19*
X9611400Y7060000D03*
%TD*%
D21*
%TO.C,J2*%
X29634500Y10890000D03*
X29634500Y9890000D03*
X29634500Y8890000D03*
X29634500Y7890000D03*
D22*
X27209500Y12190000D03*
X27209500Y6590000D03*
%TD*%
D21*
%TO.C,J2*%
X29634500Y-2310000D03*
X29634500Y-3310000D03*
X29634500Y-4310000D03*
X29634500Y-5310000D03*
D22*
X27209500Y-1010000D03*
X27209500Y-6610000D03*
%TD*%
D21*
%TO.C,J2*%
X3734500Y10890000D03*
X3734500Y9890000D03*
X3734500Y8890000D03*
X3734500Y7890000D03*
D22*
X1309500Y12190000D03*
X1309500Y6590000D03*
%TD*%
D17*
%TO.C,JP3*%
X49930000Y8698600D03*
X49930000Y9740000D03*
D16*
X49930000Y10781400D03*
%TD*%
D17*
%TO.C,JP3*%
X49930000Y-4501400D03*
X49930000Y-3460000D03*
D16*
X49930000Y-2418600D03*
%TD*%
D17*
%TO.C,JP3*%
X24030000Y8698600D03*
X24030000Y9740000D03*
D16*
X24030000Y10781400D03*
%TD*%
D14*
%TO.C,C3*%
X33040000Y11050000D03*
X33040000Y12010000D03*
%TD*%
%TO.C,C3*%
X33040000Y-2150000D03*
X33040000Y-1190000D03*
%TD*%
%TO.C,C3*%
X7140000Y11050000D03*
X7140000Y12010000D03*
%TD*%
D23*
%TO.C,ST2*%
X48760000Y3040000D03*
%TD*%
%TO.C,ST2*%
X48760000Y-10160000D03*
%TD*%
%TO.C,ST2*%
X22860000Y3040000D03*
%TD*%
D24*
%TO.C,J4*%
X50030000Y6850000D03*
%TD*%
%TO.C,J4*%
X50030000Y-6350000D03*
%TD*%
%TO.C,J4*%
X24130000Y6850000D03*
%TD*%
D23*
%TO.C,ST1*%
X28440000Y3040000D03*
%TD*%
%TO.C,ST1*%
X28440000Y-10160000D03*
%TD*%
%TO.C,ST1*%
X2540000Y3040000D03*
%TD*%
%TO.C,ST1*%
X2540000Y-10160000D03*
%TD*%
D24*
%TO.C,J4*%
X24130000Y-6350000D03*
%TD*%
D23*
%TO.C,ST2*%
X22860000Y-10160000D03*
%TD*%
D14*
%TO.C,C3*%
X7140000Y-2150000D03*
X7140000Y-1190000D03*
%TD*%
D17*
%TO.C,JP3*%
X24030000Y-4501400D03*
X24030000Y-3460000D03*
D16*
X24030000Y-2418600D03*
%TD*%
D21*
%TO.C,J2*%
X3734500Y-2310000D03*
X3734500Y-3310000D03*
X3734500Y-4310000D03*
X3734500Y-5310000D03*
D22*
X1309500Y-1010000D03*
X1309500Y-6610000D03*
%TD*%
D20*
%TO.C,JP2*%
X7528600Y-6140000D03*
X8570000Y-6140000D03*
D19*
X9611400Y-6140000D03*
%TD*%
%TO.C,JP1*%
X12881400Y-2180000D03*
X11840000Y-2180000D03*
D20*
X10798600Y-2180000D03*
%TD*%
D18*
%TO.C,C5*%
X8380000Y-2735000D03*
X8380000Y-1185000D03*
%TD*%
D16*
%TO.C,JP4*%
X12842243Y-4274731D03*
X12842243Y-5316131D03*
D17*
X12842243Y-6357531D03*
%TD*%
D15*
%TO.C,FID3*%
X24600000Y-810000D03*
%TD*%
%TO.C,FID1*%
X790000Y-11880000D03*
%TD*%
D14*
%TO.C,C4*%
X6160000Y-2150000D03*
X6160000Y-1190000D03*
%TD*%
D13*
%TO.C,J3*%
X6350000Y-11430000D03*
X8890000Y-11430000D03*
X11430000Y-11430000D03*
X13970000Y-11430000D03*
X16510000Y-11430000D03*
X19050000Y-11430000D03*
%TD*%
M02*
