%TF.GenerationSoftware,KiCad,Pcbnew,8.0.4*%
%TF.CreationDate,2024-08-22T15:16:28-06:00*%
%TF.ProjectId,SparkFun_BMV080_panelized,53706172-6b46-4756-9e5f-424d56303830,v01*%
%TF.SameCoordinates,Original*%
%TF.FileFunction,Soldermask,Bot*%
%TF.FilePolarity,Negative*%
%FSLAX46Y46*%
G04 Gerber Fmt 4.6, Leading zero omitted, Abs format (unit mm)*
G04 Created by KiCad (PCBNEW 8.0.4) date 2024-08-22 15:16:28*
%MOMM*%
%LPD*%
G01*
G04 APERTURE LIST*
%TA.AperFunction,Profile*%
%ADD10C,0.100000*%
%TD*%
%TA.AperFunction,Profile*%
%ADD11C,0.050000*%
%TD*%
%ADD12C,0.250000*%
%ADD13C,0.500000*%
G04 APERTURE END LIST*
D10*
X-500000Y-13200000D02*
X-500000Y13700000D01*
X51800000Y-13200000D02*
X-500000Y-13200000D01*
X51800000Y13700000D02*
X51800000Y-13200000D01*
X-500000Y13700000D02*
X51800000Y13700000D01*
X-6850000Y-19550000D02*
X-6850000Y20050000D01*
X58150000Y-19550000D02*
X-6850000Y-19550000D01*
X58150000Y20050000D02*
X58150000Y-19550000D01*
X-6850000Y20050000D02*
X58150000Y20050000D01*
D11*
X25900000Y500000D02*
X25900000Y13200000D01*
X25900000Y-12700000D02*
X25900000Y0D01*
X0Y500000D02*
X0Y13200000D01*
X51300000Y13200000D02*
X51300000Y500000D01*
X51300000Y0D02*
X51300000Y-12700000D01*
X25400000Y13200000D02*
X25400000Y500000D01*
X51300000Y500000D02*
X25900000Y500000D01*
X51300000Y-12700000D02*
X25900000Y-12700000D01*
X25400000Y500000D02*
X0Y500000D01*
X25900000Y13200000D02*
X51300000Y13200000D01*
X25900000Y0D02*
X51300000Y0D01*
X0Y13200000D02*
X25400000Y13200000D01*
X0Y0D02*
X25400000Y0D01*
X25400000Y-12700000D02*
X0Y-12700000D01*
X25400000Y0D02*
X25400000Y-12700000D01*
X0Y-12700000D02*
X0Y0D01*
D12*
X-23098997Y-11862238D02*
X-22432331Y-13862238D01*
X-22432331Y-13862238D02*
X-21765664Y-11862238D01*
X-21098997Y-13100333D02*
X-19575187Y-13100333D01*
X-18718045Y-13767000D02*
X-18432331Y-13862238D01*
X-18432331Y-13862238D02*
X-17956140Y-13862238D01*
X-17956140Y-13862238D02*
X-17765664Y-13767000D01*
X-17765664Y-13767000D02*
X-17670426Y-13671761D01*
X-17670426Y-13671761D02*
X-17575188Y-13481285D01*
X-17575188Y-13481285D02*
X-17575188Y-13290809D01*
X-17575188Y-13290809D02*
X-17670426Y-13100333D01*
X-17670426Y-13100333D02*
X-17765664Y-13005095D01*
X-17765664Y-13005095D02*
X-17956140Y-12909857D01*
X-17956140Y-12909857D02*
X-18337093Y-12814619D01*
X-18337093Y-12814619D02*
X-18527569Y-12719380D01*
X-18527569Y-12719380D02*
X-18622807Y-12624142D01*
X-18622807Y-12624142D02*
X-18718045Y-12433666D01*
X-18718045Y-12433666D02*
X-18718045Y-12243190D01*
X-18718045Y-12243190D02*
X-18622807Y-12052714D01*
X-18622807Y-12052714D02*
X-18527569Y-11957476D01*
X-18527569Y-11957476D02*
X-18337093Y-11862238D01*
X-18337093Y-11862238D02*
X-17860902Y-11862238D01*
X-17860902Y-11862238D02*
X-17575188Y-11957476D01*
X-15575188Y-13671761D02*
X-15670426Y-13767000D01*
X-15670426Y-13767000D02*
X-15956140Y-13862238D01*
X-15956140Y-13862238D02*
X-16146616Y-13862238D01*
X-16146616Y-13862238D02*
X-16432331Y-13767000D01*
X-16432331Y-13767000D02*
X-16622807Y-13576523D01*
X-16622807Y-13576523D02*
X-16718045Y-13386047D01*
X-16718045Y-13386047D02*
X-16813283Y-13005095D01*
X-16813283Y-13005095D02*
X-16813283Y-12719380D01*
X-16813283Y-12719380D02*
X-16718045Y-12338428D01*
X-16718045Y-12338428D02*
X-16622807Y-12147952D01*
X-16622807Y-12147952D02*
X-16432331Y-11957476D01*
X-16432331Y-11957476D02*
X-16146616Y-11862238D01*
X-16146616Y-11862238D02*
X-15956140Y-11862238D01*
X-15956140Y-11862238D02*
X-15670426Y-11957476D01*
X-15670426Y-11957476D02*
X-15575188Y-12052714D01*
X-14337093Y-11862238D02*
X-13956140Y-11862238D01*
X-13956140Y-11862238D02*
X-13765664Y-11957476D01*
X-13765664Y-11957476D02*
X-13575188Y-12147952D01*
X-13575188Y-12147952D02*
X-13479950Y-12528904D01*
X-13479950Y-12528904D02*
X-13479950Y-13195571D01*
X-13479950Y-13195571D02*
X-13575188Y-13576523D01*
X-13575188Y-13576523D02*
X-13765664Y-13767000D01*
X-13765664Y-13767000D02*
X-13956140Y-13862238D01*
X-13956140Y-13862238D02*
X-14337093Y-13862238D01*
X-14337093Y-13862238D02*
X-14527569Y-13767000D01*
X-14527569Y-13767000D02*
X-14718045Y-13576523D01*
X-14718045Y-13576523D02*
X-14813283Y-13195571D01*
X-14813283Y-13195571D02*
X-14813283Y-12528904D01*
X-14813283Y-12528904D02*
X-14718045Y-12147952D01*
X-14718045Y-12147952D02*
X-14527569Y-11957476D01*
X-14527569Y-11957476D02*
X-14337093Y-11862238D01*
X-11479950Y-13862238D02*
X-12146617Y-12909857D01*
X-12622807Y-13862238D02*
X-12622807Y-11862238D01*
X-12622807Y-11862238D02*
X-11860902Y-11862238D01*
X-11860902Y-11862238D02*
X-11670426Y-11957476D01*
X-11670426Y-11957476D02*
X-11575188Y-12052714D01*
X-11575188Y-12052714D02*
X-11479950Y-12243190D01*
X-11479950Y-12243190D02*
X-11479950Y-12528904D01*
X-11479950Y-12528904D02*
X-11575188Y-12719380D01*
X-11575188Y-12719380D02*
X-11670426Y-12814619D01*
X-11670426Y-12814619D02*
X-11860902Y-12909857D01*
X-11860902Y-12909857D02*
X-12622807Y-12909857D01*
X-10622807Y-12814619D02*
X-9956140Y-12814619D01*
X-9670426Y-13862238D02*
X-10622807Y-13862238D01*
X-10622807Y-13862238D02*
X-10622807Y-11862238D01*
X-10622807Y-11862238D02*
X-9670426Y-11862238D01*
D13*
X-7125000Y-12950000D02*
X58425000Y-12950000D01*
D12*
X-23098997Y1337762D02*
X-22432331Y-662238D01*
X-22432331Y-662238D02*
X-21765664Y1337762D01*
X-21098997Y99667D02*
X-19575187Y99667D01*
X-18718045Y-567000D02*
X-18432331Y-662238D01*
X-18432331Y-662238D02*
X-17956140Y-662238D01*
X-17956140Y-662238D02*
X-17765664Y-567000D01*
X-17765664Y-567000D02*
X-17670426Y-471761D01*
X-17670426Y-471761D02*
X-17575188Y-281285D01*
X-17575188Y-281285D02*
X-17575188Y-90809D01*
X-17575188Y-90809D02*
X-17670426Y99667D01*
X-17670426Y99667D02*
X-17765664Y194905D01*
X-17765664Y194905D02*
X-17956140Y290143D01*
X-17956140Y290143D02*
X-18337093Y385381D01*
X-18337093Y385381D02*
X-18527569Y480620D01*
X-18527569Y480620D02*
X-18622807Y575858D01*
X-18622807Y575858D02*
X-18718045Y766334D01*
X-18718045Y766334D02*
X-18718045Y956810D01*
X-18718045Y956810D02*
X-18622807Y1147286D01*
X-18622807Y1147286D02*
X-18527569Y1242524D01*
X-18527569Y1242524D02*
X-18337093Y1337762D01*
X-18337093Y1337762D02*
X-17860902Y1337762D01*
X-17860902Y1337762D02*
X-17575188Y1242524D01*
X-15575188Y-471761D02*
X-15670426Y-567000D01*
X-15670426Y-567000D02*
X-15956140Y-662238D01*
X-15956140Y-662238D02*
X-16146616Y-662238D01*
X-16146616Y-662238D02*
X-16432331Y-567000D01*
X-16432331Y-567000D02*
X-16622807Y-376523D01*
X-16622807Y-376523D02*
X-16718045Y-186047D01*
X-16718045Y-186047D02*
X-16813283Y194905D01*
X-16813283Y194905D02*
X-16813283Y480620D01*
X-16813283Y480620D02*
X-16718045Y861572D01*
X-16718045Y861572D02*
X-16622807Y1052048D01*
X-16622807Y1052048D02*
X-16432331Y1242524D01*
X-16432331Y1242524D02*
X-16146616Y1337762D01*
X-16146616Y1337762D02*
X-15956140Y1337762D01*
X-15956140Y1337762D02*
X-15670426Y1242524D01*
X-15670426Y1242524D02*
X-15575188Y1147286D01*
X-14337093Y1337762D02*
X-13956140Y1337762D01*
X-13956140Y1337762D02*
X-13765664Y1242524D01*
X-13765664Y1242524D02*
X-13575188Y1052048D01*
X-13575188Y1052048D02*
X-13479950Y671096D01*
X-13479950Y671096D02*
X-13479950Y4429D01*
X-13479950Y4429D02*
X-13575188Y-376523D01*
X-13575188Y-376523D02*
X-13765664Y-567000D01*
X-13765664Y-567000D02*
X-13956140Y-662238D01*
X-13956140Y-662238D02*
X-14337093Y-662238D01*
X-14337093Y-662238D02*
X-14527569Y-567000D01*
X-14527569Y-567000D02*
X-14718045Y-376523D01*
X-14718045Y-376523D02*
X-14813283Y4429D01*
X-14813283Y4429D02*
X-14813283Y671096D01*
X-14813283Y671096D02*
X-14718045Y1052048D01*
X-14718045Y1052048D02*
X-14527569Y1242524D01*
X-14527569Y1242524D02*
X-14337093Y1337762D01*
X-11479950Y-662238D02*
X-12146617Y290143D01*
X-12622807Y-662238D02*
X-12622807Y1337762D01*
X-12622807Y1337762D02*
X-11860902Y1337762D01*
X-11860902Y1337762D02*
X-11670426Y1242524D01*
X-11670426Y1242524D02*
X-11575188Y1147286D01*
X-11575188Y1147286D02*
X-11479950Y956810D01*
X-11479950Y956810D02*
X-11479950Y671096D01*
X-11479950Y671096D02*
X-11575188Y480620D01*
X-11575188Y480620D02*
X-11670426Y385381D01*
X-11670426Y385381D02*
X-11860902Y290143D01*
X-11860902Y290143D02*
X-12622807Y290143D01*
X-10622807Y385381D02*
X-9956140Y385381D01*
X-9670426Y-662238D02*
X-10622807Y-662238D01*
X-10622807Y-662238D02*
X-10622807Y1337762D01*
X-10622807Y1337762D02*
X-9670426Y1337762D01*
D13*
X-7125000Y250000D02*
X58425000Y250000D01*
D12*
X-23098997Y14537762D02*
X-22432331Y12537762D01*
X-22432331Y12537762D02*
X-21765664Y14537762D01*
X-21098997Y13299667D02*
X-19575187Y13299667D01*
X-18718045Y12633000D02*
X-18432331Y12537762D01*
X-18432331Y12537762D02*
X-17956140Y12537762D01*
X-17956140Y12537762D02*
X-17765664Y12633000D01*
X-17765664Y12633000D02*
X-17670426Y12728239D01*
X-17670426Y12728239D02*
X-17575188Y12918715D01*
X-17575188Y12918715D02*
X-17575188Y13109191D01*
X-17575188Y13109191D02*
X-17670426Y13299667D01*
X-17670426Y13299667D02*
X-17765664Y13394905D01*
X-17765664Y13394905D02*
X-17956140Y13490143D01*
X-17956140Y13490143D02*
X-18337093Y13585381D01*
X-18337093Y13585381D02*
X-18527569Y13680620D01*
X-18527569Y13680620D02*
X-18622807Y13775858D01*
X-18622807Y13775858D02*
X-18718045Y13966334D01*
X-18718045Y13966334D02*
X-18718045Y14156810D01*
X-18718045Y14156810D02*
X-18622807Y14347286D01*
X-18622807Y14347286D02*
X-18527569Y14442524D01*
X-18527569Y14442524D02*
X-18337093Y14537762D01*
X-18337093Y14537762D02*
X-17860902Y14537762D01*
X-17860902Y14537762D02*
X-17575188Y14442524D01*
X-15575188Y12728239D02*
X-15670426Y12633000D01*
X-15670426Y12633000D02*
X-15956140Y12537762D01*
X-15956140Y12537762D02*
X-16146616Y12537762D01*
X-16146616Y12537762D02*
X-16432331Y12633000D01*
X-16432331Y12633000D02*
X-16622807Y12823477D01*
X-16622807Y12823477D02*
X-16718045Y13013953D01*
X-16718045Y13013953D02*
X-16813283Y13394905D01*
X-16813283Y13394905D02*
X-16813283Y13680620D01*
X-16813283Y13680620D02*
X-16718045Y14061572D01*
X-16718045Y14061572D02*
X-16622807Y14252048D01*
X-16622807Y14252048D02*
X-16432331Y14442524D01*
X-16432331Y14442524D02*
X-16146616Y14537762D01*
X-16146616Y14537762D02*
X-15956140Y14537762D01*
X-15956140Y14537762D02*
X-15670426Y14442524D01*
X-15670426Y14442524D02*
X-15575188Y14347286D01*
X-14337093Y14537762D02*
X-13956140Y14537762D01*
X-13956140Y14537762D02*
X-13765664Y14442524D01*
X-13765664Y14442524D02*
X-13575188Y14252048D01*
X-13575188Y14252048D02*
X-13479950Y13871096D01*
X-13479950Y13871096D02*
X-13479950Y13204429D01*
X-13479950Y13204429D02*
X-13575188Y12823477D01*
X-13575188Y12823477D02*
X-13765664Y12633000D01*
X-13765664Y12633000D02*
X-13956140Y12537762D01*
X-13956140Y12537762D02*
X-14337093Y12537762D01*
X-14337093Y12537762D02*
X-14527569Y12633000D01*
X-14527569Y12633000D02*
X-14718045Y12823477D01*
X-14718045Y12823477D02*
X-14813283Y13204429D01*
X-14813283Y13204429D02*
X-14813283Y13871096D01*
X-14813283Y13871096D02*
X-14718045Y14252048D01*
X-14718045Y14252048D02*
X-14527569Y14442524D01*
X-14527569Y14442524D02*
X-14337093Y14537762D01*
X-11479950Y12537762D02*
X-12146617Y13490143D01*
X-12622807Y12537762D02*
X-12622807Y14537762D01*
X-12622807Y14537762D02*
X-11860902Y14537762D01*
X-11860902Y14537762D02*
X-11670426Y14442524D01*
X-11670426Y14442524D02*
X-11575188Y14347286D01*
X-11575188Y14347286D02*
X-11479950Y14156810D01*
X-11479950Y14156810D02*
X-11479950Y13871096D01*
X-11479950Y13871096D02*
X-11575188Y13680620D01*
X-11575188Y13680620D02*
X-11670426Y13585381D01*
X-11670426Y13585381D02*
X-11860902Y13490143D01*
X-11860902Y13490143D02*
X-12622807Y13490143D01*
X-10622807Y13585381D02*
X-9956140Y13585381D01*
X-9670426Y12537762D02*
X-10622807Y12537762D01*
X-10622807Y12537762D02*
X-10622807Y14537762D01*
X-10622807Y14537762D02*
X-9670426Y14537762D01*
D13*
X-7125000Y13450000D02*
X58425000Y13450000D01*
D12*
X50462238Y22679950D02*
X52462238Y23346616D01*
X52462238Y23346616D02*
X50462238Y24013283D01*
X51700333Y24679950D02*
X51700333Y26203759D01*
X52367000Y27060902D02*
X52462238Y27346616D01*
X52462238Y27346616D02*
X52462238Y27822807D01*
X52462238Y27822807D02*
X52367000Y28013283D01*
X52367000Y28013283D02*
X52271761Y28108521D01*
X52271761Y28108521D02*
X52081285Y28203759D01*
X52081285Y28203759D02*
X51890809Y28203759D01*
X51890809Y28203759D02*
X51700333Y28108521D01*
X51700333Y28108521D02*
X51605095Y28013283D01*
X51605095Y28013283D02*
X51509857Y27822807D01*
X51509857Y27822807D02*
X51414619Y27441854D01*
X51414619Y27441854D02*
X51319380Y27251378D01*
X51319380Y27251378D02*
X51224142Y27156140D01*
X51224142Y27156140D02*
X51033666Y27060902D01*
X51033666Y27060902D02*
X50843190Y27060902D01*
X50843190Y27060902D02*
X50652714Y27156140D01*
X50652714Y27156140D02*
X50557476Y27251378D01*
X50557476Y27251378D02*
X50462238Y27441854D01*
X50462238Y27441854D02*
X50462238Y27918045D01*
X50462238Y27918045D02*
X50557476Y28203759D01*
X52271761Y30203759D02*
X52367000Y30108521D01*
X52367000Y30108521D02*
X52462238Y29822807D01*
X52462238Y29822807D02*
X52462238Y29632331D01*
X52462238Y29632331D02*
X52367000Y29346616D01*
X52367000Y29346616D02*
X52176523Y29156140D01*
X52176523Y29156140D02*
X51986047Y29060902D01*
X51986047Y29060902D02*
X51605095Y28965664D01*
X51605095Y28965664D02*
X51319380Y28965664D01*
X51319380Y28965664D02*
X50938428Y29060902D01*
X50938428Y29060902D02*
X50747952Y29156140D01*
X50747952Y29156140D02*
X50557476Y29346616D01*
X50557476Y29346616D02*
X50462238Y29632331D01*
X50462238Y29632331D02*
X50462238Y29822807D01*
X50462238Y29822807D02*
X50557476Y30108521D01*
X50557476Y30108521D02*
X50652714Y30203759D01*
X50462238Y31441854D02*
X50462238Y31822807D01*
X50462238Y31822807D02*
X50557476Y32013283D01*
X50557476Y32013283D02*
X50747952Y32203759D01*
X50747952Y32203759D02*
X51128904Y32298997D01*
X51128904Y32298997D02*
X51795571Y32298997D01*
X51795571Y32298997D02*
X52176523Y32203759D01*
X52176523Y32203759D02*
X52367000Y32013283D01*
X52367000Y32013283D02*
X52462238Y31822807D01*
X52462238Y31822807D02*
X52462238Y31441854D01*
X52462238Y31441854D02*
X52367000Y31251378D01*
X52367000Y31251378D02*
X52176523Y31060902D01*
X52176523Y31060902D02*
X51795571Y30965664D01*
X51795571Y30965664D02*
X51128904Y30965664D01*
X51128904Y30965664D02*
X50747952Y31060902D01*
X50747952Y31060902D02*
X50557476Y31251378D01*
X50557476Y31251378D02*
X50462238Y31441854D01*
X52462238Y34298997D02*
X51509857Y33632330D01*
X52462238Y33156140D02*
X50462238Y33156140D01*
X50462238Y33156140D02*
X50462238Y33918045D01*
X50462238Y33918045D02*
X50557476Y34108521D01*
X50557476Y34108521D02*
X50652714Y34203759D01*
X50652714Y34203759D02*
X50843190Y34298997D01*
X50843190Y34298997D02*
X51128904Y34298997D01*
X51128904Y34298997D02*
X51319380Y34203759D01*
X51319380Y34203759D02*
X51414619Y34108521D01*
X51414619Y34108521D02*
X51509857Y33918045D01*
X51509857Y33918045D02*
X51509857Y33156140D01*
X51414619Y35156140D02*
X51414619Y35822807D01*
X52462238Y36108521D02*
X52462238Y35156140D01*
X52462238Y35156140D02*
X50462238Y35156140D01*
X50462238Y35156140D02*
X50462238Y36108521D01*
D13*
X51550000Y20325000D02*
X51550000Y-19825000D01*
D12*
X24562238Y22679950D02*
X26562238Y23346616D01*
X26562238Y23346616D02*
X24562238Y24013283D01*
X25800333Y24679950D02*
X25800333Y26203759D01*
X26467000Y27060902D02*
X26562238Y27346616D01*
X26562238Y27346616D02*
X26562238Y27822807D01*
X26562238Y27822807D02*
X26467000Y28013283D01*
X26467000Y28013283D02*
X26371761Y28108521D01*
X26371761Y28108521D02*
X26181285Y28203759D01*
X26181285Y28203759D02*
X25990809Y28203759D01*
X25990809Y28203759D02*
X25800333Y28108521D01*
X25800333Y28108521D02*
X25705095Y28013283D01*
X25705095Y28013283D02*
X25609857Y27822807D01*
X25609857Y27822807D02*
X25514619Y27441854D01*
X25514619Y27441854D02*
X25419380Y27251378D01*
X25419380Y27251378D02*
X25324142Y27156140D01*
X25324142Y27156140D02*
X25133666Y27060902D01*
X25133666Y27060902D02*
X24943190Y27060902D01*
X24943190Y27060902D02*
X24752714Y27156140D01*
X24752714Y27156140D02*
X24657476Y27251378D01*
X24657476Y27251378D02*
X24562238Y27441854D01*
X24562238Y27441854D02*
X24562238Y27918045D01*
X24562238Y27918045D02*
X24657476Y28203759D01*
X26371761Y30203759D02*
X26467000Y30108521D01*
X26467000Y30108521D02*
X26562238Y29822807D01*
X26562238Y29822807D02*
X26562238Y29632331D01*
X26562238Y29632331D02*
X26467000Y29346616D01*
X26467000Y29346616D02*
X26276523Y29156140D01*
X26276523Y29156140D02*
X26086047Y29060902D01*
X26086047Y29060902D02*
X25705095Y28965664D01*
X25705095Y28965664D02*
X25419380Y28965664D01*
X25419380Y28965664D02*
X25038428Y29060902D01*
X25038428Y29060902D02*
X24847952Y29156140D01*
X24847952Y29156140D02*
X24657476Y29346616D01*
X24657476Y29346616D02*
X24562238Y29632331D01*
X24562238Y29632331D02*
X24562238Y29822807D01*
X24562238Y29822807D02*
X24657476Y30108521D01*
X24657476Y30108521D02*
X24752714Y30203759D01*
X24562238Y31441854D02*
X24562238Y31822807D01*
X24562238Y31822807D02*
X24657476Y32013283D01*
X24657476Y32013283D02*
X24847952Y32203759D01*
X24847952Y32203759D02*
X25228904Y32298997D01*
X25228904Y32298997D02*
X25895571Y32298997D01*
X25895571Y32298997D02*
X26276523Y32203759D01*
X26276523Y32203759D02*
X26467000Y32013283D01*
X26467000Y32013283D02*
X26562238Y31822807D01*
X26562238Y31822807D02*
X26562238Y31441854D01*
X26562238Y31441854D02*
X26467000Y31251378D01*
X26467000Y31251378D02*
X26276523Y31060902D01*
X26276523Y31060902D02*
X25895571Y30965664D01*
X25895571Y30965664D02*
X25228904Y30965664D01*
X25228904Y30965664D02*
X24847952Y31060902D01*
X24847952Y31060902D02*
X24657476Y31251378D01*
X24657476Y31251378D02*
X24562238Y31441854D01*
X26562238Y34298997D02*
X25609857Y33632330D01*
X26562238Y33156140D02*
X24562238Y33156140D01*
X24562238Y33156140D02*
X24562238Y33918045D01*
X24562238Y33918045D02*
X24657476Y34108521D01*
X24657476Y34108521D02*
X24752714Y34203759D01*
X24752714Y34203759D02*
X24943190Y34298997D01*
X24943190Y34298997D02*
X25228904Y34298997D01*
X25228904Y34298997D02*
X25419380Y34203759D01*
X25419380Y34203759D02*
X25514619Y34108521D01*
X25514619Y34108521D02*
X25609857Y33918045D01*
X25609857Y33918045D02*
X25609857Y33156140D01*
X25514619Y35156140D02*
X25514619Y35822807D01*
X26562238Y36108521D02*
X26562238Y35156140D01*
X26562238Y35156140D02*
X24562238Y35156140D01*
X24562238Y35156140D02*
X24562238Y36108521D01*
D13*
X25650000Y20325000D02*
X25650000Y-19825000D01*
D12*
X-1337762Y22679950D02*
X662238Y23346616D01*
X662238Y23346616D02*
X-1337762Y24013283D01*
X-99667Y24679950D02*
X-99667Y26203759D01*
X567000Y27060902D02*
X662238Y27346616D01*
X662238Y27346616D02*
X662238Y27822807D01*
X662238Y27822807D02*
X567000Y28013283D01*
X567000Y28013283D02*
X471761Y28108521D01*
X471761Y28108521D02*
X281285Y28203759D01*
X281285Y28203759D02*
X90809Y28203759D01*
X90809Y28203759D02*
X-99667Y28108521D01*
X-99667Y28108521D02*
X-194905Y28013283D01*
X-194905Y28013283D02*
X-290143Y27822807D01*
X-290143Y27822807D02*
X-385381Y27441854D01*
X-385381Y27441854D02*
X-480620Y27251378D01*
X-480620Y27251378D02*
X-575858Y27156140D01*
X-575858Y27156140D02*
X-766334Y27060902D01*
X-766334Y27060902D02*
X-956810Y27060902D01*
X-956810Y27060902D02*
X-1147286Y27156140D01*
X-1147286Y27156140D02*
X-1242524Y27251378D01*
X-1242524Y27251378D02*
X-1337762Y27441854D01*
X-1337762Y27441854D02*
X-1337762Y27918045D01*
X-1337762Y27918045D02*
X-1242524Y28203759D01*
X471761Y30203759D02*
X567000Y30108521D01*
X567000Y30108521D02*
X662238Y29822807D01*
X662238Y29822807D02*
X662238Y29632331D01*
X662238Y29632331D02*
X567000Y29346616D01*
X567000Y29346616D02*
X376523Y29156140D01*
X376523Y29156140D02*
X186047Y29060902D01*
X186047Y29060902D02*
X-194905Y28965664D01*
X-194905Y28965664D02*
X-480620Y28965664D01*
X-480620Y28965664D02*
X-861572Y29060902D01*
X-861572Y29060902D02*
X-1052048Y29156140D01*
X-1052048Y29156140D02*
X-1242524Y29346616D01*
X-1242524Y29346616D02*
X-1337762Y29632331D01*
X-1337762Y29632331D02*
X-1337762Y29822807D01*
X-1337762Y29822807D02*
X-1242524Y30108521D01*
X-1242524Y30108521D02*
X-1147286Y30203759D01*
X-1337762Y31441854D02*
X-1337762Y31822807D01*
X-1337762Y31822807D02*
X-1242524Y32013283D01*
X-1242524Y32013283D02*
X-1052048Y32203759D01*
X-1052048Y32203759D02*
X-671096Y32298997D01*
X-671096Y32298997D02*
X-4429Y32298997D01*
X-4429Y32298997D02*
X376523Y32203759D01*
X376523Y32203759D02*
X567000Y32013283D01*
X567000Y32013283D02*
X662238Y31822807D01*
X662238Y31822807D02*
X662238Y31441854D01*
X662238Y31441854D02*
X567000Y31251378D01*
X567000Y31251378D02*
X376523Y31060902D01*
X376523Y31060902D02*
X-4429Y30965664D01*
X-4429Y30965664D02*
X-671096Y30965664D01*
X-671096Y30965664D02*
X-1052048Y31060902D01*
X-1052048Y31060902D02*
X-1242524Y31251378D01*
X-1242524Y31251378D02*
X-1337762Y31441854D01*
X662238Y34298997D02*
X-290143Y33632330D01*
X662238Y33156140D02*
X-1337762Y33156140D01*
X-1337762Y33156140D02*
X-1337762Y33918045D01*
X-1337762Y33918045D02*
X-1242524Y34108521D01*
X-1242524Y34108521D02*
X-1147286Y34203759D01*
X-1147286Y34203759D02*
X-956810Y34298997D01*
X-956810Y34298997D02*
X-671096Y34298997D01*
X-671096Y34298997D02*
X-480620Y34203759D01*
X-480620Y34203759D02*
X-385381Y34108521D01*
X-385381Y34108521D02*
X-290143Y33918045D01*
X-290143Y33918045D02*
X-290143Y33156140D01*
X-385381Y35156140D02*
X-385381Y35822807D01*
X662238Y36108521D02*
X662238Y35156140D01*
X662238Y35156140D02*
X-1337762Y35156140D01*
X-1337762Y35156140D02*
X-1337762Y36108521D01*
D13*
X-250000Y20325000D02*
X-250000Y-19825000D01*
M02*
