%TF.GenerationSoftware,KiCad,Pcbnew,8.0.6*%
%TF.CreationDate,2024-11-25T14:03:37-07:00*%
%TF.ProjectId,SparkFun_BMV080_panelized,53706172-6b46-4756-9e5f-424d56303830,v01*%
%TF.SameCoordinates,Original*%
%TF.FileFunction,Soldermask,Bot*%
%TF.FilePolarity,Negative*%
%FSLAX46Y46*%
G04 Gerber Fmt 4.6, Leading zero omitted, Abs format (unit mm)*
G04 Created by KiCad (PCBNEW 8.0.6) date 2024-11-25 14:03:37*
%MOMM*%
%LPD*%
G01*
G04 APERTURE LIST*
%TA.AperFunction,Profile*%
%ADD10C,0.100000*%
%TD*%
%TA.AperFunction,Profile*%
%ADD11C,0.050000*%
%TD*%
%ADD12C,0.250000*%
%ADD13C,0.500000*%
G04 APERTURE END LIST*
D10*
X-500000Y-13200000D02*
X-500000Y106100000D01*
X147780000Y-13200000D02*
X-500000Y-13200000D01*
X147780000Y106100000D02*
X147780000Y-13200000D01*
X-500000Y106100000D02*
X147780000Y106100000D01*
X-6850000Y-19550000D02*
X-6850000Y112450000D01*
X154130000Y-19550000D02*
X-6850000Y-19550000D01*
X154130000Y112450000D02*
X154130000Y-19550000D01*
X-6850000Y112450000D02*
X154130000Y112450000D01*
D11*
X123150000Y92900000D02*
X123150000Y105600000D01*
X123150000Y79700000D02*
X123150000Y92400000D01*
X123150000Y66500000D02*
X123150000Y79200000D01*
X123150000Y53300000D02*
X123150000Y66000000D01*
X123150000Y40100000D02*
X123150000Y52800000D01*
X123150000Y26900000D02*
X123150000Y39600000D01*
X123150000Y13700000D02*
X123150000Y26400000D01*
X123150000Y500000D02*
X123150000Y13200000D01*
X123150000Y-12700000D02*
X123150000Y0D01*
X98520000Y92900000D02*
X98520000Y105600000D01*
X98520000Y79700000D02*
X98520000Y92400000D01*
X98520000Y66500000D02*
X98520000Y79200000D01*
X98520000Y53300000D02*
X98520000Y66000000D01*
X98520000Y40100000D02*
X98520000Y52800000D01*
X98520000Y26900000D02*
X98520000Y39600000D01*
X98520000Y13700000D02*
X98520000Y26400000D01*
X98520000Y500000D02*
X98520000Y13200000D01*
X98520000Y-12700000D02*
X98520000Y0D01*
X73890000Y92900000D02*
X73890000Y105600000D01*
X73890000Y79700000D02*
X73890000Y92400000D01*
X73890000Y66500000D02*
X73890000Y79200000D01*
X73890000Y53300000D02*
X73890000Y66000000D01*
X73890000Y40100000D02*
X73890000Y52800000D01*
X73890000Y26900000D02*
X73890000Y39600000D01*
X73890000Y13700000D02*
X73890000Y26400000D01*
X73890000Y500000D02*
X73890000Y13200000D01*
X73890000Y-12700000D02*
X73890000Y0D01*
X49260000Y92900000D02*
X49260000Y105600000D01*
X49260000Y79700000D02*
X49260000Y92400000D01*
X49260000Y66500000D02*
X49260000Y79200000D01*
X49260000Y53300000D02*
X49260000Y66000000D01*
X49260000Y40100000D02*
X49260000Y52800000D01*
X49260000Y26900000D02*
X49260000Y39600000D01*
X49260000Y13700000D02*
X49260000Y26400000D01*
X49260000Y500000D02*
X49260000Y13200000D01*
X49260000Y-12700000D02*
X49260000Y0D01*
X24630000Y92900000D02*
X24630000Y105600000D01*
X24630000Y79700000D02*
X24630000Y92400000D01*
X24630000Y66500000D02*
X24630000Y79200000D01*
X24630000Y53300000D02*
X24630000Y66000000D01*
X24630000Y40100000D02*
X24630000Y52800000D01*
X24630000Y26900000D02*
X24630000Y39600000D01*
X24630000Y13700000D02*
X24630000Y26400000D01*
X24630000Y500000D02*
X24630000Y13200000D01*
X24630000Y-12700000D02*
X24630000Y0D01*
X0Y92900000D02*
X0Y105600000D01*
X0Y79700000D02*
X0Y92400000D01*
X0Y66500000D02*
X0Y79200000D01*
X0Y53300000D02*
X0Y66000000D01*
X0Y40100000D02*
X0Y52800000D01*
X0Y26900000D02*
X0Y39600000D01*
X0Y13700000D02*
X0Y26400000D01*
X0Y500000D02*
X0Y13200000D01*
X147280000Y105600000D02*
X147280000Y92900000D01*
X147280000Y92400000D02*
X147280000Y79700000D01*
X147280000Y79200000D02*
X147280000Y66500000D01*
X147280000Y66000000D02*
X147280000Y53300000D01*
X147280000Y52800000D02*
X147280000Y40100000D01*
X147280000Y39600000D02*
X147280000Y26900000D01*
X147280000Y26400000D02*
X147280000Y13700000D01*
X147280000Y13200000D02*
X147280000Y500000D01*
X147280000Y0D02*
X147280000Y-12700000D01*
X122650000Y105600000D02*
X122650000Y92900000D01*
X122650000Y92400000D02*
X122650000Y79700000D01*
X122650000Y79200000D02*
X122650000Y66500000D01*
X122650000Y66000000D02*
X122650000Y53300000D01*
X122650000Y52800000D02*
X122650000Y40100000D01*
X122650000Y39600000D02*
X122650000Y26900000D01*
X122650000Y26400000D02*
X122650000Y13700000D01*
X122650000Y13200000D02*
X122650000Y500000D01*
X122650000Y0D02*
X122650000Y-12700000D01*
X98020000Y105600000D02*
X98020000Y92900000D01*
X98020000Y92400000D02*
X98020000Y79700000D01*
X98020000Y79200000D02*
X98020000Y66500000D01*
X98020000Y66000000D02*
X98020000Y53300000D01*
X98020000Y52800000D02*
X98020000Y40100000D01*
X98020000Y39600000D02*
X98020000Y26900000D01*
X98020000Y26400000D02*
X98020000Y13700000D01*
X98020000Y13200000D02*
X98020000Y500000D01*
X98020000Y0D02*
X98020000Y-12700000D01*
X73390000Y105600000D02*
X73390000Y92900000D01*
X73390000Y92400000D02*
X73390000Y79700000D01*
X73390000Y79200000D02*
X73390000Y66500000D01*
X73390000Y66000000D02*
X73390000Y53300000D01*
X73390000Y52800000D02*
X73390000Y40100000D01*
X73390000Y39600000D02*
X73390000Y26900000D01*
X73390000Y26400000D02*
X73390000Y13700000D01*
X73390000Y13200000D02*
X73390000Y500000D01*
X73390000Y0D02*
X73390000Y-12700000D01*
X48760000Y105600000D02*
X48760000Y92900000D01*
X48760000Y92400000D02*
X48760000Y79700000D01*
X48760000Y79200000D02*
X48760000Y66500000D01*
X48760000Y66000000D02*
X48760000Y53300000D01*
X48760000Y52800000D02*
X48760000Y40100000D01*
X48760000Y39600000D02*
X48760000Y26900000D01*
X48760000Y26400000D02*
X48760000Y13700000D01*
X48760000Y13200000D02*
X48760000Y500000D01*
X48760000Y0D02*
X48760000Y-12700000D01*
X24130000Y105600000D02*
X24130000Y92900000D01*
X24130000Y92400000D02*
X24130000Y79700000D01*
X24130000Y79200000D02*
X24130000Y66500000D01*
X24130000Y66000000D02*
X24130000Y53300000D01*
X24130000Y52800000D02*
X24130000Y40100000D01*
X24130000Y39600000D02*
X24130000Y26900000D01*
X24130000Y26400000D02*
X24130000Y13700000D01*
X24130000Y13200000D02*
X24130000Y500000D01*
X147280000Y92900000D02*
X123150000Y92900000D01*
X147280000Y79700000D02*
X123150000Y79700000D01*
X147280000Y66500000D02*
X123150000Y66500000D01*
X147280000Y53300000D02*
X123150000Y53300000D01*
X147280000Y40100000D02*
X123150000Y40100000D01*
X147280000Y26900000D02*
X123150000Y26900000D01*
X147280000Y13700000D02*
X123150000Y13700000D01*
X147280000Y500000D02*
X123150000Y500000D01*
X147280000Y-12700000D02*
X123150000Y-12700000D01*
X122650000Y92900000D02*
X98520000Y92900000D01*
X122650000Y79700000D02*
X98520000Y79700000D01*
X122650000Y66500000D02*
X98520000Y66500000D01*
X122650000Y53300000D02*
X98520000Y53300000D01*
X122650000Y40100000D02*
X98520000Y40100000D01*
X122650000Y26900000D02*
X98520000Y26900000D01*
X122650000Y13700000D02*
X98520000Y13700000D01*
X122650000Y500000D02*
X98520000Y500000D01*
X122650000Y-12700000D02*
X98520000Y-12700000D01*
X98020000Y92900000D02*
X73890000Y92900000D01*
X98020000Y79700000D02*
X73890000Y79700000D01*
X98020000Y66500000D02*
X73890000Y66500000D01*
X98020000Y53300000D02*
X73890000Y53300000D01*
X98020000Y40100000D02*
X73890000Y40100000D01*
X98020000Y26900000D02*
X73890000Y26900000D01*
X98020000Y13700000D02*
X73890000Y13700000D01*
X98020000Y500000D02*
X73890000Y500000D01*
X98020000Y-12700000D02*
X73890000Y-12700000D01*
X73390000Y92900000D02*
X49260000Y92900000D01*
X73390000Y79700000D02*
X49260000Y79700000D01*
X73390000Y66500000D02*
X49260000Y66500000D01*
X73390000Y53300000D02*
X49260000Y53300000D01*
X73390000Y40100000D02*
X49260000Y40100000D01*
X73390000Y26900000D02*
X49260000Y26900000D01*
X73390000Y13700000D02*
X49260000Y13700000D01*
X73390000Y500000D02*
X49260000Y500000D01*
X73390000Y-12700000D02*
X49260000Y-12700000D01*
X48760000Y92900000D02*
X24630000Y92900000D01*
X48760000Y79700000D02*
X24630000Y79700000D01*
X48760000Y66500000D02*
X24630000Y66500000D01*
X48760000Y53300000D02*
X24630000Y53300000D01*
X48760000Y40100000D02*
X24630000Y40100000D01*
X48760000Y26900000D02*
X24630000Y26900000D01*
X48760000Y13700000D02*
X24630000Y13700000D01*
X48760000Y500000D02*
X24630000Y500000D01*
X48760000Y-12700000D02*
X24630000Y-12700000D01*
X24130000Y92900000D02*
X0Y92900000D01*
X24130000Y79700000D02*
X0Y79700000D01*
X24130000Y66500000D02*
X0Y66500000D01*
X24130000Y53300000D02*
X0Y53300000D01*
X24130000Y40100000D02*
X0Y40100000D01*
X24130000Y26900000D02*
X0Y26900000D01*
X24130000Y13700000D02*
X0Y13700000D01*
X24130000Y500000D02*
X0Y500000D01*
X123150000Y105600000D02*
X147280000Y105600000D01*
X123150000Y92400000D02*
X147280000Y92400000D01*
X123150000Y79200000D02*
X147280000Y79200000D01*
X123150000Y66000000D02*
X147280000Y66000000D01*
X123150000Y52800000D02*
X147280000Y52800000D01*
X123150000Y39600000D02*
X147280000Y39600000D01*
X123150000Y26400000D02*
X147280000Y26400000D01*
X123150000Y13200000D02*
X147280000Y13200000D01*
X123150000Y0D02*
X147280000Y0D01*
X98520000Y105600000D02*
X122650000Y105600000D01*
X98520000Y92400000D02*
X122650000Y92400000D01*
X98520000Y79200000D02*
X122650000Y79200000D01*
X98520000Y66000000D02*
X122650000Y66000000D01*
X98520000Y52800000D02*
X122650000Y52800000D01*
X98520000Y39600000D02*
X122650000Y39600000D01*
X98520000Y26400000D02*
X122650000Y26400000D01*
X98520000Y13200000D02*
X122650000Y13200000D01*
X98520000Y0D02*
X122650000Y0D01*
X73890000Y105600000D02*
X98020000Y105600000D01*
X73890000Y92400000D02*
X98020000Y92400000D01*
X73890000Y79200000D02*
X98020000Y79200000D01*
X73890000Y66000000D02*
X98020000Y66000000D01*
X73890000Y52800000D02*
X98020000Y52800000D01*
X73890000Y39600000D02*
X98020000Y39600000D01*
X73890000Y26400000D02*
X98020000Y26400000D01*
X73890000Y13200000D02*
X98020000Y13200000D01*
X73890000Y0D02*
X98020000Y0D01*
X49260000Y105600000D02*
X73390000Y105600000D01*
X49260000Y92400000D02*
X73390000Y92400000D01*
X49260000Y79200000D02*
X73390000Y79200000D01*
X49260000Y66000000D02*
X73390000Y66000000D01*
X49260000Y52800000D02*
X73390000Y52800000D01*
X49260000Y39600000D02*
X73390000Y39600000D01*
X49260000Y26400000D02*
X73390000Y26400000D01*
X49260000Y13200000D02*
X73390000Y13200000D01*
X49260000Y0D02*
X73390000Y0D01*
X24630000Y105600000D02*
X48760000Y105600000D01*
X24630000Y92400000D02*
X48760000Y92400000D01*
X24630000Y79200000D02*
X48760000Y79200000D01*
X24630000Y66000000D02*
X48760000Y66000000D01*
X24630000Y52800000D02*
X48760000Y52800000D01*
X24630000Y39600000D02*
X48760000Y39600000D01*
X24630000Y26400000D02*
X48760000Y26400000D01*
X24630000Y13200000D02*
X48760000Y13200000D01*
X24630000Y0D02*
X48760000Y0D01*
X0Y105600000D02*
X24130000Y105600000D01*
X0Y92400000D02*
X24130000Y92400000D01*
X0Y79200000D02*
X24130000Y79200000D01*
X0Y66000000D02*
X24130000Y66000000D01*
X0Y52800000D02*
X24130000Y52800000D01*
X0Y39600000D02*
X24130000Y39600000D01*
X0Y26400000D02*
X24130000Y26400000D01*
X0Y13200000D02*
X24130000Y13200000D01*
X0Y0D02*
X24130000Y0D01*
X24130000Y-12700000D02*
X0Y-12700000D01*
X24130000Y0D02*
X24130000Y-12700000D01*
X0Y-12700000D02*
X0Y0D01*
D12*
X-23098997Y-11862238D02*
X-22432331Y-13862238D01*
X-22432331Y-13862238D02*
X-21765664Y-11862238D01*
X-21098997Y-13100333D02*
X-19575187Y-13100333D01*
X-18718045Y-13767000D02*
X-18432331Y-13862238D01*
X-18432331Y-13862238D02*
X-17956140Y-13862238D01*
X-17956140Y-13862238D02*
X-17765664Y-13767000D01*
X-17765664Y-13767000D02*
X-17670426Y-13671761D01*
X-17670426Y-13671761D02*
X-17575188Y-13481285D01*
X-17575188Y-13481285D02*
X-17575188Y-13290809D01*
X-17575188Y-13290809D02*
X-17670426Y-13100333D01*
X-17670426Y-13100333D02*
X-17765664Y-13005095D01*
X-17765664Y-13005095D02*
X-17956140Y-12909857D01*
X-17956140Y-12909857D02*
X-18337093Y-12814619D01*
X-18337093Y-12814619D02*
X-18527569Y-12719380D01*
X-18527569Y-12719380D02*
X-18622807Y-12624142D01*
X-18622807Y-12624142D02*
X-18718045Y-12433666D01*
X-18718045Y-12433666D02*
X-18718045Y-12243190D01*
X-18718045Y-12243190D02*
X-18622807Y-12052714D01*
X-18622807Y-12052714D02*
X-18527569Y-11957476D01*
X-18527569Y-11957476D02*
X-18337093Y-11862238D01*
X-18337093Y-11862238D02*
X-17860902Y-11862238D01*
X-17860902Y-11862238D02*
X-17575188Y-11957476D01*
X-15575188Y-13671761D02*
X-15670426Y-13767000D01*
X-15670426Y-13767000D02*
X-15956140Y-13862238D01*
X-15956140Y-13862238D02*
X-16146616Y-13862238D01*
X-16146616Y-13862238D02*
X-16432331Y-13767000D01*
X-16432331Y-13767000D02*
X-16622807Y-13576523D01*
X-16622807Y-13576523D02*
X-16718045Y-13386047D01*
X-16718045Y-13386047D02*
X-16813283Y-13005095D01*
X-16813283Y-13005095D02*
X-16813283Y-12719380D01*
X-16813283Y-12719380D02*
X-16718045Y-12338428D01*
X-16718045Y-12338428D02*
X-16622807Y-12147952D01*
X-16622807Y-12147952D02*
X-16432331Y-11957476D01*
X-16432331Y-11957476D02*
X-16146616Y-11862238D01*
X-16146616Y-11862238D02*
X-15956140Y-11862238D01*
X-15956140Y-11862238D02*
X-15670426Y-11957476D01*
X-15670426Y-11957476D02*
X-15575188Y-12052714D01*
X-14337093Y-11862238D02*
X-13956140Y-11862238D01*
X-13956140Y-11862238D02*
X-13765664Y-11957476D01*
X-13765664Y-11957476D02*
X-13575188Y-12147952D01*
X-13575188Y-12147952D02*
X-13479950Y-12528904D01*
X-13479950Y-12528904D02*
X-13479950Y-13195571D01*
X-13479950Y-13195571D02*
X-13575188Y-13576523D01*
X-13575188Y-13576523D02*
X-13765664Y-13767000D01*
X-13765664Y-13767000D02*
X-13956140Y-13862238D01*
X-13956140Y-13862238D02*
X-14337093Y-13862238D01*
X-14337093Y-13862238D02*
X-14527569Y-13767000D01*
X-14527569Y-13767000D02*
X-14718045Y-13576523D01*
X-14718045Y-13576523D02*
X-14813283Y-13195571D01*
X-14813283Y-13195571D02*
X-14813283Y-12528904D01*
X-14813283Y-12528904D02*
X-14718045Y-12147952D01*
X-14718045Y-12147952D02*
X-14527569Y-11957476D01*
X-14527569Y-11957476D02*
X-14337093Y-11862238D01*
X-11479950Y-13862238D02*
X-12146617Y-12909857D01*
X-12622807Y-13862238D02*
X-12622807Y-11862238D01*
X-12622807Y-11862238D02*
X-11860902Y-11862238D01*
X-11860902Y-11862238D02*
X-11670426Y-11957476D01*
X-11670426Y-11957476D02*
X-11575188Y-12052714D01*
X-11575188Y-12052714D02*
X-11479950Y-12243190D01*
X-11479950Y-12243190D02*
X-11479950Y-12528904D01*
X-11479950Y-12528904D02*
X-11575188Y-12719380D01*
X-11575188Y-12719380D02*
X-11670426Y-12814619D01*
X-11670426Y-12814619D02*
X-11860902Y-12909857D01*
X-11860902Y-12909857D02*
X-12622807Y-12909857D01*
X-10622807Y-12814619D02*
X-9956140Y-12814619D01*
X-9670426Y-13862238D02*
X-10622807Y-13862238D01*
X-10622807Y-13862238D02*
X-10622807Y-11862238D01*
X-10622807Y-11862238D02*
X-9670426Y-11862238D01*
D13*
X-7125000Y-12950000D02*
X154405000Y-12950000D01*
D12*
X-23098997Y1337762D02*
X-22432331Y-662238D01*
X-22432331Y-662238D02*
X-21765664Y1337762D01*
X-21098997Y99667D02*
X-19575187Y99667D01*
X-18718045Y-567000D02*
X-18432331Y-662238D01*
X-18432331Y-662238D02*
X-17956140Y-662238D01*
X-17956140Y-662238D02*
X-17765664Y-567000D01*
X-17765664Y-567000D02*
X-17670426Y-471761D01*
X-17670426Y-471761D02*
X-17575188Y-281285D01*
X-17575188Y-281285D02*
X-17575188Y-90809D01*
X-17575188Y-90809D02*
X-17670426Y99667D01*
X-17670426Y99667D02*
X-17765664Y194905D01*
X-17765664Y194905D02*
X-17956140Y290143D01*
X-17956140Y290143D02*
X-18337093Y385381D01*
X-18337093Y385381D02*
X-18527569Y480620D01*
X-18527569Y480620D02*
X-18622807Y575858D01*
X-18622807Y575858D02*
X-18718045Y766334D01*
X-18718045Y766334D02*
X-18718045Y956810D01*
X-18718045Y956810D02*
X-18622807Y1147286D01*
X-18622807Y1147286D02*
X-18527569Y1242524D01*
X-18527569Y1242524D02*
X-18337093Y1337762D01*
X-18337093Y1337762D02*
X-17860902Y1337762D01*
X-17860902Y1337762D02*
X-17575188Y1242524D01*
X-15575188Y-471761D02*
X-15670426Y-567000D01*
X-15670426Y-567000D02*
X-15956140Y-662238D01*
X-15956140Y-662238D02*
X-16146616Y-662238D01*
X-16146616Y-662238D02*
X-16432331Y-567000D01*
X-16432331Y-567000D02*
X-16622807Y-376523D01*
X-16622807Y-376523D02*
X-16718045Y-186047D01*
X-16718045Y-186047D02*
X-16813283Y194905D01*
X-16813283Y194905D02*
X-16813283Y480620D01*
X-16813283Y480620D02*
X-16718045Y861572D01*
X-16718045Y861572D02*
X-16622807Y1052048D01*
X-16622807Y1052048D02*
X-16432331Y1242524D01*
X-16432331Y1242524D02*
X-16146616Y1337762D01*
X-16146616Y1337762D02*
X-15956140Y1337762D01*
X-15956140Y1337762D02*
X-15670426Y1242524D01*
X-15670426Y1242524D02*
X-15575188Y1147286D01*
X-14337093Y1337762D02*
X-13956140Y1337762D01*
X-13956140Y1337762D02*
X-13765664Y1242524D01*
X-13765664Y1242524D02*
X-13575188Y1052048D01*
X-13575188Y1052048D02*
X-13479950Y671096D01*
X-13479950Y671096D02*
X-13479950Y4429D01*
X-13479950Y4429D02*
X-13575188Y-376523D01*
X-13575188Y-376523D02*
X-13765664Y-567000D01*
X-13765664Y-567000D02*
X-13956140Y-662238D01*
X-13956140Y-662238D02*
X-14337093Y-662238D01*
X-14337093Y-662238D02*
X-14527569Y-567000D01*
X-14527569Y-567000D02*
X-14718045Y-376523D01*
X-14718045Y-376523D02*
X-14813283Y4429D01*
X-14813283Y4429D02*
X-14813283Y671096D01*
X-14813283Y671096D02*
X-14718045Y1052048D01*
X-14718045Y1052048D02*
X-14527569Y1242524D01*
X-14527569Y1242524D02*
X-14337093Y1337762D01*
X-11479950Y-662238D02*
X-12146617Y290143D01*
X-12622807Y-662238D02*
X-12622807Y1337762D01*
X-12622807Y1337762D02*
X-11860902Y1337762D01*
X-11860902Y1337762D02*
X-11670426Y1242524D01*
X-11670426Y1242524D02*
X-11575188Y1147286D01*
X-11575188Y1147286D02*
X-11479950Y956810D01*
X-11479950Y956810D02*
X-11479950Y671096D01*
X-11479950Y671096D02*
X-11575188Y480620D01*
X-11575188Y480620D02*
X-11670426Y385381D01*
X-11670426Y385381D02*
X-11860902Y290143D01*
X-11860902Y290143D02*
X-12622807Y290143D01*
X-10622807Y385381D02*
X-9956140Y385381D01*
X-9670426Y-662238D02*
X-10622807Y-662238D01*
X-10622807Y-662238D02*
X-10622807Y1337762D01*
X-10622807Y1337762D02*
X-9670426Y1337762D01*
D13*
X-7125000Y250000D02*
X154405000Y250000D01*
D12*
X-23098997Y14537762D02*
X-22432331Y12537762D01*
X-22432331Y12537762D02*
X-21765664Y14537762D01*
X-21098997Y13299667D02*
X-19575187Y13299667D01*
X-18718045Y12633000D02*
X-18432331Y12537762D01*
X-18432331Y12537762D02*
X-17956140Y12537762D01*
X-17956140Y12537762D02*
X-17765664Y12633000D01*
X-17765664Y12633000D02*
X-17670426Y12728239D01*
X-17670426Y12728239D02*
X-17575188Y12918715D01*
X-17575188Y12918715D02*
X-17575188Y13109191D01*
X-17575188Y13109191D02*
X-17670426Y13299667D01*
X-17670426Y13299667D02*
X-17765664Y13394905D01*
X-17765664Y13394905D02*
X-17956140Y13490143D01*
X-17956140Y13490143D02*
X-18337093Y13585381D01*
X-18337093Y13585381D02*
X-18527569Y13680620D01*
X-18527569Y13680620D02*
X-18622807Y13775858D01*
X-18622807Y13775858D02*
X-18718045Y13966334D01*
X-18718045Y13966334D02*
X-18718045Y14156810D01*
X-18718045Y14156810D02*
X-18622807Y14347286D01*
X-18622807Y14347286D02*
X-18527569Y14442524D01*
X-18527569Y14442524D02*
X-18337093Y14537762D01*
X-18337093Y14537762D02*
X-17860902Y14537762D01*
X-17860902Y14537762D02*
X-17575188Y14442524D01*
X-15575188Y12728239D02*
X-15670426Y12633000D01*
X-15670426Y12633000D02*
X-15956140Y12537762D01*
X-15956140Y12537762D02*
X-16146616Y12537762D01*
X-16146616Y12537762D02*
X-16432331Y12633000D01*
X-16432331Y12633000D02*
X-16622807Y12823477D01*
X-16622807Y12823477D02*
X-16718045Y13013953D01*
X-16718045Y13013953D02*
X-16813283Y13394905D01*
X-16813283Y13394905D02*
X-16813283Y13680620D01*
X-16813283Y13680620D02*
X-16718045Y14061572D01*
X-16718045Y14061572D02*
X-16622807Y14252048D01*
X-16622807Y14252048D02*
X-16432331Y14442524D01*
X-16432331Y14442524D02*
X-16146616Y14537762D01*
X-16146616Y14537762D02*
X-15956140Y14537762D01*
X-15956140Y14537762D02*
X-15670426Y14442524D01*
X-15670426Y14442524D02*
X-15575188Y14347286D01*
X-14337093Y14537762D02*
X-13956140Y14537762D01*
X-13956140Y14537762D02*
X-13765664Y14442524D01*
X-13765664Y14442524D02*
X-13575188Y14252048D01*
X-13575188Y14252048D02*
X-13479950Y13871096D01*
X-13479950Y13871096D02*
X-13479950Y13204429D01*
X-13479950Y13204429D02*
X-13575188Y12823477D01*
X-13575188Y12823477D02*
X-13765664Y12633000D01*
X-13765664Y12633000D02*
X-13956140Y12537762D01*
X-13956140Y12537762D02*
X-14337093Y12537762D01*
X-14337093Y12537762D02*
X-14527569Y12633000D01*
X-14527569Y12633000D02*
X-14718045Y12823477D01*
X-14718045Y12823477D02*
X-14813283Y13204429D01*
X-14813283Y13204429D02*
X-14813283Y13871096D01*
X-14813283Y13871096D02*
X-14718045Y14252048D01*
X-14718045Y14252048D02*
X-14527569Y14442524D01*
X-14527569Y14442524D02*
X-14337093Y14537762D01*
X-11479950Y12537762D02*
X-12146617Y13490143D01*
X-12622807Y12537762D02*
X-12622807Y14537762D01*
X-12622807Y14537762D02*
X-11860902Y14537762D01*
X-11860902Y14537762D02*
X-11670426Y14442524D01*
X-11670426Y14442524D02*
X-11575188Y14347286D01*
X-11575188Y14347286D02*
X-11479950Y14156810D01*
X-11479950Y14156810D02*
X-11479950Y13871096D01*
X-11479950Y13871096D02*
X-11575188Y13680620D01*
X-11575188Y13680620D02*
X-11670426Y13585381D01*
X-11670426Y13585381D02*
X-11860902Y13490143D01*
X-11860902Y13490143D02*
X-12622807Y13490143D01*
X-10622807Y13585381D02*
X-9956140Y13585381D01*
X-9670426Y12537762D02*
X-10622807Y12537762D01*
X-10622807Y12537762D02*
X-10622807Y14537762D01*
X-10622807Y14537762D02*
X-9670426Y14537762D01*
D13*
X-7125000Y13450000D02*
X154405000Y13450000D01*
D12*
X-23098997Y27737762D02*
X-22432331Y25737762D01*
X-22432331Y25737762D02*
X-21765664Y27737762D01*
X-21098997Y26499667D02*
X-19575187Y26499667D01*
X-18718045Y25833000D02*
X-18432331Y25737762D01*
X-18432331Y25737762D02*
X-17956140Y25737762D01*
X-17956140Y25737762D02*
X-17765664Y25833000D01*
X-17765664Y25833000D02*
X-17670426Y25928239D01*
X-17670426Y25928239D02*
X-17575188Y26118715D01*
X-17575188Y26118715D02*
X-17575188Y26309191D01*
X-17575188Y26309191D02*
X-17670426Y26499667D01*
X-17670426Y26499667D02*
X-17765664Y26594905D01*
X-17765664Y26594905D02*
X-17956140Y26690143D01*
X-17956140Y26690143D02*
X-18337093Y26785381D01*
X-18337093Y26785381D02*
X-18527569Y26880620D01*
X-18527569Y26880620D02*
X-18622807Y26975858D01*
X-18622807Y26975858D02*
X-18718045Y27166334D01*
X-18718045Y27166334D02*
X-18718045Y27356810D01*
X-18718045Y27356810D02*
X-18622807Y27547286D01*
X-18622807Y27547286D02*
X-18527569Y27642524D01*
X-18527569Y27642524D02*
X-18337093Y27737762D01*
X-18337093Y27737762D02*
X-17860902Y27737762D01*
X-17860902Y27737762D02*
X-17575188Y27642524D01*
X-15575188Y25928239D02*
X-15670426Y25833000D01*
X-15670426Y25833000D02*
X-15956140Y25737762D01*
X-15956140Y25737762D02*
X-16146616Y25737762D01*
X-16146616Y25737762D02*
X-16432331Y25833000D01*
X-16432331Y25833000D02*
X-16622807Y26023477D01*
X-16622807Y26023477D02*
X-16718045Y26213953D01*
X-16718045Y26213953D02*
X-16813283Y26594905D01*
X-16813283Y26594905D02*
X-16813283Y26880620D01*
X-16813283Y26880620D02*
X-16718045Y27261572D01*
X-16718045Y27261572D02*
X-16622807Y27452048D01*
X-16622807Y27452048D02*
X-16432331Y27642524D01*
X-16432331Y27642524D02*
X-16146616Y27737762D01*
X-16146616Y27737762D02*
X-15956140Y27737762D01*
X-15956140Y27737762D02*
X-15670426Y27642524D01*
X-15670426Y27642524D02*
X-15575188Y27547286D01*
X-14337093Y27737762D02*
X-13956140Y27737762D01*
X-13956140Y27737762D02*
X-13765664Y27642524D01*
X-13765664Y27642524D02*
X-13575188Y27452048D01*
X-13575188Y27452048D02*
X-13479950Y27071096D01*
X-13479950Y27071096D02*
X-13479950Y26404429D01*
X-13479950Y26404429D02*
X-13575188Y26023477D01*
X-13575188Y26023477D02*
X-13765664Y25833000D01*
X-13765664Y25833000D02*
X-13956140Y25737762D01*
X-13956140Y25737762D02*
X-14337093Y25737762D01*
X-14337093Y25737762D02*
X-14527569Y25833000D01*
X-14527569Y25833000D02*
X-14718045Y26023477D01*
X-14718045Y26023477D02*
X-14813283Y26404429D01*
X-14813283Y26404429D02*
X-14813283Y27071096D01*
X-14813283Y27071096D02*
X-14718045Y27452048D01*
X-14718045Y27452048D02*
X-14527569Y27642524D01*
X-14527569Y27642524D02*
X-14337093Y27737762D01*
X-11479950Y25737762D02*
X-12146617Y26690143D01*
X-12622807Y25737762D02*
X-12622807Y27737762D01*
X-12622807Y27737762D02*
X-11860902Y27737762D01*
X-11860902Y27737762D02*
X-11670426Y27642524D01*
X-11670426Y27642524D02*
X-11575188Y27547286D01*
X-11575188Y27547286D02*
X-11479950Y27356810D01*
X-11479950Y27356810D02*
X-11479950Y27071096D01*
X-11479950Y27071096D02*
X-11575188Y26880620D01*
X-11575188Y26880620D02*
X-11670426Y26785381D01*
X-11670426Y26785381D02*
X-11860902Y26690143D01*
X-11860902Y26690143D02*
X-12622807Y26690143D01*
X-10622807Y26785381D02*
X-9956140Y26785381D01*
X-9670426Y25737762D02*
X-10622807Y25737762D01*
X-10622807Y25737762D02*
X-10622807Y27737762D01*
X-10622807Y27737762D02*
X-9670426Y27737762D01*
D13*
X-7125000Y26650000D02*
X154405000Y26650000D01*
D12*
X-23098997Y40937762D02*
X-22432331Y38937762D01*
X-22432331Y38937762D02*
X-21765664Y40937762D01*
X-21098997Y39699667D02*
X-19575187Y39699667D01*
X-18718045Y39033000D02*
X-18432331Y38937762D01*
X-18432331Y38937762D02*
X-17956140Y38937762D01*
X-17956140Y38937762D02*
X-17765664Y39033000D01*
X-17765664Y39033000D02*
X-17670426Y39128239D01*
X-17670426Y39128239D02*
X-17575188Y39318715D01*
X-17575188Y39318715D02*
X-17575188Y39509191D01*
X-17575188Y39509191D02*
X-17670426Y39699667D01*
X-17670426Y39699667D02*
X-17765664Y39794905D01*
X-17765664Y39794905D02*
X-17956140Y39890143D01*
X-17956140Y39890143D02*
X-18337093Y39985381D01*
X-18337093Y39985381D02*
X-18527569Y40080620D01*
X-18527569Y40080620D02*
X-18622807Y40175858D01*
X-18622807Y40175858D02*
X-18718045Y40366334D01*
X-18718045Y40366334D02*
X-18718045Y40556810D01*
X-18718045Y40556810D02*
X-18622807Y40747286D01*
X-18622807Y40747286D02*
X-18527569Y40842524D01*
X-18527569Y40842524D02*
X-18337093Y40937762D01*
X-18337093Y40937762D02*
X-17860902Y40937762D01*
X-17860902Y40937762D02*
X-17575188Y40842524D01*
X-15575188Y39128239D02*
X-15670426Y39033000D01*
X-15670426Y39033000D02*
X-15956140Y38937762D01*
X-15956140Y38937762D02*
X-16146616Y38937762D01*
X-16146616Y38937762D02*
X-16432331Y39033000D01*
X-16432331Y39033000D02*
X-16622807Y39223477D01*
X-16622807Y39223477D02*
X-16718045Y39413953D01*
X-16718045Y39413953D02*
X-16813283Y39794905D01*
X-16813283Y39794905D02*
X-16813283Y40080620D01*
X-16813283Y40080620D02*
X-16718045Y40461572D01*
X-16718045Y40461572D02*
X-16622807Y40652048D01*
X-16622807Y40652048D02*
X-16432331Y40842524D01*
X-16432331Y40842524D02*
X-16146616Y40937762D01*
X-16146616Y40937762D02*
X-15956140Y40937762D01*
X-15956140Y40937762D02*
X-15670426Y40842524D01*
X-15670426Y40842524D02*
X-15575188Y40747286D01*
X-14337093Y40937762D02*
X-13956140Y40937762D01*
X-13956140Y40937762D02*
X-13765664Y40842524D01*
X-13765664Y40842524D02*
X-13575188Y40652048D01*
X-13575188Y40652048D02*
X-13479950Y40271096D01*
X-13479950Y40271096D02*
X-13479950Y39604429D01*
X-13479950Y39604429D02*
X-13575188Y39223477D01*
X-13575188Y39223477D02*
X-13765664Y39033000D01*
X-13765664Y39033000D02*
X-13956140Y38937762D01*
X-13956140Y38937762D02*
X-14337093Y38937762D01*
X-14337093Y38937762D02*
X-14527569Y39033000D01*
X-14527569Y39033000D02*
X-14718045Y39223477D01*
X-14718045Y39223477D02*
X-14813283Y39604429D01*
X-14813283Y39604429D02*
X-14813283Y40271096D01*
X-14813283Y40271096D02*
X-14718045Y40652048D01*
X-14718045Y40652048D02*
X-14527569Y40842524D01*
X-14527569Y40842524D02*
X-14337093Y40937762D01*
X-11479950Y38937762D02*
X-12146617Y39890143D01*
X-12622807Y38937762D02*
X-12622807Y40937762D01*
X-12622807Y40937762D02*
X-11860902Y40937762D01*
X-11860902Y40937762D02*
X-11670426Y40842524D01*
X-11670426Y40842524D02*
X-11575188Y40747286D01*
X-11575188Y40747286D02*
X-11479950Y40556810D01*
X-11479950Y40556810D02*
X-11479950Y40271096D01*
X-11479950Y40271096D02*
X-11575188Y40080620D01*
X-11575188Y40080620D02*
X-11670426Y39985381D01*
X-11670426Y39985381D02*
X-11860902Y39890143D01*
X-11860902Y39890143D02*
X-12622807Y39890143D01*
X-10622807Y39985381D02*
X-9956140Y39985381D01*
X-9670426Y38937762D02*
X-10622807Y38937762D01*
X-10622807Y38937762D02*
X-10622807Y40937762D01*
X-10622807Y40937762D02*
X-9670426Y40937762D01*
D13*
X-7125000Y39850000D02*
X154405000Y39850000D01*
D12*
X-23098997Y54137762D02*
X-22432331Y52137762D01*
X-22432331Y52137762D02*
X-21765664Y54137762D01*
X-21098997Y52899667D02*
X-19575187Y52899667D01*
X-18718045Y52233000D02*
X-18432331Y52137762D01*
X-18432331Y52137762D02*
X-17956140Y52137762D01*
X-17956140Y52137762D02*
X-17765664Y52233000D01*
X-17765664Y52233000D02*
X-17670426Y52328239D01*
X-17670426Y52328239D02*
X-17575188Y52518715D01*
X-17575188Y52518715D02*
X-17575188Y52709191D01*
X-17575188Y52709191D02*
X-17670426Y52899667D01*
X-17670426Y52899667D02*
X-17765664Y52994905D01*
X-17765664Y52994905D02*
X-17956140Y53090143D01*
X-17956140Y53090143D02*
X-18337093Y53185381D01*
X-18337093Y53185381D02*
X-18527569Y53280620D01*
X-18527569Y53280620D02*
X-18622807Y53375858D01*
X-18622807Y53375858D02*
X-18718045Y53566334D01*
X-18718045Y53566334D02*
X-18718045Y53756810D01*
X-18718045Y53756810D02*
X-18622807Y53947286D01*
X-18622807Y53947286D02*
X-18527569Y54042524D01*
X-18527569Y54042524D02*
X-18337093Y54137762D01*
X-18337093Y54137762D02*
X-17860902Y54137762D01*
X-17860902Y54137762D02*
X-17575188Y54042524D01*
X-15575188Y52328239D02*
X-15670426Y52233000D01*
X-15670426Y52233000D02*
X-15956140Y52137762D01*
X-15956140Y52137762D02*
X-16146616Y52137762D01*
X-16146616Y52137762D02*
X-16432331Y52233000D01*
X-16432331Y52233000D02*
X-16622807Y52423477D01*
X-16622807Y52423477D02*
X-16718045Y52613953D01*
X-16718045Y52613953D02*
X-16813283Y52994905D01*
X-16813283Y52994905D02*
X-16813283Y53280620D01*
X-16813283Y53280620D02*
X-16718045Y53661572D01*
X-16718045Y53661572D02*
X-16622807Y53852048D01*
X-16622807Y53852048D02*
X-16432331Y54042524D01*
X-16432331Y54042524D02*
X-16146616Y54137762D01*
X-16146616Y54137762D02*
X-15956140Y54137762D01*
X-15956140Y54137762D02*
X-15670426Y54042524D01*
X-15670426Y54042524D02*
X-15575188Y53947286D01*
X-14337093Y54137762D02*
X-13956140Y54137762D01*
X-13956140Y54137762D02*
X-13765664Y54042524D01*
X-13765664Y54042524D02*
X-13575188Y53852048D01*
X-13575188Y53852048D02*
X-13479950Y53471096D01*
X-13479950Y53471096D02*
X-13479950Y52804429D01*
X-13479950Y52804429D02*
X-13575188Y52423477D01*
X-13575188Y52423477D02*
X-13765664Y52233000D01*
X-13765664Y52233000D02*
X-13956140Y52137762D01*
X-13956140Y52137762D02*
X-14337093Y52137762D01*
X-14337093Y52137762D02*
X-14527569Y52233000D01*
X-14527569Y52233000D02*
X-14718045Y52423477D01*
X-14718045Y52423477D02*
X-14813283Y52804429D01*
X-14813283Y52804429D02*
X-14813283Y53471096D01*
X-14813283Y53471096D02*
X-14718045Y53852048D01*
X-14718045Y53852048D02*
X-14527569Y54042524D01*
X-14527569Y54042524D02*
X-14337093Y54137762D01*
X-11479950Y52137762D02*
X-12146617Y53090143D01*
X-12622807Y52137762D02*
X-12622807Y54137762D01*
X-12622807Y54137762D02*
X-11860902Y54137762D01*
X-11860902Y54137762D02*
X-11670426Y54042524D01*
X-11670426Y54042524D02*
X-11575188Y53947286D01*
X-11575188Y53947286D02*
X-11479950Y53756810D01*
X-11479950Y53756810D02*
X-11479950Y53471096D01*
X-11479950Y53471096D02*
X-11575188Y53280620D01*
X-11575188Y53280620D02*
X-11670426Y53185381D01*
X-11670426Y53185381D02*
X-11860902Y53090143D01*
X-11860902Y53090143D02*
X-12622807Y53090143D01*
X-10622807Y53185381D02*
X-9956140Y53185381D01*
X-9670426Y52137762D02*
X-10622807Y52137762D01*
X-10622807Y52137762D02*
X-10622807Y54137762D01*
X-10622807Y54137762D02*
X-9670426Y54137762D01*
D13*
X-7125000Y53050000D02*
X154405000Y53050000D01*
D12*
X-23098997Y67337762D02*
X-22432331Y65337762D01*
X-22432331Y65337762D02*
X-21765664Y67337762D01*
X-21098997Y66099667D02*
X-19575187Y66099667D01*
X-18718045Y65433000D02*
X-18432331Y65337762D01*
X-18432331Y65337762D02*
X-17956140Y65337762D01*
X-17956140Y65337762D02*
X-17765664Y65433000D01*
X-17765664Y65433000D02*
X-17670426Y65528239D01*
X-17670426Y65528239D02*
X-17575188Y65718715D01*
X-17575188Y65718715D02*
X-17575188Y65909191D01*
X-17575188Y65909191D02*
X-17670426Y66099667D01*
X-17670426Y66099667D02*
X-17765664Y66194905D01*
X-17765664Y66194905D02*
X-17956140Y66290143D01*
X-17956140Y66290143D02*
X-18337093Y66385381D01*
X-18337093Y66385381D02*
X-18527569Y66480620D01*
X-18527569Y66480620D02*
X-18622807Y66575858D01*
X-18622807Y66575858D02*
X-18718045Y66766334D01*
X-18718045Y66766334D02*
X-18718045Y66956810D01*
X-18718045Y66956810D02*
X-18622807Y67147286D01*
X-18622807Y67147286D02*
X-18527569Y67242524D01*
X-18527569Y67242524D02*
X-18337093Y67337762D01*
X-18337093Y67337762D02*
X-17860902Y67337762D01*
X-17860902Y67337762D02*
X-17575188Y67242524D01*
X-15575188Y65528239D02*
X-15670426Y65433000D01*
X-15670426Y65433000D02*
X-15956140Y65337762D01*
X-15956140Y65337762D02*
X-16146616Y65337762D01*
X-16146616Y65337762D02*
X-16432331Y65433000D01*
X-16432331Y65433000D02*
X-16622807Y65623477D01*
X-16622807Y65623477D02*
X-16718045Y65813953D01*
X-16718045Y65813953D02*
X-16813283Y66194905D01*
X-16813283Y66194905D02*
X-16813283Y66480620D01*
X-16813283Y66480620D02*
X-16718045Y66861572D01*
X-16718045Y66861572D02*
X-16622807Y67052048D01*
X-16622807Y67052048D02*
X-16432331Y67242524D01*
X-16432331Y67242524D02*
X-16146616Y67337762D01*
X-16146616Y67337762D02*
X-15956140Y67337762D01*
X-15956140Y67337762D02*
X-15670426Y67242524D01*
X-15670426Y67242524D02*
X-15575188Y67147286D01*
X-14337093Y67337762D02*
X-13956140Y67337762D01*
X-13956140Y67337762D02*
X-13765664Y67242524D01*
X-13765664Y67242524D02*
X-13575188Y67052048D01*
X-13575188Y67052048D02*
X-13479950Y66671096D01*
X-13479950Y66671096D02*
X-13479950Y66004429D01*
X-13479950Y66004429D02*
X-13575188Y65623477D01*
X-13575188Y65623477D02*
X-13765664Y65433000D01*
X-13765664Y65433000D02*
X-13956140Y65337762D01*
X-13956140Y65337762D02*
X-14337093Y65337762D01*
X-14337093Y65337762D02*
X-14527569Y65433000D01*
X-14527569Y65433000D02*
X-14718045Y65623477D01*
X-14718045Y65623477D02*
X-14813283Y66004429D01*
X-14813283Y66004429D02*
X-14813283Y66671096D01*
X-14813283Y66671096D02*
X-14718045Y67052048D01*
X-14718045Y67052048D02*
X-14527569Y67242524D01*
X-14527569Y67242524D02*
X-14337093Y67337762D01*
X-11479950Y65337762D02*
X-12146617Y66290143D01*
X-12622807Y65337762D02*
X-12622807Y67337762D01*
X-12622807Y67337762D02*
X-11860902Y67337762D01*
X-11860902Y67337762D02*
X-11670426Y67242524D01*
X-11670426Y67242524D02*
X-11575188Y67147286D01*
X-11575188Y67147286D02*
X-11479950Y66956810D01*
X-11479950Y66956810D02*
X-11479950Y66671096D01*
X-11479950Y66671096D02*
X-11575188Y66480620D01*
X-11575188Y66480620D02*
X-11670426Y66385381D01*
X-11670426Y66385381D02*
X-11860902Y66290143D01*
X-11860902Y66290143D02*
X-12622807Y66290143D01*
X-10622807Y66385381D02*
X-9956140Y66385381D01*
X-9670426Y65337762D02*
X-10622807Y65337762D01*
X-10622807Y65337762D02*
X-10622807Y67337762D01*
X-10622807Y67337762D02*
X-9670426Y67337762D01*
D13*
X-7125000Y66250000D02*
X154405000Y66250000D01*
D12*
X-23098997Y80537762D02*
X-22432331Y78537762D01*
X-22432331Y78537762D02*
X-21765664Y80537762D01*
X-21098997Y79299667D02*
X-19575187Y79299667D01*
X-18718045Y78633000D02*
X-18432331Y78537762D01*
X-18432331Y78537762D02*
X-17956140Y78537762D01*
X-17956140Y78537762D02*
X-17765664Y78633000D01*
X-17765664Y78633000D02*
X-17670426Y78728239D01*
X-17670426Y78728239D02*
X-17575188Y78918715D01*
X-17575188Y78918715D02*
X-17575188Y79109191D01*
X-17575188Y79109191D02*
X-17670426Y79299667D01*
X-17670426Y79299667D02*
X-17765664Y79394905D01*
X-17765664Y79394905D02*
X-17956140Y79490143D01*
X-17956140Y79490143D02*
X-18337093Y79585381D01*
X-18337093Y79585381D02*
X-18527569Y79680620D01*
X-18527569Y79680620D02*
X-18622807Y79775858D01*
X-18622807Y79775858D02*
X-18718045Y79966334D01*
X-18718045Y79966334D02*
X-18718045Y80156810D01*
X-18718045Y80156810D02*
X-18622807Y80347286D01*
X-18622807Y80347286D02*
X-18527569Y80442524D01*
X-18527569Y80442524D02*
X-18337093Y80537762D01*
X-18337093Y80537762D02*
X-17860902Y80537762D01*
X-17860902Y80537762D02*
X-17575188Y80442524D01*
X-15575188Y78728239D02*
X-15670426Y78633000D01*
X-15670426Y78633000D02*
X-15956140Y78537762D01*
X-15956140Y78537762D02*
X-16146616Y78537762D01*
X-16146616Y78537762D02*
X-16432331Y78633000D01*
X-16432331Y78633000D02*
X-16622807Y78823477D01*
X-16622807Y78823477D02*
X-16718045Y79013953D01*
X-16718045Y79013953D02*
X-16813283Y79394905D01*
X-16813283Y79394905D02*
X-16813283Y79680620D01*
X-16813283Y79680620D02*
X-16718045Y80061572D01*
X-16718045Y80061572D02*
X-16622807Y80252048D01*
X-16622807Y80252048D02*
X-16432331Y80442524D01*
X-16432331Y80442524D02*
X-16146616Y80537762D01*
X-16146616Y80537762D02*
X-15956140Y80537762D01*
X-15956140Y80537762D02*
X-15670426Y80442524D01*
X-15670426Y80442524D02*
X-15575188Y80347286D01*
X-14337093Y80537762D02*
X-13956140Y80537762D01*
X-13956140Y80537762D02*
X-13765664Y80442524D01*
X-13765664Y80442524D02*
X-13575188Y80252048D01*
X-13575188Y80252048D02*
X-13479950Y79871096D01*
X-13479950Y79871096D02*
X-13479950Y79204429D01*
X-13479950Y79204429D02*
X-13575188Y78823477D01*
X-13575188Y78823477D02*
X-13765664Y78633000D01*
X-13765664Y78633000D02*
X-13956140Y78537762D01*
X-13956140Y78537762D02*
X-14337093Y78537762D01*
X-14337093Y78537762D02*
X-14527569Y78633000D01*
X-14527569Y78633000D02*
X-14718045Y78823477D01*
X-14718045Y78823477D02*
X-14813283Y79204429D01*
X-14813283Y79204429D02*
X-14813283Y79871096D01*
X-14813283Y79871096D02*
X-14718045Y80252048D01*
X-14718045Y80252048D02*
X-14527569Y80442524D01*
X-14527569Y80442524D02*
X-14337093Y80537762D01*
X-11479950Y78537762D02*
X-12146617Y79490143D01*
X-12622807Y78537762D02*
X-12622807Y80537762D01*
X-12622807Y80537762D02*
X-11860902Y80537762D01*
X-11860902Y80537762D02*
X-11670426Y80442524D01*
X-11670426Y80442524D02*
X-11575188Y80347286D01*
X-11575188Y80347286D02*
X-11479950Y80156810D01*
X-11479950Y80156810D02*
X-11479950Y79871096D01*
X-11479950Y79871096D02*
X-11575188Y79680620D01*
X-11575188Y79680620D02*
X-11670426Y79585381D01*
X-11670426Y79585381D02*
X-11860902Y79490143D01*
X-11860902Y79490143D02*
X-12622807Y79490143D01*
X-10622807Y79585381D02*
X-9956140Y79585381D01*
X-9670426Y78537762D02*
X-10622807Y78537762D01*
X-10622807Y78537762D02*
X-10622807Y80537762D01*
X-10622807Y80537762D02*
X-9670426Y80537762D01*
D13*
X-7125000Y79450000D02*
X154405000Y79450000D01*
D12*
X-23098997Y93737761D02*
X-22432331Y91737761D01*
X-22432331Y91737761D02*
X-21765664Y93737761D01*
X-21098997Y92499666D02*
X-19575187Y92499666D01*
X-18718045Y91833000D02*
X-18432331Y91737761D01*
X-18432331Y91737761D02*
X-17956140Y91737761D01*
X-17956140Y91737761D02*
X-17765664Y91833000D01*
X-17765664Y91833000D02*
X-17670426Y91928238D01*
X-17670426Y91928238D02*
X-17575188Y92118714D01*
X-17575188Y92118714D02*
X-17575188Y92309190D01*
X-17575188Y92309190D02*
X-17670426Y92499666D01*
X-17670426Y92499666D02*
X-17765664Y92594904D01*
X-17765664Y92594904D02*
X-17956140Y92690142D01*
X-17956140Y92690142D02*
X-18337093Y92785380D01*
X-18337093Y92785380D02*
X-18527569Y92880619D01*
X-18527569Y92880619D02*
X-18622807Y92975857D01*
X-18622807Y92975857D02*
X-18718045Y93166333D01*
X-18718045Y93166333D02*
X-18718045Y93356809D01*
X-18718045Y93356809D02*
X-18622807Y93547285D01*
X-18622807Y93547285D02*
X-18527569Y93642523D01*
X-18527569Y93642523D02*
X-18337093Y93737761D01*
X-18337093Y93737761D02*
X-17860902Y93737761D01*
X-17860902Y93737761D02*
X-17575188Y93642523D01*
X-15575188Y91928238D02*
X-15670426Y91833000D01*
X-15670426Y91833000D02*
X-15956140Y91737761D01*
X-15956140Y91737761D02*
X-16146616Y91737761D01*
X-16146616Y91737761D02*
X-16432331Y91833000D01*
X-16432331Y91833000D02*
X-16622807Y92023476D01*
X-16622807Y92023476D02*
X-16718045Y92213952D01*
X-16718045Y92213952D02*
X-16813283Y92594904D01*
X-16813283Y92594904D02*
X-16813283Y92880619D01*
X-16813283Y92880619D02*
X-16718045Y93261571D01*
X-16718045Y93261571D02*
X-16622807Y93452047D01*
X-16622807Y93452047D02*
X-16432331Y93642523D01*
X-16432331Y93642523D02*
X-16146616Y93737761D01*
X-16146616Y93737761D02*
X-15956140Y93737761D01*
X-15956140Y93737761D02*
X-15670426Y93642523D01*
X-15670426Y93642523D02*
X-15575188Y93547285D01*
X-14337093Y93737761D02*
X-13956140Y93737761D01*
X-13956140Y93737761D02*
X-13765664Y93642523D01*
X-13765664Y93642523D02*
X-13575188Y93452047D01*
X-13575188Y93452047D02*
X-13479950Y93071095D01*
X-13479950Y93071095D02*
X-13479950Y92404428D01*
X-13479950Y92404428D02*
X-13575188Y92023476D01*
X-13575188Y92023476D02*
X-13765664Y91833000D01*
X-13765664Y91833000D02*
X-13956140Y91737761D01*
X-13956140Y91737761D02*
X-14337093Y91737761D01*
X-14337093Y91737761D02*
X-14527569Y91833000D01*
X-14527569Y91833000D02*
X-14718045Y92023476D01*
X-14718045Y92023476D02*
X-14813283Y92404428D01*
X-14813283Y92404428D02*
X-14813283Y93071095D01*
X-14813283Y93071095D02*
X-14718045Y93452047D01*
X-14718045Y93452047D02*
X-14527569Y93642523D01*
X-14527569Y93642523D02*
X-14337093Y93737761D01*
X-11479950Y91737761D02*
X-12146617Y92690142D01*
X-12622807Y91737761D02*
X-12622807Y93737761D01*
X-12622807Y93737761D02*
X-11860902Y93737761D01*
X-11860902Y93737761D02*
X-11670426Y93642523D01*
X-11670426Y93642523D02*
X-11575188Y93547285D01*
X-11575188Y93547285D02*
X-11479950Y93356809D01*
X-11479950Y93356809D02*
X-11479950Y93071095D01*
X-11479950Y93071095D02*
X-11575188Y92880619D01*
X-11575188Y92880619D02*
X-11670426Y92785380D01*
X-11670426Y92785380D02*
X-11860902Y92690142D01*
X-11860902Y92690142D02*
X-12622807Y92690142D01*
X-10622807Y92785380D02*
X-9956140Y92785380D01*
X-9670426Y91737761D02*
X-10622807Y91737761D01*
X-10622807Y91737761D02*
X-10622807Y93737761D01*
X-10622807Y93737761D02*
X-9670426Y93737761D01*
D13*
X-7125000Y92650000D02*
X154405000Y92650000D01*
D12*
X-23098997Y106937761D02*
X-22432331Y104937761D01*
X-22432331Y104937761D02*
X-21765664Y106937761D01*
X-21098997Y105699666D02*
X-19575187Y105699666D01*
X-18718045Y105033000D02*
X-18432331Y104937761D01*
X-18432331Y104937761D02*
X-17956140Y104937761D01*
X-17956140Y104937761D02*
X-17765664Y105033000D01*
X-17765664Y105033000D02*
X-17670426Y105128238D01*
X-17670426Y105128238D02*
X-17575188Y105318714D01*
X-17575188Y105318714D02*
X-17575188Y105509190D01*
X-17575188Y105509190D02*
X-17670426Y105699666D01*
X-17670426Y105699666D02*
X-17765664Y105794904D01*
X-17765664Y105794904D02*
X-17956140Y105890142D01*
X-17956140Y105890142D02*
X-18337093Y105985380D01*
X-18337093Y105985380D02*
X-18527569Y106080619D01*
X-18527569Y106080619D02*
X-18622807Y106175857D01*
X-18622807Y106175857D02*
X-18718045Y106366333D01*
X-18718045Y106366333D02*
X-18718045Y106556809D01*
X-18718045Y106556809D02*
X-18622807Y106747285D01*
X-18622807Y106747285D02*
X-18527569Y106842523D01*
X-18527569Y106842523D02*
X-18337093Y106937761D01*
X-18337093Y106937761D02*
X-17860902Y106937761D01*
X-17860902Y106937761D02*
X-17575188Y106842523D01*
X-15575188Y105128238D02*
X-15670426Y105033000D01*
X-15670426Y105033000D02*
X-15956140Y104937761D01*
X-15956140Y104937761D02*
X-16146616Y104937761D01*
X-16146616Y104937761D02*
X-16432331Y105033000D01*
X-16432331Y105033000D02*
X-16622807Y105223476D01*
X-16622807Y105223476D02*
X-16718045Y105413952D01*
X-16718045Y105413952D02*
X-16813283Y105794904D01*
X-16813283Y105794904D02*
X-16813283Y106080619D01*
X-16813283Y106080619D02*
X-16718045Y106461571D01*
X-16718045Y106461571D02*
X-16622807Y106652047D01*
X-16622807Y106652047D02*
X-16432331Y106842523D01*
X-16432331Y106842523D02*
X-16146616Y106937761D01*
X-16146616Y106937761D02*
X-15956140Y106937761D01*
X-15956140Y106937761D02*
X-15670426Y106842523D01*
X-15670426Y106842523D02*
X-15575188Y106747285D01*
X-14337093Y106937761D02*
X-13956140Y106937761D01*
X-13956140Y106937761D02*
X-13765664Y106842523D01*
X-13765664Y106842523D02*
X-13575188Y106652047D01*
X-13575188Y106652047D02*
X-13479950Y106271095D01*
X-13479950Y106271095D02*
X-13479950Y105604428D01*
X-13479950Y105604428D02*
X-13575188Y105223476D01*
X-13575188Y105223476D02*
X-13765664Y105033000D01*
X-13765664Y105033000D02*
X-13956140Y104937761D01*
X-13956140Y104937761D02*
X-14337093Y104937761D01*
X-14337093Y104937761D02*
X-14527569Y105033000D01*
X-14527569Y105033000D02*
X-14718045Y105223476D01*
X-14718045Y105223476D02*
X-14813283Y105604428D01*
X-14813283Y105604428D02*
X-14813283Y106271095D01*
X-14813283Y106271095D02*
X-14718045Y106652047D01*
X-14718045Y106652047D02*
X-14527569Y106842523D01*
X-14527569Y106842523D02*
X-14337093Y106937761D01*
X-11479950Y104937761D02*
X-12146617Y105890142D01*
X-12622807Y104937761D02*
X-12622807Y106937761D01*
X-12622807Y106937761D02*
X-11860902Y106937761D01*
X-11860902Y106937761D02*
X-11670426Y106842523D01*
X-11670426Y106842523D02*
X-11575188Y106747285D01*
X-11575188Y106747285D02*
X-11479950Y106556809D01*
X-11479950Y106556809D02*
X-11479950Y106271095D01*
X-11479950Y106271095D02*
X-11575188Y106080619D01*
X-11575188Y106080619D02*
X-11670426Y105985380D01*
X-11670426Y105985380D02*
X-11860902Y105890142D01*
X-11860902Y105890142D02*
X-12622807Y105890142D01*
X-10622807Y105985380D02*
X-9956140Y105985380D01*
X-9670426Y104937761D02*
X-10622807Y104937761D01*
X-10622807Y104937761D02*
X-10622807Y106937761D01*
X-10622807Y106937761D02*
X-9670426Y106937761D01*
D13*
X-7125000Y105850000D02*
X154405000Y105850000D01*
D12*
X146442238Y115079949D02*
X148442238Y115746615D01*
X148442238Y115746615D02*
X146442238Y116413282D01*
X147680333Y117079949D02*
X147680333Y118603759D01*
X148347000Y119460901D02*
X148442238Y119746615D01*
X148442238Y119746615D02*
X148442238Y120222806D01*
X148442238Y120222806D02*
X148347000Y120413282D01*
X148347000Y120413282D02*
X148251761Y120508520D01*
X148251761Y120508520D02*
X148061285Y120603758D01*
X148061285Y120603758D02*
X147870809Y120603758D01*
X147870809Y120603758D02*
X147680333Y120508520D01*
X147680333Y120508520D02*
X147585095Y120413282D01*
X147585095Y120413282D02*
X147489857Y120222806D01*
X147489857Y120222806D02*
X147394619Y119841853D01*
X147394619Y119841853D02*
X147299380Y119651377D01*
X147299380Y119651377D02*
X147204142Y119556139D01*
X147204142Y119556139D02*
X147013666Y119460901D01*
X147013666Y119460901D02*
X146823190Y119460901D01*
X146823190Y119460901D02*
X146632714Y119556139D01*
X146632714Y119556139D02*
X146537476Y119651377D01*
X146537476Y119651377D02*
X146442238Y119841853D01*
X146442238Y119841853D02*
X146442238Y120318044D01*
X146442238Y120318044D02*
X146537476Y120603758D01*
X148251761Y122603758D02*
X148347000Y122508520D01*
X148347000Y122508520D02*
X148442238Y122222806D01*
X148442238Y122222806D02*
X148442238Y122032330D01*
X148442238Y122032330D02*
X148347000Y121746615D01*
X148347000Y121746615D02*
X148156523Y121556139D01*
X148156523Y121556139D02*
X147966047Y121460901D01*
X147966047Y121460901D02*
X147585095Y121365663D01*
X147585095Y121365663D02*
X147299380Y121365663D01*
X147299380Y121365663D02*
X146918428Y121460901D01*
X146918428Y121460901D02*
X146727952Y121556139D01*
X146727952Y121556139D02*
X146537476Y121746615D01*
X146537476Y121746615D02*
X146442238Y122032330D01*
X146442238Y122032330D02*
X146442238Y122222806D01*
X146442238Y122222806D02*
X146537476Y122508520D01*
X146537476Y122508520D02*
X146632714Y122603758D01*
X146442238Y123841853D02*
X146442238Y124222806D01*
X146442238Y124222806D02*
X146537476Y124413282D01*
X146537476Y124413282D02*
X146727952Y124603758D01*
X146727952Y124603758D02*
X147108904Y124698996D01*
X147108904Y124698996D02*
X147775571Y124698996D01*
X147775571Y124698996D02*
X148156523Y124603758D01*
X148156523Y124603758D02*
X148347000Y124413282D01*
X148347000Y124413282D02*
X148442238Y124222806D01*
X148442238Y124222806D02*
X148442238Y123841853D01*
X148442238Y123841853D02*
X148347000Y123651377D01*
X148347000Y123651377D02*
X148156523Y123460901D01*
X148156523Y123460901D02*
X147775571Y123365663D01*
X147775571Y123365663D02*
X147108904Y123365663D01*
X147108904Y123365663D02*
X146727952Y123460901D01*
X146727952Y123460901D02*
X146537476Y123651377D01*
X146537476Y123651377D02*
X146442238Y123841853D01*
X148442238Y126698996D02*
X147489857Y126032329D01*
X148442238Y125556139D02*
X146442238Y125556139D01*
X146442238Y125556139D02*
X146442238Y126318044D01*
X146442238Y126318044D02*
X146537476Y126508520D01*
X146537476Y126508520D02*
X146632714Y126603758D01*
X146632714Y126603758D02*
X146823190Y126698996D01*
X146823190Y126698996D02*
X147108904Y126698996D01*
X147108904Y126698996D02*
X147299380Y126603758D01*
X147299380Y126603758D02*
X147394619Y126508520D01*
X147394619Y126508520D02*
X147489857Y126318044D01*
X147489857Y126318044D02*
X147489857Y125556139D01*
X147394619Y127556139D02*
X147394619Y128222806D01*
X148442238Y128508520D02*
X148442238Y127556139D01*
X148442238Y127556139D02*
X146442238Y127556139D01*
X146442238Y127556139D02*
X146442238Y128508520D01*
D13*
X147530000Y112725000D02*
X147530000Y-19825000D01*
D12*
X121812238Y115079949D02*
X123812238Y115746615D01*
X123812238Y115746615D02*
X121812238Y116413282D01*
X123050333Y117079949D02*
X123050333Y118603759D01*
X123717000Y119460901D02*
X123812238Y119746615D01*
X123812238Y119746615D02*
X123812238Y120222806D01*
X123812238Y120222806D02*
X123717000Y120413282D01*
X123717000Y120413282D02*
X123621761Y120508520D01*
X123621761Y120508520D02*
X123431285Y120603758D01*
X123431285Y120603758D02*
X123240809Y120603758D01*
X123240809Y120603758D02*
X123050333Y120508520D01*
X123050333Y120508520D02*
X122955095Y120413282D01*
X122955095Y120413282D02*
X122859857Y120222806D01*
X122859857Y120222806D02*
X122764619Y119841853D01*
X122764619Y119841853D02*
X122669380Y119651377D01*
X122669380Y119651377D02*
X122574142Y119556139D01*
X122574142Y119556139D02*
X122383666Y119460901D01*
X122383666Y119460901D02*
X122193190Y119460901D01*
X122193190Y119460901D02*
X122002714Y119556139D01*
X122002714Y119556139D02*
X121907476Y119651377D01*
X121907476Y119651377D02*
X121812238Y119841853D01*
X121812238Y119841853D02*
X121812238Y120318044D01*
X121812238Y120318044D02*
X121907476Y120603758D01*
X123621761Y122603758D02*
X123717000Y122508520D01*
X123717000Y122508520D02*
X123812238Y122222806D01*
X123812238Y122222806D02*
X123812238Y122032330D01*
X123812238Y122032330D02*
X123717000Y121746615D01*
X123717000Y121746615D02*
X123526523Y121556139D01*
X123526523Y121556139D02*
X123336047Y121460901D01*
X123336047Y121460901D02*
X122955095Y121365663D01*
X122955095Y121365663D02*
X122669380Y121365663D01*
X122669380Y121365663D02*
X122288428Y121460901D01*
X122288428Y121460901D02*
X122097952Y121556139D01*
X122097952Y121556139D02*
X121907476Y121746615D01*
X121907476Y121746615D02*
X121812238Y122032330D01*
X121812238Y122032330D02*
X121812238Y122222806D01*
X121812238Y122222806D02*
X121907476Y122508520D01*
X121907476Y122508520D02*
X122002714Y122603758D01*
X121812238Y123841853D02*
X121812238Y124222806D01*
X121812238Y124222806D02*
X121907476Y124413282D01*
X121907476Y124413282D02*
X122097952Y124603758D01*
X122097952Y124603758D02*
X122478904Y124698996D01*
X122478904Y124698996D02*
X123145571Y124698996D01*
X123145571Y124698996D02*
X123526523Y124603758D01*
X123526523Y124603758D02*
X123717000Y124413282D01*
X123717000Y124413282D02*
X123812238Y124222806D01*
X123812238Y124222806D02*
X123812238Y123841853D01*
X123812238Y123841853D02*
X123717000Y123651377D01*
X123717000Y123651377D02*
X123526523Y123460901D01*
X123526523Y123460901D02*
X123145571Y123365663D01*
X123145571Y123365663D02*
X122478904Y123365663D01*
X122478904Y123365663D02*
X122097952Y123460901D01*
X122097952Y123460901D02*
X121907476Y123651377D01*
X121907476Y123651377D02*
X121812238Y123841853D01*
X123812238Y126698996D02*
X122859857Y126032329D01*
X123812238Y125556139D02*
X121812238Y125556139D01*
X121812238Y125556139D02*
X121812238Y126318044D01*
X121812238Y126318044D02*
X121907476Y126508520D01*
X121907476Y126508520D02*
X122002714Y126603758D01*
X122002714Y126603758D02*
X122193190Y126698996D01*
X122193190Y126698996D02*
X122478904Y126698996D01*
X122478904Y126698996D02*
X122669380Y126603758D01*
X122669380Y126603758D02*
X122764619Y126508520D01*
X122764619Y126508520D02*
X122859857Y126318044D01*
X122859857Y126318044D02*
X122859857Y125556139D01*
X122764619Y127556139D02*
X122764619Y128222806D01*
X123812238Y128508520D02*
X123812238Y127556139D01*
X123812238Y127556139D02*
X121812238Y127556139D01*
X121812238Y127556139D02*
X121812238Y128508520D01*
D13*
X122900000Y112725000D02*
X122900000Y-19825000D01*
D12*
X97182238Y115079949D02*
X99182238Y115746615D01*
X99182238Y115746615D02*
X97182238Y116413282D01*
X98420333Y117079949D02*
X98420333Y118603759D01*
X99087000Y119460901D02*
X99182238Y119746615D01*
X99182238Y119746615D02*
X99182238Y120222806D01*
X99182238Y120222806D02*
X99087000Y120413282D01*
X99087000Y120413282D02*
X98991761Y120508520D01*
X98991761Y120508520D02*
X98801285Y120603758D01*
X98801285Y120603758D02*
X98610809Y120603758D01*
X98610809Y120603758D02*
X98420333Y120508520D01*
X98420333Y120508520D02*
X98325095Y120413282D01*
X98325095Y120413282D02*
X98229857Y120222806D01*
X98229857Y120222806D02*
X98134619Y119841853D01*
X98134619Y119841853D02*
X98039380Y119651377D01*
X98039380Y119651377D02*
X97944142Y119556139D01*
X97944142Y119556139D02*
X97753666Y119460901D01*
X97753666Y119460901D02*
X97563190Y119460901D01*
X97563190Y119460901D02*
X97372714Y119556139D01*
X97372714Y119556139D02*
X97277476Y119651377D01*
X97277476Y119651377D02*
X97182238Y119841853D01*
X97182238Y119841853D02*
X97182238Y120318044D01*
X97182238Y120318044D02*
X97277476Y120603758D01*
X98991761Y122603758D02*
X99087000Y122508520D01*
X99087000Y122508520D02*
X99182238Y122222806D01*
X99182238Y122222806D02*
X99182238Y122032330D01*
X99182238Y122032330D02*
X99087000Y121746615D01*
X99087000Y121746615D02*
X98896523Y121556139D01*
X98896523Y121556139D02*
X98706047Y121460901D01*
X98706047Y121460901D02*
X98325095Y121365663D01*
X98325095Y121365663D02*
X98039380Y121365663D01*
X98039380Y121365663D02*
X97658428Y121460901D01*
X97658428Y121460901D02*
X97467952Y121556139D01*
X97467952Y121556139D02*
X97277476Y121746615D01*
X97277476Y121746615D02*
X97182238Y122032330D01*
X97182238Y122032330D02*
X97182238Y122222806D01*
X97182238Y122222806D02*
X97277476Y122508520D01*
X97277476Y122508520D02*
X97372714Y122603758D01*
X97182238Y123841853D02*
X97182238Y124222806D01*
X97182238Y124222806D02*
X97277476Y124413282D01*
X97277476Y124413282D02*
X97467952Y124603758D01*
X97467952Y124603758D02*
X97848904Y124698996D01*
X97848904Y124698996D02*
X98515571Y124698996D01*
X98515571Y124698996D02*
X98896523Y124603758D01*
X98896523Y124603758D02*
X99087000Y124413282D01*
X99087000Y124413282D02*
X99182238Y124222806D01*
X99182238Y124222806D02*
X99182238Y123841853D01*
X99182238Y123841853D02*
X99087000Y123651377D01*
X99087000Y123651377D02*
X98896523Y123460901D01*
X98896523Y123460901D02*
X98515571Y123365663D01*
X98515571Y123365663D02*
X97848904Y123365663D01*
X97848904Y123365663D02*
X97467952Y123460901D01*
X97467952Y123460901D02*
X97277476Y123651377D01*
X97277476Y123651377D02*
X97182238Y123841853D01*
X99182238Y126698996D02*
X98229857Y126032329D01*
X99182238Y125556139D02*
X97182238Y125556139D01*
X97182238Y125556139D02*
X97182238Y126318044D01*
X97182238Y126318044D02*
X97277476Y126508520D01*
X97277476Y126508520D02*
X97372714Y126603758D01*
X97372714Y126603758D02*
X97563190Y126698996D01*
X97563190Y126698996D02*
X97848904Y126698996D01*
X97848904Y126698996D02*
X98039380Y126603758D01*
X98039380Y126603758D02*
X98134619Y126508520D01*
X98134619Y126508520D02*
X98229857Y126318044D01*
X98229857Y126318044D02*
X98229857Y125556139D01*
X98134619Y127556139D02*
X98134619Y128222806D01*
X99182238Y128508520D02*
X99182238Y127556139D01*
X99182238Y127556139D02*
X97182238Y127556139D01*
X97182238Y127556139D02*
X97182238Y128508520D01*
D13*
X98270000Y112725000D02*
X98270000Y-19825000D01*
D12*
X72552238Y115079949D02*
X74552238Y115746615D01*
X74552238Y115746615D02*
X72552238Y116413282D01*
X73790333Y117079949D02*
X73790333Y118603759D01*
X74457000Y119460901D02*
X74552238Y119746615D01*
X74552238Y119746615D02*
X74552238Y120222806D01*
X74552238Y120222806D02*
X74457000Y120413282D01*
X74457000Y120413282D02*
X74361761Y120508520D01*
X74361761Y120508520D02*
X74171285Y120603758D01*
X74171285Y120603758D02*
X73980809Y120603758D01*
X73980809Y120603758D02*
X73790333Y120508520D01*
X73790333Y120508520D02*
X73695095Y120413282D01*
X73695095Y120413282D02*
X73599857Y120222806D01*
X73599857Y120222806D02*
X73504619Y119841853D01*
X73504619Y119841853D02*
X73409380Y119651377D01*
X73409380Y119651377D02*
X73314142Y119556139D01*
X73314142Y119556139D02*
X73123666Y119460901D01*
X73123666Y119460901D02*
X72933190Y119460901D01*
X72933190Y119460901D02*
X72742714Y119556139D01*
X72742714Y119556139D02*
X72647476Y119651377D01*
X72647476Y119651377D02*
X72552238Y119841853D01*
X72552238Y119841853D02*
X72552238Y120318044D01*
X72552238Y120318044D02*
X72647476Y120603758D01*
X74361761Y122603758D02*
X74457000Y122508520D01*
X74457000Y122508520D02*
X74552238Y122222806D01*
X74552238Y122222806D02*
X74552238Y122032330D01*
X74552238Y122032330D02*
X74457000Y121746615D01*
X74457000Y121746615D02*
X74266523Y121556139D01*
X74266523Y121556139D02*
X74076047Y121460901D01*
X74076047Y121460901D02*
X73695095Y121365663D01*
X73695095Y121365663D02*
X73409380Y121365663D01*
X73409380Y121365663D02*
X73028428Y121460901D01*
X73028428Y121460901D02*
X72837952Y121556139D01*
X72837952Y121556139D02*
X72647476Y121746615D01*
X72647476Y121746615D02*
X72552238Y122032330D01*
X72552238Y122032330D02*
X72552238Y122222806D01*
X72552238Y122222806D02*
X72647476Y122508520D01*
X72647476Y122508520D02*
X72742714Y122603758D01*
X72552238Y123841853D02*
X72552238Y124222806D01*
X72552238Y124222806D02*
X72647476Y124413282D01*
X72647476Y124413282D02*
X72837952Y124603758D01*
X72837952Y124603758D02*
X73218904Y124698996D01*
X73218904Y124698996D02*
X73885571Y124698996D01*
X73885571Y124698996D02*
X74266523Y124603758D01*
X74266523Y124603758D02*
X74457000Y124413282D01*
X74457000Y124413282D02*
X74552238Y124222806D01*
X74552238Y124222806D02*
X74552238Y123841853D01*
X74552238Y123841853D02*
X74457000Y123651377D01*
X74457000Y123651377D02*
X74266523Y123460901D01*
X74266523Y123460901D02*
X73885571Y123365663D01*
X73885571Y123365663D02*
X73218904Y123365663D01*
X73218904Y123365663D02*
X72837952Y123460901D01*
X72837952Y123460901D02*
X72647476Y123651377D01*
X72647476Y123651377D02*
X72552238Y123841853D01*
X74552238Y126698996D02*
X73599857Y126032329D01*
X74552238Y125556139D02*
X72552238Y125556139D01*
X72552238Y125556139D02*
X72552238Y126318044D01*
X72552238Y126318044D02*
X72647476Y126508520D01*
X72647476Y126508520D02*
X72742714Y126603758D01*
X72742714Y126603758D02*
X72933190Y126698996D01*
X72933190Y126698996D02*
X73218904Y126698996D01*
X73218904Y126698996D02*
X73409380Y126603758D01*
X73409380Y126603758D02*
X73504619Y126508520D01*
X73504619Y126508520D02*
X73599857Y126318044D01*
X73599857Y126318044D02*
X73599857Y125556139D01*
X73504619Y127556139D02*
X73504619Y128222806D01*
X74552238Y128508520D02*
X74552238Y127556139D01*
X74552238Y127556139D02*
X72552238Y127556139D01*
X72552238Y127556139D02*
X72552238Y128508520D01*
D13*
X73640000Y112725000D02*
X73640000Y-19825000D01*
D12*
X47922238Y115079949D02*
X49922238Y115746615D01*
X49922238Y115746615D02*
X47922238Y116413282D01*
X49160333Y117079949D02*
X49160333Y118603759D01*
X49827000Y119460901D02*
X49922238Y119746615D01*
X49922238Y119746615D02*
X49922238Y120222806D01*
X49922238Y120222806D02*
X49827000Y120413282D01*
X49827000Y120413282D02*
X49731761Y120508520D01*
X49731761Y120508520D02*
X49541285Y120603758D01*
X49541285Y120603758D02*
X49350809Y120603758D01*
X49350809Y120603758D02*
X49160333Y120508520D01*
X49160333Y120508520D02*
X49065095Y120413282D01*
X49065095Y120413282D02*
X48969857Y120222806D01*
X48969857Y120222806D02*
X48874619Y119841853D01*
X48874619Y119841853D02*
X48779380Y119651377D01*
X48779380Y119651377D02*
X48684142Y119556139D01*
X48684142Y119556139D02*
X48493666Y119460901D01*
X48493666Y119460901D02*
X48303190Y119460901D01*
X48303190Y119460901D02*
X48112714Y119556139D01*
X48112714Y119556139D02*
X48017476Y119651377D01*
X48017476Y119651377D02*
X47922238Y119841853D01*
X47922238Y119841853D02*
X47922238Y120318044D01*
X47922238Y120318044D02*
X48017476Y120603758D01*
X49731761Y122603758D02*
X49827000Y122508520D01*
X49827000Y122508520D02*
X49922238Y122222806D01*
X49922238Y122222806D02*
X49922238Y122032330D01*
X49922238Y122032330D02*
X49827000Y121746615D01*
X49827000Y121746615D02*
X49636523Y121556139D01*
X49636523Y121556139D02*
X49446047Y121460901D01*
X49446047Y121460901D02*
X49065095Y121365663D01*
X49065095Y121365663D02*
X48779380Y121365663D01*
X48779380Y121365663D02*
X48398428Y121460901D01*
X48398428Y121460901D02*
X48207952Y121556139D01*
X48207952Y121556139D02*
X48017476Y121746615D01*
X48017476Y121746615D02*
X47922238Y122032330D01*
X47922238Y122032330D02*
X47922238Y122222806D01*
X47922238Y122222806D02*
X48017476Y122508520D01*
X48017476Y122508520D02*
X48112714Y122603758D01*
X47922238Y123841853D02*
X47922238Y124222806D01*
X47922238Y124222806D02*
X48017476Y124413282D01*
X48017476Y124413282D02*
X48207952Y124603758D01*
X48207952Y124603758D02*
X48588904Y124698996D01*
X48588904Y124698996D02*
X49255571Y124698996D01*
X49255571Y124698996D02*
X49636523Y124603758D01*
X49636523Y124603758D02*
X49827000Y124413282D01*
X49827000Y124413282D02*
X49922238Y124222806D01*
X49922238Y124222806D02*
X49922238Y123841853D01*
X49922238Y123841853D02*
X49827000Y123651377D01*
X49827000Y123651377D02*
X49636523Y123460901D01*
X49636523Y123460901D02*
X49255571Y123365663D01*
X49255571Y123365663D02*
X48588904Y123365663D01*
X48588904Y123365663D02*
X48207952Y123460901D01*
X48207952Y123460901D02*
X48017476Y123651377D01*
X48017476Y123651377D02*
X47922238Y123841853D01*
X49922238Y126698996D02*
X48969857Y126032329D01*
X49922238Y125556139D02*
X47922238Y125556139D01*
X47922238Y125556139D02*
X47922238Y126318044D01*
X47922238Y126318044D02*
X48017476Y126508520D01*
X48017476Y126508520D02*
X48112714Y126603758D01*
X48112714Y126603758D02*
X48303190Y126698996D01*
X48303190Y126698996D02*
X48588904Y126698996D01*
X48588904Y126698996D02*
X48779380Y126603758D01*
X48779380Y126603758D02*
X48874619Y126508520D01*
X48874619Y126508520D02*
X48969857Y126318044D01*
X48969857Y126318044D02*
X48969857Y125556139D01*
X48874619Y127556139D02*
X48874619Y128222806D01*
X49922238Y128508520D02*
X49922238Y127556139D01*
X49922238Y127556139D02*
X47922238Y127556139D01*
X47922238Y127556139D02*
X47922238Y128508520D01*
D13*
X49010000Y112725000D02*
X49010000Y-19825000D01*
D12*
X23292238Y115079949D02*
X25292238Y115746615D01*
X25292238Y115746615D02*
X23292238Y116413282D01*
X24530333Y117079949D02*
X24530333Y118603759D01*
X25197000Y119460901D02*
X25292238Y119746615D01*
X25292238Y119746615D02*
X25292238Y120222806D01*
X25292238Y120222806D02*
X25197000Y120413282D01*
X25197000Y120413282D02*
X25101761Y120508520D01*
X25101761Y120508520D02*
X24911285Y120603758D01*
X24911285Y120603758D02*
X24720809Y120603758D01*
X24720809Y120603758D02*
X24530333Y120508520D01*
X24530333Y120508520D02*
X24435095Y120413282D01*
X24435095Y120413282D02*
X24339857Y120222806D01*
X24339857Y120222806D02*
X24244619Y119841853D01*
X24244619Y119841853D02*
X24149380Y119651377D01*
X24149380Y119651377D02*
X24054142Y119556139D01*
X24054142Y119556139D02*
X23863666Y119460901D01*
X23863666Y119460901D02*
X23673190Y119460901D01*
X23673190Y119460901D02*
X23482714Y119556139D01*
X23482714Y119556139D02*
X23387476Y119651377D01*
X23387476Y119651377D02*
X23292238Y119841853D01*
X23292238Y119841853D02*
X23292238Y120318044D01*
X23292238Y120318044D02*
X23387476Y120603758D01*
X25101761Y122603758D02*
X25197000Y122508520D01*
X25197000Y122508520D02*
X25292238Y122222806D01*
X25292238Y122222806D02*
X25292238Y122032330D01*
X25292238Y122032330D02*
X25197000Y121746615D01*
X25197000Y121746615D02*
X25006523Y121556139D01*
X25006523Y121556139D02*
X24816047Y121460901D01*
X24816047Y121460901D02*
X24435095Y121365663D01*
X24435095Y121365663D02*
X24149380Y121365663D01*
X24149380Y121365663D02*
X23768428Y121460901D01*
X23768428Y121460901D02*
X23577952Y121556139D01*
X23577952Y121556139D02*
X23387476Y121746615D01*
X23387476Y121746615D02*
X23292238Y122032330D01*
X23292238Y122032330D02*
X23292238Y122222806D01*
X23292238Y122222806D02*
X23387476Y122508520D01*
X23387476Y122508520D02*
X23482714Y122603758D01*
X23292238Y123841853D02*
X23292238Y124222806D01*
X23292238Y124222806D02*
X23387476Y124413282D01*
X23387476Y124413282D02*
X23577952Y124603758D01*
X23577952Y124603758D02*
X23958904Y124698996D01*
X23958904Y124698996D02*
X24625571Y124698996D01*
X24625571Y124698996D02*
X25006523Y124603758D01*
X25006523Y124603758D02*
X25197000Y124413282D01*
X25197000Y124413282D02*
X25292238Y124222806D01*
X25292238Y124222806D02*
X25292238Y123841853D01*
X25292238Y123841853D02*
X25197000Y123651377D01*
X25197000Y123651377D02*
X25006523Y123460901D01*
X25006523Y123460901D02*
X24625571Y123365663D01*
X24625571Y123365663D02*
X23958904Y123365663D01*
X23958904Y123365663D02*
X23577952Y123460901D01*
X23577952Y123460901D02*
X23387476Y123651377D01*
X23387476Y123651377D02*
X23292238Y123841853D01*
X25292238Y126698996D02*
X24339857Y126032329D01*
X25292238Y125556139D02*
X23292238Y125556139D01*
X23292238Y125556139D02*
X23292238Y126318044D01*
X23292238Y126318044D02*
X23387476Y126508520D01*
X23387476Y126508520D02*
X23482714Y126603758D01*
X23482714Y126603758D02*
X23673190Y126698996D01*
X23673190Y126698996D02*
X23958904Y126698996D01*
X23958904Y126698996D02*
X24149380Y126603758D01*
X24149380Y126603758D02*
X24244619Y126508520D01*
X24244619Y126508520D02*
X24339857Y126318044D01*
X24339857Y126318044D02*
X24339857Y125556139D01*
X24244619Y127556139D02*
X24244619Y128222806D01*
X25292238Y128508520D02*
X25292238Y127556139D01*
X25292238Y127556139D02*
X23292238Y127556139D01*
X23292238Y127556139D02*
X23292238Y128508520D01*
D13*
X24380000Y112725000D02*
X24380000Y-19825000D01*
D12*
X-1337762Y115079949D02*
X662238Y115746615D01*
X662238Y115746615D02*
X-1337762Y116413282D01*
X-99667Y117079949D02*
X-99667Y118603759D01*
X567000Y119460901D02*
X662238Y119746615D01*
X662238Y119746615D02*
X662238Y120222806D01*
X662238Y120222806D02*
X567000Y120413282D01*
X567000Y120413282D02*
X471761Y120508520D01*
X471761Y120508520D02*
X281285Y120603758D01*
X281285Y120603758D02*
X90809Y120603758D01*
X90809Y120603758D02*
X-99667Y120508520D01*
X-99667Y120508520D02*
X-194905Y120413282D01*
X-194905Y120413282D02*
X-290143Y120222806D01*
X-290143Y120222806D02*
X-385381Y119841853D01*
X-385381Y119841853D02*
X-480620Y119651377D01*
X-480620Y119651377D02*
X-575858Y119556139D01*
X-575858Y119556139D02*
X-766334Y119460901D01*
X-766334Y119460901D02*
X-956810Y119460901D01*
X-956810Y119460901D02*
X-1147286Y119556139D01*
X-1147286Y119556139D02*
X-1242524Y119651377D01*
X-1242524Y119651377D02*
X-1337762Y119841853D01*
X-1337762Y119841853D02*
X-1337762Y120318044D01*
X-1337762Y120318044D02*
X-1242524Y120603758D01*
X471761Y122603758D02*
X567000Y122508520D01*
X567000Y122508520D02*
X662238Y122222806D01*
X662238Y122222806D02*
X662238Y122032330D01*
X662238Y122032330D02*
X567000Y121746615D01*
X567000Y121746615D02*
X376523Y121556139D01*
X376523Y121556139D02*
X186047Y121460901D01*
X186047Y121460901D02*
X-194905Y121365663D01*
X-194905Y121365663D02*
X-480620Y121365663D01*
X-480620Y121365663D02*
X-861572Y121460901D01*
X-861572Y121460901D02*
X-1052048Y121556139D01*
X-1052048Y121556139D02*
X-1242524Y121746615D01*
X-1242524Y121746615D02*
X-1337762Y122032330D01*
X-1337762Y122032330D02*
X-1337762Y122222806D01*
X-1337762Y122222806D02*
X-1242524Y122508520D01*
X-1242524Y122508520D02*
X-1147286Y122603758D01*
X-1337762Y123841853D02*
X-1337762Y124222806D01*
X-1337762Y124222806D02*
X-1242524Y124413282D01*
X-1242524Y124413282D02*
X-1052048Y124603758D01*
X-1052048Y124603758D02*
X-671096Y124698996D01*
X-671096Y124698996D02*
X-4429Y124698996D01*
X-4429Y124698996D02*
X376523Y124603758D01*
X376523Y124603758D02*
X567000Y124413282D01*
X567000Y124413282D02*
X662238Y124222806D01*
X662238Y124222806D02*
X662238Y123841853D01*
X662238Y123841853D02*
X567000Y123651377D01*
X567000Y123651377D02*
X376523Y123460901D01*
X376523Y123460901D02*
X-4429Y123365663D01*
X-4429Y123365663D02*
X-671096Y123365663D01*
X-671096Y123365663D02*
X-1052048Y123460901D01*
X-1052048Y123460901D02*
X-1242524Y123651377D01*
X-1242524Y123651377D02*
X-1337762Y123841853D01*
X662238Y126698996D02*
X-290143Y126032329D01*
X662238Y125556139D02*
X-1337762Y125556139D01*
X-1337762Y125556139D02*
X-1337762Y126318044D01*
X-1337762Y126318044D02*
X-1242524Y126508520D01*
X-1242524Y126508520D02*
X-1147286Y126603758D01*
X-1147286Y126603758D02*
X-956810Y126698996D01*
X-956810Y126698996D02*
X-671096Y126698996D01*
X-671096Y126698996D02*
X-480620Y126603758D01*
X-480620Y126603758D02*
X-385381Y126508520D01*
X-385381Y126508520D02*
X-290143Y126318044D01*
X-290143Y126318044D02*
X-290143Y125556139D01*
X-385381Y127556139D02*
X-385381Y128222806D01*
X662238Y128508520D02*
X662238Y127556139D01*
X662238Y127556139D02*
X-1337762Y127556139D01*
X-1337762Y127556139D02*
X-1337762Y128508520D01*
D13*
X-250000Y112725000D02*
X-250000Y-19825000D01*
M02*
